<svg xmlns="http://www.w3.org/2000/svg" width="24" height="24" fill="none"  xmlns:v="https://vecta.io/nano"><g clip-path="url(#A)"><g stroke="#e4181a" stroke-width="2" stroke-miterlimit="10"><path d="M1.243 18.953l8.909-16.842c.178-.336.444-.618.77-.814s.699-.3 1.08-.3.754.104 1.08.3a2.09 2.09 0 0 1 .77.814l8.909 16.842a2.08 2.08 0 0 1-.063 2.048 2.08 2.08 0 0 1-1.79.999H3.092a2.08 2.08 0 0 1-1.786-1 2.08 2.08 0 0 1-.063-2.047h0z"/><path d="M12 8v6" stroke-linecap="square"/></g><path d="M12 19a1.5 1.5 0 1 0 0-3 1.5 1.5 0 1 0 0 3z" fill="#e4181a"/></g><defs><clipPath id="A"><path fill="#fff" d="M0 0h24v24H0z"/></clipPath></defs></svg>