<svg width="32" height="32" viewBox="0 0 32 32" fill="none" xmlns="http://www.w3.org/2000/svg">
<path d="M18 2C21.1826 2 24.2348 3.26428 26.4853 5.51472C28.7357 7.76516 30 10.8174 30 14" stroke="#FF6005" stroke-width="2" stroke-miterlimit="10" stroke-linecap="square"/>
<path d="M24 14C24 12.4087 23.3679 10.8826 22.2426 9.75736C21.1174 8.63214 19.5913 8 18 8" stroke="#FF6005" stroke-width="2" stroke-miterlimit="10" stroke-linecap="square"/>
<path d="M20.6934 19.2931L18.4114 22.1461C14.8771 20.0688 11.9317 17.1234 9.8544 13.5891L12.7074 11.3071C13.0416 11.0394 13.2778 10.6685 13.3791 10.2525C13.4804 9.83641 13.4411 9.3985 13.2674 9.0071L10.6674 3.1521C10.481 2.73207 10.1514 2.39191 9.73748 2.19228C9.32355 1.99264 8.85218 1.94651 8.4074 2.0621L3.4574 3.3461C2.99544 3.46672 2.59378 3.75262 2.32855 4.14963C2.06332 4.54664 1.95297 5.02716 2.0184 5.5001C2.88705 11.6859 5.74593 17.4207 10.1629 21.8377C14.5798 26.2546 20.3146 29.1135 26.5004 29.9821C26.9732 30.0473 27.4535 29.9368 27.8503 29.6716C28.2471 29.4064 28.5328 29.0049 28.6534 28.5431L29.9374 23.5931C30.0525 23.1487 30.0063 22.6779 29.8069 22.2645C29.6075 21.851 29.2678 21.5217 28.8484 21.3351L22.9934 18.7351C22.6022 18.5612 22.1645 18.5216 21.7484 18.6225C21.3323 18.7234 20.9614 18.9592 20.6934 19.2931V19.2931Z" stroke="#FF6005" stroke-width="2" stroke-miterlimit="10" stroke-linecap="square"/>
</svg>
