<svg width="268" height="72" viewBox="0 0 268 72" fill="none" xmlns="http://www.w3.org/2000/svg">
<path d="M154.018 13.6227C153.487 12.5181 152.75 11.659 151.359 11.3318V10.7181C152.218 10.7181 154.959 10.8 155.614 10.8C156.228 10.8 158.682 10.7181 159.541 10.7181V11.4136C158.764 11.5772 157.905 12.0272 157.905 12.7636C157.905 13.3772 158.232 14.0318 158.928 15.5045L165.064 29.4136L170.873 15.5045C171.282 14.4 171.65 13.5409 171.65 12.8454C171.65 12.0681 170.955 11.5772 170.014 11.4136V10.7181C170.791 10.7181 172.673 10.8 173.246 10.8C173.778 10.8 175.987 10.7181 176.846 10.7181V11.4136C175.414 11.8227 174.555 12.6 173.696 14.4818L165.187 34.5272H163.387L154.018 13.6227Z" fill="black"/>
<path d="M71.627 33.6681C72.7315 33.4226 73.5088 32.8908 73.5088 31.6227V13.3772C73.5088 12.1908 72.7315 11.659 71.627 11.3317V10.6363C72.2406 10.6363 74.6951 10.7181 75.3088 10.7181C76.0042 10.7181 78.6224 10.6363 79.236 10.6363V11.3317C78.1315 11.5772 77.2724 12.109 77.2724 13.3772V21.0681H90.936V13.3772C90.936 12.109 90.2406 11.5772 89.0542 11.3317V10.6363C89.6679 10.6363 92.2042 10.7181 92.9815 10.7181C93.5951 10.7181 96.1315 10.6363 96.7451 10.6363V11.3317C95.6406 11.5772 94.7815 12.109 94.7815 13.3772V31.7045C94.7815 32.8908 95.5588 33.4227 96.7451 33.7499V34.3636C96.1315 34.3636 93.5951 34.2817 92.9815 34.2817C92.286 34.2817 89.6679 34.3636 89.0542 34.3636V33.7499C90.1588 33.5045 90.936 32.9727 90.936 31.7045V22.9908H77.2724V31.7045C77.2724 32.9727 78.0497 33.4227 79.236 33.7499V34.3636C78.6224 34.3636 76.0042 34.2817 75.3088 34.2817C74.6951 34.2817 72.1588 34.3636 71.627 34.3636V33.6681ZM100.468 33.6681C101.9 33.3408 102.759 32.3999 103.372 31.009L110.981 12.8454C111.309 12.0681 111.677 10.5545 111.677 10.5545H113.804C113.804 10.5545 114.132 12.109 114.5 12.8454L122.518 31.0908C123.132 32.359 123.704 33.2181 125.341 33.6681V34.2817C124.482 34.2817 121.741 34.1999 121.168 34.1999C120.595 34.1999 118.018 34.2817 117.159 34.2817V33.6681C118.345 33.4226 118.713 32.809 118.713 32.2363C118.713 31.7045 118.55 31.2136 118.304 30.5999L116.586 26.7545H107.709L106.154 30.6817C105.991 31.0908 105.745 31.7863 105.745 32.2363C105.745 32.9317 106.072 33.4227 107.463 33.7908V34.4045C106.686 34.4045 104.641 34.3227 104.15 34.3227L100.754 34.4045L100.468 33.6681ZM115.563 24.8727L111.8 16.0772L108.322 24.8727H115.563ZM100.468 33.6681C101.9 33.3408 102.759 32.3999 103.372 31.009L110.981 12.8454C111.309 12.0681 111.677 10.5545 111.677 10.5545H113.804C113.804 10.5545 114.132 12.109 114.5 12.8454L122.518 31.0908C123.132 32.359 123.704 33.2181 125.341 33.6681V34.2817C124.482 34.2817 121.741 34.1999 121.168 34.1999C120.595 34.1999 118.018 34.2817 117.159 34.2817V33.6681C118.345 33.4226 118.713 32.809 118.713 32.2363C118.713 31.7045 118.55 31.2136 118.304 30.5999L116.586 26.7545H107.709L106.154 30.6817C105.991 31.0908 105.745 31.7863 105.745 32.2363C105.745 32.9317 106.072 33.4227 107.463 33.7908V34.4045C106.686 34.4045 104.641 34.3227 104.15 34.3227L100.754 34.4045L100.468 33.6681ZM115.563 24.8727L111.8 16.0772L108.322 24.8727H115.563ZM175.413 33.6681C176.845 33.3408 177.704 32.3999 178.236 31.009L185.845 12.8454C186.172 12.0681 186.541 10.5545 186.541 10.5545H188.668C188.668 10.5545 188.995 12.109 189.363 12.8454L197.382 31.0908C197.995 32.359 198.568 33.2181 200.204 33.6681V34.2817C199.345 34.2817 196.604 34.1999 196.031 34.1999C195.459 34.1999 192.882 34.2817 192.022 34.2817V33.6681C193.209 33.4226 193.577 32.809 193.577 32.2363C193.577 31.7045 193.413 31.2136 193.168 30.5999L191.45 26.7545H182.572L181.018 30.6817C180.854 31.0908 180.609 31.7863 180.609 32.2363C180.609 32.9317 180.936 33.4227 182.245 33.7908V34.4045C181.468 34.4045 179.422 34.3227 179.013 34.3227L175.536 34.4045V33.6681H175.413ZM190.427 24.8727L186.663 16.0772L183.186 24.8727H190.427ZM230.027 33.6681C231.459 33.4226 232.236 32.809 232.236 31.5408V13.3772C232.236 12.109 231.459 11.5772 230.109 11.3317V10.6363C230.886 10.6363 233.504 10.7181 234.2 10.7181C235.386 10.7181 238.618 10.4727 241.113 10.4727C249.541 10.4727 254.572 15.1772 254.572 22.3363C254.572 29.2499 249.295 34.4454 240.582 34.4454C238.127 34.4454 235.018 34.2817 233.913 34.2817C233.218 34.2817 230.763 34.3636 229.986 34.3636V33.6681H230.027ZM236.082 32.4817C236.941 32.6454 238.536 32.7272 239.763 32.7272C246.841 32.7272 250.522 28.4727 250.522 22.5818C250.522 16.4454 246.677 12.109 240.05 12.109C238.7 12.109 236.982 12.1908 236.122 12.3545V32.4817H236.082Z" fill="black"/>
<path d="M134.668 31.5409C134.668 32.7273 135.446 33.4228 136.878 33.75V34.4455C136.1 34.4455 133.564 34.3637 132.787 34.3637C132.173 34.3637 129.637 34.4455 128.859 34.4455V33.75C130.128 33.5046 130.987 32.8091 130.987 31.5409V13.3773C130.987 12.2728 130.373 11.5773 128.859 11.3318V10.6364C129.637 10.6364 132.091 10.7182 132.868 10.7182C134.055 10.7182 137.287 10.5546 138.596 10.5546C144.241 10.5546 147.391 12.8455 147.391 16.8546C147.391 20.0046 145.018 22.1318 141.418 22.9909C141.418 22.9909 142.278 23.5228 143.055 24.4228C144.078 25.6091 146.9 29.5364 148.005 30.8864C149.109 32.2364 150.582 33.7909 152.096 33.8727V34.4046C151.318 34.5682 150.214 34.65 149.273 34.65C147.309 34.65 145.796 33.9546 144.323 32.1955C143.055 30.6409 140.723 27.3273 139.373 25.6091C138.514 24.5864 137.573 23.7273 135.691 23.4818C135.364 23.4 134.996 23.4 134.587 23.3182V31.5H134.668V31.5409ZM134.668 21.8864C135.446 21.9682 136.55 22.05 137.655 22.05C142.073 22.05 143.464 19.4728 143.464 17.2637C143.464 14.1137 141.337 12.0682 137.491 12.0682C136.714 12.0682 135.528 12.15 134.75 12.3137V21.8455H134.668V21.8864Z" fill="black"/>
<path d="M209.205 31.5409C209.205 32.7273 209.982 33.4228 211.414 33.75V34.4455C210.636 34.4455 208.1 34.3637 207.323 34.3637C206.709 34.3637 204.173 34.4455 203.396 34.4455V33.75C204.664 33.5046 205.523 32.8091 205.523 31.5409V13.3773C205.523 12.2728 204.909 11.5773 203.477 11.3318V10.6364C204.255 10.6364 206.709 10.7182 207.486 10.7182C208.673 10.7182 211.905 10.5546 213.214 10.5546C218.859 10.5546 222.009 12.8455 222.009 16.8546C222.009 20.0046 219.636 22.1318 216.036 22.9909C216.036 22.9909 216.896 23.5228 217.673 24.4228C218.696 25.6091 221.436 29.5364 222.541 30.8864C223.646 32.2364 225.118 33.7909 226.632 33.8727V34.4046C225.855 34.5682 224.75 34.65 223.809 34.65C221.846 34.65 220.332 33.9546 218.859 32.1955C217.591 30.6409 215.382 27.3273 214.073 25.6091C213.214 24.5864 212.273 23.7273 210.391 23.4818C210.064 23.4 209.696 23.4 209.286 23.3182V31.5H209.205V31.5409ZM209.205 21.8864C209.982 21.9682 211.086 22.05 212.191 22.05C216.609 22.05 218 19.4728 218 17.2637C218 14.1137 215.873 12.0682 212.027 12.0682C211.25 12.0682 210.064 12.15 209.286 12.3137V21.8455H209.205V21.8864Z" fill="black"/>
<path d="M172.019 54.6546H172.346C172.509 55.3501 172.959 55.9228 173.45 56.3728C174.064 56.7819 174.882 56.9864 175.659 56.9864C177.296 56.9864 178.319 56.2092 178.319 54.941C178.319 53.6728 177.05 53.0592 175.496 52.2819C174.309 51.6683 172.019 50.8501 172.019 48.5183C172.019 46.4728 173.655 45.1228 176.109 45.1228C177.746 45.1228 178.564 45.5319 179.709 45.4501V47.9046H179.3C178.891 46.4728 177.5 45.941 176.069 45.941C174.432 45.941 173.778 46.8819 173.778 47.8228C173.778 49.1728 175.332 49.9501 176.682 50.6455C178.4 51.4228 180.159 52.2819 180.159 54.4092C180.159 56.4546 178.605 57.8046 175.741 57.8046C174.023 57.8046 173 57.3955 172.059 57.191V54.6546H172.019Z" fill="#C41230"/>
<path d="M197.791 57.1909C198.405 57.0273 198.732 56.7818 198.732 56.1682V46.7182C198.732 46.1045 198.405 45.8591 197.791 45.6954V45.3682C198.036 45.3682 199.427 45.45 199.755 45.45C200.082 45.45 201.473 45.3682 201.8 45.3682V45.6954C201.186 45.8591 200.777 46.1045 200.777 46.7182V50.6454H207.773V46.7182C207.773 46.0227 207.446 45.7773 206.832 45.6954V45.3682C207.159 45.3682 208.468 45.45 208.877 45.45C209.205 45.45 210.514 45.3682 210.841 45.3682V45.6954C210.227 45.8591 209.818 46.1045 209.818 46.7182V56.1682C209.818 56.7818 210.227 57.0273 210.841 57.1909V57.5182C210.596 57.5182 209.205 57.5182 208.877 57.5182C208.55 57.5182 207.159 57.5182 206.832 57.5182V57.1909C207.446 57.0273 207.773 56.7818 207.773 56.1682V51.6682H200.777V56.0864C200.777 56.7818 201.186 56.9454 201.8 57.1091V57.4363C201.555 57.4363 200.082 57.4363 199.755 57.4363C199.427 57.4363 198.118 57.4363 197.791 57.4363V57.1909Z" fill="#C41230"/>
<path d="M194.355 54.491L194.191 57.2319C193.25 57.1501 191.982 57.8455 189.855 57.8455C185.355 57.8455 183.269 55.1046 183.269 51.5455C183.269 47.7819 185.928 45.1637 189.732 45.1637C191.614 45.1637 192.8 45.8592 193.987 45.7773L194.069 48.5182H193.741C193.046 46.8819 191.45 46.1455 189.732 46.1455C186.909 46.1455 185.396 48.6001 185.396 51.5864C185.396 54.041 186.582 57.0273 190.019 57.0273C191.9 57.0273 193.332 56.3319 193.946 54.5728H194.355V54.491Z" fill="#C41230"/>
<path d="M213.786 51.5046C213.786 48.0274 216.241 45.1228 220.086 45.1228C223.932 45.1228 226.386 48.0274 226.386 51.5046C226.386 54.9819 223.932 57.8046 220.086 57.8046C216.2 57.8046 213.786 54.9819 213.786 51.5046ZM224.218 51.5046C224.218 48.6819 222.95 45.941 220.127 45.941C217.222 45.941 215.954 48.6001 215.954 51.5046C215.954 54.3274 217.222 56.9455 220.127 56.9455C222.95 56.9455 224.218 54.3274 224.218 51.5046Z" fill="#C41230"/>
<path d="M229.168 51.5046C229.168 48.0274 231.623 45.1228 235.468 45.1228C239.313 45.1228 241.768 48.0274 241.768 51.5046C241.768 54.9819 239.313 57.8046 235.468 57.8046C231.541 57.8046 229.168 54.9819 229.168 51.5046ZM239.559 51.5046C239.559 48.6819 238.291 45.941 235.468 45.941C232.563 45.941 231.295 48.6001 231.295 51.5046C231.295 54.3274 232.563 56.9455 235.468 56.9455C238.291 56.9455 239.559 54.3274 239.559 51.5046Z" fill="#C41230"/>
<path d="M90.7321 45.3682H98.423C98.6685 45.3682 99.1185 45.3682 99.2821 45.2046H99.6094L99.5276 47.6591H99.2003C98.9548 46.8819 98.5048 46.3091 96.9912 46.3091H93.7594V50.7273C93.7594 50.7273 96.2139 50.7273 96.4185 50.7273C96.7457 50.7273 97.2776 50.7273 97.4412 50.6455C98.0548 50.5637 98.3003 50.2364 98.3821 49.7046H98.7094C98.7094 50.0319 98.7094 50.891 98.7094 51.1364C98.7094 51.3819 98.7094 52.2409 98.7094 52.6909H98.3821C98.2185 52.1591 97.973 51.8319 97.4412 51.6682C97.2776 51.5864 96.7457 51.5864 96.4185 51.5864C96.2548 51.5864 93.7594 51.5864 93.7594 51.5864V56.5364H97.4412C98.9957 56.5364 99.4866 55.841 99.8139 54.9L100.141 54.9819L99.8139 57.5591C98.6276 57.4773 97.9321 57.4773 96.6639 57.4773H92.7366C92.4094 57.4773 91.0185 57.5591 90.6094 57.5591V57.2319C91.3048 57.0682 91.7139 56.8228 91.7139 56.1273V46.7591C91.7139 46.1455 91.3866 45.8182 90.6094 45.6546V45.4091H90.7321V45.3682Z" fill="#C41230"/>
<path d="M120.064 46.8C120.064 46.1863 119.736 45.8591 118.959 45.6954V45.3682C119.368 45.3682 120.759 45.45 121.086 45.45C121.414 45.45 122.804 45.3682 123.214 45.3682V45.6954C122.436 45.8591 122.109 46.1045 122.109 46.8V56.0864C122.109 56.7 122.436 57.0273 123.214 57.1909V57.5182C122.804 57.5182 121.495 57.4363 121.086 57.4363C120.759 57.4363 119.368 57.5182 118.959 57.5182V57.1909C119.736 57.0273 120.064 56.7818 120.064 56.0864V46.8Z" fill="#C41230"/>
<path d="M138.923 57.1909C139.7 57.0273 140.109 56.4955 140.355 55.8409L144.282 46.4727C144.446 46.0636 144.609 45.2864 144.609 45.2864H145.714C145.714 45.2864 145.877 46.0636 146.041 46.4727L150.132 55.8409C150.377 56.5364 150.746 56.9455 151.564 57.1909V57.5182C151.155 57.5182 149.682 57.5182 149.436 57.5182C149.109 57.5182 147.8 57.5182 147.391 57.5182V57.1909C148.005 57.0273 148.168 56.7818 148.168 56.4136C148.168 56.1682 148.086 55.8818 147.923 55.5545L147.064 53.5909H142.564L141.786 55.6364C141.705 55.8818 141.623 56.25 141.623 56.4136C141.623 56.7409 141.786 57.0273 142.482 57.1909V57.5182C142.073 57.5182 141.05 57.5182 140.764 57.5182H138.964L138.923 57.1909ZM146.777 52.6091L144.814 48.1091L143.014 52.6091H146.777Z" fill="#C41230"/>
<path d="M137.287 54.491L137.123 57.2319C136.182 57.1501 134.914 57.8455 132.787 57.8455C128.287 57.8455 126.2 55.1046 126.2 51.5455C126.2 47.7819 128.859 45.1637 132.664 45.1637C134.546 45.1637 135.732 45.8592 136.918 45.7773L137 48.5182H136.673C135.977 46.8819 134.382 46.1455 132.664 46.1455C129.841 46.1455 128.327 48.6001 128.327 51.5864C128.327 54.041 129.514 57.0273 132.95 57.0273C134.832 57.0273 136.264 56.3319 136.877 54.5728H137.287V54.491Z" fill="#C41230"/>
<path d="M163.223 54.9818C162.814 55.9227 162.364 56.6182 160.85 56.6182H157.087V46.8C157.087 46.1045 157.414 45.8591 158.191 45.6954V45.3682C157.782 45.3682 156.391 45.45 156.064 45.45C155.737 45.45 154.346 45.3682 153.937 45.3682V45.6954C154.714 45.8591 155.041 46.2273 155.041 46.8V56.0864C155.041 56.7818 154.714 57.1091 153.937 57.1909V57.5182C154.346 57.5182 155.737 57.4363 156.064 57.4363H159.991C161.259 57.4363 162.037 57.4364 163.141 57.5182L163.468 54.9409H163.223V54.9818Z" fill="#C41230"/>
<path d="M253.795 54.9818C253.386 55.9227 252.936 56.6182 251.423 56.6182H247.741V46.8C247.741 46.1045 248.068 45.8591 248.845 45.6954V45.3682C248.436 45.3682 247.045 45.45 246.718 45.45C246.391 45.45 245 45.3682 244.591 45.3682V45.6954C245.368 45.8591 245.695 46.2273 245.695 46.8V56.0864C245.695 56.7818 245.368 57.1091 244.591 57.1909V57.5182C245 57.5182 246.391 57.4363 246.718 57.4363H250.645C251.914 57.4363 252.691 57.4364 253.795 57.5182L254.123 54.9409H253.795V54.9818Z" fill="#C41230"/>
<path d="M103.536 57.1909C104.313 57.0273 104.641 56.7818 104.641 56.0864V46.7182C104.641 46.0227 104.232 45.7773 103.536 45.6955V45.3682C103.945 45.3682 105.336 45.45 105.663 45.45C106.277 45.45 107.872 45.2864 109.141 45.2864C113.477 45.2864 116.136 47.6591 116.136 51.4227C116.136 55.0227 113.395 57.6409 108.977 57.6409C107.709 57.6409 106.236 57.5591 105.663 57.5591C105.336 57.5591 104.027 57.6409 103.618 57.6409V57.2318H103.536V57.1909ZM106.604 56.6182C107.013 56.7 107.791 56.7 108.404 56.7C112.086 56.7 113.968 54.6546 113.968 51.4227C113.968 48.2727 112.004 46.0636 108.609 46.0636C107.913 46.0636 107.177 46.1455 106.645 46.2273L106.604 56.6182Z" fill="#C41230"/>
<path d="M86.2317 55.8409L85.6181 46.8C85.5363 46.1863 85.8635 45.8591 86.559 45.6954V45.3682C86.0272 45.3682 85.2908 45.3682 84.9226 45.3682C84.6772 45.3682 84.0635 45.3682 83.6544 45.3682L79.6454 54.7363L75.6363 45.3682C75.2272 45.3682 74.6135 45.3682 74.2863 45.3682C74.0408 45.3682 73.0999 45.3682 72.5681 45.3682V45.6954C73.2635 45.7773 73.5908 46.2273 73.5908 46.8L72.8954 55.8409C72.8135 56.5363 72.4863 57.0273 71.709 57.2727V57.6H73.4272C73.6726 57.6 74.6954 57.6 75.1454 57.6V57.2727C74.2863 57.0273 74.1226 56.5773 74.1226 56.0045L74.6544 47.9863L78.8272 57.6409H79.5226L83.6953 47.9863L84.2272 56.0864C84.2272 56.6182 84.0635 57.1091 83.2044 57.3545V57.6818C83.6135 57.6818 85.0863 57.6818 85.3317 57.6818H87.459V57.3545C86.6408 57.0273 86.3135 56.6182 86.2317 55.8409Z" fill="#C41230"/>
<path d="M34.6045 3.47729H9.19998L9.11816 23.7682C9.11816 48.6818 34.1136 64.5546 34.3591 64.7182L34.4409 64.8C34.5227 64.8 34.6863 64.7182 34.6863 64.7182C38.9409 61.8955 60.0909 46.8818 60.0909 23.9318V3.55911C60.05 3.47729 34.6045 3.47729 34.6045 3.47729ZM59.9682 21.4773H9.64998V18.5727H59.9682V21.4773Z" fill="#C41230"/>
<path d="M17.7498 5.93185C19.468 5.2364 21.3498 5.76822 23.1907 5.60458C23.7225 5.6864 24.3771 5.35913 24.7453 5.85004C24.7453 6.38185 24.7453 6.87276 24.7453 7.48639C24.9089 7.89548 25.5225 7.65004 25.768 7.81367C25.9316 7.89549 26.0953 7.97731 26.1771 8.22276C26.2589 8.46822 26.1771 8.75458 26.0953 9.00003C25.768 9.32731 25.318 9.24548 24.8271 9.3273L24.6635 9.49095C24.7453 10.5137 24.4998 11.3728 24.6635 12.3137C24.6635 12.4773 24.5816 12.8455 24.8271 12.9273C25.3589 12.9273 25.768 12.9273 26.0953 13.2546C26.2589 13.5 26.2589 13.7864 26.1771 14.1137C26.0135 15.1364 24.3771 13.95 24.5407 15.1364C24.5407 15.5455 24.6226 16.1591 24.4589 16.5682C22.5771 16.5682 20.6953 16.4046 19.018 16.5682C18.6907 16.8137 18.3225 16.9773 17.8316 17.1C17.5044 17.0182 17.1362 16.8546 16.8907 16.5682C15.1725 16.4864 13.5771 16.4864 11.9407 16.4864C11.4089 16.0773 11.7771 15.3 11.6135 14.6864C11.368 14.3591 10.918 14.6046 10.5907 14.4409C10.3453 14.4409 10.2635 14.1955 10.1816 14.0318C10.1816 13.7046 10.1816 13.3364 10.4271 13.0909C10.6725 12.9273 11.1225 12.9273 11.4498 12.9273L11.6135 12.7637C11.5316 11.6591 11.7771 10.5546 11.5316 9.36821C11.368 9.12276 10.9998 9.36822 10.8362 9.20458C10.5907 9.12276 10.2225 8.95913 10.1407 8.59094C10.0589 8.34549 10.0589 8.05913 10.3044 7.81367C10.6316 7.40458 11.3271 7.89548 11.6544 7.48639L11.818 5.85004C12.0635 5.31822 12.6771 5.60458 13.168 5.60458C14.0271 5.44094 15.0498 5.60458 15.9089 5.60458C16.6044 5.60458 17.218 5.76822 17.7498 5.93185Z" fill="black"/>
<path d="M20.0409 23.7682L19.9591 24.0955C19.9591 24.2591 19.7955 24.4227 19.6318 24.3409L18.9364 24.2591C18.6909 24.1773 18.4045 24.0955 18.1591 24.1773C18.0773 24.2591 17.9136 24.3409 17.75 24.5045C17.8318 24.5045 17.8318 24.5864 17.8318 24.5864C17.9955 24.6682 18.3636 24.75 18.4455 25.2C18.4455 25.5273 18.6091 25.8136 18.7727 25.9773L18.8545 26.1409C18.9364 26.2227 18.9364 26.3045 18.9364 26.3864C18.9364 26.4682 18.9364 26.4682 18.8545 26.55L18.5273 26.9591L18.3636 27.1227C18.3636 27.1227 18.2 27.5318 18.1182 27.7364C18.2 27.9 18.2818 27.9818 18.3636 27.9818C18.6909 27.9 18.9773 27.9818 19.2227 27.9818L19.7545 28.0636H19.8364H20C20.1636 28.0636 20.5318 27.9818 20.7773 28.1455C20.7773 28.1455 21.0227 28.5546 21.0227 28.6773C21.1045 28.8409 21.1045 28.9227 21.1045 29.0864C21.1045 29.25 21.1045 29.4136 21.0227 29.6182L20.9409 29.8636C20.9409 29.9455 20.9409 30.0273 20.8591 30.0273C20.45 30.7227 19.8364 31.2136 19.0591 31.5818C19.1409 31.5818 19.1409 31.5818 19.1409 31.5818C19.1409 31.5818 19.1409 31.5818 19.1409 31.6636C19.2227 31.7455 19.4682 31.7455 19.7545 31.6636H19.9182C20.2455 31.6636 20.5318 31.5818 20.8591 31.4182L21.8 31.1727C21.9636 31.0909 22.0455 31.2546 22.1273 31.3364C22.2909 31.6636 22.5364 31.95 22.7409 32.1136C22.7409 32.1136 22.7409 32.1136 22.9045 31.95C23.0682 31.7864 23.4364 31.5409 23.8455 31.7046C23.8455 31.7046 23.9273 31.7046 23.9273 31.7864C24.2545 32.0318 24.3364 32.4 24.4591 32.6455C24.5409 32.8091 24.5409 33.0546 24.7045 33.1773C24.7864 33.2591 24.7864 33.3409 24.7864 33.3409V33.4227C24.7864 33.75 24.4591 33.9546 24.3773 33.9546H24.2955L24.2136 34.0364L23.4364 34.2C23.1909 34.2 22.9045 34.2818 22.7409 34.3636C22.7409 34.3636 22.7409 34.4455 22.8227 34.4455C23.15 34.6091 23.6818 34.6909 24.1727 34.7727L24.4182 34.8546H25.0318H26.0545C26.2182 34.8546 26.2182 34.9364 26.3 35.0182C26.3818 35.1 26.3 35.2636 26.2182 35.3455L26.0545 35.5909L25.9727 35.6727L24.3364 36.7773C24.2545 36.7773 23.3955 37.1046 23.3955 37.1046L22.1273 37.6364H22.0455C21.2682 37.8 20.8591 37.3909 20.4091 37.1046C20.1636 36.8591 19.8773 36.6955 19.55 36.6955C19.3045 36.6955 19.0182 36.7773 18.8545 36.9409C18.7727 37.0227 18.7727 37.1046 18.7727 37.2682C18.7727 37.35 18.7727 37.35 18.7727 37.4318H18.8545C19.0182 37.5136 19.3864 37.5955 19.3864 38.0455C19.3864 38.6591 19.1409 39.0682 18.8545 39.4773C18.6909 39.8046 18.4455 40.2546 18.4455 40.5818V40.6636C18.4455 40.7455 18.4455 40.8273 18.5273 40.8273H18.6091H18.6909L18.7727 40.6636C18.8545 40.5 19.0182 40.2546 19.3864 40.1318H19.4682C20.1636 40.2136 20.4909 40.1318 20.7364 39.8864C20.8182 39.8046 20.9 39.8045 20.9 39.8045C21.0636 39.8045 21.3091 39.8046 21.5136 39.9682C21.7182 40.1318 21.7591 40.2955 21.7591 40.5C21.7591 40.5 21.7591 40.5818 21.7591 40.6636C22.1682 40.5818 22.4545 40.2546 22.7818 39.7227L22.9455 39.4773C23.0273 39.3955 23.1091 39.3136 23.1909 39.3136L23.4364 39.2318C23.7636 39.15 24.1318 38.9864 24.5409 39.2318C24.6227 39.3136 24.7045 39.3955 24.7045 39.4773C24.7045 39.5591 24.7045 39.6409 24.7045 39.7227C24.7045 40.05 24.5409 40.3364 24.4591 40.5818C24.4591 40.5818 24.3773 40.7455 24.3773 40.9091C24.9909 40.7455 25.4818 40.2136 25.9318 39.6409L26.1773 39.3136C26.2591 39.15 26.4227 38.7 26.9545 38.7H27.0364C27.2818 38.7818 27.3636 38.7 27.65 38.2909L28.1818 37.7591C28.2636 37.6773 28.2636 37.6773 28.4273 37.6773H28.5909C28.6727 37.6773 28.7545 37.6773 28.8364 37.7591C28.9182 37.8409 28.9182 37.8409 28.9182 37.9227V38.4546C29 38.4546 29.2455 38.2909 29.45 38.2909L30.1455 37.8818C30.2273 37.8 30.3091 37.8 30.4727 37.8818L33.05 38.5773C33.5818 38.7409 33.6636 39.1091 33.6636 39.4364C33.6636 39.5182 33.6636 39.6818 33.6636 39.6818C33.6636 39.7636 33.6636 39.8455 33.6636 39.9273C33.6636 40.0091 33.6636 40.0091 33.7455 40.0909C33.8273 40.1727 33.8273 40.2546 33.8273 40.3364C33.8273 40.4182 33.8273 40.4182 33.8273 40.5C33.7455 40.7455 33.5 41.0318 32.8045 41.0318L31.5364 41.1136C30.5136 41.1136 29.4909 41.1136 28.7136 41.8091L28.0182 42.5045C27.9364 42.5864 27.8545 42.5864 27.7727 42.5864C27.2409 42.5864 26.9136 42.8318 26.5045 43.1182C26.1773 43.3636 25.7273 43.65 25.2364 43.7318C24.9091 43.8955 24.4591 43.8955 24.1318 43.8955C23.8045 43.8955 23.6 43.8955 23.5182 43.9773C23.8455 44.3864 24.4591 44.5909 25.0727 44.7545C25.1545 44.7545 25.4 44.8364 25.4 44.8364C25.6455 44.8364 26.0955 44.8364 26.2591 45.2455C26.2591 45.2455 26.2591 45.3273 26.2591 45.4091C26.2591 45.7364 26.3409 45.9409 26.5045 45.9409H26.5864C26.6682 45.8591 26.9955 45.6955 27.4455 45.9409C27.5273 46.0227 28.0591 46.5545 28.0591 46.5545L28.7545 47.25C28.8364 47.3318 28.8364 47.4955 28.7545 47.5773C28.5091 48.1091 27.8955 47.9864 27.5682 47.9864H27.3227H26.9955C26.4636 48.0682 25.7273 48.2318 25.1955 47.5773L25.2773 47.6591L24.5 47.4136C24.0909 47.0864 23.7227 46.7182 23.2318 46.7182C22.7 46.8818 22.4545 47.0455 22.4545 47.3318L22.5364 47.4955L22.7818 47.7409C22.8636 47.8227 22.8636 47.9046 22.8636 47.9046C22.8636 47.9046 22.8636 47.9045 22.8636 47.9864C22.8636 48.0682 22.7818 48.15 22.7 48.2318C22.2909 48.4773 21.7591 48.9273 21.7591 49.4182C21.7591 49.5 21.7591 49.5818 21.7591 49.5818C21.7591 49.5818 21.7591 49.5818 21.7591 49.6636C21.8409 49.6636 21.9227 49.5818 21.9227 49.5818C22.0864 49.5 22.4545 49.4182 22.7818 49.5818C22.8636 49.6636 22.9455 49.7455 22.9455 49.8273V50.2364C22.9455 50.6455 23.0273 50.85 23.1091 51.0136C23.1909 51.0136 23.2727 50.9318 23.2727 50.9318C23.5182 50.7682 24.05 50.6046 24.5409 50.9318C24.6227 50.9318 24.7864 50.9318 25.0727 50.7682L25.6045 50.5227C25.6864 50.5227 25.6864 50.5227 25.6864 50.5227C26.5455 50.5227 26.9545 51.3 27.1182 51.7909C27.5273 52.1182 27.8955 52.3227 28.1409 52.2V52.1182C28.1409 52.0364 28.1409 51.9546 28.1409 51.7909C28.1409 51.7091 28.0591 51.5455 28.0591 51.3818C28.0591 51.0546 28.1409 50.6864 28.6727 50.5227C28.7545 50.5227 29.5318 50.4409 29.5318 50.4409H30.0636H30.1455C30.9227 50.5227 31.4955 50.5227 31.7818 50.0318C31.7818 50.0318 32.3955 49.0909 32.4773 48.9273C32.4773 48.8455 32.5591 48.3136 32.5591 48.3136C32.5591 48.15 32.6409 48.0682 32.8045 48.0682C33.05 47.9864 33.4182 48.0682 33.5818 48.15C33.5818 48.15 33.6636 48.15 33.7455 48.2318C33.5818 47.8227 33.5 47.3727 33.5 46.9636C33.5 46.7182 33.5 46.5546 33.5818 46.2682C33.7455 45.6546 33.9909 45.1636 34.3591 44.7136C34.4409 44.6318 34.6045 44.55 34.7682 44.6318L34.9318 44.7136C35.0136 44.7955 35.0955 44.8773 35.1773 44.9591L35.3409 45.8182C35.4227 46.35 35.5045 46.8409 35.75 47.3727C35.75 47.4545 35.8318 47.4546 35.75 47.5364L35.4227 48.7227L35.1773 49.6636C34.9318 50.6045 34.3182 51.3 33.4591 51.7091V51.7909C33.4591 51.7909 33.6227 51.7909 33.7864 51.7909C33.7864 51.7909 34.0318 51.7909 34.1136 51.7909C35.0545 51.7091 35.9136 51.1773 36.5682 50.5227C36.65 50.4409 36.8136 50.3591 36.8955 50.4409C37.0591 50.5227 37.2227 50.4409 37.5091 50.2773C37.7955 50.1136 38.2864 49.8682 38.7773 50.1955C38.9409 50.3591 39.3091 50.3591 39.6364 50.2773C40.1682 50.2773 40.9864 50.1955 41.1909 51.1364V51.3V51.7091C41.2727 52.1182 41.3545 52.9773 40.4136 53.2636C40.3318 53.2636 40.3318 53.2636 40.25 53.2636L39.3091 52.9364C38.5318 52.6091 38.2045 52.5273 37.8773 52.9364C37.7955 53.0182 37.7136 53.1818 37.7136 53.2636C37.7955 53.5091 38.1227 54.0409 37.7136 54.45L37.7955 54.3682L37.7136 54.45C37.4682 54.8591 37.3045 55.1455 37.4682 55.4727C37.4682 55.4727 37.55 55.5546 37.7955 55.4727C38.1227 55.3091 38.5727 55.4727 38.9 55.5545L39.3091 55.7182C39.3909 55.7182 39.4727 55.8 39.4727 55.8L39.6364 55.8818C39.9636 56.1273 40.25 56.2909 40.5773 56.4136V56.3318L40.7409 55.9227C40.8227 55.8409 41.3545 55.5955 41.3545 55.5955C41.6818 55.4318 41.7636 55.4318 41.7636 55.2682C41.8455 54.6546 42.2955 54.0818 42.8682 53.7136C42.95 53.7136 43.0318 53.6318 43.1136 53.6318C43.2773 53.6318 43.7273 53.4682 43.8909 53.3045V53.1818L43.7273 53.0182C43.6455 52.9364 43.6455 52.8546 43.5636 52.8546C43.5636 52.7727 43.5636 52.6909 43.5636 52.6091C43.5636 52.2 43.8091 51.8318 43.9727 51.5045C44.1364 51.2591 44.2182 50.9727 44.2182 50.8091C44.2182 50.7273 44.2182 50.6455 44.1364 50.4818C44.1364 50.4 44.0545 50.4 44.0545 50.4L43.9727 49.7864C43.8909 49.3773 43.8909 49.0909 43.6455 48.8455L42.95 48.5182L42.7045 48.2727C42.5409 48.1909 42.5409 48.1091 42.5409 47.9455C42.5409 47.6182 42.7045 47.4136 43.1545 47.3318H43.2364C43.6455 47.1682 44.0955 47.3318 44.4227 47.4955C44.75 47.5773 44.8318 47.5773 44.9545 47.5773C44.8727 47.3318 44.6273 47.0455 44.4227 46.8C44.0136 46.5545 43.4818 46.3909 42.9909 46.2682C42.1318 46.1046 41.2727 45.8591 40.7818 45.0818C40.7 45 40.7 44.9182 40.7 44.8364C40.7 44.7546 40.7 44.6727 40.7818 44.5909L40.8636 44.5091C40.9455 44.4273 41.1091 44.4273 41.1909 44.4273C42.2136 44.6727 43.2364 44.4273 43.9318 43.8136C44.3409 43.2818 44.8727 42.6273 45.65 42.3818C46.2636 41.9727 46.3455 41.1955 46.3455 40.2545C46.3455 39.7227 46.5909 39.3955 46.9591 39.0682L47.7364 38.7409C47.9818 38.6591 48.0636 38.6591 48.0636 38.5773C47.6545 38.4136 47.1227 38.1682 46.7136 38.25C46.6318 38.25 46.55 38.25 46.4682 38.1682C46.2227 38.0864 46.2227 37.9227 46.1409 37.7591V37.6773C46.1409 37.4318 46.3045 37.2682 46.4682 37.1455L46.55 37.0636L46.6318 36.9818L47.4091 36.5727C48.4318 35.9591 49.1273 35.6318 49.1273 34.7727V34.6909C49.0455 34.7727 48.8818 34.7727 48.8 34.9364L48.1045 35.2636C47.5727 35.5091 47 35.6727 46.4682 35.7955C45.8545 35.8773 45.3636 36.0409 44.9136 36.3273C44.8318 36.3273 44.8318 36.4091 44.75 36.4091C44.5864 36.4091 44.3409 36.3273 44.3409 36.0818C44.3409 36 44.3409 35.9182 44.3409 35.8364C44.3409 35.6727 44.4227 35.5091 44.5045 35.4273C44.6682 35.1818 44.9136 35.0182 45.2 34.8955C45.5273 34.7318 45.7318 34.65 45.8136 34.3636L45.8955 34.1182C46.0591 33.7091 46.2227 33.0955 46.8364 32.85C46.9182 32.85 47.3682 32.6046 47.3682 32.6046C47.45 32.6046 47.5318 32.5227 47.5318 32.5227C47.5318 32.5227 47.5318 32.5227 47.45 32.4409C46.5909 32.1955 45.7318 32.85 45.2409 33.3L45.1591 33.3818L44.75 33.4636C44.1364 33.7091 43.5636 33.9955 43.1955 34.4046C43.1955 34.4864 43.1136 34.4864 43.0318 34.4864C42.8682 34.5682 42.7045 34.4864 42.5 34.4046C42.3364 34.3227 42.2545 34.1591 42.2545 33.9955C42.0909 32.6455 43.1955 31.6227 44.0545 30.8455L44.2182 30.6818L44.3818 30.6L44.9136 30.3546C45.3227 30.1091 45.8545 29.7409 46.55 30.1091C47.0818 30.3546 47.4909 30.5182 47.9 30.4364C48.1455 30.3545 48.3091 30.1091 48.5955 29.7409C48.7591 29.4955 49.0045 29.1273 49.3727 28.8818C49.7 28.7182 50.0682 28.8818 50.3136 28.8818C50.3955 28.8818 50.6409 28.9636 50.6409 28.9636L50.7227 28.8818V28.6364C50.7227 28.3909 50.5591 28.1045 50.3136 27.7773L49.9864 27.3682C49.9045 27.2864 49.9045 27.2864 49.9045 27.2045C49.9045 27.1227 49.9045 27.1227 49.9045 27.0409C49.9864 26.7955 50.0682 26.5091 50.0682 26.1818C50.0682 25.4864 49.8227 24.9136 49.2909 24.4636C49.1273 24.3818 48.7591 24.2182 48.4318 24.2182C48.4318 24.3 48.5136 24.3818 48.5136 24.3818L48.8409 25.0773C48.8409 25.1591 48.8409 25.2409 48.8409 25.3227C48.8409 26.8773 47.5727 27.5318 46.4682 28.0636L45.5273 28.5955C43.4 29.7 40.5773 31.4182 40.4136 34.2409C40.4136 35.6727 41.0273 37.0636 42.2136 38.25C42.2136 38.25 42.2136 38.3318 42.2955 38.3318L42.7045 38.9455C43.1136 39.6409 43.6455 40.2955 43.6455 41.2364C43.6455 41.4 43.6455 41.6455 43.5636 41.9318C43.2364 42.7909 42.2136 42.7909 41.8455 42.7909C39.7182 42.6273 38.6136 40.5 37.7545 38.9455L37.5909 38.7L37.4273 38.3727C37.1818 37.8409 36.8955 37.35 36.8955 36.7364C36.8955 36.6545 36.8955 36.4909 36.9773 36.4909C37.0591 36.4091 37.3045 36.1636 37.7545 36.4091C37.8364 36.4091 38.1636 37.0227 38.1636 37.0227C38.2455 37.1046 38.2455 37.1864 38.2455 37.2682C38.2455 37.1864 38.3273 37.1045 38.3273 36.9409C38.3273 36.6136 38.1636 36.1636 38 35.7545L37.9182 35.6727C37.8364 35.5091 37.5909 35.2636 37.3045 35.0591C36.9773 34.8136 36.6091 34.4455 36.4455 34.0364V33.9546C36.4455 33.9546 36.4455 33.9545 36.4455 33.8727C36.4455 33.3409 36.8545 33.2591 37.0591 33.1773H37.1409C36.9773 32.6455 36.8955 32.0727 36.8955 31.4591C36.8955 31.2136 36.8955 30.8455 36.9773 30.6L37.5091 30.0682C37.6727 29.9864 37.6727 29.9864 37.6727 29.9046C37.5091 29.2909 37.5091 28.6364 37.5091 28.0227C37.5091 27.7773 37.5091 27.4909 37.5091 27.2455C37.5091 27.1636 37.6727 26.6318 37.6727 26.6318C37.7545 26.3864 37.8364 26.2227 37.8364 26.0182C37.8364 25.9364 37.8364 25.9364 37.8364 25.8546C37.5091 25.6909 37.4273 25.2409 37.4273 25.0773V24.9136C37.5091 24.9136 37.5091 24.9136 37.5091 24.9136C36.65 24.9136 35.8727 24.5864 35.2182 24.2182L34.5227 23.8909C34.3591 23.8091 34.1955 23.8909 33.9091 24.0545L33.5 24.2182L33.0909 24.3C32.6818 24.3818 32.2318 24.4636 31.9864 24.7091C31.8227 24.8727 31.8227 25.1182 31.8227 25.4864V25.7318V25.8136C31.7409 26.0591 31.5773 26.1409 31.4955 26.1409C31.25 26.2227 31.0864 26.1409 30.8818 26.0591H30.8C30.1045 25.7318 29.8591 25.0364 30.0227 24.3409C30.0227 24.2591 29.9409 24.0955 29.9409 24.0955C29.7773 24.0136 29.4091 23.9318 29.1636 24.0136C29 24.0955 28.8364 24.2591 28.7545 24.7091C28.7545 24.7091 28.6727 24.7909 28.6727 24.8727V24.9545C28.6727 25.2 28.7545 25.4864 28.8364 25.5682C29.0818 25.8136 29.5318 26.1 30.0227 26.3455L31.1273 26.9591C31.2091 27.0409 31.2091 27.0409 31.2091 27.1227C31.2091 27.2045 31.2909 27.3682 31.2909 27.45C31.2909 27.8591 31.1273 28.1455 30.9636 28.3909C31.0455 28.4727 31.2909 28.6364 31.2909 29.0045C31.2909 29.0864 31.2909 29.0864 31.2909 29.1682C31.2909 29.3318 31.1273 29.4136 31.0455 29.4136C30.35 29.5773 29.7773 29.4136 29.2455 29.0864L28.9182 28.6773C28.8364 28.5136 28.7545 28.4318 28.6727 28.4318C28.6727 28.4318 28.5909 28.5955 28.5909 28.6773L28.4273 29.0045C28.4273 28.9227 28.4273 29.25 28.4273 29.25C28.4273 29.4955 28.3455 29.8636 28.1 30.1091C28.0182 30.1909 27.9364 30.1909 27.8545 30.1909H27.5273C26.1773 29.7818 24.95 29.0864 23.6 28.0636C22.9864 27.6546 22.5773 27.0409 22.1682 26.4273L21.8409 26.0182L21.7591 25.9364L21.6773 25.5273C21.4318 24.6682 21.2682 24.1773 20.6545 23.9727C20.1227 23.7682 20.0409 23.7682 20.0409 23.7682ZM18.2409 28.1455C18.3227 28.1455 18.3227 28.1455 18.4045 28.1455C18.3227 28.1455 18.3227 28.1455 18.2409 28.1455ZM30.5136 28.6364C30.5955 28.5545 30.5955 28.5546 30.5955 28.4727C30.5955 28.4727 30.5136 28.5545 30.5136 28.6364ZM37.1 33.1773C37.1 33.1773 37.1818 33.1773 37.1 33.1773C37.1818 33.1773 37.1818 33.1773 37.1 33.1773C37.1818 33.1773 37.1 33.1773 37.1 33.1773ZM29.0818 38.8636C29.0818 38.8636 29.0818 38.7818 29.0818 38.8636C29.0818 38.7818 29.0818 38.7818 29.0818 38.8636ZM33.95 48.2727V48.3546V48.2727ZM34.3591 51.8318H34.4409H34.3591Z" fill="white"/>
<path d="M9.44531 23.7682C9.44531 17.7955 9.44531 11.25 9.44531 3.47729H60.1726C60.1726 3.47729 60.1726 6.46365 60.1726 23.85C60.1726 49.5409 34.6044 64.6364 34.6044 64.6364C34.6044 64.6364 9.44531 48.8455 9.44531 23.7682Z" stroke="black" stroke-width="0.913745"/>
<path d="M44.8728 53.3864C44.7091 53.2228 44.5455 52.9773 44.4637 52.8546C44.3 51.9137 45.65 51.3001 44.9955 50.4001C44.8318 49.7864 44.9955 49.1319 44.3818 48.6819C43.9728 48.3546 43.4409 48.2728 43.0319 47.9864C43.0319 47.741 43.3591 47.8228 43.4409 47.741C44.2182 47.5773 44.7909 48.4364 45.4046 47.741C45.4864 47.2092 44.9955 46.8001 44.6273 46.4728C43.5228 45.6955 41.8864 46.0637 41.0273 44.8364L41.1091 44.7546C42.1319 45.0001 43.3182 44.7546 44.0955 44.0592C44.5046 43.4455 45.0364 42.8728 45.7318 42.7092C46.5091 42.0955 46.5909 41.1546 46.5909 40.3364C46.5909 40.0092 46.7546 39.641 47 39.3955C47.4091 39.0682 48.4319 39.1501 48.1864 38.3728C47.5728 38.0455 47 37.7592 46.3864 37.841C46.0591 37.6773 46.4682 37.4319 46.55 37.3092C47.5728 36.6137 49.2909 36.2046 49.2091 34.5683C49.1273 34.4046 49.1273 34.1592 48.8818 34.1592C48.4728 34.241 48.1046 34.691 47.6955 34.8546C46.6728 35.4683 45.4864 35.2637 44.4637 35.8773C44.3 35.8773 44.3 35.6319 44.3818 35.5501C44.7091 35.0183 45.4864 35.0183 45.7318 34.3637C45.8955 33.8319 45.9773 33.1774 46.5909 33.0137C46.9182 32.7683 47.45 32.7683 47.6137 32.3183C47.6137 32.0728 47.2864 31.991 47.0819 31.9092C46.1409 31.6637 45.2 32.1546 44.5046 32.8501C43.8091 33.1773 42.95 33.4637 42.4591 33.9546C42.3773 33.9546 42.2137 33.9546 42.2137 33.791C42.05 32.441 43.2364 31.5001 44.1773 30.7228C44.7909 30.5592 45.3637 29.7819 46.0591 30.1092C46.5909 30.3546 47.0819 30.641 47.6955 30.4364C48.4728 30.191 48.5546 29.3319 49.25 28.8819C49.7819 28.7183 50.4364 29.4955 50.8046 28.7183C50.9682 27.941 50.3955 27.5319 50.0273 27.0001C50.4364 25.9773 50.1091 24.791 49.25 24.0137C48.8409 23.7683 48.3091 23.6046 47.9 23.7683C47.5728 24.1773 48.2273 24.5455 48.2273 24.9546C48.3909 26.8364 46.3455 27.2455 45.0773 28.1046C42.7864 29.291 39.9637 31.091 39.8 34.0773C39.8 35.7137 40.5773 37.2274 41.6819 38.3319C42.2955 39.3546 43.2364 40.2955 42.8682 41.6455C42.6228 42.1773 42.0091 42.2592 41.5182 42.2592C39.5546 42.0955 38.45 39.8864 37.5909 38.3319C37.3455 37.7183 36.9773 37.1455 36.8955 36.4501C36.9773 36.3683 37.0591 36.3683 37.2228 36.4501C37.55 36.7773 37.55 37.5546 38.1637 37.4728C38.6955 36.7773 38.3273 35.9183 38 35.2637C37.6728 34.6501 36.8955 34.3228 36.5682 33.6274C36.5682 33.0955 37.2637 33.4637 37.3455 32.9319C37.1 32.0728 37.0182 31.1319 37.1819 30.3546C37.3455 30.0274 37.8773 30.0273 37.8773 29.5773C37.6319 28.7182 37.6319 27.941 37.7137 27.0001C37.7955 26.4683 38.2455 25.8955 37.9591 25.3637C37.3455 25.2001 37.8773 24.4228 37.2637 24.341C36.1591 24.341 35.3 23.7274 34.3591 23.4001C33.8273 23.2364 33.5 23.5637 33.0909 23.6455C32.4773 23.8092 31.8228 23.8092 31.3728 24.2592C31.0455 24.5864 31.1273 25.0364 31.1273 25.5273C31.0455 25.7728 30.8 25.5273 30.5955 25.5273C30.1864 25.2819 29.9819 24.7501 30.0637 24.2592C30.1455 24.0137 30.0637 23.8501 29.8182 23.6455C29.4909 23.4819 29.0409 23.3183 28.7137 23.4819C28.3046 23.6455 28.1 24.1773 27.9364 24.5864C27.9364 24.9137 27.9364 25.3637 28.1 25.6092C28.7955 26.3046 29.7364 26.5501 30.3909 27.1637C30.5546 27.5728 30.2273 27.941 29.9819 28.2683C29.9819 28.5955 30.5137 28.5955 30.3909 28.9637C29.8591 29.1273 29.3682 28.9637 28.9591 28.6364C28.7137 28.391 28.6319 27.8592 28.1819 27.8592C27.7319 27.8592 27.7728 28.391 27.5682 28.6364C27.4046 28.9637 27.5682 29.4137 27.2409 29.6592H26.9546C25.6046 29.2501 24.3773 28.4728 23.1909 27.5319C22.4955 27.0001 22.0046 26.1819 21.4728 25.4864C21.2273 24.6273 21.0637 23.5228 20.0409 23.2773C19.7955 23.2773 19.5091 23.3592 19.4273 23.6046L19.3455 23.9319C18.8137 23.9319 18.3228 23.6046 17.7091 23.7683C17.4637 23.9319 17.1773 24.0955 17.0137 24.3819C17.0137 24.9955 17.7091 24.7092 17.7909 25.241C17.7909 25.6501 18.1182 26.0183 18.3228 26.3455C18.1591 26.591 17.9137 26.6728 17.7909 26.9592L17.4637 27.8183C17.6273 28.0637 17.7909 28.4319 18.0773 28.4319C18.4864 28.2683 18.9364 28.5955 19.4273 28.5137C19.7546 28.5137 20.2046 28.2682 20.2864 28.7592C20.45 29.1683 20.2864 29.5364 20.2864 29.8637C19.8773 30.4773 19.2637 30.9682 18.65 31.2137C18.4864 31.3773 18.4864 31.6228 18.4864 31.8273C18.7319 32.1546 19.2637 31.991 19.5909 31.991C20.2864 31.991 20.7773 31.5819 21.4728 31.4592C21.6364 31.7864 21.8819 32.2364 22.25 32.4001C22.7819 32.5637 22.9455 31.7864 23.4364 31.991C23.8455 32.3183 23.7637 32.9319 24.1319 33.341C24.1319 33.5864 23.9682 33.5864 23.8046 33.6682C23.1909 33.8319 22.4546 33.6682 22.0046 34.0773C21.9228 34.3228 22.1682 34.6092 22.3319 34.691C22.8637 34.9364 23.4364 35.0182 24.05 35.1001C24.5819 35.1819 25.1546 34.9364 25.6864 35.1001L25.5228 35.3455L23.8864 36.4501C23.1091 36.7773 22.3319 36.8592 21.6773 37.3092C20.6546 37.5546 20.2455 36.2864 19.3046 36.3683C18.8955 36.3683 18.6091 36.5319 18.3637 36.6955C18.1182 36.941 18.1182 37.3092 18.2 37.6364C18.3637 37.9637 18.8137 37.8001 18.8137 38.1682C18.8137 39.1092 17.9546 39.8046 17.8728 40.7455C17.8728 40.991 17.8728 41.2773 18.2 41.3592C18.3637 41.441 18.6091 41.3592 18.8137 41.2773C18.9773 41.1137 18.9773 40.7455 19.3455 40.6637C19.9591 40.7455 20.5319 40.7455 20.9 40.3364C21.0637 40.3364 21.3091 40.5001 21.3091 40.6637C21.3091 40.9092 21.3091 41.1955 21.5546 41.2773C22.4137 41.2773 22.7409 40.4183 23.1909 39.8455C23.5182 39.7637 23.9682 39.5183 24.2955 39.7637C24.4591 40.3773 23.9682 40.7046 23.8864 41.3183C23.8864 41.4819 24.05 41.5637 24.2137 41.5637C25.2364 41.4001 25.7682 40.541 26.3409 39.7637C26.4228 39.6001 26.5046 39.3546 26.8728 39.3546C27.65 39.6001 27.8137 38.6592 28.3046 38.3319H28.4682C28.55 38.5773 28.3864 38.741 28.4682 38.9455C28.7955 39.2728 29.1637 38.9455 29.4909 38.8637L30.1864 38.4546C31.0455 38.7001 31.9046 38.8637 32.7637 39.1501C33.4591 39.3955 32.7637 40.1728 33.1728 40.5819C33.0909 40.8274 32.7637 40.9092 32.4773 40.9092C31.0455 41.0728 29.3273 40.7455 28.1409 41.7683L27.4455 42.4637C26.3409 42.4637 25.8091 43.4046 24.7864 43.5683C24.0909 43.9773 23.0682 43.4046 22.6591 44.1819C22.9864 44.8773 23.8455 45.1228 24.5409 45.2864C24.8682 45.4501 25.3182 45.2864 25.4819 45.6137C25.4819 45.941 25.5637 46.391 26.0137 46.4728C26.2591 46.5546 26.4228 46.1455 26.7909 46.391C27.1182 46.9228 27.7319 47.1682 27.9773 47.5773C27.7319 47.9864 27.2 47.741 26.7909 47.741H26.7091C26.0955 47.8228 25.3591 48.0682 24.9091 47.5773C24.2955 47.1682 23.8046 46.391 22.8637 46.391C22.3319 46.5546 21.8409 46.7183 21.7591 47.2501C21.6773 47.5773 22.0046 47.6592 22.1682 47.9455C21.5546 48.3546 20.9819 48.9683 21.1455 49.7455C21.2273 49.9092 21.3091 50.0728 21.4728 50.0728C21.8 50.0728 22.0046 49.8273 22.3319 49.991C22.4137 50.5228 22.25 51.2592 22.8637 51.5455C23.2728 51.4637 23.6409 50.9319 24.1319 51.3819C24.6637 51.6273 24.9909 51.1364 25.4819 51.0546C26.1773 51.0546 26.4228 51.7501 26.6682 52.241C27.0773 52.5683 27.6909 53.1001 28.3046 52.7728C28.7137 52.1592 27.9773 51.5046 28.7137 51.1364C29.1228 50.9728 29.5728 51.1364 30.0637 51.0546C30.8409 51.1364 31.7 51.2183 32.1091 50.3592L32.8046 49.2546L32.9682 48.5592C33.3773 48.3955 33.9909 49.1728 34.2364 48.4773C33.9909 47.7819 33.9091 47.1273 34.0728 46.4319C34.2364 45.9001 34.4 45.491 34.7682 45.1637L34.9319 45.2455C35.0955 46.1046 35.1773 46.8819 35.5455 47.6183C35.4637 48.3955 35.1364 49.0501 34.9319 49.8273C34.7682 50.6046 34.1546 51.2592 33.3773 51.6273C33.2137 51.791 33.05 51.9546 33.2137 52.241C33.3773 52.5683 33.9091 52.4046 34.2364 52.4864C35.2591 52.3228 36.2 51.8728 36.9773 51.1364C37.7546 51.3001 38.0819 50.441 38.7773 50.8092C39.4728 51.341 40.7409 50.4001 40.9864 51.5864C40.9046 52.1183 41.3955 53.0182 40.5773 53.3046C39.7182 53.141 38.6955 52.0364 37.8364 53.0592C37.6728 53.2228 37.5091 53.4683 37.6728 53.8364C37.8364 54.0819 38 54.3683 37.7546 54.6137C37.5091 55.0228 37.1409 55.5546 37.4273 55.9637C37.5909 56.2092 37.9591 56.2092 38.2046 56.2092C38.7364 56.0455 39.1455 56.4546 39.6364 56.4546C40.0455 56.7819 40.4955 57.2319 41.0682 57.1501C41.3137 56.9864 41.2319 56.741 41.3955 56.5364C41.7228 56.2092 42.5 56.291 42.5 55.5955C42.5819 55.0637 43.0319 54.6546 43.4409 54.4092C43.5637 54.041 44.5864 53.7955 44.8728 53.3864Z" fill="black"/>
<path d="M44.8728 53.3864C44.7091 53.2228 44.5455 52.9774 44.4637 52.8546C44.3 51.9137 45.65 51.4228 44.9955 50.4001C44.8318 49.7864 44.9955 49.1319 44.3818 48.6819C43.9728 48.3546 43.4409 48.2728 43.0319 47.9864C43.0319 47.741 43.3591 47.8228 43.4409 47.741C44.2182 47.5774 44.7909 48.4364 45.4046 47.741C45.4864 47.2092 44.9955 46.8001 44.6273 46.4728C43.5228 45.6955 41.8864 46.0637 41.0273 44.8364L41.1091 44.7546C42.1319 45.0001 43.3182 44.7546 44.0955 44.0592C44.5046 43.4455 45.0364 42.8728 45.7319 42.7092C46.5091 42.0955 46.5909 41.1546 46.5909 40.3364C46.5909 40.0092 46.7546 39.641 47 39.3955C47.4091 39.0683 48.4318 39.1501 48.1864 38.3728C47.5728 38.0455 47 37.7592 46.3864 37.841C46.1409 37.6773 46.4682 37.4319 46.55 37.3092C47.5728 36.6137 49.2909 36.2046 49.2091 34.5683C49.1273 34.4046 49.1273 34.1592 48.8818 34.1592C48.4728 34.241 48.1046 34.691 47.6955 34.8546C46.6728 35.4683 45.4864 35.2637 44.4637 35.8774C44.3 35.8774 44.3 35.6319 44.3818 35.5501C44.7091 35.0183 45.4864 35.0183 45.7319 34.3637C45.8955 33.8319 45.9773 33.1774 46.5909 33.0137C46.9182 32.7683 47.45 32.7683 47.6137 32.3183C47.6137 32.0728 47.2864 31.991 47.0819 31.9092C46.1409 31.6637 45.2 32.1546 44.5046 32.8501C43.8091 33.1773 42.95 33.4637 42.4591 33.9546C42.3773 33.9546 42.2137 33.9546 42.2137 33.791C42.05 32.441 43.2364 31.5001 44.1773 30.7228C44.7909 30.5592 45.3637 29.7819 46.0591 30.1092C46.5909 30.3546 47.0819 30.641 47.6955 30.4364C48.4728 30.191 48.6364 29.3319 49.25 28.8819C49.7819 28.7183 50.4364 29.4955 50.8046 28.7183C50.9682 27.941 50.3955 27.5319 50.0273 27.0001C50.4364 25.9773 50.1091 24.791 49.25 24.0137C48.8409 23.7683 48.3091 23.6046 47.9 23.7683C47.5728 24.1773 48.2273 24.5455 48.2273 24.9546C48.3909 26.8364 46.3455 27.2455 45.0773 28.1046C42.7864 29.291 39.9637 31.091 39.8 34.0773C39.8 35.7137 40.5773 37.2274 41.6819 38.3319C42.2955 39.3546 43.2364 40.2955 42.8682 41.6455C42.6228 42.1773 42.0091 42.2592 41.5182 42.2592C39.5546 42.0955 38.45 39.8864 37.5909 38.3319C37.3455 37.7183 36.9773 37.1455 36.8955 36.4501C36.9773 36.3683 37.0591 36.3683 37.2228 36.4501C37.55 36.7773 37.55 37.5546 38.1637 37.4728C38.6955 36.7773 38.3273 35.9183 38 35.2637C37.6728 34.6501 36.8955 34.3228 36.5682 33.6274C36.5682 33.0955 37.2637 33.4637 37.3455 32.9319C37.1 32.0728 37.0182 31.1319 37.1819 30.3546C37.3455 30.0274 37.8773 30.0273 37.8773 29.5773C37.6319 28.7183 37.6319 27.941 37.7137 27.0001C37.7955 26.4683 38.2455 25.8955 37.9591 25.3637C37.3455 25.2001 37.8773 24.4228 37.2637 24.341C36.1591 24.341 35.3 23.7274 34.3591 23.4001C33.8273 23.2364 33.5 23.5637 33.0909 23.6455C32.4773 23.8092 31.8228 23.8092 31.3728 24.2592C31.0455 24.5864 31.1273 25.0364 31.1273 25.5273C31.0455 25.7728 30.8 25.5273 30.5955 25.5273C30.1864 25.2819 29.9819 24.7501 30.0637 24.2592C30.1455 24.0137 30.0637 23.8501 29.8182 23.6455C29.4909 23.4819 29.0409 23.4001 28.7137 23.4819C28.3046 23.6455 28.1 24.1773 27.9364 24.5864C27.9364 24.9137 27.9364 25.3637 28.1 25.6092C28.7955 26.3046 29.7364 26.5501 30.3909 27.1637C30.5546 27.5728 30.2273 27.941 29.9819 28.2683C29.9819 28.5955 30.5137 28.5955 30.3909 28.9637C29.8591 29.1273 29.3682 28.9637 28.9591 28.6364C28.7137 28.391 28.6319 27.8592 28.1819 27.8592C27.7319 27.8592 27.7728 28.391 27.5682 28.6364C27.4046 28.9637 27.5682 29.4137 27.2409 29.6592H26.9546C25.6046 29.2501 24.3773 28.4728 23.1909 27.5319C22.4955 27.0001 22.0046 26.1819 21.4728 25.4864C21.2273 24.6273 21.0637 23.5228 20.0409 23.2773C19.7955 23.2773 19.5091 23.3592 19.4273 23.6046L19.3455 23.9319C18.8137 23.9319 18.3228 23.6046 17.7091 23.7683C17.4637 23.9319 17.1773 24.0955 17.0137 24.3819C17.0137 24.9955 17.7091 24.7092 17.7909 25.241C17.7909 25.6501 18.1182 26.0183 18.3228 26.3455C18.1591 26.591 17.9137 26.6728 17.7909 26.9592L17.4637 27.8183C17.6273 28.0637 17.7909 28.4319 18.0773 28.4319C18.4864 28.2683 18.9364 28.5955 19.4273 28.5137C19.7546 28.5137 20.2046 28.2683 20.2864 28.7592C20.45 29.1683 20.2864 29.5364 20.2864 29.8637C19.8773 30.4773 19.2637 30.9683 18.65 31.2137C18.4864 31.3773 18.4864 31.6228 18.4864 31.8273C18.7319 32.1546 19.2637 31.991 19.5909 31.991C20.2864 31.991 20.7773 31.5819 21.4728 31.4592C21.6364 31.7864 21.8819 32.2364 22.25 32.4001C22.7819 32.5637 22.9455 31.7864 23.4364 31.991C23.8455 32.3183 23.6819 32.9319 24.1319 33.341C24.1319 33.5864 23.9682 33.5864 23.8046 33.6683C23.1909 33.8319 22.4546 33.6683 22.0046 34.0773C21.9228 34.3228 22.1682 34.6092 22.3319 34.691C22.8637 34.9364 23.4364 35.0183 24.05 35.1001C24.5819 35.1819 25.1546 34.9364 25.6864 35.1001L25.5228 35.3455L23.8864 36.4501C23.1091 36.7773 22.3319 36.8592 21.6773 37.3092C20.6546 37.5546 20.2455 36.2864 19.3046 36.3683C18.8955 36.3683 18.6091 36.5319 18.3637 36.6955C18.1182 36.941 18.1182 37.3092 18.2 37.6364C18.3637 37.9637 18.8137 37.8001 18.8137 38.1683C18.8137 39.1092 17.9546 39.8046 17.8728 40.7455C17.8728 40.991 17.8728 41.2773 18.1182 41.3592C18.2819 41.441 18.5273 41.3592 18.7319 41.2773C18.8955 41.1137 18.8955 40.7455 19.2637 40.6637C19.8773 40.7455 20.45 40.7455 20.8182 40.3364C20.9819 40.3364 21.2273 40.5001 21.2273 40.6637C21.2273 40.9092 21.2273 41.1955 21.4728 41.2773C22.3319 41.2773 22.6591 40.4183 23.1091 39.8455C23.4364 39.7637 23.8864 39.5183 24.2137 39.7637C24.3773 40.3774 23.8864 40.7046 23.8046 41.3183C23.8046 41.4819 23.9682 41.5637 24.1319 41.5637C25.1546 41.4001 25.6864 40.541 26.2591 39.7637C26.3409 39.6001 26.4228 39.3546 26.7909 39.3546C27.5682 39.6001 27.7319 38.6592 28.2228 38.3319H28.3864C28.4682 38.5774 28.3046 38.741 28.3864 38.9455C28.7137 39.2728 29.0819 38.9455 29.4091 38.8637L30.1046 38.4546C30.9637 38.7001 31.8228 38.8637 32.6819 39.1501C33.3773 39.3955 32.6819 40.1728 33.0909 40.5819C33.0091 40.8274 32.6819 40.9092 32.3955 40.9092C30.9637 41.0728 29.2455 40.7455 28.0591 41.7683L27.3637 42.4637C26.2591 42.4637 25.7273 43.4046 24.7046 43.5683C24.0091 43.9773 22.9864 43.4046 22.5773 44.1819C22.9046 44.8773 23.7637 45.1228 24.4591 45.2864C24.7864 45.4501 25.2364 45.2864 25.4 45.6137C25.4 45.941 25.4819 46.391 25.9319 46.4728C26.1773 46.5546 26.3409 46.1455 26.7091 46.391C27.0364 46.9228 27.65 47.1683 27.8955 47.5773C27.65 47.9864 27.1182 47.741 26.7091 47.741H26.6273C26.0137 47.8228 25.2773 48.0683 24.8273 47.5773C24.2137 47.1683 23.7228 46.391 22.7819 46.391C22.25 46.5546 21.7591 46.7183 21.6773 47.3319C21.5955 47.6592 21.9228 47.741 22.0864 48.0273C21.4728 48.4364 20.9 49.0501 21.0637 49.8273C21.1455 49.991 21.2273 50.1546 21.3909 50.1546C21.7182 50.1546 21.9228 49.9092 22.25 50.0728C22.3319 50.6046 22.1682 51.341 22.7819 51.6274C23.1909 51.5455 23.5591 51.0137 24.05 51.4637C24.5819 51.7092 24.9909 51.2183 25.4 51.1364C26.0955 51.1364 26.3409 51.8319 26.5864 52.3228C26.9955 52.6501 27.6091 53.1819 28.2228 52.8546C28.6319 52.241 27.8955 51.5864 28.6319 51.2183C29.0409 51.0546 29.4909 51.2183 29.9819 51.1364C30.7591 51.2183 31.6182 51.3001 32.0273 50.441L32.7228 49.3364L32.8864 48.641C33.2955 48.4773 33.9091 49.2546 34.1546 48.5592C33.9091 47.8637 33.8273 47.2092 33.9909 46.5137C34.1546 45.9819 34.3182 45.5728 34.6864 45.2455L34.85 45.3273C35.0137 46.1864 35.0955 46.9637 35.4637 47.7001C35.3819 48.4774 35.0546 49.1319 34.85 49.9092C34.6864 50.6864 34.0728 51.341 33.2955 51.7092C33.1319 51.8728 32.9682 52.0364 33.1319 52.3228C33.2955 52.6501 33.8273 52.4864 34.1546 52.5683C35.1773 52.4046 36.1182 51.9546 36.8955 51.2183C37.6728 51.3819 38 50.5228 38.6955 50.891C39.3909 51.4228 40.6591 50.4819 40.9046 51.6683C40.8228 52.2001 41.3137 53.1001 40.4955 53.3864C39.6364 53.2228 38.6137 52.1183 37.7546 53.141C37.5909 53.3046 37.4273 53.5501 37.5909 53.9183C37.7546 54.1637 37.9182 54.4501 37.6728 54.6955C37.4273 55.1046 37.0591 55.6364 37.3455 56.0455C37.5091 56.291 37.8773 56.291 38.1228 56.291C38.6546 56.1274 39.0637 56.5364 39.5546 56.5364C39.9637 56.8637 40.4137 57.3137 40.9864 57.2319C41.2319 57.0683 41.15 56.8228 41.3137 56.6183C41.6409 56.291 42.4182 56.3728 42.4182 55.6774C42.5 55.1455 42.95 54.7364 43.3591 54.491C43.5637 54.041 44.5864 53.7955 44.8728 53.3864Z" stroke="black" stroke-width="0.186709"/>
<path d="M29.6545 24.2999C29.5726 24.709 29.5726 25.159 29.8181 25.4863C30.5136 26.2636 31.6181 26.509 32.0272 27.3681H31.7817C30.9226 26.8363 30.1454 26.1817 29.3272 25.8136C28.9999 25.5681 28.7136 25.1999 28.7954 24.7908C28.8772 24.5454 28.959 24.1772 29.3272 24.0954C29.4908 24.0136 29.6545 24.1363 29.6545 24.2999Z" fill="white"/>
<path d="M36.7322 25.0364C36.8958 25.2 36.7322 25.65 37.1413 25.7318C37.2231 25.7318 37.3049 25.8137 37.3049 25.8955C37.3049 26.2227 37.2231 26.5909 37.1413 26.9182C37.0594 27.1637 36.7322 27.2455 36.7322 27.6955C36.7322 27.8591 36.9776 27.9409 37.0594 28.2273V29.5773C36.2004 29.8227 36.6504 30.8455 36.5276 31.3773C36.4458 31.7864 36.5276 32.2364 36.5276 32.6455C36.364 32.7273 35.914 32.7273 35.8322 32.9728C35.8322 33.5046 36.0776 33.9137 36.2413 34.2409C36.5685 34.65 37.1822 34.7727 37.1822 35.3455C36.7731 35.3455 36.3231 35.1 35.9958 34.9364C35.3822 34.6091 34.9731 33.9137 34.564 33.3C34.4822 33.2182 34.3185 33.2182 34.2367 33.3C34.1549 33.7091 34.1549 34.2409 33.8276 34.4864C33.4185 34.2409 33.4185 33.1364 32.7231 33.4637C32.4776 34.8955 31.5367 36.0409 30.6776 37.2273C30.514 37.3091 30.4322 37.5546 30.1458 37.5546C30.5549 36.45 30.9231 35.1818 30.4731 33.8727C30.3913 33.6273 30.1458 33.7091 29.9413 33.7909C29.7776 33.9546 29.614 34.2 29.3276 34.1182C29.0822 33.7909 29.5731 33.1773 29.0004 32.9318C28.5913 33.0137 28.2231 33.4637 27.8958 33.6273C26.8731 34.2409 25.6867 34.4864 24.5004 34.4864C24.2549 34.4864 24.0913 34.4046 23.8867 34.3227C24.1322 33.9955 24.664 33.9955 24.9913 33.7091C26.3413 32.85 27.2822 31.3364 28.3867 30.2318C28.3049 29.7 27.8549 29.1273 28.3049 28.6773C28.6322 28.6773 28.8367 29.0864 29.0822 29.2091C29.614 29.4546 30.1867 29.6182 30.7185 29.3727C31.1276 29.2909 31.4958 28.8409 31.5776 28.4318C31.5776 28.2682 31.4958 28.1046 31.3322 28.1046C31.1685 28.1046 31.0867 28.1046 31.0049 27.9409C31.0049 27.6955 31.1685 27.5318 31.3322 27.5318C31.9458 27.5318 32.4367 28.7182 32.8867 27.7773C33.1322 27 32.3549 26.4273 31.864 25.8955C31.7004 25.7318 31.6185 25.5682 31.7004 25.2818C32.1094 25.0364 31.6185 24.6682 31.9458 24.3409C32.5594 23.9318 33.3776 24.1773 33.9913 23.7273C35.0549 24.1364 35.8322 24.8728 36.7322 25.0364Z" fill="white"/>
<path d="M20.9817 24.7909C20.9817 24.9546 21.0635 25.1182 20.9817 25.2C20.8181 25.3636 20.6544 25.2 20.5726 25.1182C20.409 24.9546 20.3271 24.7091 20.3271 24.5046C20.3681 23.85 20.9817 24.5455 20.9817 24.7909Z" fill="white"/>
<path d="M20.4496 25.7318C21.3905 26.1409 22.0042 27.0818 22.6587 27.8591C24.0905 29.0455 25.6451 30.0682 27.3633 30.6C27.4451 30.8454 27.1996 31.1318 27.036 31.2955C26.4224 31.9091 26.0133 32.5636 25.3996 33.0955C25.236 33.0955 25.1542 33.0955 25.0724 33.0955C24.4587 32.4818 24.5405 31.3773 23.5178 31.2955C23.1905 31.2955 22.9042 31.7045 22.5769 31.4591C22.2496 31.2136 22.6587 30.6 22.1678 30.4364C21.5542 30.6818 21.1451 31.2954 20.4496 31.2136C20.8587 30.4364 21.636 29.6591 21.2269 28.7591C21.1451 28.35 20.8996 27.8182 20.4496 27.7364C20.0405 27.7364 19.836 28.1455 19.4269 27.9818C19.2633 27.6545 18.486 27.8182 18.8133 27.2864C19.0587 26.8773 19.9996 26.8773 19.6724 26.1818C19.4269 25.8545 18.7314 26.0182 18.7314 25.4864C18.8133 25.2409 18.5678 24.7909 18.7314 24.6273C19.5087 24.4636 20.0405 25.3227 20.4496 25.7318Z" fill="white"/>
<path d="M49.6178 26.1818C49.6996 26.7137 49.2087 27.0409 49.3723 27.5318C49.536 27.7773 49.986 27.8591 49.9041 28.1455C48.636 28.1455 48.3496 29.8637 47.1632 29.7818C46.6314 29.7 46.2223 29.0864 45.6087 29.3727C43.9723 30.15 42.2132 31.2546 41.7632 33.2182C41.5996 33.9955 41.5996 34.7728 42.1723 35.3455C42.336 35.4273 42.4996 35.4273 42.5814 35.3455C42.9087 34.7318 43.195 33.9955 43.9314 33.7909C44.3405 33.6273 44.8723 33.4637 45.2814 33.1773C45.3632 33.1773 45.445 33.0955 45.445 33.2591C45.2814 33.8727 45.036 34.5273 44.3405 34.6909C43.9314 35.1 43.3996 35.55 43.3996 36.1227C43.3996 36.3682 43.3178 36.8182 43.5632 37.0637C43.8087 37.2273 44.095 36.9818 44.2587 36.9C45.1178 35.8773 46.386 35.7137 47.6541 35.6318C47.736 35.7137 47.5723 35.9591 47.4087 35.9591C46.3041 36.2864 45.2814 37.2273 44.9541 38.3318C44.9541 38.4955 45.1178 38.6591 45.1996 38.6591C45.7314 38.5773 46.1405 38.25 46.7541 38.3318C46.9178 38.6591 46.345 38.6591 46.1405 39.0273C45.1178 39.9682 46.1405 41.9318 44.4223 42.2591C43.8905 42.4227 44.0132 43.0364 43.645 43.2818C43.0314 44.0591 42.0905 44.2228 41.2723 44.1409C40.5769 44.2228 40.086 43.2818 39.4723 43.8955C39.5541 44.5909 40.086 44.9182 40.4132 45.5318C41.2723 46.3091 42.3769 46.3909 43.4814 46.7182C43.645 46.7182 43.7269 46.8818 43.8087 46.9637C43.8087 47.2091 43.4814 47.1273 43.2769 47.1273C42.5814 47.2091 41.845 47.2909 41.1496 47.0455C41.0678 47.0455 40.986 47.1273 40.9041 47.2091C40.986 47.9864 41.845 48.2318 42.336 48.5591C42.8678 48.8046 43.5223 48.7228 43.686 49.3364V50.1137C43.9314 50.4409 44.0132 50.9728 43.9314 51.3818C43.5223 51.9137 43.1541 52.5682 43.5223 53.3455C43.3587 53.5091 42.9905 53.3455 42.8269 53.5091C42.5814 54.0409 41.9678 54.1227 41.8041 54.5318C41.8041 54.9409 41.5587 55.3091 41.1087 55.3909C40.7814 55.3909 40.495 55.5546 40.2496 55.4728C40.086 55.2273 40.3314 54.8591 40.0041 54.6955C39.595 54.6137 39.3905 55.3091 38.8996 55.0228C38.6541 54.8591 38.4905 54.7773 38.286 54.6137C38.286 54.2864 38.5314 54.2046 38.695 54.0819C39.7996 53.9182 41.2723 53.7546 41.5996 52.5273C41.6814 51.9137 41.436 51.5046 41.5178 50.9728C41.3541 50.3591 40.7405 49.95 40.086 49.8682C39.4723 49.7046 38.8178 49.95 38.3678 49.5409C38.2041 49.3773 38.0405 49.2955 37.7541 49.3773C37.5905 49.3773 37.5087 49.6228 37.345 49.5409C37.1814 49.3773 36.936 49.1318 36.7314 49.3773C36.3223 50.1546 35.7087 51.0137 34.7678 51.1773C34.6041 50.9318 34.9314 50.6455 35.0132 50.4C35.2587 49.7864 35.545 49.05 35.7087 48.3546C35.9541 48.0273 36.3223 47.4955 36.036 47.0046C35.6269 45.9 35.1769 44.6318 35.5041 43.3228C35.7496 41.7682 35.3405 40.3364 34.236 39.3137C33.6223 38.9864 33.0496 38.2909 32.2723 38.2091C31.7405 38.0455 31.086 38.2091 30.7178 37.8C30.7996 37.2682 31.3314 36.9409 31.5769 36.5318L32.436 35.1818C32.7632 35.1 32.6814 35.5909 33.0496 35.5909C33.745 35.5909 33.745 34.4046 34.3996 34.8137C34.7269 35.2228 35.2587 35.4273 35.586 35.8364C35.995 37.7182 36.7723 39.6 38.0405 41.0318C39.0632 42.3 40.6178 43.2409 42.1314 42.8319C42.5405 42.5046 43.1541 42.0546 43.236 41.4818C43.645 38.4955 39.8405 36.9818 40.086 33.9955C40.3314 31.1728 43.236 29.6591 45.5269 28.5546C46.795 27.8591 48.3496 27 48.5132 25.4046C48.5132 25.2409 48.5132 25.1591 48.595 24.9955C49.6178 25.1591 49.536 25.7318 49.6178 26.1818Z" fill="white"/>
<path d="M28.9997 35.1C29.327 35.1818 29.777 34.6909 29.9406 35.1818C29.8588 35.8772 29.8588 36.7363 29.5315 37.3091C29.2043 37.6363 28.6724 37.3909 28.3452 37.5545C27.8134 37.7182 27.7315 38.9045 27.1588 38.1682C26.9134 38.0863 26.7497 38.3318 26.5452 38.4954C26.2997 39.1091 26.0134 39.7636 25.5224 40.2954C25.4406 40.3772 25.277 40.4591 25.1952 40.2954C25.1134 39.8863 25.4406 39.1091 24.8679 38.9454C24.6224 38.9454 24.3361 39.1091 24.0906 39.1909C23.5588 39.1909 22.9043 39.1909 22.6588 39.6C22.577 39.8454 22.577 40.2136 22.2497 40.2136C21.9224 40.05 21.5543 39.9682 21.3906 39.6C21.227 39.5182 21.0634 39.3545 20.8588 39.5182C20.6134 39.7636 20.5315 40.2954 20.0815 40.2954C19.7543 40.2954 19.4679 40.2136 19.1406 40.05C19.2224 39.2727 20.0815 39.1909 20.5724 38.8636C21.5952 38.6182 22.4543 37.9227 23.477 37.7591C25.1134 37.1454 26.4634 35.8773 27.7315 34.6091C27.8952 34.5273 28.1406 34.4454 28.3452 34.4454C28.6315 34.6909 28.6315 35.0182 28.9997 35.1Z" fill="white"/>
<path d="M20.9 38.2091C20.5727 38.3727 20.1227 38.5363 19.7955 38.3727C19.6318 38.2091 19.7137 37.7591 19.6318 37.5136C19.7137 37.2682 20.0409 37.35 20.2455 37.4318C20.45 37.6772 20.9 37.7591 20.9 38.2091Z" fill="white"/>
<path d="M35.1363 42.4636C35.1363 42.9954 35.0545 43.3227 34.809 43.7317C34.1954 44.2636 33.7045 44.9181 33.5408 45.7772C33.5408 46.3908 33.459 46.8817 33.459 47.4136C33.2954 47.5772 33.1317 47.3317 33.0499 47.2499C32.8045 46.8408 32.8863 45.9818 32.1908 46.0636C31.8636 46.4727 31.4136 47.0863 31.659 47.6181C31.9863 48.0272 32.5999 48.3954 32.2726 48.9681C31.7408 49.2136 31.9454 49.9908 31.2499 50.0727C30.2272 50.2363 29.2045 49.7454 28.4272 50.4817C28.1817 50.7272 28.0181 51.0954 27.8136 51.4227C27.4045 51.5045 27.4863 50.809 27.1999 50.5636C27.0363 50.3181 26.6681 50.4817 26.4227 50.3181C26.0954 50.1545 25.6454 49.7863 25.2363 50.0727C24.909 50.2363 24.459 50.7681 24.0499 50.3999L23.4363 50.2363C23.4363 50.0727 23.5999 49.8272 23.4363 49.5408L22.3317 48.9272C22.2499 48.8454 22.3317 48.6817 22.4136 48.5999C23.3545 47.9863 24.459 48.6818 25.5636 48.5181C26.3408 48.2727 26.9954 48.3545 27.7727 48.4363C28.1817 48.4363 28.7136 48.5999 28.959 48.1908C29.1227 47.9454 29.2045 47.5772 29.0408 47.3318C28.7136 46.5545 27.6908 46.4727 27.4863 45.5317C27.4045 45.3681 27.3227 45.2045 27.159 45.1227C26.9136 45.0408 26.7499 45.2863 26.4636 45.2045C26.3817 44.959 26.2999 44.6727 26.0545 44.5908C25.5227 44.5908 24.9499 44.8363 24.4999 44.509C24.5817 44.2636 24.909 44.3454 25.1136 44.1817C25.809 44.0181 26.3817 43.5681 27.0772 43.2408L28.0181 43.0772C28.959 41.5227 30.9227 41.6454 32.6408 41.5227L34.2772 40.9908C34.8908 41.359 35.0545 42.0136 35.1363 42.4636Z" fill="white"/>
<path d="M24.5406 47.8228C24.2134 47.9864 23.8452 47.9046 23.5179 47.8228C23.3543 47.6591 23.2725 47.291 23.2725 47.0455C23.8043 46.8819 24.2952 47.4137 24.5406 47.8228Z" fill="white"/>
<path d="M39.391 53.1819C39.391 53.3457 39.2272 53.3457 39.1452 53.3457C38.9814 53.3457 38.9814 53.2638 38.9814 53.1819C38.9814 52.9362 39.3091 53.1 39.391 53.1819Z" fill="white"/>
<path d="M35.0546 25.6499C35.1364 25.8954 34.9728 26.059 34.7273 26.059C34.3182 26.059 33.95 26.059 33.7046 25.7317C33.3773 25.4863 33.5409 25.1181 33.6228 24.7908C33.7864 24.6272 33.95 24.6272 34.1546 24.709C34.4409 24.9545 34.8091 25.3227 35.0546 25.6499Z" fill="black"/>
<path d="M36.9361 26.1817C36.9361 26.4272 36.7724 26.7136 36.6088 26.959C36.4452 27.0408 36.2815 26.959 36.2815 26.7954C36.1997 26.5499 36.3633 26.1817 36.527 26.0181C36.6497 25.8954 36.9361 25.9772 36.9361 26.1817Z" fill="black"/>
<path d="M34.8089 28.5545V29.1681C34.1953 29.7818 34.1953 30.8045 33.3771 31.1318C33.1316 31.1318 32.968 31.05 32.968 30.8045C32.968 30.4772 32.8862 29.9454 32.968 29.6181C33.2953 29.4545 33.3771 30.15 33.7453 29.7818C33.9089 29.25 34.3589 28.8409 34.6044 28.4318C34.6044 28.3909 34.8089 28.4727 34.8089 28.5545Z" fill="black"/>
<path d="M9.44531 18.2455H60.1317V21.7228H9.44531V18.2455Z" fill="black"/>
<path d="M9.44531 18.2455H60.1317V21.7228H9.44531V18.2455Z" stroke="black" stroke-width="0.186709"/>
<path d="M47.1641 18.8182H52.8504V21.1501H47.1641V18.8182Z" fill="white"/>
<path d="M34.6045 18.8182H40.3318V21.1501H34.6045V18.8182Z" fill="white"/>
<path d="M22.0049 18.8182H27.814V21.1501H22.0049V18.8182Z" fill="white"/>
<path d="M10.0586 18.8182H15.254V21.1501H10.0586V18.8182Z" fill="white"/>
<path d="M57.7998 5.68637C58.2089 6.21819 57.9635 6.95455 58.0453 7.56819C58.4544 7.89546 59.4771 7.56819 59.5998 8.42728C59.6816 8.75456 59.4362 9.04092 59.2725 9.20455C58.9453 9.53183 58.4135 9.20455 58.168 9.53182C58.0862 10.5545 58.168 11.6591 58.168 12.8455C58.4953 13.0091 58.8635 13.0091 59.1907 13.1727C59.3544 13.3364 59.518 13.5818 59.518 13.8682C59.518 14.1136 59.3544 14.4 58.9862 14.4818C58.7407 14.6455 58.2089 14.4818 58.1271 14.8091C57.9635 15.3409 58.1271 15.9955 58.0453 16.6091C57.718 16.7727 57.1862 16.7727 56.7771 16.7727H52.6862C52.3589 16.9364 51.9089 17.3864 51.418 17.1C50.5589 16.5682 49.3726 16.7727 48.4316 16.6909H45.4453C44.9135 16.1591 45.2816 15.4227 45.118 14.8091C44.9544 14.4818 44.3407 14.6455 44.0135 14.4818C43.6862 14.3182 43.6862 13.95 43.6862 13.7046C43.6862 13.3773 44.0135 13.1727 44.3816 13.0909C44.6271 12.9273 45.0771 13.1727 45.1589 12.8455C45.1589 11.8227 45.0771 10.7182 45.1589 9.77728C45.0771 9.16364 44.2998 9.53183 43.9725 9.24546C43.6453 9.08183 43.6453 8.63182 43.7271 8.30455C43.9725 7.69091 44.668 7.89546 45.1589 7.69091L45.2407 7.52728L45.3226 5.72728L45.4044 5.56365L50.1089 5.64546C50.6407 5.64546 51.1316 5.89092 51.6635 6.05455C52.6862 5.27728 54.118 5.72728 55.3453 5.44092C56.1225 5.68637 56.9816 5.52273 57.7998 5.68637Z" fill="black"/>
<path d="M57.7998 5.68637C58.2089 6.21819 57.9635 6.95455 58.0453 7.56819C58.4544 7.89546 59.4771 7.56819 59.5998 8.42728C59.6816 8.75456 59.4362 9.04092 59.2725 9.20455C58.9453 9.53183 58.4135 9.20455 58.168 9.53182C58.0862 10.5545 58.168 11.6591 58.168 12.8455C58.4953 13.0091 58.8635 13.0091 59.1907 13.1727C59.3544 13.3364 59.518 13.5818 59.518 13.8682C59.518 14.1136 59.3544 14.4 58.9862 14.4818C58.7407 14.6455 58.2089 14.4818 58.1271 14.8091C57.9635 15.3409 58.1271 15.9955 58.0453 16.6091C57.718 16.7727 57.1862 16.7727 56.7771 16.7727H52.6862C52.3589 16.9364 51.9089 17.3864 51.418 17.1C50.5589 16.5682 49.3725 16.7727 48.4316 16.6909H45.4453C44.9135 16.1591 45.2816 15.4227 45.118 14.8091C44.9544 14.4818 44.3407 14.6455 44.0135 14.4818C43.6862 14.3182 43.6862 13.95 43.6862 13.7046C43.6862 13.3773 44.0135 13.1727 44.3816 13.0909C44.6271 12.9273 45.0771 13.1727 45.1589 12.8455C45.1589 11.8227 45.0771 10.7182 45.1589 9.77728C45.0771 9.16364 44.2998 9.53183 43.9725 9.24546C43.6453 9.08183 43.6453 8.63182 43.7271 8.30455C43.9725 7.69091 44.668 7.89546 45.1589 7.69091L45.2407 7.52728L45.3226 5.72728L45.4044 5.56365L50.1089 5.64546C50.6407 5.64546 51.1316 5.89092 51.6635 6.05455C52.6862 5.27728 54.118 5.72728 55.3453 5.44092C56.1225 5.68637 56.9816 5.52273 57.7998 5.68637Z" stroke="black" stroke-width="0.190268"/>
<path d="M40.9458 5.60452C41.1094 5.60452 41.3549 5.76816 41.5594 5.84998C41.7231 6.54543 41.5594 7.03635 41.7231 7.64998C42.1322 7.81362 42.8276 7.64998 43.0731 8.26362C43.1549 8.50907 43.1549 8.95906 42.9913 9.1227C42.664 9.53179 41.8867 9.12271 41.6413 9.65452C41.5594 10.8409 41.5594 11.7818 41.6413 12.8863C41.9685 13.2136 42.5822 12.9682 42.9094 13.4182C43.0731 13.5818 43.1549 13.8272 43.0731 14.1136C42.8276 14.5227 42.214 14.5227 41.7231 14.6454C41.5594 14.8091 41.7231 15.1772 41.6413 15.3409C41.4776 15.75 41.8867 16.3636 41.3958 16.6091C39.964 16.7727 38.6549 16.5273 37.2231 16.6091H35.8731C35.5458 16.8545 35.014 17.2227 34.6049 16.9363L33.7458 16.6091C32.7231 16.6091 31.7822 16.6091 30.7594 16.6091C30.064 16.6091 29.1231 16.8545 28.6322 16.2818C28.6322 15.75 28.714 15.1772 28.6322 14.6454C28.1003 14.4818 27.2822 14.7272 26.9958 14.0318C26.914 13.8682 26.9958 13.5 27.0776 13.3363C27.4049 12.8045 28.3458 13.2545 28.714 12.8045V11.25C28.7958 10.5545 28.714 9.9818 28.714 9.28635C28.1822 9.12271 27.2822 9.36816 27.1594 8.59089C27.0776 8.18179 27.3231 7.81361 27.6913 7.73179C28.0185 7.64997 28.5504 7.81361 28.714 7.48634L28.7958 5.84998C29.2049 5.15452 30.2276 5.60452 30.8413 5.5227H33.9913C34.5231 5.60452 34.9322 6.05452 35.4231 5.76816C36.9367 5.19543 39.064 5.76816 40.9458 5.60452Z" fill="black"/>
<path d="M40.9453 5.60452C41.1089 5.60452 41.3544 5.76816 41.5589 5.84998C41.7225 6.54543 41.5589 7.03635 41.7225 7.64998C42.1316 7.81362 42.8271 7.64998 43.0725 8.26362C43.1544 8.50907 43.1544 8.95906 42.9907 9.1227C42.6635 9.53179 41.8862 9.12271 41.6407 9.65452C41.5589 10.8409 41.5589 11.7818 41.6407 12.8863C41.968 13.2136 42.5816 12.9682 42.9089 13.4182C43.0725 13.5818 43.1544 13.8272 43.0725 14.1136C42.8271 14.5227 42.2135 14.5227 41.7225 14.6454C41.5589 14.8091 41.7225 15.1772 41.6407 15.3409C41.4771 15.75 41.8862 16.3636 41.3953 16.6091C39.9635 16.7727 38.6544 16.5273 37.2225 16.6091H35.8725C35.5453 16.8545 35.0135 17.2227 34.6044 16.9363L33.7453 16.6091C32.7225 16.6091 31.7816 16.6091 30.7589 16.6091C30.0635 16.6091 29.1225 16.8545 28.6316 16.2818C28.6316 15.75 28.7135 15.1772 28.6316 14.6454C28.0998 14.4818 27.2816 14.7272 26.9953 14.0318C26.9135 13.8682 26.9953 13.5 27.0771 13.3363C27.4044 12.8045 28.3453 13.2545 28.7135 12.8045V11.25C28.7953 10.5545 28.7135 9.9818 28.7135 9.28635C28.1816 9.12271 27.2816 9.36816 27.1589 8.59089C27.0771 8.18179 27.3225 7.81361 27.6907 7.73179C28.018 7.64997 28.5498 7.81361 28.7135 7.48634L28.7953 5.84998C29.2044 5.15452 30.2271 5.60452 30.8407 5.5227H33.9907C34.5225 5.60452 34.9316 6.05452 35.4225 5.76816C36.9362 5.19543 39.0635 5.76816 40.9453 5.60452ZM17.7498 5.93179C19.468 5.23634 21.3498 5.76816 23.1907 5.60452C23.7225 5.68634 24.3771 5.35907 24.7453 5.84998C24.7453 6.3818 24.7453 6.8727 24.7453 7.48634C24.9089 7.89543 25.5225 7.64998 25.768 7.81362C25.9316 7.89543 26.0953 7.97725 26.1771 8.22271C26.2589 8.46816 26.1771 8.75452 26.0953 8.99998C25.768 9.32725 25.318 9.24543 24.9089 9.32724L24.7453 9.49089C24.8271 10.5136 24.5816 11.3727 24.7453 12.3136C24.7453 12.4773 24.6635 12.8454 24.9089 12.9273C25.4407 12.9273 25.8498 12.9272 26.1771 13.2545C26.3407 13.5 26.3407 13.7863 26.2589 14.1136C26.0953 15.1363 24.4589 13.95 24.6225 15.1363C24.6225 15.5454 24.7044 16.1591 24.5407 16.5682C22.6589 16.5682 20.7771 16.4045 19.0998 16.5682C18.7725 16.8136 18.4044 16.9772 17.9135 17.1C17.5862 17.0182 17.218 16.8545 16.9725 16.5682C15.2544 16.4863 13.6589 16.4863 12.0225 16.4863C11.4907 16.0772 11.8589 15.3 11.6953 14.6863C11.4498 14.3591 10.9998 14.6045 10.6725 14.4409C10.4271 14.4409 10.3453 14.1954 10.2635 14.0318C10.2635 13.7045 10.2635 13.3363 10.5089 13.0909C10.7544 12.9272 11.2044 12.9273 11.5316 12.9273L11.6953 12.7636C11.6135 11.6591 11.8589 10.5545 11.6135 9.36816C11.4498 9.1227 11.0816 9.36816 10.918 9.20452C10.5907 9.1227 10.2225 8.95907 10.1407 8.59089C10.0589 8.34543 10.0589 8.05907 10.3044 7.81362C10.6316 7.40452 11.3271 7.89543 11.6544 7.48634L11.818 5.84998C12.0635 5.31816 12.6771 5.60452 13.168 5.60452C14.0271 5.44088 15.0498 5.60452 15.9089 5.60452C16.6044 5.60452 17.218 5.76816 17.7498 5.93179Z" stroke="black" stroke-width="0.190268"/>
<path d="M17.4636 6.38179L17.6272 6.70905C17.709 8.99996 17.709 11.3318 17.709 13.7863L17.6272 14.6454C17.0136 14.6454 16.4408 14.4 15.8272 14.4818C15.1317 14.4 14.4772 14.5636 13.8636 14.4C13.5363 13.6227 13.7817 12.7636 13.6999 11.9454C13.6999 10.2272 13.7817 8.09996 13.7817 6.29996C13.7817 6.13633 13.9454 6.13633 14.0272 6.05451C15.2545 6.13633 16.5226 5.76815 17.4636 6.38179Z" fill="white"/>
<path d="M12.9635 6.21811C12.6363 6.46356 12.1863 6.91356 12.3499 7.32265C12.5135 10.2272 12.3499 12.7636 12.5135 15.5045L12.759 15.7499C14.109 15.7499 15.5817 15.5863 16.8499 15.8317C16.9317 15.8317 16.9317 15.9954 16.8499 15.9954C16.5226 16.159 16.0726 16.0772 15.7454 16.0772L12.2681 15.9954C12.0226 15.8317 12.1045 15.3817 12.1045 15.0545C12.1045 14.7272 12.1863 14.2772 11.859 14.1136C11.3272 14.0317 10.9181 14.1136 10.5908 13.7863C10.8363 13.0908 11.9408 13.6227 12.1454 12.9272C12.2272 11.659 12.0635 10.3499 12.1454 9.16356C11.9817 8.46811 11.2863 8.63174 10.7954 8.54992C10.7135 8.46811 10.6317 8.38629 10.6317 8.22266C11.0408 7.81357 11.8999 8.30447 12.1863 7.69083C12.3499 7.15901 12.1863 6.66811 12.2681 6.05447C12.4317 5.97266 12.7999 5.97266 13.0454 5.97266V6.21811H12.9635Z" fill="white"/>
<path d="M22.5776 6.21813C22.5776 9.04085 22.5776 11.659 22.5776 14.3181C21.2276 14.4818 19.673 14.2363 18.323 14.5636C17.9958 14.3181 18.2412 13.8681 18.1594 13.459C18.0776 12.5999 18.1594 11.5772 18.1594 10.6363C18.1594 9.28631 18.0776 7.81358 18.1594 6.46358C18.323 6.05449 18.8549 5.93176 19.264 5.93176H22.4958L22.5776 6.21813Z" fill="white"/>
<path d="M24.214 6.21821C24.2958 6.75003 24.0504 7.4864 24.3777 8.01821C24.7049 8.18185 25.2368 8.10003 25.564 8.18185C25.7277 8.34548 25.6458 8.50911 25.564 8.71366C25.2368 9.04093 24.3777 8.63185 24.214 9.24549C24.214 10.5955 24.1322 11.9046 24.214 13.2546L24.3777 13.4182C24.7868 13.5 25.4004 13.3364 25.6458 13.6637C25.6458 13.8273 25.6458 14.0728 25.4822 14.1955C25.0731 14.2773 24.3777 14.0318 24.1322 14.5228C24.0504 15.0546 24.214 15.6273 24.0504 16.1591L23.8049 16.2409L18.9368 16.1591C18.8549 16.0773 18.9368 15.9955 18.9368 15.9955L19.4686 15.8319H23.3958C23.8049 15.75 23.8049 15.2182 23.8049 14.8909C23.8049 12.9273 23.8049 11.2909 23.8049 9.45003C23.8049 8.50912 23.9686 7.65003 23.7231 6.70912C23.7231 6.54548 23.3958 6.38184 23.3958 6.09548C23.6822 6.05457 24.0504 6.05457 24.214 6.21821Z" fill="white"/>
<path d="M46.3048 6.2182C46.223 6.46366 45.8957 6.75002 45.773 6.99548C45.773 9.81821 45.773 12.8864 45.8548 15.7909L46.1003 15.9546C47.6548 15.9546 49.2503 15.6273 50.5184 16.2818C50.6003 16.2818 50.5184 16.2818 50.5184 16.3637C48.8821 16.3637 47.2048 16.4455 45.5684 16.3637L45.4048 16.2C45.323 15.5864 45.4866 15.0137 45.2412 14.4C44.9139 14.0728 43.8093 14.4818 44.0548 13.7046C44.4639 13.3773 45.0775 13.7864 45.323 13.2955C45.323 11.8637 45.4048 10.5546 45.323 9.20457C44.9957 8.79548 44.4639 9.04093 44.0548 8.95911C43.8912 8.79547 43.8093 8.63184 43.973 8.4273C44.3821 8.10002 45.773 8.50911 45.5275 7.48638C45.6912 7.07729 45.3639 6.2182 45.9366 6.13638C46.0593 6.05457 46.223 6.05457 46.3048 6.2182Z" fill="white"/>
<path d="M57.5547 6.21813C57.7184 6.91359 57.3911 7.48631 57.8002 8.09995C58.1274 8.26359 58.8229 8.01814 58.9865 8.42723C58.9865 9.28632 57.8002 8.59087 57.5547 9.28632C57.6365 10.5545 57.4729 11.659 57.5547 13.05C57.3911 13.1318 57.3911 13.2954 57.4729 13.3772C57.8002 13.7045 58.332 13.2136 58.7411 13.5409C58.9865 13.6227 58.8229 13.7863 58.8229 13.95C58.4956 14.359 57.8002 13.8681 57.5547 14.4818L57.4729 16.2L57.2275 16.2818H52.6047C52.5229 16.1999 52.6047 16.2 52.6047 16.1181L53.1365 15.9545H56.6138C56.7775 15.9545 57.0229 15.7909 57.0229 15.5454C57.0229 12.8045 56.9411 9.98177 56.9411 7.11813L56.532 6.25905C56.982 6.0545 57.4729 5.93177 57.5547 6.21813Z" fill="white"/>
<path d="M46.7954 7.32273C46.7954 9.69546 46.7954 12.2727 46.7954 14.7273C46.7136 14.8909 46.4681 15.0545 46.3863 15.1364L46.2227 15.0545C46.2227 14.2773 46.2227 13.3364 46.2227 12.6V11.9864C46.2227 10.35 46.2227 8.59091 46.2227 6.95455C46.3863 6.79091 46.4681 6.54546 46.6317 6.42273C46.7954 6.79091 46.7954 6.95455 46.7954 7.32273Z" fill="white"/>
<path d="M56.859 6.95459C56.7772 8.91823 56.859 10.7182 56.859 12.5182C56.859 13.3773 56.859 14.1546 56.859 14.891C56.859 14.9728 56.859 14.9728 56.7772 15.0546C56.1636 14.8091 56.4499 14.1955 56.3681 13.6228C56.3681 12.9273 56.2863 12.0682 56.4499 11.3319L56.3681 11.0864V6.58642C56.5317 6.30005 56.7772 6.70914 56.859 6.95459Z" fill="white"/>
<path d="M23.518 6.79095C23.518 9.61368 23.518 12.3546 23.4361 14.8091C23.3543 14.9728 23.2725 14.8091 23.1089 14.7273C22.9452 14.3182 23.1089 13.7864 23.1089 13.3773C23.027 11.1682 23.1089 8.87731 23.1089 6.62731C23.2725 6.46367 23.4361 6.70913 23.518 6.79095Z" fill="white"/>
<path d="M51.8273 10.3091C51.7455 10.4728 51.5 10.4728 51.2955 10.391L51.1318 10.3091C51.2137 9.98187 51.1318 9.45004 51.4591 9.20459C51.7455 9.45004 51.6637 9.94096 51.8273 10.3091Z" fill="white"/>
<path d="M23.1903 15.2591C23.1085 15.4227 22.7812 15.3409 22.5767 15.4227H21.4721C20.613 15.4227 19.6721 15.3409 18.8949 15.5045C18.7312 15.5045 18.6494 15.3409 18.6494 15.1773C18.7312 14.85 19.1812 15.0136 19.4267 14.85C20.4494 14.85 21.7176 14.85 22.7403 14.85C22.8631 14.8909 23.0267 15.0954 23.1903 15.2591Z" fill="white"/>
<path d="M17.3817 15.0954C17.3817 15.259 17.2181 15.4227 17.0544 15.5045C15.9499 15.1772 14.7635 15.4227 13.5771 15.259C13.659 15.0954 13.8226 14.9318 14.109 14.9318C15.1726 14.8909 16.359 14.8909 17.3817 15.0954Z" fill="white"/>
<path d="M51.0905 15.2591C51.1723 15.3409 51.1723 15.5045 51.0905 15.5045C50.6814 16.0363 50.1496 15.4227 49.6587 15.5045C48.7996 15.4227 47.7768 15.5045 46.8359 15.4227C47.0814 14.6454 48.1041 15.0954 48.7178 15.0136C49.5359 15.0954 50.395 14.8091 51.0905 15.2591Z" fill="white"/>
<path d="M56.2045 15.0954C56.3681 15.1772 56.5318 15.3409 56.5318 15.5045C55.0999 15.6681 53.709 15.3408 52.4409 15.6681C52.2772 15.6681 52.1954 15.4227 52.2772 15.259C52.5227 14.9318 52.9727 15.0136 53.3818 14.9318L56.2045 15.0954Z" fill="white"/>
<path d="M18.4865 15.75C18.5683 15.9955 18.4865 16.3636 18.3229 16.5273C18.1593 16.6909 17.9138 16.6909 17.7093 16.6091C17.5456 16.6091 17.4638 16.3636 17.4638 16.2C17.382 15.8727 17.7911 15.6682 17.9956 15.4227C18.2411 15.4227 18.4047 15.5864 18.4865 15.75Z" fill="white"/>
<path d="M52.1134 15.9136C52.1134 16.2408 52.1134 16.6908 51.7861 16.6908C51.5407 16.6908 51.2543 16.609 51.1725 16.3636C51.0907 16.0363 51.3361 15.6681 51.4998 15.5863C51.827 15.5863 52.0316 15.7499 52.1134 15.9136Z" fill="white"/>
<path d="M39.554 6.30003C39.554 8.95913 39.554 11.741 39.554 14.4L39.3904 14.4819C37.9586 14.6455 36.4859 14.2364 35.1359 14.7273C34.8904 14.5637 35.1359 14.1955 35.054 13.95C35.054 11.6591 35.054 9.24549 35.054 6.79095C35.054 6.54549 35.2177 6.38186 35.3813 6.25913C35.7086 6.01367 36.2404 6.09549 36.7313 6.01367L39.4722 6.09549L39.554 6.30003Z" fill="white"/>
<path d="M41.1904 6.21822C41.1904 6.83185 41.1904 7.40458 41.2722 8.01822C41.6813 8.34549 42.9086 7.85458 42.6222 8.79549C42.2949 9.04095 41.7631 8.87731 41.354 8.95913L41.1904 9.04095C41.0267 10.3909 41.2722 11.8637 41.1904 13.05C41.1904 13.2137 41.2722 13.3773 41.5176 13.4591C41.8449 13.4591 42.4586 13.2137 42.6222 13.7046C42.5404 14.5637 41.5177 13.7864 41.1904 14.4C41.1086 15.0137 41.354 15.5864 41.1086 16.2L40.9449 16.2818C39.1449 16.2818 37.4676 16.2819 35.8313 16.2C35.7495 16.2 35.8313 16.0364 35.8313 16.0364L36.1586 15.8728C37.5086 15.7091 39.0631 15.8728 40.4949 15.7091C40.6586 15.7091 40.8222 15.5455 40.8222 15.3C40.8222 12.6409 40.8222 10.0228 40.8222 7.0364C40.7404 6.62731 40.2904 6.34094 40.2904 6.01367C40.5767 6.05458 41.0267 5.93185 41.1904 6.21822Z" fill="white"/>
<path d="M29.7775 6.13638C29.6956 6.46366 29.4502 6.54547 29.2456 6.83184C29.082 7.36366 29.2456 7.93638 29.1638 8.55002C29.1638 10.9227 29.1638 13.1727 29.1638 15.4637C29.1638 15.6273 29.3275 15.7909 29.4911 15.8727L33.1729 15.9546C33.3366 15.9546 33.582 16.0364 33.7866 16.2C33.7047 16.3637 33.4593 16.3637 33.2547 16.3637C31.9047 16.3637 30.432 16.4455 29.082 16.2818L28.9184 16.2C28.9184 15.5864 28.9184 14.9318 28.6729 14.4C28.2638 14.2364 27.732 14.4 27.3229 14.2364C27.1593 14.1546 27.1593 13.9091 27.3229 13.7046C27.732 13.4591 28.5911 13.8682 28.8775 13.1728C28.8775 11.8228 28.9593 10.5137 28.8775 9.16365C28.5502 8.63184 27.6911 9.16366 27.3229 8.63184C27.4866 7.85457 28.5093 8.55003 28.8775 7.85457L28.9593 6.2182C29.2456 6.05457 29.4911 6.05457 29.7775 6.13638Z" fill="white"/>
<path d="M30.2681 6.54547C30.3499 8.9182 30.1044 11.0455 30.2681 13.4591C30.1044 13.9909 30.5135 14.8091 29.7363 14.8909C29.5726 12.5182 29.7363 9.94093 29.6544 7.40456C29.5726 6.99547 29.8181 6.62729 30.1863 6.38184L30.2681 6.54547Z" fill="white"/>
<path d="M40.4953 6.95461C40.4953 9.6137 40.5771 12.3955 40.4134 14.891C40.2498 14.891 40.0862 14.7273 40.0862 14.6455C40.0862 13.6228 39.9225 12.5182 40.0044 11.4137C40.0862 9.98188 39.9225 8.18188 40.0862 6.62734C40.2498 6.54552 40.4953 6.79097 40.4953 6.95461Z" fill="white"/>
<path d="M34.1954 15.0954C34.359 15.0954 34.5227 15.2591 34.359 15.4227L34.1136 15.6682C32.9272 15.2591 31.3727 15.5045 30.1045 15.3409C30.1863 15.1773 30.2681 15.0136 30.4318 14.8091C31.6999 14.9727 33.009 14.8091 34.1954 15.0954Z" fill="white"/>
<path d="M39.6364 14.8909C39.8 14.9727 39.9637 15.1363 39.9637 15.2999L39.8 15.3818C38.3682 15.3818 36.8955 15.2181 35.5455 15.5454C35.3819 15.5454 35.1364 15.5454 35.0137 15.2999C35.1773 14.9727 35.5455 14.8909 35.8728 14.8909C37.2637 14.809 38.45 14.8909 39.6364 14.8909Z" fill="white"/>
<path d="M35.2192 16.1185C35.2192 16.3642 35.2192 16.7327 34.8916 16.7327C34.6459 16.7327 34.2773 16.7327 34.2773 16.4051C34.3592 16.1594 34.523 15.9956 34.8097 15.7909C35.0554 15.668 35.1373 15.9137 35.2192 16.1185Z" fill="white"/>
<path d="M34.5223 11.7409C34.686 10.3909 34.5223 8.83638 34.6041 7.48638C34.6041 7.07729 34.6041 6.62729 34.3587 6.30002C33.336 5.89093 32.0678 6.13639 30.8814 6.05457C30.7996 6.05457 30.7178 6.05457 30.7178 6.13638C30.7178 8.87729 30.7178 11.4137 30.7178 14.0727L30.7996 14.4C31.6587 14.5637 32.436 14.4818 33.2541 14.4818C33.6632 14.5637 34.1132 14.6455 34.5223 14.7273C34.5223 13.7864 34.6041 13.0909 34.5223 12.15V11.7409Z" fill="white"/>
<path d="M34.1953 11.6591C33.7863 11.3319 33.6635 10.8 33.3363 10.3909C33.4999 10.2273 33.6635 10.1455 33.8681 9.98185C34.1135 9.7364 34.3999 9.2864 34.2772 8.95913C34.2772 8.63185 34.1135 8.26367 33.7453 8.10003C33.0499 7.85458 32.109 7.93641 31.3726 8.01822C31.209 8.10004 31.209 8.18185 31.2908 8.34549C31.5363 8.34549 31.6999 8.50913 31.6999 8.75458C31.6999 9.69549 31.6999 10.6364 31.5363 11.5773L31.209 11.9864C31.5363 12.3137 32.0681 12.0682 32.6408 12.15C32.8044 11.9046 32.3953 11.7409 32.3135 11.4546C32.3953 11.2091 32.3135 10.7591 32.4772 10.5955C33.009 11.0046 33.1726 11.7819 33.7453 12.2319L34.5226 12.3137V11.9046C34.5226 11.8228 34.2772 11.6591 34.1953 11.6591ZM33.1726 9.94094C32.9272 9.94094 32.559 10.1046 32.4772 9.77731C32.4772 9.36822 32.3135 8.75458 32.4772 8.34549C32.8044 8.10004 33.2544 8.18185 33.4999 8.50912C33.6635 8.75458 33.6635 9.04095 33.6635 9.36822C33.4999 9.61367 33.4181 9.85913 33.1726 9.94094Z" fill="black"/>
<path d="M56.041 7.07731C56.041 6.75004 56.041 6.38185 55.8773 6.1364H54.6092C53.7501 6.30004 52.7273 5.97277 51.9501 6.46367C51.6228 6.87277 51.7864 7.32277 51.7046 7.81368C51.7864 8.05913 51.8683 8.42731 51.9501 8.67277L51.7864 9.00004L51.3773 8.8364L51.2137 8.50912C51.2955 8.34549 51.3773 8.18185 51.3773 7.89549C51.3773 7.28185 51.541 6.46368 50.7637 6.17731C49.6592 6.09549 48.6364 6.01367 47.4501 6.01367C47.3683 6.01367 47.2864 6.01367 47.2864 6.09549C47.2864 8.75458 47.2864 11.0455 47.2864 13.5819C47.2864 13.9091 47.2046 14.2773 47.5319 14.4409C48.5546 14.2773 49.4137 14.4409 50.3546 14.4409C50.6819 14.4409 50.9683 14.7682 51.3773 14.6864C51.4592 13.6637 51.4592 12.3955 51.4592 11.2091C51.4592 11.1273 51.4592 10.8819 51.2955 10.8819V10.6364L51.9092 10.7182L51.991 10.8819C51.991 10.8819 51.991 10.8818 51.9092 10.9637L51.8273 14.4409C51.8273 14.5228 51.8273 14.7682 52.0728 14.7682C53.0955 14.1546 54.4455 14.6046 55.6728 14.4409L55.9183 14.3591C56.0819 13.7455 56.0001 11.7 56.0001 11.7C56.041 10.2273 56.041 8.67277 56.041 7.07731Z" fill="white"/>
<path d="M52.0317 10.8818C52.1954 11.0455 52.2772 11.2909 52.1954 11.5773L51.9499 11.9046L52.1136 12.0682C52.5226 12.0682 53.0545 12.15 53.4636 11.9864C53.3817 11.8227 53.1363 11.7409 52.9317 11.5773C52.3999 10.3091 52.0726 9.00002 51.7454 7.65002L51.3363 7.89547C51.0908 9.08183 50.6408 10.1046 50.3135 11.2909C50.2317 11.5364 49.9863 11.5364 49.7817 11.7C49.5363 11.7818 49.4545 11.5364 49.3726 11.3727C49.3726 10.35 49.4545 9.49093 49.3726 8.38638C49.3726 8.22275 49.5363 8.05911 49.6999 8.22275C49.9454 8.38639 49.9454 8.75456 50.0272 8.9182C50.1908 9.00001 50.3545 9.00002 50.3545 8.83639L50.5181 7.81366C50.3545 7.48639 50.109 7.81366 49.8226 7.81366C49.2908 7.81366 48.6363 7.89548 48.1045 7.65002C47.6954 7.81366 47.7772 8.34547 47.7772 8.75456C47.7772 8.83638 47.7772 8.9182 47.7772 8.9182C48.1045 8.67274 48.309 8.14093 48.7181 8.22275V9.24548V11.4546C48.5545 11.6182 48.1863 11.7 48.309 11.9864C48.9226 12.15 49.5772 11.9864 50.1908 12.0682C50.5181 12.0682 50.8863 12.15 51.2136 12.0682C51.2954 11.9864 51.2136 11.9046 51.2136 11.8227C51.0499 11.7409 50.8045 11.5773 50.8863 11.2909C50.9681 11.1273 51.0499 10.7591 51.2954 10.8818C51.3772 10.8818 51.3772 10.8818 51.459 10.9637L51.9908 11.0455C51.9499 10.9637 51.9499 10.8818 52.0317 10.8818ZM51.2545 10.4727L51.0908 10.3909C51.1726 10.0637 51.0908 9.53184 51.4181 9.28639C51.7454 9.45002 51.6636 9.98184 51.8272 10.3091C51.7454 10.4728 51.4181 10.4727 51.2545 10.4727Z" fill="black"/>
<path d="M55.1819 8.10005C55.1819 8.3455 55.3456 8.79551 55.1819 8.95914C54.9365 8.79551 54.9365 8.55006 54.4865 8.42733C54.3229 8.42733 54.0774 8.42733 54.0774 8.67279C53.9956 9.45006 54.7729 9.45006 55.1819 9.85915C55.591 10.2682 55.7956 10.8819 55.591 11.4137C55.4274 11.8228 55.2638 12.0273 54.8138 12.0273C54.4865 12.1091 54.2001 11.8637 53.9547 12.0273C53.8729 12.0273 53.791 12.1091 53.7092 12.0273V10.6364C53.7092 10.5546 53.791 10.5546 53.8729 10.5546C54.0365 10.9637 53.9547 11.4955 54.5683 11.5773C54.7319 11.5773 54.8956 11.4955 54.9774 11.2501C55.0592 10.0637 53.4229 10.3091 53.4229 9.04097C53.4229 8.79551 53.5047 8.50915 53.5865 8.2637C53.8319 7.85461 54.5274 8.10006 54.9365 7.85461C55.1001 7.73188 55.1001 8.01823 55.1819 8.10005Z" fill="black"/>
<path d="M37.9595 8.01819C37.6323 8.18182 37.2641 8.42727 37.3459 8.95909C37.2641 9.81818 37.2641 10.6773 37.3459 11.5364L37.8777 12.0682V12.15C37.2641 12.15 36.7732 12.2318 36.1595 12.15C35.9141 11.9046 36.4868 11.7409 36.5686 11.5364C36.6505 10.5955 36.7323 9.57273 36.6505 8.55C36.4868 8.22273 35.955 8.30455 36.0368 7.93636C36.5686 7.85455 37.2232 7.85455 37.755 7.93636L37.9595 8.01819Z" fill="black"/>
<path d="M21.2272 8.67275C20.8999 9.08184 20.8181 8.34548 20.4499 8.26366C20.2863 8.26366 19.9181 8.18184 19.7545 8.34547C19.6727 8.75456 19.5908 9.20456 19.7545 9.61366C19.9181 9.69547 20.1636 9.69548 20.3681 9.69548C20.5318 9.53184 20.6954 9.16365 20.9818 9.16365C21.1454 9.32729 20.8999 9.57274 20.9818 9.77729C20.8999 10.0227 21.1454 10.3909 20.8181 10.4727C20.6545 10.3909 20.4908 9.94092 20.2045 9.94092H19.6727C19.509 10.5546 19.5908 11.1273 19.6727 11.7409C19.9181 11.9864 20.2863 11.7409 20.6136 11.7409C21.0227 11.6591 20.9408 11.0455 21.309 11.0455C21.3908 11.2909 21.4727 11.6591 21.3908 11.9046L21.2272 12.0682H18.7727C18.6908 12.0682 18.4454 12.0682 18.5272 11.9046C19.3045 11.3727 18.8545 10.4727 18.9363 9.77729C18.8545 9.24547 19.2636 8.4273 18.5272 8.05912C18.5272 7.89548 18.6908 7.89547 18.7727 7.89547C19.3863 7.89547 20.2045 8.14093 20.7363 7.65002C21.2272 7.81366 21.2272 8.34548 21.2272 8.67275Z" fill="black"/>
<path d="M17.4638 8.18185C16.7684 8.71367 16.7684 9.7364 16.4411 10.4728C16.1956 10.8819 16.2774 11.5773 15.8274 11.9046C15.6638 11.9864 15.5002 11.8228 15.5002 11.6591C15.2547 10.6364 14.9684 9.53184 14.5593 8.50912C14.5593 8.26366 13.782 8.18184 14.232 7.89548C14.7638 7.81366 15.0911 7.9773 15.582 7.89548C15.6638 8.22275 15.2547 8.4273 15.3365 8.75457C15.6638 9.16366 15.5002 9.85912 15.9502 10.3909L16.1138 10.2273C16.1138 9.45003 17.0547 8.67276 16.2774 8.01821C16.4411 7.69094 16.9729 7.9364 17.3002 7.85458C17.382 7.89549 17.6274 8.01821 17.4638 8.18185Z" fill="black"/>
<path d="M13.291 6.54541C13.4546 9.36814 13.291 11.9863 13.291 14.6454C13.291 14.809 13.1273 14.9727 12.9637 14.9727C12.8 14.1136 12.8 13.2545 12.8819 12.3954C12.8 10.5954 12.8819 8.71359 12.8819 6.9545C12.8819 6.70905 13.1273 6.54541 13.291 6.54541Z" fill="white"/>
</svg>
