<svg width="20" height="20" viewBox="0 0 20 20" fill="none" xmlns="http://www.w3.org/2000/svg">
<path d="M12.7563 11.8234L10.9722 13.5834C10.0418 13.0224 9.17743 12.3585 8.3955 11.6042C7.64237 10.821 6.97858 9.95653 6.41633 9.02673L8.17467 7.24256C8.28116 7.13442 8.35308 6.99704 8.38127 6.84791C8.40947 6.69877 8.39266 6.54462 8.333 6.40506L6.49967 2.13173C6.42724 1.96323 6.29669 1.82636 6.13179 1.74605C5.9669 1.66575 5.77865 1.64736 5.60133 1.69423L2.23967 2.5834C2.07179 2.62692 1.92366 2.72613 1.8195 2.86479C1.71535 3.00346 1.66135 3.17337 1.66633 3.34673C1.88023 7.25654 3.50587 10.9558 6.24133 13.7576C9.04356 16.4939 12.7439 18.1199 16.6547 18.3334C16.8282 18.3392 16.9985 18.2857 17.1375 18.1816C17.2764 18.0775 17.3757 17.9291 17.4188 17.7609L18.3072 14.3976C18.3543 14.2203 18.3361 14.0321 18.2559 13.8672C18.1758 13.7023 18.039 13.5717 17.8705 13.4992L13.5963 11.6667C13.4566 11.6062 13.3021 11.5888 13.1524 11.6167C13.0027 11.6446 12.8648 11.7166 12.7563 11.8234V11.8234Z" stroke="#02643E" stroke-width="1.66667" stroke-miterlimit="10" stroke-linecap="square"/>
</svg>
