<svg width="571" height="410" viewBox="0 0 571 410" fill="none" xmlns="http://www.w3.org/2000/svg">
<path d="M45.4688 52.7812C38.8229 52.7812 33.2708 50.5938 28.8125 46.2188C24.3542 41.8438 22.125 36.4167 22.125 29.9375C22.125 23.4375 24.3542 18 28.8125 13.625C33.2708 9.25 38.8229 7.0625 45.4688 7.0625C51.5729 7.0625 56.7812 8.92708 61.0938 12.6562C65.4062 16.3646 67.9167 21.0938 68.625 26.8438H58.3438C57.6979 23.8229 56.1875 21.3646 53.8125 19.4688C51.4583 17.5521 48.6771 16.5938 45.4688 16.5938C41.7188 16.5938 38.5833 17.8646 36.0625 20.4062C33.5417 22.9479 32.2812 26.125 32.2812 29.9375C32.2812 33.7292 33.5417 36.8958 36.0625 39.4375C38.5833 41.9583 41.7188 43.2188 45.4688 43.2188C48.6771 43.2188 51.4583 42.2708 53.8125 40.375C56.1875 38.4792 57.6979 36.0208 58.3438 33H68.625C67.8958 38.75 65.375 43.4896 61.0625 47.2188C56.7708 50.9271 51.5729 52.7812 45.4688 52.7812ZM84.5312 42.6562H98.4688V52H74.5938V7.84375H84.5312V42.6562ZM104.094 52V7.84375H114.031V52H104.094ZM143.656 52.7812C137.01 52.7812 131.458 50.5938 127 46.2188C122.542 41.8438 120.312 36.4167 120.312 29.9375C120.312 23.4375 122.542 18 127 13.625C131.458 9.25 137.01 7.0625 143.656 7.0625C149.76 7.0625 154.969 8.92708 159.281 12.6562C163.594 16.3646 166.104 21.0938 166.812 26.8438H156.531C155.885 23.8229 154.375 21.3646 152 19.4688C149.646 17.5521 146.865 16.5938 143.656 16.5938C139.906 16.5938 136.771 17.8646 134.25 20.4062C131.729 22.9479 130.469 26.125 130.469 29.9375C130.469 33.7292 131.729 36.8958 134.25 39.4375C136.771 41.9583 139.906 43.2188 143.656 43.2188C146.865 43.2188 149.646 42.2708 152 40.375C154.375 38.4792 155.885 36.0208 156.531 33H166.812C166.083 38.75 163.562 43.4896 159.25 47.2188C154.958 50.9271 149.76 52.7812 143.656 52.7812ZM209.969 52H197.625L182.719 33.75V52H172.781V7.84375H182.719V25.75L197.438 7.84375H209.594L191.656 29.7812L209.969 52ZM255.562 7.84375H265.469V52H255.562V34.4688H237.844V52H227.906V7.84375H237.844V25.125H255.562V7.84375ZM283.844 42.6562H299.719V52H273.906V7.84375H299.375V17.1875H283.844V25.125H297.281V34.4688H283.844V42.6562ZM326.125 52L316.781 36.9062H316.031V52H306.094V7.84375H321.906C326.302 7.84375 329.958 9.25 332.875 12.0625C335.812 14.875 337.281 18.3958 337.281 22.625C337.281 25.6875 336.438 28.4062 334.75 30.7812C333.062 33.1562 330.812 34.8542 328 35.875L338.469 52H326.125ZM316.031 17.1875V28.25H321.719C323.26 28.25 324.542 27.7292 325.562 26.6875C326.583 25.6458 327.094 24.3333 327.094 22.75C327.094 21.1667 326.583 19.8438 325.562 18.7812C324.542 17.7188 323.26 17.1875 321.719 17.1875H316.031ZM353.469 42.6562H369.344V52H343.531V7.84375H369V17.1875H353.469V25.125H366.906V34.4688H353.469V42.6562ZM418.125 7.84375H428.062V52H418L399.719 25V52H389.781V7.84375H399.781L418.125 34.8438V7.84375ZM474.281 46.2188C469.823 50.5938 464.26 52.7812 457.594 52.7812C450.948 52.7812 445.396 50.5938 440.938 46.2188C436.479 41.8438 434.25 36.4167 434.25 29.9375C434.25 23.4375 436.479 18 440.938 13.625C445.396 9.25 450.948 7.0625 457.594 7.0625C464.26 7.0625 469.823 9.25 474.281 13.625C478.74 18 480.969 23.4375 480.969 29.9375C480.969 36.4167 478.74 41.8438 474.281 46.2188ZM448.188 39.4375C450.708 41.9583 453.844 43.2188 457.594 43.2188C461.344 43.2188 464.479 41.9583 467 39.4375C469.521 36.8958 470.781 33.7292 470.781 29.9375C470.781 26.125 469.521 22.9479 467 20.4062C464.479 17.8646 461.344 16.5938 457.594 16.5938C453.844 16.5938 450.708 17.8646 448.188 20.4062C445.667 22.9479 444.406 26.125 444.406 29.9375C444.406 33.7292 445.667 36.8958 448.188 39.4375ZM540.094 7.84375H550.844L535.156 52H525.25L515.906 22.9375L506.5 52H496.5L480.875 7.84375H491.844L501.625 38.5L511.469 7.84375H520.438L530.375 38.5L540.094 7.84375Z" fill="#F5F4F4"/>
<path d="M385.562 57.25H551.406V62.5H385.562V57.25Z" fill="#F5F4F4"/>
<path d="M18.4629 365.232V370.05H12.8232V388H7.69922V370.05H2.05957V365.232H18.4629ZM39.4746 385.019C37.1758 387.275 34.3076 388.403 30.8701 388.403C27.4434 388.403 24.5806 387.275 22.2817 385.019C19.9829 382.763 18.8335 379.965 18.8335 376.624C18.8335 373.272 19.9829 370.469 22.2817 368.213C24.5806 365.957 27.4434 364.829 30.8701 364.829C34.3076 364.829 37.1758 365.957 39.4746 368.213C41.7734 370.469 42.9229 373.272 42.9229 376.624C42.9229 379.965 41.7734 382.763 39.4746 385.019ZM26.02 381.522C27.3198 382.822 28.9365 383.472 30.8701 383.472C32.8037 383.472 34.4204 382.822 35.7202 381.522C37.02 380.212 37.6699 378.579 37.6699 376.624C37.6699 374.658 37.02 373.02 35.7202 371.709C34.4204 370.399 32.8037 369.744 30.8701 369.744C28.9365 369.744 27.3198 370.399 26.02 371.709C24.7202 373.02 24.0703 374.658 24.0703 376.624C24.0703 378.579 24.7202 380.212 26.02 381.522ZM82.0781 365.232H87.6211L79.5322 388H74.4243L69.6064 373.015L64.7563 388H59.6001L51.5435 365.232H57.1992L62.2427 381.039L67.3184 365.232H71.9429L77.0669 381.039L82.0781 365.232ZM102.784 388L101.366 384.004H92.1167L90.6987 388H85.2202L93.7764 365.232H99.8188L108.391 388H102.784ZM93.7764 379.283H99.7061L96.7412 370.872L93.7764 379.283ZM122.845 365.232V370.05H117.205V388H112.081V370.05H106.441V365.232H122.845ZM135.252 388.403C131.825 388.403 128.962 387.275 126.664 385.019C124.365 382.763 123.215 379.965 123.215 376.624C123.215 373.272 124.365 370.469 126.664 368.213C128.962 365.957 131.825 364.829 135.252 364.829C138.399 364.829 141.085 365.791 143.309 367.713C145.532 369.625 146.827 372.064 147.192 375.029H141.891C141.558 373.471 140.779 372.204 139.554 371.226C138.34 370.238 136.906 369.744 135.252 369.744C133.318 369.744 131.702 370.399 130.402 371.709C129.102 373.02 128.452 374.658 128.452 376.624C128.452 378.579 129.102 380.212 130.402 381.522C131.702 382.822 133.318 383.472 135.252 383.472C136.906 383.472 138.34 382.983 139.554 382.006C140.779 381.028 141.558 379.761 141.891 378.203H147.192C146.816 381.168 145.516 383.612 143.292 385.535C141.08 387.447 138.399 388.403 135.252 388.403ZM164.53 365.232H169.638V388H164.53V378.96H155.394V388H150.27V365.232H155.394V374.143H164.53V365.232ZM196.289 365.232V370.05H190.649V388H185.525V370.05H179.886V365.232H196.289ZM213.546 365.232H218.654V388H213.546V378.96H204.41V388H199.286V365.232H204.41V374.143H213.546V365.232ZM223.005 388V365.232H228.129V388H223.005ZM245.096 386.389C243.571 387.731 241.664 388.403 239.376 388.403C237.088 388.403 235.17 387.715 233.624 386.34C232.087 384.965 231.319 383.241 231.319 381.168H236.572C236.572 381.92 236.846 382.554 237.394 383.069C237.953 383.585 238.635 383.843 239.44 383.843C240.214 383.843 240.858 383.633 241.374 383.214C241.89 382.795 242.147 382.28 242.147 381.667C242.147 380.411 240.805 379.433 238.119 378.735C236.229 378.251 234.676 377.446 233.462 376.318C232.259 375.179 231.658 373.605 231.658 371.597C231.658 369.663 232.388 368.052 233.849 366.763C235.31 365.474 237.131 364.829 239.312 364.829C241.535 364.829 243.383 365.49 244.854 366.811C246.326 368.132 247.062 369.781 247.062 371.758H241.825C241.825 371.081 241.589 370.517 241.116 370.066C240.644 369.615 240.042 369.389 239.312 369.389C238.635 369.389 238.065 369.583 237.604 369.969C237.142 370.356 236.911 370.834 236.911 371.403C236.911 372.639 238.151 373.584 240.633 374.239C241.6 374.508 242.443 374.809 243.163 375.142C243.893 375.464 244.597 375.894 245.273 376.431C245.961 376.968 246.487 377.65 246.853 378.477C247.218 379.304 247.4 380.255 247.4 381.329C247.4 383.349 246.632 385.035 245.096 386.389ZM270.458 386.389C268.933 387.731 267.026 388.403 264.738 388.403C262.45 388.403 260.533 387.715 258.986 386.34C257.45 384.965 256.682 383.241 256.682 381.168H261.935C261.935 381.92 262.208 382.554 262.756 383.069C263.315 383.585 263.997 383.843 264.803 383.843C265.576 383.843 266.221 383.633 266.736 383.214C267.252 382.795 267.51 382.28 267.51 381.667C267.51 380.411 266.167 379.433 263.481 378.735C261.591 378.251 260.039 377.446 258.825 376.318C257.622 375.179 257.02 373.605 257.02 371.597C257.02 369.663 257.75 368.052 259.211 366.763C260.672 365.474 262.493 364.829 264.674 364.829C266.897 364.829 268.745 365.49 270.217 366.811C271.688 368.132 272.424 369.781 272.424 371.758H267.188C267.188 371.081 266.951 370.517 266.479 370.066C266.006 369.615 265.404 369.389 264.674 369.389C263.997 369.389 263.428 369.583 262.966 369.969C262.504 370.356 262.273 370.834 262.273 371.403C262.273 372.639 263.514 373.584 265.995 374.239C266.962 374.508 267.805 374.809 268.525 375.142C269.255 375.464 269.959 375.894 270.636 376.431C271.323 376.968 271.85 377.65 272.215 378.477C272.58 379.304 272.763 380.255 272.763 381.329C272.763 383.349 271.995 385.035 270.458 386.389ZM290.213 365.232H295.321V388H290.213V378.96H281.077V388H275.953V365.232H281.077V374.143H290.213V365.232ZM319.201 385.019C316.902 387.275 314.034 388.403 310.597 388.403C307.17 388.403 304.307 387.275 302.008 385.019C299.709 382.763 298.56 379.965 298.56 376.624C298.56 373.272 299.709 370.469 302.008 368.213C304.307 365.957 307.17 364.829 310.597 364.829C314.034 364.829 316.902 365.957 319.201 368.213C321.5 370.469 322.649 373.272 322.649 376.624C322.649 379.965 321.5 382.763 319.201 385.019ZM305.747 381.522C307.046 382.822 308.663 383.472 310.597 383.472C312.53 383.472 314.147 382.822 315.447 381.522C316.747 380.212 317.396 378.579 317.396 376.624C317.396 374.658 316.747 373.02 315.447 371.709C314.147 370.399 312.53 369.744 310.597 369.744C308.663 369.744 307.046 370.399 305.747 371.709C304.447 373.02 303.797 374.658 303.797 376.624C303.797 378.579 304.447 380.212 305.747 381.522ZM336.201 388L331.383 380.217H330.996V388H325.872V365.232H334.025C336.292 365.232 338.177 365.957 339.681 367.407C341.196 368.857 341.953 370.673 341.953 372.854C341.953 374.433 341.518 375.834 340.648 377.059C339.778 378.284 338.618 379.159 337.167 379.686L342.565 388H336.201ZM330.996 370.05V375.754H333.929C334.724 375.754 335.384 375.485 335.911 374.948C336.437 374.411 336.7 373.734 336.7 372.918C336.7 372.102 336.437 371.419 335.911 370.872C335.384 370.324 334.724 370.05 333.929 370.05H330.996ZM359.613 365.232V370.05H353.974V388H348.85V370.05H343.21V365.232H359.613ZM388.633 388H382.865L381.817 386.743C380.475 387.839 378.788 388.392 376.758 388.403C374.298 388.403 372.311 387.715 370.796 386.34C369.292 384.965 368.54 383.166 368.54 380.942C368.54 378.504 369.716 376.468 372.069 374.835C370.995 373.138 370.458 371.575 370.458 370.146C370.458 368.632 371.021 367.37 372.149 366.36C373.288 365.339 374.695 364.829 376.371 364.829C378.068 364.829 379.486 365.334 380.625 366.344C381.764 367.343 382.333 368.6 382.333 370.114C382.333 371.307 381.979 372.327 381.27 373.176C380.571 374.014 379.572 374.83 378.272 375.625L381.979 380.008C382.043 379.675 382.075 379.336 382.075 378.993V376.688H386.49V378.993C386.49 380.754 386.039 382.371 385.137 383.843L388.633 388ZM377.467 369.035C377.177 368.745 376.812 368.6 376.371 368.6C375.931 368.6 375.565 368.739 375.275 369.019C374.985 369.287 374.84 369.663 374.84 370.146C374.84 370.855 375.184 371.683 375.872 372.628C377.236 371.79 377.918 370.941 377.918 370.082C377.918 369.663 377.768 369.314 377.467 369.035ZM377 384.036C377.773 384.036 378.487 383.886 379.143 383.585L374.55 378.106C373.669 378.923 373.229 379.825 373.229 380.813C373.229 381.737 373.583 382.505 374.292 383.118C375.001 383.73 375.904 384.036 377 384.036ZM410.193 370.05H402.668V374.368H408.904V379.186H402.668V388H397.544V365.232H410.193V370.05ZM423.567 388L418.749 380.217H418.362V388H413.238V365.232H421.392C423.658 365.232 425.543 365.957 427.047 367.407C428.562 368.857 429.319 370.673 429.319 372.854C429.319 374.433 428.884 375.834 428.014 377.059C427.144 378.284 425.984 379.159 424.534 379.686L429.932 388H423.567ZM418.362 370.05V375.754H421.295C422.09 375.754 422.75 375.485 423.277 374.948C423.803 374.411 424.066 373.734 424.066 372.918C424.066 372.102 423.803 371.419 423.277 370.872C422.75 370.324 422.09 370.05 421.295 370.05H418.362ZM437.666 383.182H445.852V388H432.542V365.232H445.674V370.05H437.666V374.143H444.595V378.96H437.666V383.182ZM454.263 383.182H462.448V388H449.139V365.232H462.271V370.05H454.263V374.143H461.191V378.96H454.263V383.182ZM488.503 365.232H494.111L485.2 388H479.915L471.004 365.232H476.725L482.622 381.168L488.503 365.232ZM496.479 388V365.232H501.604V388H496.479ZM514.929 365.232C518.249 365.232 521.015 366.317 523.228 368.487C525.44 370.646 526.547 373.358 526.547 376.624C526.547 379.879 525.44 382.591 523.228 384.761C521.015 386.92 518.249 388 514.929 388H505.954V365.232H514.929ZM514.8 383.182C516.669 383.182 518.216 382.559 519.441 381.313C520.676 380.056 521.294 378.493 521.294 376.624C521.294 374.744 520.676 373.181 519.441 371.935C518.216 370.678 516.669 370.05 514.8 370.05H511.078V383.182H514.8ZM534.926 383.182H543.111V388H529.802V365.232H542.934V370.05H534.926V374.143H541.854V378.96H534.926V383.182ZM565.767 385.019C563.468 387.275 560.6 388.403 557.162 388.403C553.735 388.403 550.873 387.275 548.574 385.019C546.275 382.763 545.125 379.965 545.125 376.624C545.125 373.272 546.275 370.469 548.574 368.213C550.873 365.957 553.735 364.829 557.162 364.829C560.6 364.829 563.468 365.957 565.767 368.213C568.065 370.469 569.215 373.272 569.215 376.624C569.215 379.965 568.065 382.763 565.767 385.019ZM552.312 381.522C553.612 382.822 555.229 383.472 557.162 383.472C559.096 383.472 560.712 382.822 562.012 381.522C563.312 380.212 563.962 378.579 563.962 376.624C563.962 374.658 563.312 373.02 562.012 371.709C560.712 370.399 559.096 369.744 557.162 369.744C555.229 369.744 553.612 370.399 552.312 371.709C551.012 373.02 550.362 374.658 550.362 376.624C550.362 378.579 551.012 380.212 552.312 381.522Z" fill="#F5F4F4"/>
<g clip-path="url(#clip0)">
<path d="M89.3719 208.687C90.3607 211.746 91.7827 214.735 93.5938 217.476C97.1364 222.941 102.174 227.32 107.477 230.505C112.841 233.787 118.613 235.991 124.209 237.487C129.884 239.002 135.497 239.667 140.801 239.846C147.352 240.052 153.585 239.436 159.129 238.166L158.545 238.537L156.387 239.977C155.008 240.922 153.725 241.806 152.443 242.689C142.424 249.81 136.993 255.448 140.395 259.295C143.205 262.426 151.11 258.425 161.236 250.826C162.536 249.863 163.756 248.883 165.154 247.858L167.188 246.223L168.311 245.304L169.744 244.12C173.653 240.816 177.694 237.29 181.771 233.605C190.005 226.254 198.487 218.539 206.013 211.364C195.794 210.759 185.875 210.303 177.105 209.937L164.773 209.445L154.483 209.158C152.821 209.122 151.238 209.103 149.735 209.103C164.428 209.869 183.805 212.848 193.29 215.629C190.593 217.617 188.01 219.463 185.446 221.23C186.065 219.948 186.393 218.852 186.526 217.88C186.668 216.492 186.209 215.555 185.404 215.042C183.619 214.06 180.621 216.648 175.377 219.572C172.707 221.065 169.506 222.691 165.606 224.077C161.707 225.463 157.189 226.628 152.088 227.413C147.004 228.117 141.496 228.478 135.653 228.095C129.809 227.712 123.771 226.702 117.964 224.657C112.157 222.612 106.562 219.613 102.32 215.411C97.9992 211.193 95.093 205.869 94.026 199.786C93.5941 196.851 93.4717 193.651 93.6853 190.442C93.8371 187.136 94.4662 183.936 95.2103 180.594C96.778 173.929 99.0882 167.68 102.088 162.085C105.087 156.49 108.873 151.488 113.039 147.406C117.204 143.323 121.785 140.001 126.366 137.43C130.655 135.045 134.802 133.297 138.683 131.99C134.289 133.35 129.983 135.063 125.747 137.209C120.282 140 115.171 143.455 110.554 147.687C105.938 151.92 101.913 156.869 98.5954 162.393C95.2778 167.917 92.623 173.839 90.5692 180.062C88.5331 186.205 87.2572 192.685 87.5815 199.103C87.8452 202.418 88.3831 205.628 89.3719 208.687Z" fill="white"/>
</g>
<g clip-path="url(#clip1)">
<path d="M341.612 175.405C341.612 175.405 340.498 167.549 337.08 164.09C332.745 159.549 327.886 159.527 325.657 159.261C309.705 158.108 285.775 158.108 285.775 158.108H285.725C285.725 158.108 261.796 158.108 245.843 159.261C243.614 159.527 238.757 159.549 234.42 164.09C231.002 167.549 229.89 175.405 229.89 175.405C229.89 175.405 228.75 184.631 228.75 193.856V202.505C228.75 211.73 229.89 220.955 229.89 220.955C229.89 220.955 231.002 228.811 234.42 232.27C238.757 236.811 244.453 236.667 246.99 237.143C256.111 238.018 285.75 238.288 285.75 238.288C285.75 238.288 309.705 238.252 325.657 237.099C327.886 236.833 332.745 236.811 337.08 232.27C340.498 228.811 341.612 220.955 341.612 220.955C341.612 220.955 342.75 211.73 342.75 202.505V193.856C342.75 184.631 341.612 175.405 341.612 175.405Z" fill="#DC2217"/>
<path d="M273.981 212.985L273.976 180.954L304.779 197.026L273.981 212.985Z" fill="white"/>
</g>
<defs>
<clipPath id="clip0">
<rect width="119.896" height="124.46" fill="white" transform="translate(102.803 124) rotate(12.5542)"/>
</clipPath>
<clipPath id="clip1">
<rect width="114" height="80" fill="white" transform="translate(229 158)"/>
</clipPath>
</defs>
</svg>
