<svg width="320" height="370" viewBox="0 0 320 370" fill="none" xmlns="http://www.w3.org/2000/svg">
<rect y="0.5" width="320" height="369" fill="#F5F4F4"/>
<path d="M56.6309 124.432V125.997H55.4961V128H53.8281V125.997H49.4873V124.767L53.6777 118.341H55.4961V124.432H56.6309ZM51.3809 124.432H53.8281V120.549L51.3809 124.432Z" fill="#AEA9A8"/>
<path d="M47.6279 180.917V179.406H51.6611V180.917H47.6279ZM54.7031 174.341H55.8789V184H54.2178V176.33L52.2012 177.451V175.715L54.7031 174.341Z" fill="#AEA9A8"/>
<path d="M44.6064 236.917V235.406H48.6396V236.917H44.6064ZM53.4453 233.786C54.3431 233.786 55.0905 234.091 55.6875 234.702C56.2891 235.313 56.5898 236.072 56.5898 236.979C56.5898 237.881 56.2731 238.64 55.6396 239.255C55.0062 239.866 54.2223 240.171 53.2881 240.171C52.3538 240.171 51.5723 239.866 50.9434 239.255C50.3145 238.64 50 237.881 50 236.979C50 236.249 50.2051 235.563 50.6152 234.921L53.5684 230.341H55.5986L53.3428 233.786H53.4453ZM53.2881 238.558C53.7438 238.558 54.1198 238.41 54.416 238.113C54.7168 237.812 54.8672 237.434 54.8672 236.979C54.8672 236.518 54.7168 236.138 54.416 235.837C54.1198 235.532 53.7438 235.379 53.2881 235.379C52.8415 235.379 52.4655 235.532 52.1602 235.837C51.8594 236.138 51.709 236.518 51.709 236.979C51.709 237.434 51.8594 237.812 52.1602 238.113C52.4655 238.41 52.8415 238.558 53.2881 238.558Z" fill="#AEA9A8"/>
<path d="M42.3369 292.917V291.406H46.3701V292.917H42.3369ZM49.4121 286.341H50.5879V296H48.9268V288.33L46.9102 289.451V287.715L49.4121 286.341ZM54.7031 286.341H55.8789V296H54.2178V288.33L52.2012 289.451V287.715L54.7031 286.341Z" fill="#AEA9A8"/>
<path d="M22.1709 244.893C22.1709 246.337 21.6924 247.545 20.7354 248.516C19.7783 249.486 18.5911 249.972 17.1738 249.972C15.752 249.972 14.5625 249.486 13.6055 248.516C12.6484 247.545 12.1699 246.337 12.1699 244.893C12.1699 243.594 12.5664 242.477 13.3594 241.543C14.1523 240.609 15.1618 240.048 16.3877 239.861L16.3877 241.598C15.6221 241.766 14.9977 242.151 14.5146 242.753C14.027 243.354 13.7832 244.068 13.7832 244.893C13.7832 245.845 14.1068 246.643 14.7539 247.285C15.401 247.928 16.2054 248.249 17.167 248.249C18.1286 248.249 18.9352 247.928 19.5869 247.285C20.234 246.643 20.5576 245.845 20.5576 244.893C20.5576 244.072 20.3161 243.361 19.833 242.76C19.3454 242.154 18.7187 241.766 17.9531 241.598L17.9531 239.861C19.1745 240.048 20.1839 240.609 20.9814 241.543C21.7744 242.477 22.1709 243.594 22.1709 244.893ZM14.6924 234.488C14.6924 233.641 14.9499 232.959 15.4648 232.444C15.9753 231.925 16.6566 231.665 17.5088 231.665L22 231.665L22 233.23L18.0215 233.23C17.4701 233.23 17.0303 233.392 16.7021 233.716C16.3695 234.035 16.2031 234.465 16.2031 235.008C16.2031 235.577 16.374 236.035 16.7158 236.382C17.0576 236.724 17.502 236.895 18.0488 236.895L22 236.895L22 238.467L11.917 238.467L11.917 236.895L15.8955 236.895C15.0934 236.325 14.6924 235.523 14.6924 234.488ZM14.8633 224.31L14.8633 222.737L22 222.737L22 224.31L20.8926 224.31C21.7402 224.934 22.1663 225.768 22.1709 226.812C22.1709 227.819 21.8132 228.657 21.0977 229.327C20.3822 229.993 19.4935 230.325 18.4316 230.325C17.3652 230.325 16.4766 229.993 15.7656 229.327C15.0501 228.657 14.6924 227.819 14.6924 226.812C14.6924 225.768 15.1162 224.934 15.9639 224.31L14.8633 224.31ZM20.6533 226.504C20.6533 225.88 20.4414 225.358 20.0176 224.938C19.5937 224.519 19.0651 224.31 18.4316 224.31C17.7936 224.31 17.2627 224.519 16.8389 224.938C16.415 225.358 16.2031 225.88 16.2031 226.504C16.2031 227.137 16.415 227.666 16.8389 228.09C17.2627 228.509 17.7936 228.719 18.4316 228.719C19.0651 228.719 19.5937 228.509 20.0176 228.09C20.4414 227.666 20.6533 227.137 20.6533 226.504ZM14.6924 216.893C14.6924 216.045 14.9499 215.364 15.4648 214.849C15.9753 214.329 16.6566 214.069 17.5088 214.069L22 214.069L22 215.635L18.0215 215.635C17.4701 215.635 17.0303 215.797 16.7021 216.12C16.3695 216.439 16.2031 216.87 16.2031 217.412C16.2031 217.982 16.374 218.44 16.7158 218.786C17.0576 219.128 17.502 219.299 18.0488 219.299L22 219.299L22 220.871L14.8633 220.871L14.8633 219.299L15.8545 219.299C15.0798 218.729 14.6924 217.927 14.6924 216.893ZM14.8633 206.714L14.8633 205.142L21.2275 205.142C22.3122 205.142 23.1826 205.477 23.8389 206.146C24.4997 206.812 24.8301 207.696 24.8301 208.799C24.8301 209.724 24.5908 210.501 24.1123 211.13C23.6383 211.759 22.9912 212.176 22.1709 212.381L22.1709 210.774C22.5446 210.642 22.8408 210.398 23.0596 210.043C23.2783 209.687 23.3877 209.273 23.3877 208.799C23.3877 208.165 23.1895 207.66 22.793 207.281C22.3965 206.903 21.8701 206.714 21.2139 206.714L20.7559 206.714C21.5762 207.329 21.9863 208.163 21.9863 209.216C21.9863 210.223 21.64 211.062 20.9473 211.731C20.25 212.397 19.3818 212.729 18.3428 212.729C17.2992 212.729 16.431 212.397 15.7383 211.731C15.041 211.062 14.6924 210.223 14.6924 209.216C14.6924 208.163 15.1025 207.329 15.9228 206.714L14.8633 206.714ZM20.5576 208.908C20.5576 208.284 20.348 207.762 19.9287 207.343C19.5094 206.924 18.9831 206.714 18.3496 206.714C17.7116 206.714 17.1807 206.924 16.7568 207.343C16.333 207.762 16.1211 208.284 16.1211 208.908C16.1211 209.542 16.333 210.07 16.7568 210.494C17.1807 210.913 17.7093 211.123 18.3428 211.123C18.9671 211.123 19.4935 210.913 19.9219 210.494C20.3457 210.07 20.5576 209.542 20.5576 208.908ZM18.4453 196.118C18.6686 196.118 18.8646 196.132 19.0332 196.159L19.0332 202.072C19.5573 201.958 19.9766 201.708 20.291 201.32C20.6009 200.933 20.7559 200.468 20.7559 199.926C20.7559 199.479 20.6624 199.08 20.4756 198.729C20.2887 198.379 20.0404 198.123 19.7305 197.964L19.7305 196.262C20.4596 196.521 21.0498 196.984 21.501 197.649C21.9476 198.31 22.1709 199.074 22.1709 199.939C22.1709 201.024 21.8131 201.931 21.0977 202.66C20.3822 203.385 19.4935 203.747 18.4316 203.747C17.3652 203.747 16.4766 203.385 15.7656 202.66C15.0501 201.931 14.6924 201.024 14.6924 199.939C14.6924 198.846 15.0501 197.937 15.7656 197.212C16.4766 196.483 17.3698 196.118 18.4453 196.118ZM16.5518 198.593C16.2555 198.98 16.1074 199.431 16.1074 199.946C16.1074 200.457 16.2578 200.903 16.5586 201.286C16.8548 201.669 17.249 201.926 17.7412 202.059L17.7412 197.813C17.2445 197.946 16.848 198.205 16.5518 198.593ZM24.6592 189.378C23.8662 189.975 22.8704 190.456 21.6719 190.82C20.4733 191.185 19.277 191.367 18.083 191.367C16.8844 191.367 15.6859 191.185 14.4873 190.82C13.2887 190.456 12.293 189.975 11.5 189.378L11.5 187.792C12.293 188.371 13.2887 188.836 14.4873 189.187C15.6859 189.537 16.8844 189.713 18.083 189.713C19.277 189.713 20.4733 189.537 21.6719 189.187C22.8704 188.836 23.8662 188.371 24.6592 187.792L24.6592 189.378ZM22 186.705L11.917 186.705L11.917 185.133L22 185.133L22 186.705ZM14.6924 179.186C14.6924 178.187 15.0501 177.354 15.7656 176.684C16.4766 176.009 17.3652 175.672 18.4316 175.672C19.4935 175.672 20.3822 176.009 21.0977 176.684C21.8131 177.354 22.1709 178.187 22.1709 179.186C22.1709 180.238 21.7448 181.077 20.8926 181.701L22 181.701L22 183.273L11.917 183.273L11.917 181.701L15.9639 181.701C15.1162 181.077 14.6924 180.238 14.6924 179.186ZM20.0176 181.065C20.4414 180.642 20.6533 180.118 20.6533 179.493C20.6533 178.869 20.4414 178.347 20.0176 177.928C19.5937 177.504 19.0651 177.292 18.4316 177.292C17.7936 177.292 17.2627 177.504 16.8389 177.928C16.415 178.347 16.2031 178.869 16.2031 179.493C16.2031 180.118 16.415 180.642 16.8389 181.065C17.2627 181.489 17.7936 181.701 18.4316 181.701C19.0651 181.701 19.5937 181.489 20.0176 181.065ZM22.1709 172.124C22.1709 172.862 21.9521 173.471 21.5146 173.949C21.0726 174.428 20.5348 174.667 19.9014 174.667L19.9014 173.074C20.152 173.074 20.3662 172.981 20.5439 172.794C20.7217 172.607 20.8105 172.379 20.8105 172.11C20.8105 171.86 20.7376 171.646 20.5918 171.468C20.446 171.285 20.2659 171.194 20.0518 171.194C19.6051 171.194 19.2702 171.616 19.0469 172.459C18.6914 173.867 17.9577 174.571 16.8457 174.571C16.1849 174.571 15.6608 174.339 15.2734 173.874C14.8861 173.405 14.6924 172.83 14.6924 172.151C14.6924 171.45 14.902 170.866 15.3213 170.401C15.7406 169.932 16.2533 169.697 16.8594 169.697L16.8594 171.297C16.6361 171.297 16.4469 171.379 16.292 171.543C16.1325 171.702 16.0527 171.91 16.0527 172.165C16.0527 172.388 16.1211 172.58 16.2578 172.739C16.39 172.899 16.554 172.979 16.75 172.979C17.1966 172.979 17.527 172.548 17.7412 171.687C18.0967 170.297 18.8213 169.602 19.915 169.602C20.6077 169.602 21.1569 169.843 21.5625 170.326C21.9681 170.805 22.1709 171.404 22.1709 172.124ZM24.6592 169.048C23.8662 168.469 22.8704 168.004 21.6719 167.653C20.4733 167.302 19.277 167.127 18.083 167.127C16.8844 167.127 15.6859 167.302 14.4873 167.653C13.2887 168.004 12.293 168.469 11.5 169.048L11.5 167.462C12.293 166.865 13.2887 166.384 14.4873 166.02C15.6859 165.655 16.8844 165.473 18.083 165.473C19.277 165.473 20.4733 165.655 21.6719 166.02C22.8704 166.384 23.8662 166.865 24.6592 167.462L24.6592 169.048Z" fill="#3F352F"/>
<line x1="73" y1="67" x2="309" y2="67" stroke="#DFDDDD"/>
<line x1="73" y1="123" x2="309" y2="123" stroke="#DFDDDD"/>
<line x1="73" y1="179" x2="309" y2="179" stroke="#DFDDDD"/>
<line x1="73" y1="163" x2="309" y2="163" stroke="#DFDDDD"/>
<line x1="73" y1="235" x2="309" y2="235" stroke="#DFDDDD"/>
<line x1="73" y1="291" x2="309" y2="291" stroke="#DFDDDD"/>
<path d="M123.482 319.406H119.907V321.956H122.908V323.521H119.907V327.5H118.246V317.841H123.482V319.406ZM130.059 320.363H131.631V327.5H130.059V326.393C129.434 327.24 128.6 327.666 127.557 327.671C126.549 327.671 125.711 327.313 125.041 326.598C124.376 325.882 124.043 324.993 124.043 323.932C124.043 322.865 124.376 321.977 125.041 321.266C125.711 320.55 126.549 320.192 127.557 320.192C128.6 320.192 129.434 320.616 130.059 321.464V320.363ZM127.864 326.153C128.489 326.153 129.01 325.941 129.43 325.518C129.849 325.094 130.059 324.565 130.059 323.932C130.059 323.294 129.849 322.763 129.43 322.339C129.01 321.915 128.489 321.703 127.864 321.703C127.231 321.703 126.702 321.915 126.278 322.339C125.859 322.763 125.649 323.294 125.649 323.932C125.649 324.565 125.859 325.094 126.278 325.518C126.702 325.941 127.231 326.153 127.864 326.153ZM137.503 320.363V321.785H135.979V327.5H134.406V321.785H132.964V320.363H134.406V318.593L135.979 318.258V320.363H137.503ZM150.525 317.841H152.672V327.5H151.004V320.637L148.01 327.5H146.834L143.847 320.671V327.5H142.186V317.841H144.353L147.449 324.937L150.525 317.841ZM160.26 320.363H161.832V327.5H160.26V326.393C159.635 327.24 158.801 327.666 157.758 327.671C156.751 327.671 155.912 327.313 155.242 326.598C154.577 325.882 154.244 324.993 154.244 323.932C154.244 322.865 154.577 321.977 155.242 321.266C155.912 320.55 156.751 320.192 157.758 320.192C158.801 320.192 159.635 320.616 160.26 321.464V320.363ZM158.065 326.153C158.69 326.153 159.212 325.941 159.631 325.518C160.05 325.094 160.26 324.565 160.26 323.932C160.26 323.294 160.05 322.763 159.631 322.339C159.212 321.915 158.69 321.703 158.065 321.703C157.432 321.703 156.903 321.915 156.479 322.339C156.06 322.763 155.851 323.294 155.851 323.932C155.851 324.565 156.06 325.094 156.479 325.518C156.903 325.941 157.432 326.153 158.065 326.153ZM165.797 327.671C165.059 327.671 164.45 327.452 163.972 327.015C163.493 326.573 163.254 326.035 163.254 325.401H164.847C164.847 325.652 164.94 325.866 165.127 326.044C165.314 326.222 165.542 326.311 165.811 326.311C166.061 326.311 166.275 326.238 166.453 326.092C166.635 325.946 166.727 325.766 166.727 325.552C166.727 325.105 166.305 324.77 165.462 324.547C164.054 324.191 163.35 323.458 163.35 322.346C163.35 321.685 163.582 321.161 164.047 320.773C164.516 320.386 165.09 320.192 165.77 320.192C166.471 320.192 167.055 320.402 167.52 320.821C167.989 321.241 168.224 321.753 168.224 322.359H166.624C166.624 322.136 166.542 321.947 166.378 321.792C166.218 321.632 166.011 321.553 165.756 321.553C165.533 321.553 165.341 321.621 165.182 321.758C165.022 321.89 164.942 322.054 164.942 322.25C164.942 322.697 165.373 323.027 166.234 323.241C167.624 323.597 168.319 324.321 168.319 325.415C168.319 326.108 168.078 326.657 167.595 327.062C167.116 327.468 166.517 327.671 165.797 327.671ZM171.812 327.671C171.074 327.671 170.466 327.452 169.987 327.015C169.509 326.573 169.27 326.035 169.27 325.401H170.862C170.862 325.652 170.956 325.866 171.143 326.044C171.329 326.222 171.557 326.311 171.826 326.311C172.077 326.311 172.291 326.238 172.469 326.092C172.651 325.946 172.742 325.766 172.742 325.552C172.742 325.105 172.321 324.77 171.478 324.547C170.069 324.191 169.365 323.458 169.365 322.346C169.365 321.685 169.598 321.161 170.062 320.773C170.532 320.386 171.106 320.192 171.785 320.192C172.487 320.192 173.07 320.402 173.535 320.821C174.005 321.241 174.239 321.753 174.239 322.359H172.64C172.64 322.136 172.558 321.947 172.394 321.792C172.234 321.632 172.027 321.553 171.771 321.553C171.548 321.553 171.357 321.621 171.197 321.758C171.038 321.89 170.958 322.054 170.958 322.25C170.958 322.697 171.389 323.027 172.25 323.241C173.64 323.597 174.335 324.321 174.335 325.415C174.335 326.108 174.093 326.657 173.61 327.062C173.132 327.468 172.533 327.671 171.812 327.671Z" fill="#3F352F"/>
<path d="M220.529 204.172C220.42 204.172 220.231 204.158 219.962 204.131C219.693 204.108 219.495 204.097 219.367 204.097C218.123 204.097 216.915 204.281 215.744 204.65C215.261 204.805 214.917 204.883 214.712 204.883C214.434 204.883 214.217 204.773 214.062 204.555C213.908 204.336 213.83 204.126 213.83 203.926C213.83 203.844 213.871 203.634 213.953 203.297C214.058 202.878 214.142 202.399 214.206 201.861L214.821 196.194C214.871 195.657 214.915 195.308 214.951 195.148C214.992 194.989 215.092 194.845 215.252 194.718C215.411 194.59 215.628 194.526 215.901 194.526C216.12 194.526 216.312 194.608 216.476 194.772C216.64 194.937 216.722 195.114 216.722 195.306C216.722 195.479 216.681 195.789 216.599 196.235C216.48 196.873 216.314 198.099 216.1 199.913C215.885 201.727 215.778 202.686 215.778 202.791C215.778 202.923 215.801 202.989 215.847 202.989C216.02 202.989 216.496 202.928 217.275 202.805C217.64 202.745 218.009 202.707 218.383 202.688C219.449 202.638 220.197 202.561 220.625 202.456C220.762 202.424 220.862 202.408 220.926 202.408C221.176 202.408 221.372 202.483 221.514 202.634C221.655 202.78 221.726 202.955 221.726 203.16C221.726 203.465 221.603 203.712 221.356 203.898C221.115 204.081 220.839 204.172 220.529 204.172ZM228.917 202.148C228.917 202.622 228.518 203.19 227.721 203.851C226.923 204.507 226.023 204.835 225.021 204.835C224.25 204.835 223.644 204.593 223.202 204.11C222.76 203.623 222.539 202.946 222.539 202.08C222.539 200.804 222.99 199.608 223.893 198.491C224.795 197.375 225.759 196.816 226.784 196.816C227.295 196.816 227.705 196.978 228.015 197.302C228.325 197.625 228.479 198.01 228.479 198.457C228.479 199.25 228.099 200.007 227.338 200.727C226.577 201.442 225.602 201.937 224.412 202.21C224.275 202.242 224.207 202.324 224.207 202.456C224.207 202.675 224.303 202.884 224.494 203.085C224.69 203.281 224.95 203.379 225.273 203.379C226.189 203.379 227.099 202.907 228.001 201.964C228.174 201.782 228.343 201.69 228.507 201.69C228.78 201.69 228.917 201.843 228.917 202.148ZM224.33 200.938C225.05 200.793 225.684 200.485 226.23 200.016C226.782 199.546 227.058 199.12 227.058 198.737C227.058 198.587 227.014 198.462 226.928 198.361C226.846 198.257 226.739 198.204 226.606 198.204C226.21 198.204 225.77 198.496 225.287 199.079C224.804 199.662 224.485 200.282 224.33 200.938ZM234.741 202.21C233.543 203.791 232.385 204.582 231.269 204.582C230.858 204.582 230.505 204.42 230.209 204.097C229.913 203.773 229.765 203.361 229.765 202.859C229.765 201.652 230.302 200.367 231.378 199.004C232.453 197.637 233.538 196.953 234.632 196.953C235.188 196.953 235.552 197.233 235.726 197.794C236.25 197.794 236.512 197.994 236.512 198.396C236.512 198.587 236.462 198.933 236.361 199.435C236.179 200.373 236.088 201.123 236.088 201.684C236.088 202.267 236.127 202.677 236.204 202.914C236.286 203.151 236.345 203.306 236.382 203.379C236.418 203.452 236.528 203.529 236.71 203.611C236.892 203.698 236.983 203.819 236.983 203.974C236.983 204.206 236.865 204.4 236.628 204.555C236.396 204.71 236.152 204.787 235.896 204.787C235.04 204.787 234.655 203.928 234.741 202.21ZM234.331 198.416C233.871 198.416 233.271 198.926 232.533 199.947C231.799 200.964 231.433 201.827 231.433 202.538C231.433 202.912 231.51 203.099 231.665 203.099C232.203 203.099 232.864 202.622 233.647 201.67C234.436 200.713 234.83 199.877 234.83 199.161C234.83 198.933 234.778 198.753 234.673 198.621C234.573 198.484 234.459 198.416 234.331 198.416ZM243.99 203.502C243.771 203.092 243.612 202.326 243.512 201.205C243.411 200.038 243.188 199.455 242.842 199.455C242.514 199.455 241.946 200.063 241.14 201.28C240.333 202.493 239.836 203.388 239.649 203.967C239.608 204.14 239.531 204.284 239.417 204.397C239.308 204.511 239.198 204.568 239.089 204.568C238.396 204.568 238.05 204.252 238.05 203.618C238.05 203.404 238.118 202.916 238.255 202.155C238.433 201.171 238.521 199.968 238.521 198.546C238.521 198.332 238.615 198.104 238.802 197.862C238.989 197.616 239.187 197.493 239.396 197.493C239.661 197.493 239.864 197.559 240.005 197.691C240.146 197.824 240.217 198.174 240.217 198.744C240.217 199.177 240.087 200.016 239.827 201.26C240.816 198.945 241.919 197.787 243.136 197.787C244.193 197.787 244.813 198.619 244.995 200.282C245.177 201.978 245.387 202.825 245.624 202.825C245.729 202.825 245.85 202.802 245.986 202.757C246.15 202.702 246.28 202.675 246.376 202.675C246.595 202.675 246.704 202.802 246.704 203.058C246.704 203.29 246.554 203.538 246.253 203.803C245.952 204.062 245.574 204.192 245.118 204.192C244.59 204.192 244.211 203.962 243.983 203.502H243.99ZM247.668 205.382C247.878 205.345 248.176 205.231 248.563 205.04C248.955 204.853 249.204 204.614 249.309 204.322C249.418 204.026 249.473 203.871 249.473 203.857C249.473 203.465 249.427 203.203 249.336 203.071C249.249 202.939 249.206 202.821 249.206 202.716C249.206 202.588 249.256 202.447 249.356 202.292C249.457 202.132 249.582 202.053 249.732 202.053C249.887 202.053 250.09 202.105 250.341 202.21C250.596 202.315 250.742 202.408 250.778 202.49C250.819 202.568 250.879 202.743 250.956 203.017C251.034 203.285 251.072 203.522 251.072 203.728C251.072 203.814 250.977 204.074 250.785 204.507C250.598 204.94 250.352 205.268 250.047 205.491C249.742 205.715 249.438 205.854 249.138 205.908C249.078 205.917 249.033 205.926 249.001 205.936C248.486 206.122 248.14 206.216 247.962 206.216C247.661 206.216 247.511 206.049 247.511 205.717C247.511 205.598 247.563 205.487 247.668 205.382ZM261.087 202.764C261.069 202.518 260.677 202.217 259.911 201.861C258.972 201.41 258.373 201.023 258.113 200.699C257.854 200.371 257.724 200.016 257.724 199.633C257.724 198.826 258.175 198.122 259.077 197.521C259.984 196.914 260.829 196.611 261.613 196.611C262.383 196.611 262.769 196.946 262.769 197.616C262.769 197.794 262.68 197.953 262.502 198.095C262.329 198.236 262.181 198.307 262.058 198.307C262.007 198.307 261.919 198.275 261.791 198.211C261.663 198.147 261.565 198.115 261.497 198.115C261.091 198.115 260.645 198.252 260.157 198.525C259.67 198.799 259.426 199.118 259.426 199.482C259.426 199.66 259.512 199.833 259.686 200.002C259.859 200.166 260.212 200.373 260.745 200.624C261.534 200.998 262.053 201.335 262.304 201.636C262.554 201.937 262.68 202.269 262.68 202.634C262.68 203.299 262.229 203.855 261.326 204.302C260.428 204.744 259.419 204.965 258.298 204.965C257.473 204.965 257.061 204.666 257.061 204.069C257.061 203.851 257.147 203.664 257.32 203.509C257.493 203.354 257.687 203.276 257.901 203.276C257.988 203.276 258.122 203.308 258.305 203.372C258.487 203.44 258.656 203.475 258.811 203.475C259.239 203.475 259.688 203.406 260.157 203.27C260.627 203.133 260.937 202.964 261.087 202.764ZM269.905 202.148C269.905 202.622 269.507 203.19 268.709 203.851C267.911 204.507 267.011 204.835 266.009 204.835C265.239 204.835 264.632 204.593 264.19 204.11C263.748 203.623 263.527 202.946 263.527 202.08C263.527 200.804 263.979 199.608 264.881 198.491C265.783 197.375 266.747 196.816 267.772 196.816C268.283 196.816 268.693 196.978 269.003 197.302C269.313 197.625 269.468 198.01 269.468 198.457C269.468 199.25 269.087 200.007 268.326 200.727C267.565 201.442 266.59 201.937 265.4 202.21C265.264 202.242 265.195 202.324 265.195 202.456C265.195 202.675 265.291 202.884 265.482 203.085C265.678 203.281 265.938 203.379 266.262 203.379C267.178 203.379 268.087 202.907 268.989 201.964C269.162 201.782 269.331 201.69 269.495 201.69C269.769 201.69 269.905 201.843 269.905 202.148ZM265.318 200.938C266.038 200.793 266.672 200.485 267.219 200.016C267.77 199.546 268.046 199.12 268.046 198.737C268.046 198.587 268.003 198.462 267.916 198.361C267.834 198.257 267.727 198.204 267.595 198.204C267.198 198.204 266.758 198.496 266.275 199.079C265.792 199.662 265.473 200.282 265.318 200.938ZM273.501 202.155C272.69 202.916 272.113 203.707 271.771 204.527C271.626 204.869 271.471 205.129 271.307 205.307C270.91 205.284 270.618 205.202 270.432 205.061C270.245 204.924 270.151 204.696 270.151 204.377C270.151 204.094 270.272 203.746 270.514 203.331C270.76 202.912 271.366 202.258 272.332 201.369C272.478 201.232 272.601 201.114 272.701 201.014C271.831 199.738 271.396 198.742 271.396 198.026C271.396 197.274 271.726 196.898 272.387 196.898C272.847 196.898 273.093 197.236 273.125 197.91C273.152 198.603 273.408 199.321 273.891 200.063C274.128 199.849 274.381 199.596 274.649 199.305C274.727 199.223 274.8 199.147 274.868 199.079C275.442 198.473 275.855 197.935 276.105 197.466C276.27 197.17 276.404 196.978 276.509 196.892C276.618 196.805 276.778 196.762 276.987 196.762C277.22 196.762 277.42 196.844 277.589 197.008C277.757 197.172 277.842 197.372 277.842 197.609C277.842 198.106 276.782 199.312 274.663 201.226C275.383 202.11 276.151 202.777 276.967 203.229C277.067 203.288 277.163 203.358 277.254 203.44C277.29 203.527 277.309 203.62 277.309 203.721C277.309 203.953 277.215 204.158 277.028 204.336C276.841 204.509 276.614 204.596 276.345 204.596C275.67 204.596 274.722 203.782 273.501 202.155ZM285.163 200.474C285.09 201.581 284.96 202.657 284.773 203.7C284.591 204.739 284.32 205.683 283.96 206.53C283.604 207.378 283.219 207.954 282.805 208.26C282.395 208.57 281.905 208.725 281.335 208.725C280.724 208.725 280.139 208.608 279.578 208.376H279.585C279.102 208.175 278.68 207.907 278.32 207.569C277.965 207.232 277.787 206.947 277.787 206.715C277.787 206.501 277.84 206.33 277.944 206.202C278.054 206.075 278.195 206.011 278.368 206.011C278.519 206.011 278.644 206.075 278.744 206.202C279.327 206.954 280.175 207.33 281.287 207.33C281.738 207.33 282.174 206.858 282.593 205.915C283.012 204.972 283.276 203.839 283.386 202.518C281.978 203.63 280.893 204.186 280.132 204.186C279.64 204.186 279.25 203.99 278.963 203.598C278.676 203.206 278.532 202.734 278.532 202.183C278.532 201.631 278.66 200.831 278.915 199.783C279.175 198.73 279.394 198.079 279.571 197.828C279.754 197.573 280.048 197.445 280.453 197.445C280.672 197.445 280.84 197.541 280.959 197.732C281.077 197.919 281.137 198.127 281.137 198.354C281.137 198.423 280.973 198.808 280.645 199.51C280.243 200.367 280.043 201.105 280.043 201.725C280.043 202.044 280.086 202.287 280.173 202.456C280.264 202.62 280.357 202.702 280.453 202.702C280.672 202.702 280.936 202.636 281.246 202.504C281.561 202.372 281.927 202.144 282.347 201.82C282.771 201.492 283.044 201.244 283.167 201.075C283.29 200.907 283.388 200.69 283.461 200.426C283.534 200.157 283.591 199.569 283.632 198.662C283.655 198.133 283.68 197.801 283.707 197.664C283.739 197.527 283.821 197.402 283.953 197.288C284.085 197.174 284.263 197.117 284.486 197.117C284.787 197.117 284.999 197.181 285.122 197.309C285.25 197.436 285.313 197.737 285.313 198.211L285.163 200.474ZM197.533 224.097C197.479 224.566 197.216 224.801 196.747 224.801C196.15 224.801 195.852 224.37 195.852 223.509C195.852 222.114 195.927 220.923 196.077 219.934C196.196 219.163 196.255 218.407 196.255 217.664C196.255 217.486 196.312 217.338 196.426 217.22C196.54 217.097 196.699 217.035 196.904 217.035C197.588 217.035 197.93 217.45 197.93 218.279C197.93 218.548 197.809 219.234 197.567 220.337C197.422 220.993 197.349 221.469 197.349 221.766C198.652 218.904 199.828 217.473 200.876 217.473C201.3 217.473 201.639 217.641 201.895 217.979C202.154 218.316 202.289 219.063 202.298 220.221C202.302 221.278 202.357 221.807 202.462 221.807C202.544 221.807 202.829 221.294 203.316 220.269C203.859 219.134 204.321 218.384 204.704 218.02C205.091 217.655 205.497 217.473 205.921 217.473C206.427 217.473 206.794 217.691 207.021 218.129C207.249 218.562 207.409 219.296 207.5 220.33C207.568 221.15 207.66 221.77 207.773 222.189C207.892 222.609 208.092 222.887 208.375 223.023C208.603 223.133 208.717 223.297 208.717 223.516C208.717 223.712 208.587 223.91 208.327 224.11C208.067 224.306 207.803 224.404 207.534 224.404C207.069 224.404 206.705 224.176 206.44 223.721C206.181 223.26 206.005 222.34 205.914 220.959C205.864 220.294 205.809 219.854 205.75 219.64C205.695 219.421 205.611 219.312 205.497 219.312C205.397 219.312 205.251 219.476 205.06 219.804C204.868 220.127 204.538 220.774 204.068 221.745C203.654 222.62 203.296 223.231 202.995 223.577C202.699 223.924 202.38 224.097 202.038 224.097C201.774 224.097 201.507 223.983 201.238 223.755C200.974 223.527 200.83 222.7 200.808 221.273C200.785 220.002 200.703 219.366 200.562 219.366C200.37 219.366 199.91 219.931 199.181 221.062C198.451 222.192 197.902 223.203 197.533 224.097ZM214.541 221.998C214.104 222.796 213.595 223.429 213.017 223.898C212.442 224.368 211.859 224.603 211.267 224.603C210.916 224.603 210.56 224.418 210.2 224.049C209.845 223.68 209.667 223.112 209.667 222.347C209.667 221.804 209.804 220.986 210.077 219.893C210.314 218.99 210.433 218.304 210.433 217.835C210.615 217.452 210.9 217.261 211.287 217.261C211.551 217.261 211.761 217.35 211.916 217.527C212.076 217.701 212.155 217.876 212.155 218.054C212.155 218.377 212.041 218.838 211.813 219.435C211.681 219.79 211.538 220.294 211.383 220.945C211.232 221.592 211.157 222.007 211.157 222.189C211.157 222.796 211.283 223.099 211.533 223.099C211.93 223.099 212.465 222.718 213.14 221.957C213.814 221.196 214.254 220.417 214.459 219.619C214.664 218.84 214.846 218.329 215.006 218.088C215.165 217.846 215.391 217.726 215.683 217.726C216.157 217.726 216.394 217.99 216.394 218.519C216.394 218.596 216.355 218.751 216.277 218.983C216.008 219.79 215.874 220.699 215.874 221.711C215.874 222.896 216.075 223.604 216.476 223.837C216.608 223.914 216.674 224.01 216.674 224.124C216.674 224.288 216.558 224.443 216.325 224.589C216.093 224.735 215.872 224.808 215.662 224.808C215.302 224.808 215.024 224.555 214.828 224.049C214.637 223.538 214.541 222.855 214.541 221.998ZM221.466 222.764C221.448 222.518 221.056 222.217 220.29 221.861C219.351 221.41 218.752 221.023 218.492 220.699C218.232 220.371 218.103 220.016 218.103 219.633C218.103 218.826 218.554 218.122 219.456 217.521C220.363 216.914 221.208 216.611 221.992 216.611C222.762 216.611 223.147 216.946 223.147 217.616C223.147 217.794 223.059 217.953 222.881 218.095C222.708 218.236 222.56 218.307 222.437 218.307C222.386 218.307 222.298 218.275 222.17 218.211C222.042 218.147 221.944 218.115 221.876 218.115C221.47 218.115 221.024 218.252 220.536 218.525C220.049 218.799 219.805 219.118 219.805 219.482C219.805 219.66 219.891 219.833 220.064 220.002C220.238 220.166 220.591 220.373 221.124 220.624C221.912 220.998 222.432 221.335 222.683 221.636C222.933 221.937 223.059 222.269 223.059 222.634C223.059 223.299 222.607 223.855 221.705 224.302C220.807 224.744 219.798 224.965 218.677 224.965C217.852 224.965 217.439 224.666 217.439 224.069C217.439 223.851 217.526 223.664 217.699 223.509C217.872 223.354 218.066 223.276 218.28 223.276C218.367 223.276 218.501 223.308 218.684 223.372C218.866 223.44 219.035 223.475 219.189 223.475C219.618 223.475 220.067 223.406 220.536 223.27C221.006 223.133 221.315 222.964 221.466 222.764ZM226.183 224.876C225.431 224.876 224.859 224.671 224.467 224.261C224.075 223.851 223.879 223.281 223.879 222.552C223.879 221.403 224.346 220.161 225.28 218.826C226.215 217.491 227.131 216.823 228.028 216.823C228.461 216.823 228.83 217.04 229.136 217.473C229.441 217.901 229.594 218.348 229.594 218.812C229.594 219.25 229.512 219.546 229.348 219.701C229.188 219.852 229.033 219.927 228.883 219.927C228.441 219.927 228.183 219.621 228.11 219.011C228.056 218.564 227.944 218.341 227.775 218.341C227.42 218.341 226.951 218.847 226.367 219.858C225.784 220.87 225.492 221.757 225.492 222.518C225.492 223.133 225.825 223.44 226.49 223.44C227.224 223.44 227.965 223.181 228.712 222.661C229.063 222.41 229.341 222.285 229.546 222.285C229.797 222.285 229.922 222.41 229.922 222.661C229.922 223.012 229.519 223.47 228.712 224.035C227.91 224.596 227.067 224.876 226.183 224.876ZM233.736 212.927C234.229 212.927 234.475 213.196 234.475 213.733C234.475 213.979 234.44 214.246 234.372 214.533C234.304 214.816 234.117 215.52 233.812 216.646C233.588 217.461 233.417 218.352 233.299 219.318C233.185 220.28 233.128 221.032 233.128 221.574C233.128 222.153 233.171 222.841 233.258 223.639C233.281 223.853 233.292 223.987 233.292 224.042C233.292 224.315 233.192 224.55 232.991 224.746C232.791 224.942 232.572 225.04 232.335 225.04C232.011 225.04 231.784 224.887 231.651 224.582C231.519 224.277 231.453 223.753 231.453 223.01C231.453 221.41 231.64 219.526 232.014 217.356C232.392 215.187 232.7 213.907 232.937 213.515C233.178 213.123 233.445 212.927 233.736 212.927ZM241.331 222.148C241.331 222.622 240.932 223.19 240.135 223.851C239.337 224.507 238.437 224.835 237.435 224.835C236.664 224.835 236.058 224.593 235.616 224.11C235.174 223.623 234.953 222.946 234.953 222.08C234.953 220.804 235.404 219.608 236.307 218.491C237.209 217.375 238.173 216.816 239.198 216.816C239.709 216.816 240.119 216.978 240.429 217.302C240.739 217.625 240.894 218.01 240.894 218.457C240.894 219.25 240.513 220.007 239.752 220.727C238.991 221.442 238.016 221.937 236.826 222.21C236.689 222.242 236.621 222.324 236.621 222.456C236.621 222.675 236.717 222.884 236.908 223.085C237.104 223.281 237.364 223.379 237.688 223.379C238.604 223.379 239.513 222.907 240.415 221.964C240.588 221.782 240.757 221.69 240.921 221.69C241.194 221.69 241.331 221.843 241.331 222.148ZM236.744 220.938C237.464 220.793 238.098 220.485 238.645 220.016C239.196 219.546 239.472 219.12 239.472 218.737C239.472 218.587 239.428 218.462 239.342 218.361C239.26 218.257 239.153 218.204 239.021 218.204C238.624 218.204 238.184 218.496 237.701 219.079C237.218 219.662 236.899 220.282 236.744 220.938ZM252.761 222.408C252.255 222.978 251.665 223.447 250.99 223.816C250.32 224.181 249.742 224.363 249.254 224.363C248.771 224.363 248.395 224.222 248.126 223.939C247.862 223.657 247.729 223.267 247.729 222.771C247.729 222.064 247.996 221.278 248.529 220.412C249.067 219.546 249.81 218.794 250.758 218.156C251.71 217.514 252.567 217.192 253.328 217.192C253.747 217.192 254.11 217.306 254.415 217.534C254.488 217.589 254.552 217.634 254.606 217.671C254.716 217.748 254.816 217.892 254.907 218.102C255.003 218.307 255.051 218.473 255.051 218.601C255.051 218.683 254.964 218.958 254.791 219.428C254.613 219.915 254.488 220.389 254.415 220.85C254.347 221.305 254.208 222.447 253.998 224.274C253.811 225.865 253.367 227.027 252.665 227.761C251.963 228.494 251.184 228.861 250.327 228.861C249.429 228.861 248.557 228.558 247.709 227.952C246.866 227.351 246.444 226.854 246.444 226.462C246.444 226.116 246.613 225.942 246.95 225.942C247.082 225.942 247.351 226.075 247.757 226.339C248.796 227.022 249.687 227.364 250.43 227.364C250.995 227.364 251.469 227.009 251.852 226.298C252.234 225.591 252.537 224.295 252.761 222.408ZM252.925 218.607C252.588 218.607 252.146 218.81 251.599 219.216C251.052 219.617 250.546 220.159 250.081 220.843C249.616 221.526 249.384 222.094 249.384 222.545C249.384 222.782 249.47 222.9 249.644 222.9C250.231 222.9 250.815 222.663 251.394 222.189C251.972 221.711 252.439 221.162 252.795 220.542C253.155 219.922 253.335 219.453 253.335 219.134C253.335 218.974 253.294 218.847 253.212 218.751C253.13 218.655 253.034 218.607 252.925 218.607ZM262.55 221.034C262.244 222.101 261.663 223.001 260.807 223.734C259.954 224.464 259.102 224.828 258.25 224.828C257.576 224.828 257.02 224.582 256.582 224.09C256.145 223.593 255.926 222.985 255.926 222.265C255.926 221.089 256.327 219.931 257.129 218.792C257.931 217.653 258.904 217.083 260.048 217.083C260.827 217.083 261.458 217.372 261.941 217.951C262.424 218.525 262.666 219.211 262.666 220.009C262.666 220.355 262.627 220.695 262.55 221.027V221.034ZM258.995 218.874C258.676 219.157 258.364 219.608 258.059 220.228C257.753 220.847 257.601 221.469 257.601 222.094C257.601 222.472 257.669 222.784 257.806 223.03C257.947 223.276 258.132 223.399 258.359 223.399C258.924 223.399 259.512 223.064 260.123 222.395C260.734 221.725 261.039 220.973 261.039 220.139C261.039 219.669 260.939 219.284 260.738 218.983C260.542 218.678 260.267 218.525 259.911 218.525C259.574 218.525 259.271 218.642 259.002 218.874H258.995ZM270.097 222.148C270.097 222.622 269.698 223.19 268.9 223.851C268.103 224.507 267.203 224.835 266.2 224.835C265.43 224.835 264.824 224.593 264.382 224.11C263.94 223.623 263.719 222.946 263.719 222.08C263.719 220.804 264.17 219.608 265.072 218.491C265.975 217.375 266.938 216.816 267.964 216.816C268.474 216.816 268.884 216.978 269.194 217.302C269.504 217.625 269.659 218.01 269.659 218.457C269.659 219.25 269.279 220.007 268.518 220.727C267.757 221.442 266.781 221.937 265.592 222.21C265.455 222.242 265.387 222.324 265.387 222.456C265.387 222.675 265.482 222.884 265.674 223.085C265.87 223.281 266.13 223.379 266.453 223.379C267.369 223.379 268.278 222.907 269.181 221.964C269.354 221.782 269.522 221.69 269.687 221.69C269.96 221.69 270.097 221.843 270.097 222.148ZM265.51 220.938C266.23 220.793 266.863 220.485 267.41 220.016C267.962 219.546 268.237 219.12 268.237 218.737C268.237 218.587 268.194 218.462 268.107 218.361C268.025 218.257 267.918 218.204 267.786 218.204C267.39 218.204 266.95 218.496 266.467 219.079C265.984 219.662 265.665 220.282 265.51 220.938ZM274.458 222.764C274.44 222.518 274.048 222.217 273.282 221.861C272.343 221.41 271.744 221.023 271.484 220.699C271.225 220.371 271.095 220.016 271.095 219.633C271.095 218.826 271.546 218.122 272.448 217.521C273.355 216.914 274.201 216.611 274.984 216.611C275.755 216.611 276.14 216.946 276.14 217.616C276.14 217.794 276.051 217.953 275.873 218.095C275.7 218.236 275.552 218.307 275.429 218.307C275.379 218.307 275.29 218.275 275.162 218.211C275.035 218.147 274.937 218.115 274.868 218.115C274.463 218.115 274.016 218.252 273.528 218.525C273.041 218.799 272.797 219.118 272.797 219.482C272.797 219.66 272.883 219.833 273.057 220.002C273.23 220.166 273.583 220.373 274.116 220.624C274.905 220.998 275.424 221.335 275.675 221.636C275.925 221.937 276.051 222.269 276.051 222.634C276.051 223.299 275.6 223.855 274.697 224.302C273.799 224.744 272.79 224.965 271.669 224.965C270.844 224.965 270.432 224.666 270.432 224.069C270.432 223.851 270.518 223.664 270.691 223.509C270.865 223.354 271.058 223.276 271.272 223.276C271.359 223.276 271.493 223.308 271.676 223.372C271.858 223.44 272.027 223.475 272.182 223.475C272.61 223.475 273.059 223.406 273.528 223.27C273.998 223.133 274.308 222.964 274.458 222.764ZM287.576 221.998C287.139 222.796 286.631 223.429 286.052 223.898C285.478 224.368 284.894 224.603 284.302 224.603C283.951 224.603 283.595 224.418 283.235 224.049C282.88 223.68 282.702 223.112 282.702 222.347C282.702 221.804 282.839 220.986 283.112 219.893C283.349 218.99 283.468 218.304 283.468 217.835C283.65 217.452 283.935 217.261 284.322 217.261C284.587 217.261 284.796 217.35 284.951 217.527C285.111 217.701 285.19 217.876 285.19 218.054C285.19 218.377 285.076 218.838 284.849 219.435C284.716 219.79 284.573 220.294 284.418 220.945C284.268 221.592 284.192 222.007 284.192 222.189C284.192 222.796 284.318 223.099 284.568 223.099C284.965 223.099 285.5 222.718 286.175 221.957C286.849 221.196 287.289 220.417 287.494 219.619C287.699 218.84 287.882 218.329 288.041 218.088C288.201 217.846 288.426 217.726 288.718 217.726C289.192 217.726 289.429 217.99 289.429 218.519C289.429 218.596 289.39 218.751 289.312 218.983C289.044 219.79 288.909 220.699 288.909 221.711C288.909 222.896 289.11 223.604 289.511 223.837C289.643 223.914 289.709 224.01 289.709 224.124C289.709 224.288 289.593 224.443 289.36 224.589C289.128 224.735 288.907 224.808 288.697 224.808C288.337 224.808 288.059 224.555 287.863 224.049C287.672 223.538 287.576 222.855 287.576 221.998ZM292.867 224.015C292.79 224.334 292.712 224.817 292.635 225.464L292.307 228.15C292.252 228.588 292.145 228.891 291.985 229.06C291.83 229.228 291.639 229.312 291.411 229.312C291.206 229.312 291.01 229.235 290.823 229.08C290.641 228.93 290.55 228.761 290.55 228.574C290.55 228.205 290.607 227.779 290.721 227.296C291.4 224.584 291.771 221.77 291.835 218.854V218.717C291.835 218.106 291.851 217.701 291.883 217.5C291.919 217.295 292.017 217.115 292.177 216.96C292.341 216.805 292.571 216.728 292.867 216.728C293.364 216.728 293.612 217.108 293.612 217.869C293.612 218.179 293.555 218.705 293.441 219.448L293.373 219.92C293.893 219.054 294.51 218.336 295.226 217.767C295.941 217.192 296.581 216.905 297.146 216.905C297.657 216.905 298.09 217.088 298.445 217.452C298.805 217.817 298.985 218.275 298.985 218.826C298.985 220.298 298.413 221.638 297.27 222.846C296.13 224.049 295.002 224.65 293.886 224.65C293.357 224.65 293.018 224.438 292.867 224.015ZM296.88 218.457C296.324 218.457 295.602 218.999 294.713 220.084C293.829 221.169 293.387 222.021 293.387 222.641C293.387 222.8 293.464 222.944 293.619 223.071C293.779 223.194 293.963 223.256 294.173 223.256C294.752 223.256 295.415 222.802 296.162 221.896C296.914 220.984 297.29 220.104 297.29 219.257C297.29 218.974 297.247 218.771 297.16 218.648C297.074 218.521 296.98 218.457 296.88 218.457ZM302.007 221.226C301.551 221.226 301.198 221.132 300.947 220.945C300.874 220.057 300.938 219.143 301.139 218.204C301.362 217.188 301.474 216.427 301.474 215.921C301.474 215.871 301.496 215.682 301.542 215.354C301.592 215.021 301.738 214.768 301.979 214.595C302.221 214.422 302.426 214.335 302.595 214.335C302.777 214.335 302.95 214.403 303.114 214.54C303.283 214.672 303.367 214.818 303.367 214.978C303.367 215.105 303.274 215.579 303.087 216.399C302.905 217.215 302.722 217.967 302.54 218.655C302.349 219.371 302.248 219.943 302.239 220.371C302.23 220.695 302.153 220.979 302.007 221.226ZM301.036 224.37C300.535 224.37 300.284 224.092 300.284 223.536C300.284 223.326 300.387 223.085 300.592 222.812C300.797 222.538 301.018 222.401 301.255 222.401C301.41 222.401 301.604 222.477 301.836 222.627C302.068 222.777 302.185 222.905 302.185 223.01L302.116 223.434C302.075 223.734 301.927 223.967 301.672 224.131C301.417 224.29 301.205 224.37 301.036 224.37Z" fill="#E4181A"/>
<path d="M249 189.5C249 190.052 249.448 190.5 250 190.5C250.552 190.5 251 190.052 251 189.5L249 189.5ZM250 165.5L244.226 175.5L255.774 175.5L250 165.5ZM251 189.5L251 174.5L249 174.5L249 189.5L251 189.5Z" fill="#E4181A"/>
<rect x="117" y="163.5" width="24" height="119" fill="#02643E"/>
<path d="M90.4717 84.1514C90.4717 83.7002 90.3555 83.388 90.123 83.2148C89.8906 83.0371 89.5488 82.9482 89.0977 82.9482C88.3275 82.9482 87.612 83.1374 86.9512 83.5156C86.2949 83.8893 85.9668 84.3018 85.9668 84.7529C85.9668 85.04 86.0898 85.2861 86.3359 85.4912C86.5866 85.6917 87.2292 85.9424 88.2637 86.2432C89.3483 86.5576 90.1527 86.904 90.6768 87.2822C91.2054 87.6559 91.4697 88.1071 91.4697 88.6357C91.4697 89.5153 90.7998 90.3219 89.46 91.0557C88.1201 91.7848 86.7279 92.1494 85.2832 92.1494C84.8138 92.1494 84.4378 92.0514 84.1553 91.8555C83.8727 91.6595 83.7314 91.418 83.7314 91.1309C83.7314 90.903 83.7952 90.6911 83.9229 90.4951C84.0505 90.2992 84.2031 90.2012 84.3809 90.2012C84.4902 90.2012 84.5905 90.2194 84.6816 90.2559C85.1602 90.4609 85.6068 90.5635 86.0215 90.5635C86.7324 90.5635 87.5299 90.3652 88.4141 89.9688C89.3027 89.5677 89.7471 89.1758 89.7471 88.793C89.7471 88.6335 89.6354 88.4808 89.4121 88.335C89.1934 88.1846 88.7445 87.9977 88.0654 87.7744C87.0765 87.4508 86.3314 87.1842 85.8301 86.9746C85.3333 86.765 84.9551 86.4915 84.6953 86.1543C84.4401 85.8125 84.3125 85.4023 84.3125 84.9238C84.3125 84.0716 84.8092 83.2786 85.8027 82.5449C86.7962 81.8112 87.9629 81.4443 89.3027 81.4443C90.0729 81.4443 90.679 81.597 91.1211 81.9023C91.5677 82.2077 91.791 82.5563 91.791 82.9482C91.791 83.7503 91.3512 84.1514 90.4717 84.1514ZM95.9814 85.9492C95.9404 85.9492 95.8105 86.4574 95.5918 87.4736C95.3776 88.4899 95.2705 89.1051 95.2705 89.3193C95.2705 89.693 95.3092 89.9551 95.3867 90.1055C95.4688 90.2513 95.6009 90.3242 95.7832 90.3242C96.0384 90.3242 96.2822 90.2809 96.5146 90.1943C96.7516 90.1032 97.0615 89.9027 97.4443 89.5928C97.6813 89.3968 97.8818 89.2988 98.0459 89.2988C98.1781 89.2988 98.2829 89.3376 98.3604 89.415C98.4424 89.488 98.4834 89.5745 98.4834 89.6748C98.4834 90.0758 98.1598 90.5316 97.5127 91.042C96.8656 91.5479 96.182 91.8008 95.4619 91.8008C94.8604 91.8008 94.4001 91.623 94.0811 91.2676C93.7666 90.9121 93.6094 90.4017 93.6094 89.7363C93.6094 89.1211 93.8395 87.8929 94.2998 86.0518C94.0081 86.0837 93.8053 86.0996 93.6914 86.0996H93.5479C93.3382 86.0996 93.124 86.0312 92.9053 85.8945C92.6911 85.7578 92.584 85.5391 92.584 85.2383C92.584 84.8555 92.8005 84.6641 93.2334 84.6641L94.6963 84.6094C94.8877 84.0579 95.0905 83.3356 95.3047 82.4424C95.4323 81.8864 95.7217 81.6084 96.1729 81.6084C96.4235 81.6084 96.6195 81.6859 96.7607 81.8408C96.902 81.9912 96.9727 82.1598 96.9727 82.3467C96.9727 82.4196 96.779 83.1237 96.3916 84.459C97.8408 84.3314 98.6361 84.2676 98.7773 84.2676C99.0189 84.2676 99.1784 84.304 99.2559 84.377C99.3333 84.4453 99.3721 84.5798 99.3721 84.7803C99.3721 85.1859 99.028 85.4434 98.3398 85.5527L95.9814 85.9492ZM104.54 88.998C104.103 89.7956 103.594 90.429 103.016 90.8984C102.441 91.3678 101.858 91.6025 101.266 91.6025C100.915 91.6025 100.559 91.418 100.199 91.0488C99.8438 90.6797 99.666 90.1123 99.666 89.3467C99.666 88.8044 99.8027 87.9863 100.076 86.8926C100.313 85.9902 100.432 85.3044 100.432 84.835C100.614 84.4521 100.899 84.2607 101.286 84.2607C101.55 84.2607 101.76 84.3496 101.915 84.5273C102.075 84.7005 102.154 84.876 102.154 85.0537C102.154 85.3773 102.04 85.8376 101.812 86.4346C101.68 86.79 101.537 87.2936 101.382 87.9453C101.231 88.5924 101.156 89.0072 101.156 89.1895C101.156 89.7956 101.282 90.0986 101.532 90.0986C101.929 90.0986 102.464 89.7181 103.139 88.957C103.813 88.196 104.253 87.4167 104.458 86.6191C104.663 85.8398 104.845 85.3294 105.005 85.0879C105.164 84.8464 105.39 84.7256 105.682 84.7256C106.156 84.7256 106.393 84.9899 106.393 85.5186C106.393 85.596 106.354 85.751 106.276 85.9834C106.007 86.79 105.873 87.6992 105.873 88.7109C105.873 89.8958 106.074 90.6045 106.475 90.8369C106.607 90.9144 106.673 91.0101 106.673 91.124C106.673 91.2881 106.557 91.443 106.324 91.5889C106.092 91.7347 105.871 91.8076 105.661 91.8076C105.301 91.8076 105.023 91.5547 104.827 91.0488C104.636 90.5384 104.54 89.8548 104.54 88.998ZM108.929 84.8623C109.371 82.2419 109.688 80.6901 109.879 80.207C110.075 79.724 110.414 79.4824 110.897 79.4824C111.271 79.4824 111.458 79.8128 111.458 80.4736C111.458 80.9248 111.271 81.8613 110.897 83.2832C110.701 83.985 110.465 85.0469 110.187 86.4688C110.752 85.7168 111.367 85.1084 112.032 84.6436C112.702 84.1787 113.299 83.9463 113.823 83.9463C114.252 83.9463 114.607 84.1309 114.89 84.5C115.177 84.8646 115.32 85.2952 115.32 85.792C115.32 87.1956 114.78 88.515 113.7 89.75C112.625 90.985 111.481 91.6025 110.269 91.6025C109.904 91.6025 109.564 91.5046 109.25 91.3086C108.936 91.1081 108.758 90.8529 108.717 90.543C108.699 90.3743 108.664 90.2627 108.614 90.208C108.564 90.1533 108.512 90.0941 108.457 90.0303C108.325 89.8936 108.259 89.7021 108.259 89.4561C108.259 89.1735 108.329 88.5856 108.471 87.6924L108.929 84.8623ZM109.735 89.7158C109.927 90.0348 110.141 90.1943 110.378 90.1943C110.806 90.1943 111.28 89.9984 111.8 89.6064C112.324 89.21 112.777 88.654 113.16 87.9385C113.548 87.223 113.741 86.6283 113.741 86.1543C113.741 85.7031 113.671 85.4775 113.529 85.4775C112.805 85.4775 111.991 86.0085 111.089 87.0703C110.187 88.1276 109.735 89.0094 109.735 89.7158ZM117.05 84.8623C117.492 82.2419 117.809 80.6901 118 80.207C118.196 79.724 118.535 79.4824 119.019 79.4824C119.392 79.4824 119.579 79.8128 119.579 80.4736C119.579 80.9248 119.392 81.8613 119.019 83.2832C118.823 83.985 118.586 85.0469 118.308 86.4688C118.873 85.7168 119.488 85.1084 120.153 84.6436C120.823 84.1787 121.42 83.9463 121.944 83.9463C122.373 83.9463 122.728 84.1309 123.011 84.5C123.298 84.8646 123.441 85.2952 123.441 85.792C123.441 87.1956 122.901 88.515 121.821 89.75C120.746 90.985 119.602 91.6025 118.39 91.6025C118.025 91.6025 117.686 91.5046 117.371 91.3086C117.057 91.1081 116.879 90.8529 116.838 90.543C116.82 90.3743 116.785 90.2627 116.735 90.208C116.685 90.1533 116.633 90.0941 116.578 90.0303C116.446 89.8936 116.38 89.7021 116.38 89.4561C116.38 89.1735 116.451 88.5856 116.592 87.6924L117.05 84.8623ZM117.856 89.7158C118.048 90.0348 118.262 90.1943 118.499 90.1943C118.927 90.1943 119.401 89.9984 119.921 89.6064C120.445 89.21 120.898 88.654 121.281 87.9385C121.669 87.223 121.862 86.6283 121.862 86.1543C121.862 85.7031 121.792 85.4775 121.65 85.4775C120.926 85.4775 120.112 86.0085 119.21 87.0703C118.308 88.1276 117.856 89.0094 117.856 89.7158ZM130.947 88.0342C130.642 89.1006 130.061 90.0007 129.204 90.7344C128.352 91.4635 127.5 91.8281 126.647 91.8281C125.973 91.8281 125.417 91.582 124.979 91.0898C124.542 90.5931 124.323 89.9847 124.323 89.2646C124.323 88.0889 124.724 86.9313 125.526 85.792C126.328 84.6527 127.301 84.083 128.445 84.083C129.225 84.083 129.856 84.3724 130.339 84.9512C130.822 85.5254 131.063 86.2113 131.063 87.0088C131.063 87.3551 131.025 87.6947 130.947 88.0273V88.0342ZM127.393 85.874C127.074 86.1566 126.761 86.6077 126.456 87.2275C126.151 87.8473 125.998 88.4694 125.998 89.0938C125.998 89.472 126.066 89.7842 126.203 90.0303C126.344 90.2764 126.529 90.3994 126.757 90.3994C127.322 90.3994 127.91 90.0645 128.521 89.3945C129.131 88.7246 129.437 87.9727 129.437 87.1387C129.437 86.6693 129.336 86.2842 129.136 85.9834C128.94 85.6781 128.664 85.5254 128.309 85.5254C127.971 85.5254 127.668 85.6416 127.399 85.874H127.393ZM134.085 88.1094L134.201 87.8906C134.753 86.7832 135.345 85.8854 135.979 85.1973C136.617 84.5046 137.239 84.1582 137.845 84.1582C138.31 84.1582 138.688 84.2858 138.979 84.541C139.276 84.7962 139.424 85.0993 139.424 85.4502C139.424 85.6689 139.374 85.8581 139.273 86.0176C139.173 86.1725 139.034 86.25 138.856 86.25C138.574 86.25 138.316 86.1338 138.084 85.9014C137.92 85.751 137.79 85.6758 137.694 85.6758C137.353 85.6758 136.781 86.2067 135.979 87.2686C135.176 88.3304 134.693 89.5244 134.529 90.8506C134.479 91.2334 134.368 91.5 134.194 91.6504C134.021 91.8053 133.786 91.8828 133.49 91.8828C133.176 91.8828 132.952 91.7051 132.82 91.3496C132.688 90.9896 132.622 90.404 132.622 89.5928C132.622 89.2601 132.631 88.8112 132.649 88.2461C132.668 87.7129 132.72 87.0612 132.807 86.291C132.829 86.0905 132.845 85.9333 132.854 85.8193C132.896 85.3727 132.941 85.0674 132.991 84.9033C133.046 84.7347 133.169 84.5775 133.36 84.4316C133.552 84.2858 133.764 84.2129 133.996 84.2129C134.242 84.2129 134.429 84.2835 134.557 84.4248C134.684 84.5661 134.748 84.721 134.748 84.8896C134.748 85.1038 134.646 85.5482 134.44 86.2227C134.368 86.4551 134.306 86.7331 134.256 87.0566L134.085 88.1094ZM145.501 90.502C145.282 90.0918 145.123 89.3262 145.022 88.2051C144.922 87.0384 144.699 86.4551 144.353 86.4551C144.024 86.4551 143.457 87.0635 142.65 88.2803C141.844 89.4925 141.347 90.388 141.16 90.9668C141.119 91.14 141.042 91.2835 140.928 91.3975C140.818 91.5114 140.709 91.5684 140.6 91.5684C139.907 91.5684 139.561 91.2516 139.561 90.6182C139.561 90.404 139.629 89.9163 139.766 89.1553C139.943 88.1709 140.032 86.9678 140.032 85.5459C140.032 85.3317 140.126 85.1038 140.312 84.8623C140.499 84.6162 140.698 84.4932 140.907 84.4932C141.172 84.4932 141.374 84.5592 141.516 84.6914C141.657 84.8236 141.728 85.1745 141.728 85.7441C141.728 86.1771 141.598 87.0156 141.338 88.2598C142.327 85.9447 143.43 84.7871 144.646 84.7871C145.704 84.7871 146.324 85.6188 146.506 87.2822C146.688 88.9775 146.898 89.8252 147.135 89.8252C147.24 89.8252 147.36 89.8024 147.497 89.7568C147.661 89.7021 147.791 89.6748 147.887 89.6748C148.105 89.6748 148.215 89.8024 148.215 90.0576C148.215 90.29 148.064 90.5384 147.764 90.8027C147.463 91.0625 147.085 91.1924 146.629 91.1924C146.1 91.1924 145.722 90.9622 145.494 90.502H145.501ZM156.493 88.0205L156.377 89.2441C156.34 89.6361 156.322 90.0234 156.322 90.4062C156.322 90.7526 156.354 91.1536 156.418 91.6094C156.372 91.7689 156.258 91.9056 156.076 92.0195C155.894 92.1335 155.702 92.1904 155.502 92.1904C154.878 92.1904 154.565 91.7939 154.565 91.001C154.565 90.6501 154.663 89.8115 154.859 88.4854C154.996 87.5329 155.064 86.8242 155.064 86.3594C155.064 86.332 155.037 86.3001 154.982 86.2637C154.668 86.0632 154.511 85.8717 154.511 85.6895C154.511 85.4525 154.686 85.195 155.037 84.917C155.206 84.7848 155.308 84.6322 155.345 84.459C155.386 84.2812 155.443 84.0033 155.516 83.625C155.762 82.1712 156.142 81.139 156.657 80.5283C157.177 79.9131 157.835 79.6055 158.633 79.6055C159.098 79.6055 159.49 79.7581 159.809 80.0635C160.132 80.3643 160.294 80.738 160.294 81.1846C160.294 81.5856 160.201 82.0026 160.014 82.4355C159.831 82.8639 159.59 83.0781 159.289 83.0781C159.157 83.0781 159.045 83.0371 158.954 82.9551C158.863 82.8685 158.817 82.7568 158.817 82.6201L158.858 82.0254C158.858 81.3145 158.71 80.959 158.414 80.959C158.045 80.959 157.699 81.4238 157.375 82.3535C157.056 83.2786 156.896 84.0671 156.896 84.7188C156.896 84.7871 156.94 84.8213 157.026 84.8213C157.97 84.8213 158.635 84.8167 159.022 84.8076C159.414 84.7985 159.61 84.9489 159.61 85.2588C159.61 85.5596 159.373 85.7829 158.899 85.9287C158.43 86.07 157.936 86.1406 157.416 86.1406C157.065 86.1725 156.837 86.2021 156.732 86.2295C156.623 86.904 156.543 87.4987 156.493 88.0137V88.0205ZM164.498 89.21C163.299 90.7913 162.142 91.582 161.025 91.582C160.615 91.582 160.262 91.4202 159.966 91.0967C159.67 90.7731 159.521 90.3607 159.521 89.8594C159.521 88.6517 160.059 87.3665 161.135 86.0039C162.21 84.6367 163.295 83.9531 164.389 83.9531C164.945 83.9531 165.309 84.2334 165.482 84.7939C166.007 84.7939 166.269 84.9945 166.269 85.3955C166.269 85.5869 166.218 85.9333 166.118 86.4346C165.936 87.3734 165.845 88.123 165.845 88.6836C165.845 89.2669 165.883 89.6771 165.961 89.9141C166.043 90.151 166.102 90.306 166.139 90.3789C166.175 90.4518 166.285 90.5293 166.467 90.6113C166.649 90.6979 166.74 90.8187 166.74 90.9736C166.74 91.2061 166.622 91.3997 166.385 91.5547C166.152 91.7096 165.909 91.7871 165.653 91.7871C164.797 91.7871 164.411 90.9281 164.498 89.21ZM164.088 85.416C163.628 85.416 163.028 85.9264 162.29 86.9473C161.556 87.9635 161.189 88.8271 161.189 89.5381C161.189 89.9118 161.267 90.0986 161.422 90.0986C161.96 90.0986 162.62 89.6224 163.404 88.6699C164.193 87.7129 164.587 86.8766 164.587 86.1611C164.587 85.9333 164.535 85.7533 164.43 85.6211C164.329 85.4844 164.215 85.416 164.088 85.416ZM170.794 85.9492C170.753 85.9492 170.623 86.4574 170.404 87.4736C170.19 88.4899 170.083 89.1051 170.083 89.3193C170.083 89.693 170.122 89.9551 170.199 90.1055C170.281 90.2513 170.413 90.3242 170.596 90.3242C170.851 90.3242 171.095 90.2809 171.327 90.1943C171.564 90.1032 171.874 89.9027 172.257 89.5928C172.494 89.3968 172.694 89.2988 172.858 89.2988C172.991 89.2988 173.095 89.3376 173.173 89.415C173.255 89.488 173.296 89.5745 173.296 89.6748C173.296 90.0758 172.972 90.5316 172.325 91.042C171.678 91.5479 170.994 91.8008 170.274 91.8008C169.673 91.8008 169.213 91.623 168.894 91.2676C168.579 90.9121 168.422 90.4017 168.422 89.7363C168.422 89.1211 168.652 87.8929 169.112 86.0518C168.821 86.0837 168.618 86.0996 168.504 86.0996H168.36C168.151 86.0996 167.937 86.0312 167.718 85.8945C167.504 85.7578 167.396 85.5391 167.396 85.2383C167.396 84.8555 167.613 84.6641 168.046 84.6641L169.509 84.6094C169.7 84.0579 169.903 83.3356 170.117 82.4424C170.245 81.8864 170.534 81.6084 170.985 81.6084C171.236 81.6084 171.432 81.6859 171.573 81.8408C171.715 81.9912 171.785 82.1598 171.785 82.3467C171.785 82.4196 171.591 83.1237 171.204 84.459C172.653 84.3314 173.449 84.2676 173.59 84.2676C173.831 84.2676 173.991 84.304 174.068 84.377C174.146 84.4453 174.185 84.5798 174.185 84.7803C174.185 85.1859 173.84 85.4434 173.152 85.5527L170.794 85.9492ZM95.0107 109.408C94.5049 109.978 93.9147 110.447 93.2402 110.816C92.5703 111.181 91.9915 111.363 91.5039 111.363C91.0208 111.363 90.6449 111.222 90.376 110.939C90.1117 110.657 89.9795 110.267 89.9795 109.771C89.9795 109.064 90.2461 108.278 90.7793 107.412C91.3171 106.546 92.0599 105.794 93.0078 105.156C93.9603 104.514 94.8171 104.192 95.5781 104.192C95.9974 104.192 96.3597 104.306 96.665 104.534C96.738 104.589 96.8018 104.634 96.8564 104.671C96.9658 104.748 97.0661 104.892 97.1572 105.102C97.2529 105.307 97.3008 105.473 97.3008 105.601C97.3008 105.683 97.2142 105.958 97.041 106.428C96.8633 106.915 96.738 107.389 96.665 107.85C96.5967 108.305 96.4577 109.447 96.248 111.274C96.0612 112.865 95.6169 114.027 94.915 114.761C94.2132 115.494 93.4339 115.861 92.5771 115.861C91.6794 115.861 90.8066 115.558 89.959 114.952C89.1159 114.351 88.6943 113.854 88.6943 113.462C88.6943 113.116 88.863 112.942 89.2002 112.942C89.3324 112.942 89.6012 113.075 90.0068 113.339C91.0459 114.022 91.9368 114.364 92.6797 114.364C93.2448 114.364 93.7188 114.009 94.1016 113.298C94.4844 112.591 94.7874 111.295 95.0107 109.408ZM95.1748 105.607C94.8376 105.607 94.3955 105.81 93.8486 106.216C93.3018 106.617 92.7959 107.159 92.3311 107.843C91.8662 108.526 91.6338 109.094 91.6338 109.545C91.6338 109.782 91.7204 109.9 91.8936 109.9C92.4814 109.9 93.0648 109.663 93.6436 109.189C94.2223 108.711 94.6895 108.162 95.0449 107.542C95.4049 106.922 95.585 106.453 95.585 106.134C95.585 105.974 95.5439 105.847 95.4619 105.751C95.3799 105.655 95.2842 105.607 95.1748 105.607ZM104.8 108.034C104.494 109.101 103.913 110.001 103.057 110.734C102.204 111.464 101.352 111.828 100.5 111.828C99.8255 111.828 99.2695 111.582 98.832 111.09C98.3945 110.593 98.1758 109.985 98.1758 109.265C98.1758 108.089 98.5768 106.931 99.3789 105.792C100.181 104.653 101.154 104.083 102.298 104.083C103.077 104.083 103.708 104.372 104.191 104.951C104.674 105.525 104.916 106.211 104.916 107.009C104.916 107.355 104.877 107.695 104.8 108.027V108.034ZM101.245 105.874C100.926 106.157 100.614 106.608 100.309 107.228C100.003 107.847 99.8506 108.469 99.8506 109.094C99.8506 109.472 99.9189 109.784 100.056 110.03C100.197 110.276 100.382 110.399 100.609 110.399C101.174 110.399 101.762 110.064 102.373 109.395C102.984 108.725 103.289 107.973 103.289 107.139C103.289 106.669 103.189 106.284 102.988 105.983C102.792 105.678 102.517 105.525 102.161 105.525C101.824 105.525 101.521 105.642 101.252 105.874H101.245ZM112.347 109.148C112.347 109.622 111.948 110.19 111.15 110.851C110.353 111.507 109.453 111.835 108.45 111.835C107.68 111.835 107.074 111.593 106.632 111.11C106.19 110.623 105.969 109.946 105.969 109.08C105.969 107.804 106.42 106.608 107.322 105.491C108.225 104.375 109.188 103.816 110.214 103.816C110.724 103.816 111.134 103.978 111.444 104.302C111.754 104.625 111.909 105.01 111.909 105.457C111.909 106.25 111.529 107.007 110.768 107.727C110.007 108.442 109.031 108.937 107.842 109.21C107.705 109.242 107.637 109.324 107.637 109.456C107.637 109.675 107.732 109.884 107.924 110.085C108.12 110.281 108.38 110.379 108.703 110.379C109.619 110.379 110.528 109.907 111.431 108.964C111.604 108.782 111.772 108.69 111.937 108.69C112.21 108.69 112.347 108.843 112.347 109.148ZM107.76 107.938C108.48 107.793 109.113 107.485 109.66 107.016C110.212 106.546 110.487 106.12 110.487 105.737C110.487 105.587 110.444 105.462 110.357 105.361C110.275 105.257 110.168 105.204 110.036 105.204C109.64 105.204 109.2 105.496 108.717 106.079C108.234 106.662 107.915 107.282 107.76 107.938ZM116.708 109.764C116.69 109.518 116.298 109.217 115.532 108.861C114.593 108.41 113.994 108.023 113.734 107.699C113.475 107.371 113.345 107.016 113.345 106.633C113.345 105.826 113.796 105.122 114.698 104.521C115.605 103.914 116.451 103.611 117.234 103.611C118.005 103.611 118.39 103.946 118.39 104.616C118.39 104.794 118.301 104.953 118.123 105.095C117.95 105.236 117.802 105.307 117.679 105.307C117.629 105.307 117.54 105.275 117.412 105.211C117.285 105.147 117.187 105.115 117.118 105.115C116.713 105.115 116.266 105.252 115.778 105.525C115.291 105.799 115.047 106.118 115.047 106.482C115.047 106.66 115.133 106.833 115.307 107.002C115.48 107.166 115.833 107.373 116.366 107.624C117.155 107.998 117.674 108.335 117.925 108.636C118.175 108.937 118.301 109.269 118.301 109.634C118.301 110.299 117.85 110.855 116.947 111.302C116.049 111.744 115.04 111.965 113.919 111.965C113.094 111.965 112.682 111.666 112.682 111.069C112.682 110.851 112.768 110.664 112.941 110.509C113.115 110.354 113.308 110.276 113.522 110.276C113.609 110.276 113.743 110.308 113.926 110.372C114.108 110.44 114.277 110.475 114.432 110.475C114.86 110.475 115.309 110.406 115.778 110.27C116.248 110.133 116.558 109.964 116.708 109.764ZM129.847 109.217C128.666 110.889 127.479 111.726 126.285 111.726C125.802 111.726 125.412 111.536 125.116 111.158C124.82 110.775 124.672 110.29 124.672 109.702C124.672 108.513 125.157 107.33 126.128 106.154C127.103 104.979 128.09 104.391 129.088 104.391C129.662 104.391 130.07 104.541 130.312 104.842C130.653 103.347 130.856 102.413 130.92 102.039C131.057 101.346 131.171 100.886 131.262 100.658C131.353 100.43 131.492 100.255 131.679 100.132C131.866 100.004 132.027 99.9404 132.164 99.9404C132.396 99.9404 132.574 100.036 132.697 100.228C132.82 100.419 132.882 100.66 132.882 100.952C132.882 101.08 132.782 101.447 132.581 102.053C132.253 103.037 131.948 104.227 131.665 105.621C131.387 107.016 131.248 108.125 131.248 108.95C131.248 109.739 131.421 110.133 131.768 110.133C131.945 110.133 132.134 110.085 132.335 109.989C132.535 109.898 132.677 109.853 132.759 109.853C132.982 109.853 133.094 109.982 133.094 110.242C133.094 110.557 132.866 110.871 132.41 111.186C131.959 111.495 131.531 111.65 131.125 111.65C130.688 111.65 130.35 111.416 130.113 110.946C129.876 110.477 129.787 109.9 129.847 109.217ZM129.088 105.71C128.491 105.71 127.867 106.166 127.215 107.077C126.568 107.989 126.244 108.823 126.244 109.579C126.244 110.021 126.408 110.242 126.736 110.242C127.292 110.242 127.955 109.748 128.726 108.759C129.496 107.77 129.881 106.988 129.881 106.414C129.881 106.241 129.808 106.081 129.662 105.936C129.516 105.785 129.325 105.71 129.088 105.71ZM140.702 108.034C140.397 109.101 139.816 110.001 138.959 110.734C138.107 111.464 137.255 111.828 136.402 111.828C135.728 111.828 135.172 111.582 134.734 111.09C134.297 110.593 134.078 109.985 134.078 109.265C134.078 108.089 134.479 106.931 135.281 105.792C136.083 104.653 137.056 104.083 138.2 104.083C138.979 104.083 139.611 104.372 140.094 104.951C140.577 105.525 140.818 106.211 140.818 107.009C140.818 107.355 140.78 107.695 140.702 108.027V108.034ZM137.147 105.874C136.828 106.157 136.516 106.608 136.211 107.228C135.906 107.847 135.753 108.469 135.753 109.094C135.753 109.472 135.821 109.784 135.958 110.03C136.099 110.276 136.284 110.399 136.512 110.399C137.077 110.399 137.665 110.064 138.275 109.395C138.886 108.725 139.191 107.973 139.191 107.139C139.191 106.669 139.091 106.284 138.891 105.983C138.695 105.678 138.419 105.525 138.063 105.525C137.726 105.525 137.423 105.642 137.154 105.874H137.147ZM147.654 107.2C147.609 107.273 147.262 107.993 146.615 109.36C146.561 109.479 146.529 109.545 146.52 109.559C145.745 111.122 145.148 111.903 144.729 111.903C144.072 111.903 143.498 111.09 143.006 109.463C142.514 107.831 142.268 106.473 142.268 105.389C142.268 104.997 142.359 104.68 142.541 104.438C142.728 104.197 142.992 104.076 143.334 104.076C143.548 104.076 143.737 104.17 143.901 104.356C144.07 104.539 144.154 104.714 144.154 104.883L144.093 105.785C144.075 106.059 144.065 106.332 144.065 106.605C144.065 107.089 144.166 107.731 144.366 108.533C144.567 109.331 144.708 109.729 144.79 109.729C144.849 109.729 145.079 109.324 145.48 108.513C146.005 107.451 146.428 106.649 146.752 106.106H146.745C147.201 105.241 147.604 104.673 147.955 104.404C148.251 104.436 148.488 104.525 148.666 104.671C148.848 104.817 148.939 104.988 148.939 105.184C148.939 105.339 148.933 105.452 148.919 105.525C148.901 105.603 148.892 105.674 148.892 105.737C148.892 107.114 149.272 108.351 150.033 109.449C150.083 109.499 150.127 109.47 150.163 109.36C150.204 109.251 150.3 108.914 150.45 108.349C150.728 107.3 151.043 106.389 151.394 105.614C151.744 104.835 152.032 104.352 152.255 104.165C152.478 103.978 152.731 103.885 153.014 103.885C153.191 103.885 153.344 103.953 153.472 104.09C153.604 104.222 153.67 104.368 153.67 104.527C153.67 104.719 153.629 104.869 153.547 104.979C152.959 105.762 152.437 106.847 151.981 108.232C151.512 109.668 151.186 110.545 151.004 110.864C150.822 111.183 150.667 111.343 150.539 111.343C150.115 111.343 149.767 111.265 149.493 111.11C149.224 110.951 148.962 110.657 148.707 110.229C148.456 109.8 148.229 109.26 148.023 108.608C147.818 107.957 147.695 107.487 147.654 107.2ZM160.191 110.502C159.973 110.092 159.813 109.326 159.713 108.205C159.613 107.038 159.389 106.455 159.043 106.455C158.715 106.455 158.147 107.063 157.341 108.28C156.534 109.493 156.037 110.388 155.851 110.967C155.81 111.14 155.732 111.284 155.618 111.397C155.509 111.511 155.399 111.568 155.29 111.568C154.597 111.568 154.251 111.252 154.251 110.618C154.251 110.404 154.319 109.916 154.456 109.155C154.634 108.171 154.723 106.968 154.723 105.546C154.723 105.332 154.816 105.104 155.003 104.862C155.19 104.616 155.388 104.493 155.598 104.493C155.862 104.493 156.065 104.559 156.206 104.691C156.347 104.824 156.418 105.174 156.418 105.744C156.418 106.177 156.288 107.016 156.028 108.26C157.017 105.945 158.12 104.787 159.337 104.787C160.394 104.787 161.014 105.619 161.196 107.282C161.379 108.978 161.588 109.825 161.825 109.825C161.93 109.825 162.051 109.802 162.188 109.757C162.352 109.702 162.481 109.675 162.577 109.675C162.796 109.675 162.905 109.802 162.905 110.058C162.905 110.29 162.755 110.538 162.454 110.803C162.153 111.062 161.775 111.192 161.319 111.192C160.791 111.192 160.412 110.962 160.185 110.502H160.191ZM165.407 108.226C164.951 108.226 164.598 108.132 164.348 107.945C164.275 107.057 164.339 106.143 164.539 105.204C164.762 104.188 164.874 103.427 164.874 102.921C164.874 102.871 164.897 102.682 164.942 102.354C164.993 102.021 165.138 101.768 165.38 101.595C165.621 101.422 165.826 101.335 165.995 101.335C166.177 101.335 166.351 101.403 166.515 101.54C166.683 101.672 166.768 101.818 166.768 101.978C166.768 102.105 166.674 102.579 166.487 103.399C166.305 104.215 166.123 104.967 165.94 105.655C165.749 106.371 165.649 106.943 165.64 107.371C165.631 107.695 165.553 107.979 165.407 108.226ZM164.437 111.37C163.935 111.37 163.685 111.092 163.685 110.536C163.685 110.326 163.787 110.085 163.992 109.812C164.197 109.538 164.418 109.401 164.655 109.401C164.81 109.401 165.004 109.477 165.236 109.627C165.469 109.777 165.585 109.905 165.585 110.01L165.517 110.434C165.476 110.734 165.327 110.967 165.072 111.131C164.817 111.29 164.605 111.37 164.437 111.37Z" fill="#E4181A"/>
<path d="M129 117C129 116.448 128.552 116 128 116C127.448 116 127 116.448 127 117L129 117ZM128 160L133.774 150L122.226 150L128 160ZM127 117L127 151L129 151L129 117L127 117Z" fill="#E4181A"/>
<rect width="24" height="15" transform="matrix(1 0 0 -1 149 178.5)" fill="#FF6005"/>
<path d="M234.467 326.435H237.898V328H232.806V318.341H234.467V326.435ZM246.218 324.445C246.218 324.669 246.204 324.865 246.177 325.033H240.264C240.378 325.557 240.628 325.977 241.016 326.291C241.403 326.601 241.868 326.756 242.41 326.756C242.857 326.756 243.256 326.662 243.606 326.476C243.957 326.289 244.213 326.04 244.372 325.73H246.074C245.814 326.46 245.352 327.05 244.687 327.501C244.026 327.948 243.262 328.171 242.396 328.171C241.312 328.171 240.405 327.813 239.676 327.098C238.951 326.382 238.589 325.493 238.589 324.432C238.589 323.365 238.951 322.477 239.676 321.766C240.405 321.05 241.312 320.692 242.396 320.692C243.49 320.692 244.399 321.05 245.124 321.766C245.853 322.477 246.218 323.37 246.218 324.445ZM243.743 322.552C243.356 322.256 242.905 322.107 242.39 322.107C241.879 322.107 241.433 322.258 241.05 322.559C240.667 322.855 240.41 323.249 240.277 323.741H244.522C244.39 323.244 244.131 322.848 243.743 322.552ZM253.204 320.863H254.776V328H253.204V326.893C252.58 327.74 251.746 328.166 250.702 328.171C249.695 328.171 248.856 327.813 248.187 327.098C247.521 326.382 247.188 325.493 247.188 324.432C247.188 323.365 247.521 322.477 248.187 321.766C248.856 321.05 249.695 320.692 250.702 320.692C251.746 320.692 252.58 321.116 253.204 321.964V320.863ZM251.01 326.653C251.634 326.653 252.156 326.441 252.575 326.018C252.994 325.594 253.204 325.065 253.204 324.432C253.204 323.794 252.994 323.263 252.575 322.839C252.156 322.415 251.634 322.203 251.01 322.203C250.376 322.203 249.848 322.415 249.424 322.839C249.005 323.263 248.795 323.794 248.795 324.432C248.795 325.065 249.005 325.594 249.424 326.018C249.848 326.441 250.376 326.653 251.01 326.653ZM260.621 320.692C261.469 320.692 262.15 320.95 262.665 321.465C263.185 321.975 263.444 322.657 263.444 323.509V328H261.879V324.021C261.879 323.47 261.717 323.03 261.394 322.702C261.075 322.369 260.644 322.203 260.102 322.203C259.532 322.203 259.074 322.374 258.728 322.716C258.386 323.058 258.215 323.502 258.215 324.049V328H256.643V320.863H258.215V321.854C258.785 321.08 259.587 320.692 260.621 320.692ZM273.479 322.859C273.985 323.01 274.396 323.322 274.71 323.796C275.029 324.265 275.188 324.794 275.188 325.382C275.188 326.138 274.931 326.765 274.416 327.262C273.906 327.754 273.263 328 272.488 328H268.626V318.341H272.112C272.832 318.341 273.432 318.573 273.91 319.038C274.389 319.498 274.628 320.077 274.628 320.774C274.628 321.23 274.523 321.645 274.313 322.019C274.104 322.392 273.826 322.673 273.479 322.859ZM271.702 319.838H270.232V322.299H271.702C272.039 322.299 272.326 322.18 272.563 321.943C272.8 321.706 272.919 321.415 272.919 321.068C272.919 320.713 272.803 320.419 272.57 320.187C272.338 319.954 272.049 319.838 271.702 319.838ZM272.099 326.503C272.491 326.503 272.816 326.368 273.076 326.1C273.336 325.826 273.466 325.493 273.466 325.102C273.466 324.71 273.336 324.382 273.076 324.117C272.816 323.848 272.491 323.714 272.099 323.714H270.232V326.503H272.099ZM279.912 328.171C278.818 328.171 277.907 327.813 277.178 327.098C276.453 326.382 276.091 325.493 276.091 324.432C276.091 323.365 276.453 322.477 277.178 321.766C277.907 321.05 278.818 320.692 279.912 320.692C280.997 320.692 281.904 321.05 282.633 321.766C283.367 322.477 283.733 323.365 283.733 324.432C283.733 325.493 283.367 326.382 282.633 327.098C281.904 327.813 280.997 328.171 279.912 328.171ZM278.333 326.018C278.761 326.441 279.288 326.653 279.912 326.653C280.536 326.653 281.058 326.441 281.478 326.018C281.897 325.594 282.106 325.065 282.106 324.432C282.106 323.794 281.897 323.263 281.478 322.839C281.058 322.415 280.536 322.203 279.912 322.203C279.288 322.203 278.761 322.415 278.333 322.839C277.909 323.263 277.697 323.794 277.697 324.432C277.697 325.065 277.909 325.594 278.333 326.018ZM290.761 317.917H292.333V328H290.761V326.893C290.136 327.74 289.302 328.166 288.259 328.171C287.252 328.171 286.413 327.813 285.743 327.098C285.078 326.382 284.745 325.493 284.745 324.432C284.745 323.365 285.078 322.477 285.743 321.766C286.413 321.05 287.252 320.692 288.259 320.692C289.302 320.692 290.136 321.116 290.761 321.964V317.917ZM288.566 326.653C289.191 326.653 289.713 326.441 290.132 326.018C290.551 325.594 290.761 325.065 290.761 324.432C290.761 323.794 290.551 323.263 290.132 322.839C289.713 322.415 289.191 322.203 288.566 322.203C287.933 322.203 287.404 322.415 286.98 322.839C286.561 323.263 286.352 323.794 286.352 324.432C286.352 325.065 286.561 325.594 286.98 326.018C287.404 326.441 287.933 326.653 288.566 326.653ZM299.354 320.863H301.104L296.947 330.659H295.252L296.414 327.945L293.399 320.863H295.197L297.282 326.065L299.354 320.863ZM259.056 336.341H261.202V346H259.534V339.137L256.54 346H255.364L252.377 339.171V346H250.716V336.341H252.883L255.979 343.437L259.056 336.341ZM268.79 338.863H270.362V346H268.79V344.893C268.166 345.74 267.332 346.166 266.288 346.171C265.281 346.171 264.442 345.813 263.772 345.098C263.107 344.382 262.774 343.493 262.774 342.432C262.774 341.365 263.107 340.477 263.772 339.766C264.442 339.05 265.281 338.692 266.288 338.692C267.332 338.692 268.166 339.116 268.79 339.964V338.863ZM266.596 344.653C267.22 344.653 267.742 344.441 268.161 344.018C268.58 343.594 268.79 343.065 268.79 342.432C268.79 341.794 268.58 341.263 268.161 340.839C267.742 340.415 267.22 340.203 266.596 340.203C265.962 340.203 265.434 340.415 265.01 340.839C264.59 341.263 264.381 341.794 264.381 342.432C264.381 343.065 264.59 343.594 265.01 344.018C265.434 344.441 265.962 344.653 266.596 344.653ZM274.327 346.171C273.589 346.171 272.98 345.952 272.502 345.515C272.023 345.073 271.784 344.535 271.784 343.901H273.377C273.377 344.152 273.47 344.366 273.657 344.544C273.844 344.722 274.072 344.811 274.341 344.811C274.591 344.811 274.806 344.738 274.983 344.592C275.166 344.446 275.257 344.266 275.257 344.052C275.257 343.605 274.835 343.27 273.992 343.047C272.584 342.691 271.88 341.958 271.88 340.846C271.88 340.185 272.112 339.661 272.577 339.273C273.047 338.886 273.621 338.692 274.3 338.692C275.002 338.692 275.585 338.902 276.05 339.321C276.519 339.741 276.754 340.253 276.754 340.859H275.154C275.154 340.636 275.072 340.447 274.908 340.292C274.749 340.132 274.541 340.053 274.286 340.053C274.063 340.053 273.871 340.121 273.712 340.258C273.552 340.39 273.473 340.554 273.473 340.75C273.473 341.197 273.903 341.527 274.765 341.741C276.155 342.097 276.85 342.821 276.85 343.915C276.85 344.608 276.608 345.157 276.125 345.562C275.646 345.968 275.047 346.171 274.327 346.171ZM280.343 346.171C279.604 346.171 278.996 345.952 278.518 345.515C278.039 345.073 277.8 344.535 277.8 343.901H279.393C279.393 344.152 279.486 344.366 279.673 344.544C279.86 344.722 280.088 344.811 280.356 344.811C280.607 344.811 280.821 344.738 280.999 344.592C281.181 344.446 281.272 344.266 281.272 344.052C281.272 343.605 280.851 343.27 280.008 343.047C278.6 342.691 277.896 341.958 277.896 340.846C277.896 340.185 278.128 339.661 278.593 339.273C279.062 338.886 279.636 338.692 280.315 338.692C281.017 338.692 281.601 338.902 282.065 339.321C282.535 339.741 282.77 340.253 282.77 340.859H281.17C281.17 340.636 281.088 340.447 280.924 340.292C280.764 340.132 280.557 340.053 280.302 340.053C280.078 340.053 279.887 340.121 279.728 340.258C279.568 340.39 279.488 340.554 279.488 340.75C279.488 341.197 279.919 341.527 280.78 341.741C282.17 342.097 282.865 342.821 282.865 343.915C282.865 344.608 282.624 345.157 282.141 345.562C281.662 345.968 281.063 346.171 280.343 346.171Z" fill="#3F352F"/>
<rect width="24" height="89" transform="matrix(1 0 0 -1 238 162.5)" fill="#02643E"/>
<rect x="270" y="128.5" width="24" height="34" fill="#FF6005"/>
<path d="M128.84 31.9844H125.52V34.3521H128.307V35.8057H125.52V39.5H123.978V30.5308H128.84V31.9844ZM132.883 39.6587C131.868 39.6587 131.021 39.3265 130.344 38.6621C129.671 37.9977 129.335 37.1725 129.335 36.1865C129.335 35.1963 129.671 34.3711 130.344 33.7109C131.021 33.0465 131.868 32.7144 132.883 32.7144C133.89 32.7144 134.733 33.0465 135.41 33.7109C136.091 34.3711 136.432 35.1963 136.432 36.1865C136.432 37.1725 136.091 37.9977 135.41 38.6621C134.733 39.3265 133.89 39.6587 132.883 39.6587ZM131.417 37.6592C131.815 38.0527 132.304 38.2495 132.883 38.2495C133.463 38.2495 133.948 38.0527 134.337 37.6592C134.726 37.2656 134.921 36.7747 134.921 36.1865C134.921 35.5941 134.726 35.1011 134.337 34.7075C133.948 34.314 133.463 34.1172 132.883 34.1172C132.304 34.1172 131.815 34.314 131.417 34.7075C131.023 35.1011 130.827 35.5941 130.827 36.1865C130.827 36.7747 131.023 37.2656 131.417 37.6592ZM139.206 33.9521C139.735 33.165 140.414 32.7694 141.243 32.7651V34.2632C140.6 34.2632 140.098 34.4451 139.739 34.8091C139.383 35.173 139.206 35.6618 139.206 36.2754V39.5H137.746V32.873H139.206V33.9521ZM144.29 39.6587C143.604 39.6587 143.04 39.4556 142.595 39.0493C142.151 38.6388 141.929 38.1395 141.929 37.5513H143.408C143.408 37.784 143.494 37.9829 143.668 38.1479C143.841 38.313 144.053 38.3955 144.303 38.3955C144.535 38.3955 144.734 38.3278 144.899 38.1924C145.069 38.057 145.153 37.8898 145.153 37.6909C145.153 37.2762 144.762 36.9652 143.979 36.7578C142.671 36.4277 142.018 35.7464 142.018 34.7139C142.018 34.1003 142.233 33.6136 142.665 33.2539C143.101 32.8942 143.634 32.7144 144.265 32.7144C144.916 32.7144 145.458 32.909 145.89 33.2983C146.326 33.6877 146.543 34.1637 146.543 34.7266H145.058C145.058 34.5192 144.982 34.3436 144.83 34.1997C144.681 34.0516 144.489 33.9775 144.252 33.9775C144.045 33.9775 143.867 34.041 143.719 34.168C143.571 34.2907 143.497 34.443 143.497 34.625C143.497 35.0397 143.896 35.3465 144.696 35.5454C145.987 35.8755 146.632 36.5483 146.632 37.564C146.632 38.2072 146.408 38.7171 145.959 39.0938C145.515 39.4704 144.959 39.6587 144.29 39.6587ZM153.881 39.5H152.021L149.387 36.7451V39.5H147.927V30.1372H149.387V35.5327L151.945 32.873H153.792L150.752 36.1738L153.881 39.5ZM157.385 39.6587C156.37 39.6587 155.523 39.3265 154.846 38.6621C154.173 37.9977 153.837 37.1725 153.837 36.1865C153.837 35.1963 154.173 34.3711 154.846 33.7109C155.523 33.0465 156.37 32.7144 157.385 32.7144C158.392 32.7144 159.235 33.0465 159.912 33.7109C160.593 34.3711 160.934 35.1963 160.934 36.1865C160.934 37.1725 160.593 37.9977 159.912 38.6621C159.235 39.3265 158.392 39.6587 157.385 39.6587ZM155.919 37.6592C156.317 38.0527 156.806 38.2495 157.385 38.2495C157.965 38.2495 158.45 38.0527 158.839 37.6592C159.228 37.2656 159.423 36.7747 159.423 36.1865C159.423 35.5941 159.228 35.1011 158.839 34.7075C158.45 34.314 157.965 34.1172 157.385 34.1172C156.806 34.1172 156.317 34.314 155.919 34.7075C155.525 35.1011 155.329 35.5941 155.329 36.1865C155.329 36.7747 155.525 37.2656 155.919 37.6592ZM162.248 39.5V30.1372H163.708V39.5H162.248ZM166.164 31.7495C165.906 31.7495 165.686 31.6606 165.504 31.4829C165.326 31.3052 165.237 31.0872 165.237 30.8291C165.237 30.5625 165.326 30.3424 165.504 30.1689C165.682 29.9954 165.902 29.9087 166.164 29.9087C166.431 29.9087 166.653 29.9954 166.831 30.1689C167.008 30.3382 167.097 30.5583 167.097 30.8291C167.097 31.0872 167.008 31.3052 166.831 31.4829C166.653 31.6606 166.431 31.7495 166.164 31.7495ZM165.434 39.5V32.873H166.894V39.5H165.434ZM172.315 32.7144C173.102 32.7144 173.735 32.9535 174.213 33.4316C174.695 33.9056 174.937 34.5382 174.937 35.3296V39.5H173.483V35.8057C173.483 35.2936 173.333 34.8853 173.032 34.5806C172.736 34.2716 172.336 34.1172 171.833 34.1172C171.304 34.1172 170.878 34.2759 170.557 34.5933C170.239 34.9106 170.081 35.3232 170.081 35.8311V39.5H168.621V32.873H170.081V33.7935C170.61 33.0741 171.354 32.7144 172.315 32.7144Z" fill="#3F352F"/>
<rect x="99" y="27.5" width="16" height="16" fill="#02643E"/>
<path d="M236.082 30.5308C236.941 30.5308 237.656 30.8079 238.227 31.3623C238.798 31.9167 239.084 32.6149 239.084 33.457C239.084 34.2907 238.796 34.9847 238.221 35.5391C237.645 36.0892 236.932 36.3643 236.082 36.3643H234.52V39.5H232.978V30.5308H236.082ZM236.056 34.9106C236.462 34.9106 236.801 34.7731 237.072 34.498C237.347 34.2188 237.484 33.8717 237.484 33.457C237.484 33.0339 237.347 32.6826 237.072 32.4033C236.801 32.124 236.462 31.9844 236.056 31.9844H234.52V34.9106H236.056ZM240.271 39.5V30.1372H241.731V39.5H240.271ZM248.669 32.873H250.129V39.5H248.669V38.4717C248.089 39.2588 247.315 39.6545 246.346 39.6587C245.41 39.6587 244.632 39.3265 244.01 38.6621C243.392 37.9977 243.083 37.1725 243.083 36.1865C243.083 35.1963 243.392 34.3711 244.01 33.7109C244.632 33.0465 245.41 32.7144 246.346 32.7144C247.315 32.7144 248.089 33.1079 248.669 33.895V32.873ZM246.631 38.2495C247.211 38.2495 247.696 38.0527 248.085 37.6592C248.474 37.2656 248.669 36.7747 248.669 36.1865C248.669 35.5941 248.474 35.1011 248.085 34.7075C247.696 34.314 247.211 34.1172 246.631 34.1172C246.043 34.1172 245.552 34.314 245.159 34.7075C244.769 35.1011 244.575 35.5941 244.575 36.1865C244.575 36.7747 244.769 37.2656 245.159 37.6592C245.552 38.0527 246.043 38.2495 246.631 38.2495ZM255.01 39.6587C253.995 39.6587 253.148 39.3265 252.471 38.6621C251.798 37.9977 251.462 37.1725 251.462 36.1865C251.462 35.1963 251.798 34.3711 252.471 33.7109C253.148 33.0465 253.995 32.7144 255.01 32.7144C255.92 32.7144 256.699 32.9873 257.346 33.5332C257.998 34.0791 258.385 34.7816 258.508 35.6406H256.997C256.874 35.1921 256.633 34.826 256.273 34.5425C255.914 34.259 255.493 34.1172 255.01 34.1172C254.431 34.1172 253.942 34.314 253.544 34.7075C253.15 35.1011 252.954 35.5941 252.954 36.1865C252.954 36.7747 253.15 37.2656 253.544 37.6592C253.942 38.0527 254.431 38.2495 255.01 38.2495C255.497 38.2495 255.918 38.1099 256.273 37.8306C256.633 37.547 256.874 37.181 256.997 36.7324H258.508C258.385 37.5915 257.998 38.2939 257.346 38.8398C256.699 39.3857 255.92 39.6587 255.01 39.6587ZM266.455 36.1992C266.455 36.4066 266.442 36.5885 266.417 36.7451H260.926C261.032 37.2318 261.265 37.6211 261.625 37.9131C261.984 38.2008 262.416 38.3447 262.919 38.3447C263.334 38.3447 263.704 38.258 264.03 38.0845C264.356 37.911 264.593 37.6803 264.741 37.3926H266.322C266.081 38.0697 265.651 38.6177 265.033 39.0366C264.42 39.4513 263.711 39.6587 262.907 39.6587C261.9 39.6587 261.057 39.3265 260.38 38.6621C259.708 37.9977 259.371 37.1725 259.371 36.1865C259.371 35.1963 259.708 34.3711 260.38 33.7109C261.057 33.0465 261.9 32.7144 262.907 32.7144C263.922 32.7144 264.767 33.0465 265.439 33.7109C266.117 34.3711 266.455 35.2005 266.455 36.1992ZM264.157 34.4409C263.798 34.1659 263.379 34.0283 262.9 34.0283C262.426 34.0283 262.012 34.168 261.656 34.4473C261.301 34.7223 261.062 35.0884 260.939 35.5454H264.881C264.758 35.0841 264.517 34.716 264.157 34.4409ZM271.527 32.7144C272.454 32.7144 273.228 33.0465 273.85 33.7109C274.476 34.3711 274.79 35.1963 274.79 36.1865C274.79 37.1725 274.476 37.9977 273.85 38.6621C273.228 39.3265 272.454 39.6587 271.527 39.6587C270.549 39.6587 269.771 39.263 269.191 38.4717V39.5H267.731V30.1372H269.191V33.895C269.771 33.1079 270.549 32.7144 271.527 32.7144ZM269.781 37.6592C270.175 38.0527 270.661 38.2495 271.241 38.2495C271.821 38.2495 272.306 38.0527 272.695 37.6592C273.088 37.2656 273.285 36.7747 273.285 36.1865C273.285 35.5941 273.088 35.1011 272.695 34.7075C272.306 34.314 271.821 34.1172 271.241 34.1172C270.661 34.1172 270.175 34.314 269.781 34.7075C269.388 35.1011 269.191 35.5941 269.191 36.1865C269.191 36.7747 269.388 37.2656 269.781 37.6592ZM279.284 39.6587C278.268 39.6587 277.422 39.3265 276.745 38.6621C276.072 37.9977 275.735 37.1725 275.735 36.1865C275.735 35.1963 276.072 34.3711 276.745 33.7109C277.422 33.0465 278.268 32.7144 279.284 32.7144C280.291 32.7144 281.133 33.0465 281.81 33.7109C282.491 34.3711 282.832 35.1963 282.832 36.1865C282.832 37.1725 282.491 37.9977 281.81 38.6621C281.133 39.3265 280.291 39.6587 279.284 39.6587ZM277.817 37.6592C278.215 38.0527 278.704 38.2495 279.284 38.2495C279.863 38.2495 280.348 38.0527 280.737 37.6592C281.127 37.2656 281.321 36.7747 281.321 36.1865C281.321 35.5941 281.127 35.1011 280.737 34.7075C280.348 34.314 279.863 34.1172 279.284 34.1172C278.704 34.1172 278.215 34.314 277.817 34.7075C277.424 35.1011 277.227 35.5941 277.227 36.1865C277.227 36.7747 277.424 37.2656 277.817 37.6592Z" fill="#3F352F"/>
<rect x="208" y="27.5" width="16" height="16" fill="#FF6005"/>
</svg>
