<svg width="760" height="374" viewBox="0 0 760 374" fill="none" xmlns="http://www.w3.org/2000/svg">
<rect width="760" height="374" rx="17" fill="#F5F4F4"/>
<line x1="108" y1="81.5" x2="696" y2="81.5" stroke="#DFDDDD"/>
<line x1="108" y1="137.5" x2="696" y2="137.5" stroke="#DFDDDD"/>
<line x1="108" y1="193.5" x2="696" y2="193.5" stroke="#DFDDDD"/>
<line x1="108" y1="177.5" x2="696" y2="177.5" stroke="#DFDDDD"/>
<line x1="108" y1="249.5" x2="696" y2="249.5" stroke="#DFDDDD"/>
<line x1="108" y1="305.5" x2="696" y2="305.5" stroke="#DFDDDD"/>
<path d="M91.6309 138.432V139.997H90.4961V142H88.8281V139.997H84.4873V138.767L88.6777 132.341H90.4961V138.432H91.6309ZM86.3809 138.432H88.8281V134.549L86.3809 138.432Z" fill="#AEA9A8"/>
<path d="M82.6279 194.917V193.406H86.6611V194.917H82.6279ZM89.7031 188.341H90.8789V198H89.2178V190.33L87.2012 191.451V189.715L89.7031 188.341Z" fill="#AEA9A8"/>
<path d="M79.6064 250.917V249.406H83.6396V250.917H79.6064ZM88.4453 247.786C89.3431 247.786 90.0905 248.091 90.6875 248.702C91.2891 249.313 91.5898 250.072 91.5898 250.979C91.5898 251.881 91.2731 252.64 90.6396 253.255C90.0062 253.866 89.2223 254.171 88.2881 254.171C87.3538 254.171 86.5723 253.866 85.9434 253.255C85.3145 252.64 85 251.881 85 250.979C85 250.249 85.2051 249.563 85.6152 248.921L88.5684 244.341H90.5986L88.3428 247.786H88.4453ZM88.2881 252.558C88.7438 252.558 89.1198 252.41 89.416 252.113C89.7168 251.812 89.8672 251.434 89.8672 250.979C89.8672 250.518 89.7168 250.138 89.416 249.837C89.1198 249.532 88.7438 249.379 88.2881 249.379C87.8415 249.379 87.4655 249.532 87.1602 249.837C86.8594 250.138 86.709 250.518 86.709 250.979C86.709 251.434 86.8594 251.812 87.1602 252.113C87.4655 252.41 87.8415 252.558 88.2881 252.558Z" fill="#AEA9A8"/>
<path d="M77.3369 306.917V305.406H81.3701V306.917H77.3369ZM84.4121 300.341H85.5879V310H83.9268V302.33L81.9102 303.451V301.715L84.4121 300.341ZM89.7031 300.341H90.8789V310H89.2178V302.33L87.2012 303.451V301.715L89.7031 300.341Z" fill="#AEA9A8"/>
<path d="M46.1953 252.234C46.1953 253.885 45.6484 255.266 44.5547 256.375C43.4609 257.484 42.1042 258.039 40.4844 258.039C38.8594 258.039 37.5 257.484 36.4062 256.375C35.3125 255.266 34.7656 253.885 34.7656 252.234C34.7656 250.75 35.2187 249.474 36.125 248.406C37.0312 247.339 38.1849 246.698 39.5859 246.484L39.5859 248.469C38.7109 248.661 37.9974 249.102 37.4453 249.789C36.888 250.477 36.6094 251.292 36.6094 252.234C36.6094 253.323 36.9792 254.234 37.7187 254.969C38.4583 255.703 39.3776 256.07 40.4766 256.07C41.5755 256.07 42.4974 255.703 43.2422 254.969C43.9818 254.234 44.3516 253.323 44.3516 252.234C44.3516 251.297 44.0755 250.484 43.5234 249.797C42.9661 249.104 42.25 248.661 41.375 248.469L41.375 246.484C42.7708 246.698 43.9245 247.339 44.8359 248.406C45.7422 249.474 46.1953 250.75 46.1953 252.234ZM37.6484 240.344C37.6484 239.375 37.9427 238.596 38.5312 238.008C39.1146 237.414 39.8932 237.117 40.8672 237.117L46 237.117L46 238.906L41.4531 238.906C40.8229 238.906 40.3203 239.091 39.9453 239.461C39.5651 239.826 39.375 240.318 39.375 240.937C39.375 241.589 39.5703 242.112 39.9609 242.508C40.3516 242.898 40.8594 243.094 41.4844 243.094L46 243.094L46 244.891L34.4766 244.891L34.4766 243.094L39.0234 243.094C38.1068 242.443 37.6484 241.526 37.6484 240.344ZM37.8437 228.711L37.8437 226.914L46 226.914L46 228.711L44.7344 228.711C45.7031 229.424 46.1901 230.378 46.1953 231.57C46.1953 232.721 45.7865 233.68 44.9687 234.445C44.151 235.206 43.1354 235.586 41.9219 235.586C40.7031 235.586 39.6875 235.206 38.875 234.445C38.0573 233.68 37.6484 232.721 37.6484 231.57C37.6484 230.378 38.1328 229.424 39.1016 228.711L37.8437 228.711ZM44.4609 231.219C44.4609 230.505 44.2187 229.909 43.7344 229.43C43.25 228.951 42.6458 228.711 41.9219 228.711C41.1927 228.711 40.5859 228.951 40.1016 229.43C39.6172 229.909 39.375 230.505 39.375 231.219C39.375 231.943 39.6172 232.547 40.1016 233.031C40.5859 233.51 41.1927 233.75 41.9219 233.75C42.6458 233.75 43.25 233.51 43.7344 233.031C44.2187 232.547 44.4609 231.943 44.4609 231.219ZM37.6484 220.234C37.6484 219.266 37.9427 218.487 38.5312 217.898C39.1146 217.305 39.8932 217.008 40.8672 217.008L46 217.008L46 218.797L41.4531 218.797C40.8229 218.797 40.3203 218.982 39.9453 219.352C39.5651 219.716 39.375 220.208 39.375 220.828C39.375 221.479 39.5703 222.003 39.9609 222.398C40.3516 222.789 40.8594 222.984 41.4844 222.984L46 222.984L46 224.781L37.8437 224.781L37.8437 222.984L38.9766 222.984C38.0911 222.333 37.6484 221.417 37.6484 220.234ZM37.8437 208.602L37.8437 206.805L45.1172 206.805C46.3568 206.805 47.3516 207.187 48.1016 207.953C48.8568 208.714 49.2344 209.724 49.2344 210.984C49.2344 212.042 48.9609 212.93 48.4141 213.648C47.8724 214.367 47.1328 214.844 46.1953 215.078L46.1953 213.242C46.6224 213.091 46.9609 212.812 47.2109 212.406C47.4609 212 47.5859 211.526 47.5859 210.984C47.5859 210.26 47.3594 209.682 46.9062 209.25C46.4531 208.818 45.8516 208.602 45.1016 208.602L44.5781 208.602C45.5156 209.305 45.9844 210.258 45.9844 211.461C45.9844 212.612 45.5885 213.57 44.7969 214.336C44 215.096 43.0078 215.477 41.8203 215.477C40.6276 215.477 39.6354 215.096 38.8437 214.336C38.0469 213.57 37.6484 212.612 37.6484 211.461C37.6484 210.258 38.1172 209.305 39.0547 208.602L37.8437 208.602ZM44.3516 211.109C44.3516 210.396 44.112 209.799 43.6328 209.32C43.1536 208.841 42.5521 208.602 41.8281 208.602C41.099 208.602 40.4922 208.841 40.0078 209.32C39.5234 209.799 39.2812 210.396 39.2812 211.109C39.2812 211.833 39.5234 212.437 40.0078 212.922C40.4922 213.401 41.0964 213.641 41.8203 213.641C42.5339 213.641 43.1354 213.401 43.625 212.922C44.1094 212.437 44.3516 211.833 44.3516 211.109ZM41.9375 196.492C42.1927 196.492 42.4167 196.508 42.6094 196.539L42.6094 203.297C43.2083 203.167 43.6875 202.88 44.0469 202.437C44.401 201.995 44.5781 201.464 44.5781 200.844C44.5781 200.333 44.4714 199.878 44.2578 199.477C44.0443 199.076 43.7604 198.784 43.4062 198.602L43.4062 196.656C44.2396 196.953 44.9141 197.482 45.4297 198.242C45.9401 198.997 46.1953 199.87 46.1953 200.859C46.1953 202.099 45.7865 203.135 44.9687 203.969C44.151 204.797 43.1354 205.211 41.9219 205.211C40.7031 205.211 39.6875 204.797 38.875 203.969C38.0573 203.135 37.6484 202.099 37.6484 200.859C37.6484 199.609 38.0573 198.57 38.875 197.742C39.6875 196.909 40.7083 196.492 41.9375 196.492ZM39.7734 199.32C39.4349 199.763 39.2656 200.279 39.2656 200.867C39.2656 201.451 39.4375 201.961 39.7812 202.398C40.1198 202.836 40.5703 203.13 41.1328 203.281L41.1328 198.43C40.5651 198.581 40.112 198.878 39.7734 199.32ZM49.0391 188.789C48.1328 189.471 46.9948 190.021 45.625 190.437C44.2552 190.854 42.888 191.062 41.5234 191.062C40.1536 191.062 38.7839 190.854 37.4141 190.437C36.0443 190.021 34.9062 189.471 34 188.789L34 186.977C34.9062 187.638 36.0443 188.169 37.4141 188.57C38.7839 188.971 40.1536 189.172 41.5234 189.172C42.888 189.172 44.2552 188.971 45.625 188.57C46.9948 188.169 48.1328 187.638 49.0391 186.977L49.0391 188.789ZM46 185.734L34.4766 185.734L34.4766 183.937L46 183.937L46 185.734ZM37.6484 177.141C37.6484 176 38.0573 175.047 38.875 174.281C39.6875 173.51 40.7031 173.125 41.9219 173.125C43.1354 173.125 44.151 173.51 44.9687 174.281C45.7865 175.047 46.1953 176 46.1953 177.141C46.1953 178.344 45.7083 179.302 44.7344 180.016L46 180.016L46 181.812L34.4766 181.812L34.4766 180.016L39.1016 180.016C38.1328 179.302 37.6484 178.344 37.6484 177.141ZM43.7344 179.289C44.2187 178.805 44.4609 178.206 44.4609 177.492C44.4609 176.779 44.2187 176.182 43.7344 175.703C43.25 175.219 42.6458 174.977 41.9219 174.977C41.1927 174.977 40.5859 175.219 40.1016 175.703C39.6172 176.182 39.375 176.779 39.375 177.492C39.375 178.206 39.6172 178.805 40.1016 179.289C40.5859 179.773 41.1927 180.016 41.9219 180.016C42.6458 180.016 43.25 179.773 43.7344 179.289ZM46.1953 169.07C46.1953 169.914 45.9453 170.609 45.4453 171.156C44.9401 171.703 44.3255 171.977 43.6016 171.977L43.6016 170.156C43.888 170.156 44.1328 170.049 44.3359 169.836C44.5391 169.622 44.6406 169.362 44.6406 169.055C44.6406 168.768 44.5573 168.523 44.3906 168.32C44.224 168.112 44.0182 168.008 43.7734 168.008C43.263 168.008 42.8802 168.49 42.625 169.453C42.2187 171.062 41.3802 171.867 40.1094 171.867C39.3542 171.867 38.7552 171.602 38.3125 171.07C37.8698 170.534 37.6484 169.878 37.6484 169.102C37.6484 168.299 37.888 167.633 38.3672 167.102C38.8464 166.565 39.4323 166.297 40.125 166.297L40.125 168.125C39.8698 168.125 39.6536 168.219 39.4766 168.406C39.2943 168.589 39.2031 168.826 39.2031 169.117C39.2031 169.372 39.2812 169.591 39.4375 169.773C39.5885 169.956 39.776 170.047 40 170.047C40.5104 170.047 40.888 169.555 41.1328 168.57C41.5391 166.982 42.3672 166.187 43.6172 166.187C44.4089 166.187 45.0365 166.464 45.5 167.016C45.9635 167.562 46.1953 168.247 46.1953 169.07ZM49.0391 165.555C48.1328 164.893 46.9948 164.362 45.625 163.961C44.2552 163.56 42.888 163.359 41.5234 163.359C40.1536 163.359 38.7838 163.56 37.4141 163.961C36.0443 164.362 34.9062 164.893 34 165.555L34 163.742C34.9062 163.06 36.0443 162.51 37.4141 162.094C38.7838 161.677 40.1536 161.469 41.5234 161.469C42.888 161.469 44.2552 161.677 45.625 162.094C46.9948 162.51 48.1328 163.06 49.0391 163.742L49.0391 165.555Z" fill="#3F352F"/>
<path d="M249.266 326.75H245.18V329.664H248.609V331.453H245.18V336H243.281V324.961H249.266V326.75ZM256.781 327.844H258.578V336H256.781V334.734C256.068 335.703 255.115 336.19 253.922 336.195C252.771 336.195 251.812 335.786 251.047 334.969C250.286 334.151 249.906 333.135 249.906 331.922C249.906 330.703 250.286 329.688 251.047 328.875C251.812 328.057 252.771 327.648 253.922 327.648C255.115 327.648 256.068 328.133 256.781 329.102V327.844ZM254.273 334.461C254.987 334.461 255.583 334.219 256.062 333.734C256.542 333.25 256.781 332.646 256.781 331.922C256.781 331.193 256.542 330.586 256.062 330.102C255.583 329.617 254.987 329.375 254.273 329.375C253.549 329.375 252.945 329.617 252.461 330.102C251.982 330.586 251.742 331.193 251.742 331.922C251.742 332.646 251.982 333.25 252.461 333.734C252.945 334.219 253.549 334.461 254.273 334.461ZM265.289 327.844V329.469H263.547V336H261.75V329.469H260.102V327.844H261.75V325.82L263.547 325.438V327.844H265.289ZM280.172 324.961H282.625V336H280.719V328.156L277.297 336H275.953L272.539 328.195V336H270.641V324.961H273.117L276.656 333.07L280.172 324.961ZM291.297 327.844H293.094V336H291.297V334.734C290.583 335.703 289.63 336.19 288.438 336.195C287.286 336.195 286.328 335.786 285.562 334.969C284.802 334.151 284.422 333.135 284.422 331.922C284.422 330.703 284.802 329.688 285.562 328.875C286.328 328.057 287.286 327.648 288.438 327.648C289.63 327.648 290.583 328.133 291.297 329.102V327.844ZM288.789 334.461C289.503 334.461 290.099 334.219 290.578 333.734C291.057 333.25 291.297 332.646 291.297 331.922C291.297 331.193 291.057 330.586 290.578 330.102C290.099 329.617 289.503 329.375 288.789 329.375C288.065 329.375 287.461 329.617 286.977 330.102C286.497 330.586 286.258 331.193 286.258 331.922C286.258 332.646 286.497 333.25 286.977 333.734C287.461 334.219 288.065 334.461 288.789 334.461ZM297.625 336.195C296.781 336.195 296.086 335.945 295.539 335.445C294.992 334.94 294.719 334.326 294.719 333.602H296.539C296.539 333.888 296.646 334.133 296.859 334.336C297.073 334.539 297.333 334.641 297.641 334.641C297.927 334.641 298.172 334.557 298.375 334.391C298.583 334.224 298.688 334.018 298.688 333.773C298.688 333.263 298.206 332.88 297.242 332.625C295.633 332.219 294.828 331.38 294.828 330.109C294.828 329.354 295.094 328.755 295.625 328.312C296.161 327.87 296.818 327.648 297.594 327.648C298.396 327.648 299.062 327.888 299.594 328.367C300.13 328.846 300.398 329.432 300.398 330.125H298.57C298.57 329.87 298.477 329.654 298.289 329.477C298.107 329.294 297.87 329.203 297.578 329.203C297.323 329.203 297.104 329.281 296.922 329.438C296.74 329.589 296.648 329.776 296.648 330C296.648 330.51 297.141 330.888 298.125 331.133C299.714 331.539 300.508 332.367 300.508 333.617C300.508 334.409 300.232 335.036 299.68 335.5C299.133 335.964 298.448 336.195 297.625 336.195ZM304.5 336.195C303.656 336.195 302.961 335.945 302.414 335.445C301.867 334.94 301.594 334.326 301.594 333.602H303.414C303.414 333.888 303.521 334.133 303.734 334.336C303.948 334.539 304.208 334.641 304.516 334.641C304.802 334.641 305.047 334.557 305.25 334.391C305.458 334.224 305.562 334.018 305.562 333.773C305.562 333.263 305.081 332.88 304.117 332.625C302.508 332.219 301.703 331.38 301.703 330.109C301.703 329.354 301.969 328.755 302.5 328.312C303.036 327.87 303.693 327.648 304.469 327.648C305.271 327.648 305.938 327.888 306.469 328.367C307.005 328.846 307.273 329.432 307.273 330.125H305.445C305.445 329.87 305.352 329.654 305.164 329.477C304.982 329.294 304.745 329.203 304.453 329.203C304.198 329.203 303.979 329.281 303.797 329.438C303.615 329.589 303.523 329.776 303.523 330C303.523 330.51 304.016 330.888 305 331.133C306.589 331.539 307.383 332.367 307.383 333.617C307.383 334.409 307.107 335.036 306.555 335.5C306.008 335.964 305.323 336.195 304.5 336.195Z" fill="#3F352F"/>
<rect x="206" y="178" width="64" height="119" fill="#02643E"/>
<path d="M325.273 273.602C325.273 273.086 325.141 272.729 324.875 272.531C324.609 272.328 324.219 272.227 323.703 272.227C322.823 272.227 322.005 272.443 321.25 272.875C320.5 273.302 320.125 273.773 320.125 274.289C320.125 274.617 320.266 274.898 320.547 275.133C320.833 275.362 321.568 275.648 322.75 275.992C323.99 276.352 324.909 276.747 325.508 277.18C326.112 277.607 326.414 278.122 326.414 278.727C326.414 279.732 325.648 280.654 324.117 281.492C322.586 282.326 320.995 282.742 319.344 282.742C318.807 282.742 318.378 282.63 318.055 282.406C317.732 282.182 317.57 281.906 317.57 281.578C317.57 281.318 317.643 281.076 317.789 280.852C317.935 280.628 318.109 280.516 318.312 280.516C318.438 280.516 318.552 280.536 318.656 280.578C319.203 280.812 319.714 280.93 320.188 280.93C321 280.93 321.911 280.703 322.922 280.25C323.938 279.792 324.445 279.344 324.445 278.906C324.445 278.724 324.318 278.549 324.062 278.383C323.812 278.211 323.299 277.997 322.523 277.742C321.393 277.372 320.542 277.068 319.969 276.828C319.401 276.589 318.969 276.276 318.672 275.891C318.38 275.5 318.234 275.031 318.234 274.484C318.234 273.51 318.802 272.604 319.938 271.766C321.073 270.927 322.406 270.508 323.938 270.508C324.818 270.508 325.51 270.682 326.016 271.031C326.526 271.38 326.781 271.779 326.781 272.227C326.781 273.143 326.279 273.602 325.273 273.602ZM331.57 275.656C331.523 275.656 331.375 276.237 331.125 277.398C330.88 278.56 330.758 279.263 330.758 279.508C330.758 279.935 330.802 280.234 330.891 280.406C330.984 280.573 331.135 280.656 331.344 280.656C331.635 280.656 331.914 280.607 332.18 280.508C332.451 280.404 332.805 280.174 333.242 279.82C333.513 279.596 333.742 279.484 333.93 279.484C334.081 279.484 334.201 279.529 334.289 279.617C334.383 279.701 334.43 279.799 334.43 279.914C334.43 280.372 334.06 280.893 333.32 281.477C332.581 282.055 331.799 282.344 330.977 282.344C330.289 282.344 329.763 282.141 329.398 281.734C329.039 281.328 328.859 280.745 328.859 279.984C328.859 279.281 329.122 277.878 329.648 275.773C329.315 275.81 329.083 275.828 328.953 275.828H328.789C328.549 275.828 328.305 275.75 328.055 275.594C327.81 275.438 327.688 275.188 327.688 274.844C327.688 274.406 327.935 274.188 328.43 274.188L330.102 274.125C330.32 273.495 330.552 272.669 330.797 271.648C330.943 271.013 331.273 270.695 331.789 270.695C332.076 270.695 332.299 270.784 332.461 270.961C332.622 271.133 332.703 271.326 332.703 271.539C332.703 271.622 332.482 272.427 332.039 273.953C333.695 273.807 334.604 273.734 334.766 273.734C335.042 273.734 335.224 273.776 335.312 273.859C335.401 273.938 335.445 274.091 335.445 274.32C335.445 274.784 335.052 275.078 334.266 275.203L331.57 275.656ZM341.352 279.141C340.852 280.052 340.271 280.776 339.609 281.312C338.953 281.849 338.286 282.117 337.609 282.117C337.208 282.117 336.802 281.906 336.391 281.484C335.984 281.062 335.781 280.414 335.781 279.539C335.781 278.919 335.938 277.984 336.25 276.734C336.521 275.703 336.656 274.919 336.656 274.383C336.865 273.945 337.19 273.727 337.633 273.727C337.935 273.727 338.174 273.828 338.352 274.031C338.534 274.229 338.625 274.43 338.625 274.633C338.625 275.003 338.495 275.529 338.234 276.211C338.083 276.617 337.919 277.193 337.742 277.938C337.57 278.677 337.484 279.151 337.484 279.359C337.484 280.052 337.628 280.398 337.914 280.398C338.367 280.398 338.979 279.964 339.75 279.094C340.521 278.224 341.023 277.333 341.258 276.422C341.492 275.531 341.701 274.948 341.883 274.672C342.065 274.396 342.323 274.258 342.656 274.258C343.198 274.258 343.469 274.56 343.469 275.164C343.469 275.253 343.424 275.43 343.336 275.695C343.029 276.617 342.875 277.656 342.875 278.812C342.875 280.167 343.104 280.977 343.562 281.242C343.714 281.331 343.789 281.44 343.789 281.57C343.789 281.758 343.656 281.935 343.391 282.102C343.125 282.268 342.872 282.352 342.633 282.352C342.221 282.352 341.904 282.062 341.68 281.484C341.461 280.901 341.352 280.12 341.352 279.141ZM346.367 274.414C346.872 271.419 347.234 269.646 347.453 269.094C347.677 268.542 348.065 268.266 348.617 268.266C349.044 268.266 349.258 268.643 349.258 269.398C349.258 269.914 349.044 270.984 348.617 272.609C348.393 273.411 348.122 274.625 347.805 276.25C348.451 275.391 349.154 274.695 349.914 274.164C350.68 273.633 351.362 273.367 351.961 273.367C352.451 273.367 352.857 273.578 353.18 274C353.508 274.417 353.672 274.909 353.672 275.477C353.672 277.081 353.055 278.589 351.82 280C350.591 281.411 349.284 282.117 347.898 282.117C347.482 282.117 347.094 282.005 346.734 281.781C346.375 281.552 346.172 281.26 346.125 280.906C346.104 280.714 346.065 280.586 346.008 280.523C345.951 280.461 345.891 280.393 345.828 280.32C345.677 280.164 345.602 279.945 345.602 279.664C345.602 279.341 345.682 278.669 345.844 277.648L346.367 274.414ZM347.289 279.961C347.508 280.326 347.753 280.508 348.023 280.508C348.513 280.508 349.055 280.284 349.648 279.836C350.247 279.383 350.766 278.747 351.203 277.93C351.646 277.112 351.867 276.432 351.867 275.891C351.867 275.375 351.786 275.117 351.625 275.117C350.797 275.117 349.867 275.724 348.836 276.938C347.805 278.146 347.289 279.154 347.289 279.961ZM355.648 274.414C356.154 271.419 356.516 269.646 356.734 269.094C356.958 268.542 357.346 268.266 357.898 268.266C358.326 268.266 358.539 268.643 358.539 269.398C358.539 269.914 358.326 270.984 357.898 272.609C357.674 273.411 357.404 274.625 357.086 276.25C357.732 275.391 358.435 274.695 359.195 274.164C359.961 273.633 360.643 273.367 361.242 273.367C361.732 273.367 362.138 273.578 362.461 274C362.789 274.417 362.953 274.909 362.953 275.477C362.953 277.081 362.336 278.589 361.102 280C359.872 281.411 358.565 282.117 357.18 282.117C356.763 282.117 356.375 282.005 356.016 281.781C355.656 281.552 355.453 281.26 355.406 280.906C355.385 280.714 355.346 280.586 355.289 280.523C355.232 280.461 355.172 280.393 355.109 280.32C354.958 280.164 354.883 279.945 354.883 279.664C354.883 279.341 354.964 278.669 355.125 277.648L355.648 274.414ZM356.57 279.961C356.789 280.326 357.034 280.508 357.305 280.508C357.794 280.508 358.336 280.284 358.93 279.836C359.529 279.383 360.047 278.747 360.484 277.93C360.927 277.112 361.148 276.432 361.148 275.891C361.148 275.375 361.068 275.117 360.906 275.117C360.078 275.117 359.148 275.724 358.117 276.938C357.086 278.146 356.57 279.154 356.57 279.961ZM371.531 278.039C371.182 279.258 370.518 280.286 369.539 281.125C368.565 281.958 367.591 282.375 366.617 282.375C365.846 282.375 365.211 282.094 364.711 281.531C364.211 280.964 363.961 280.268 363.961 279.445C363.961 278.102 364.419 276.779 365.336 275.477C366.253 274.174 367.365 273.523 368.672 273.523C369.562 273.523 370.284 273.854 370.836 274.516C371.388 275.172 371.664 275.956 371.664 276.867C371.664 277.263 371.62 277.651 371.531 278.031V278.039ZM367.469 275.57C367.104 275.893 366.747 276.409 366.398 277.117C366.049 277.826 365.875 278.536 365.875 279.25C365.875 279.682 365.953 280.039 366.109 280.32C366.271 280.602 366.482 280.742 366.742 280.742C367.388 280.742 368.06 280.359 368.758 279.594C369.456 278.828 369.805 277.969 369.805 277.016C369.805 276.479 369.69 276.039 369.461 275.695C369.237 275.346 368.922 275.172 368.516 275.172C368.13 275.172 367.784 275.305 367.477 275.57H367.469ZM375.117 278.125L375.25 277.875C375.88 276.609 376.557 275.583 377.281 274.797C378.01 274.005 378.721 273.609 379.414 273.609C379.945 273.609 380.378 273.755 380.711 274.047C381.049 274.339 381.219 274.685 381.219 275.086C381.219 275.336 381.161 275.552 381.047 275.734C380.932 275.911 380.773 276 380.57 276C380.247 276 379.953 275.867 379.688 275.602C379.5 275.43 379.352 275.344 379.242 275.344C378.852 275.344 378.198 275.951 377.281 277.164C376.365 278.378 375.812 279.742 375.625 281.258C375.568 281.695 375.44 282 375.242 282.172C375.044 282.349 374.776 282.438 374.438 282.438C374.078 282.438 373.823 282.234 373.672 281.828C373.521 281.417 373.445 280.747 373.445 279.82C373.445 279.44 373.456 278.927 373.477 278.281C373.497 277.672 373.557 276.927 373.656 276.047C373.682 275.818 373.701 275.638 373.711 275.508C373.758 274.997 373.81 274.648 373.867 274.461C373.93 274.268 374.07 274.089 374.289 273.922C374.508 273.755 374.75 273.672 375.016 273.672C375.297 273.672 375.51 273.753 375.656 273.914C375.802 274.076 375.875 274.253 375.875 274.445C375.875 274.69 375.758 275.198 375.523 275.969C375.44 276.234 375.37 276.552 375.312 276.922L375.117 278.125ZM388.164 280.859C387.914 280.391 387.732 279.516 387.617 278.234C387.503 276.901 387.247 276.234 386.852 276.234C386.477 276.234 385.828 276.93 384.906 278.32C383.984 279.706 383.417 280.729 383.203 281.391C383.156 281.589 383.068 281.753 382.938 281.883C382.812 282.013 382.688 282.078 382.562 282.078C381.771 282.078 381.375 281.716 381.375 280.992C381.375 280.747 381.453 280.19 381.609 279.32C381.812 278.195 381.914 276.82 381.914 275.195C381.914 274.951 382.021 274.69 382.234 274.414C382.448 274.133 382.674 273.992 382.914 273.992C383.216 273.992 383.448 274.068 383.609 274.219C383.771 274.37 383.852 274.771 383.852 275.422C383.852 275.917 383.703 276.875 383.406 278.297C384.536 275.651 385.797 274.328 387.188 274.328C388.396 274.328 389.104 275.279 389.312 277.18C389.521 279.117 389.76 280.086 390.031 280.086C390.151 280.086 390.289 280.06 390.445 280.008C390.633 279.945 390.781 279.914 390.891 279.914C391.141 279.914 391.266 280.06 391.266 280.352C391.266 280.617 391.094 280.901 390.75 281.203C390.406 281.5 389.974 281.648 389.453 281.648C388.849 281.648 388.417 281.385 388.156 280.859H388.164ZM400.727 278.023L400.594 279.422C400.552 279.87 400.531 280.312 400.531 280.75C400.531 281.146 400.568 281.604 400.641 282.125C400.589 282.307 400.458 282.464 400.25 282.594C400.042 282.724 399.823 282.789 399.594 282.789C398.88 282.789 398.523 282.336 398.523 281.43C398.523 281.029 398.635 280.07 398.859 278.555C399.016 277.466 399.094 276.656 399.094 276.125C399.094 276.094 399.062 276.057 399 276.016C398.641 275.786 398.461 275.568 398.461 275.359C398.461 275.089 398.661 274.794 399.062 274.477C399.255 274.326 399.372 274.151 399.414 273.953C399.461 273.75 399.526 273.432 399.609 273C399.891 271.339 400.326 270.159 400.914 269.461C401.508 268.758 402.26 268.406 403.172 268.406C403.703 268.406 404.151 268.581 404.516 268.93C404.885 269.273 405.07 269.701 405.07 270.211C405.07 270.669 404.964 271.146 404.75 271.641C404.542 272.13 404.266 272.375 403.922 272.375C403.771 272.375 403.643 272.328 403.539 272.234C403.435 272.135 403.383 272.008 403.383 271.852L403.43 271.172C403.43 270.359 403.26 269.953 402.922 269.953C402.5 269.953 402.104 270.484 401.734 271.547C401.37 272.604 401.188 273.505 401.188 274.25C401.188 274.328 401.237 274.367 401.336 274.367C402.414 274.367 403.174 274.362 403.617 274.352C404.065 274.341 404.289 274.513 404.289 274.867C404.289 275.211 404.018 275.466 403.477 275.633C402.94 275.794 402.375 275.875 401.781 275.875C401.38 275.911 401.12 275.945 401 275.977C400.875 276.747 400.784 277.427 400.727 278.016V278.023ZM409.875 279.383C408.505 281.19 407.182 282.094 405.906 282.094C405.438 282.094 405.034 281.909 404.695 281.539C404.357 281.169 404.188 280.698 404.188 280.125C404.188 278.745 404.802 277.276 406.031 275.719C407.26 274.156 408.5 273.375 409.75 273.375C410.385 273.375 410.802 273.695 411 274.336C411.599 274.336 411.898 274.565 411.898 275.023C411.898 275.242 411.841 275.638 411.727 276.211C411.518 277.284 411.414 278.141 411.414 278.781C411.414 279.448 411.458 279.917 411.547 280.188C411.641 280.458 411.708 280.635 411.75 280.719C411.792 280.802 411.917 280.891 412.125 280.984C412.333 281.083 412.438 281.221 412.438 281.398C412.438 281.664 412.302 281.885 412.031 282.062C411.766 282.24 411.487 282.328 411.195 282.328C410.216 282.328 409.776 281.346 409.875 279.383ZM409.406 275.047C408.88 275.047 408.195 275.63 407.352 276.797C406.513 277.958 406.094 278.945 406.094 279.758C406.094 280.185 406.182 280.398 406.359 280.398C406.974 280.398 407.729 279.854 408.625 278.766C409.526 277.672 409.977 276.716 409.977 275.898C409.977 275.638 409.917 275.432 409.797 275.281C409.682 275.125 409.552 275.047 409.406 275.047ZM417.07 275.656C417.023 275.656 416.875 276.237 416.625 277.398C416.38 278.56 416.258 279.263 416.258 279.508C416.258 279.935 416.302 280.234 416.391 280.406C416.484 280.573 416.635 280.656 416.844 280.656C417.135 280.656 417.414 280.607 417.68 280.508C417.951 280.404 418.305 280.174 418.742 279.82C419.013 279.596 419.242 279.484 419.43 279.484C419.581 279.484 419.701 279.529 419.789 279.617C419.883 279.701 419.93 279.799 419.93 279.914C419.93 280.372 419.56 280.893 418.82 281.477C418.081 282.055 417.299 282.344 416.477 282.344C415.789 282.344 415.263 282.141 414.898 281.734C414.539 281.328 414.359 280.745 414.359 279.984C414.359 279.281 414.622 277.878 415.148 275.773C414.815 275.81 414.583 275.828 414.453 275.828H414.289C414.049 275.828 413.805 275.75 413.555 275.594C413.31 275.438 413.188 275.188 413.188 274.844C413.188 274.406 413.435 274.188 413.93 274.188L415.602 274.125C415.82 273.495 416.052 272.669 416.297 271.648C416.443 271.013 416.773 270.695 417.289 270.695C417.576 270.695 417.799 270.784 417.961 270.961C418.122 271.133 418.203 271.326 418.203 271.539C418.203 271.622 417.982 272.427 417.539 273.953C419.195 273.807 420.104 273.734 420.266 273.734C420.542 273.734 420.724 273.776 420.812 273.859C420.901 273.938 420.945 274.091 420.945 274.32C420.945 274.784 420.552 275.078 419.766 275.203L417.07 275.656ZM433.109 279.609C432.531 280.26 431.857 280.797 431.086 281.219C430.32 281.635 429.659 281.844 429.102 281.844C428.549 281.844 428.12 281.682 427.812 281.359C427.51 281.036 427.359 280.591 427.359 280.023C427.359 279.216 427.664 278.318 428.273 277.328C428.888 276.339 429.737 275.479 430.82 274.75C431.909 274.016 432.888 273.648 433.758 273.648C434.237 273.648 434.651 273.779 435 274.039C435.083 274.102 435.156 274.154 435.219 274.195C435.344 274.284 435.458 274.448 435.562 274.688C435.672 274.922 435.727 275.112 435.727 275.258C435.727 275.352 435.628 275.667 435.43 276.203C435.227 276.76 435.083 277.302 435 277.828C434.922 278.349 434.763 279.654 434.523 281.742C434.31 283.56 433.802 284.888 433 285.727C432.198 286.565 431.307 286.984 430.328 286.984C429.302 286.984 428.305 286.638 427.336 285.945C426.372 285.258 425.891 284.69 425.891 284.242C425.891 283.846 426.083 283.648 426.469 283.648C426.62 283.648 426.927 283.799 427.391 284.102C428.578 284.883 429.596 285.273 430.445 285.273C431.091 285.273 431.633 284.867 432.07 284.055C432.508 283.247 432.854 281.766 433.109 279.609ZM433.297 275.266C432.911 275.266 432.406 275.497 431.781 275.961C431.156 276.419 430.578 277.039 430.047 277.82C429.516 278.602 429.25 279.25 429.25 279.766C429.25 280.036 429.349 280.172 429.547 280.172C430.219 280.172 430.885 279.901 431.547 279.359C432.208 278.812 432.742 278.185 433.148 277.477C433.56 276.768 433.766 276.232 433.766 275.867C433.766 275.685 433.719 275.539 433.625 275.43C433.531 275.32 433.422 275.266 433.297 275.266ZM444.297 278.039C443.948 279.258 443.284 280.286 442.305 281.125C441.331 281.958 440.357 282.375 439.383 282.375C438.612 282.375 437.977 282.094 437.477 281.531C436.977 280.964 436.727 280.268 436.727 279.445C436.727 278.102 437.185 276.779 438.102 275.477C439.018 274.174 440.13 273.523 441.438 273.523C442.328 273.523 443.049 273.854 443.602 274.516C444.154 275.172 444.43 275.956 444.43 276.867C444.43 277.263 444.385 277.651 444.297 278.031V278.039ZM440.234 275.57C439.87 275.893 439.513 276.409 439.164 277.117C438.815 277.826 438.641 278.536 438.641 279.25C438.641 279.682 438.719 280.039 438.875 280.32C439.036 280.602 439.247 280.742 439.508 280.742C440.154 280.742 440.826 280.359 441.523 279.594C442.221 278.828 442.57 277.969 442.57 277.016C442.57 276.479 442.456 276.039 442.227 275.695C442.003 275.346 441.688 275.172 441.281 275.172C440.896 275.172 440.549 275.305 440.242 275.57H440.234ZM452.922 279.312C452.922 279.854 452.466 280.503 451.555 281.258C450.643 282.008 449.615 282.383 448.469 282.383C447.589 282.383 446.896 282.107 446.391 281.555C445.885 280.997 445.633 280.224 445.633 279.234C445.633 277.776 446.148 276.409 447.18 275.133C448.211 273.857 449.312 273.219 450.484 273.219C451.068 273.219 451.536 273.404 451.891 273.773C452.245 274.143 452.422 274.583 452.422 275.094C452.422 276 451.987 276.865 451.117 277.688C450.247 278.505 449.133 279.07 447.773 279.383C447.617 279.419 447.539 279.513 447.539 279.664C447.539 279.914 447.648 280.154 447.867 280.383C448.091 280.607 448.388 280.719 448.758 280.719C449.805 280.719 450.844 280.18 451.875 279.102C452.073 278.893 452.266 278.789 452.453 278.789C452.766 278.789 452.922 278.964 452.922 279.312ZM447.68 277.93C448.503 277.763 449.227 277.411 449.852 276.875C450.482 276.339 450.797 275.852 450.797 275.414C450.797 275.242 450.747 275.099 450.648 274.984C450.555 274.865 450.432 274.805 450.281 274.805C449.828 274.805 449.326 275.138 448.773 275.805C448.221 276.471 447.857 277.18 447.68 277.93ZM457.906 280.016C457.885 279.734 457.438 279.391 456.562 278.984C455.49 278.469 454.805 278.026 454.508 277.656C454.211 277.281 454.062 276.875 454.062 276.438C454.062 275.516 454.578 274.711 455.609 274.023C456.646 273.331 457.612 272.984 458.508 272.984C459.388 272.984 459.828 273.367 459.828 274.133C459.828 274.336 459.727 274.518 459.523 274.68C459.326 274.841 459.156 274.922 459.016 274.922C458.958 274.922 458.857 274.885 458.711 274.812C458.565 274.74 458.453 274.703 458.375 274.703C457.911 274.703 457.401 274.859 456.844 275.172C456.286 275.484 456.008 275.849 456.008 276.266C456.008 276.469 456.107 276.667 456.305 276.859C456.503 277.047 456.906 277.284 457.516 277.57C458.417 277.997 459.01 278.383 459.297 278.727C459.583 279.07 459.727 279.451 459.727 279.867C459.727 280.628 459.211 281.263 458.18 281.773C457.154 282.279 456 282.531 454.719 282.531C453.776 282.531 453.305 282.19 453.305 281.508C453.305 281.258 453.404 281.044 453.602 280.867C453.799 280.69 454.021 280.602 454.266 280.602C454.365 280.602 454.518 280.638 454.727 280.711C454.935 280.789 455.128 280.828 455.305 280.828C455.794 280.828 456.307 280.75 456.844 280.594C457.38 280.438 457.734 280.245 457.906 280.016ZM472.922 279.391C471.573 281.302 470.216 282.258 468.852 282.258C468.299 282.258 467.854 282.042 467.516 281.609C467.177 281.172 467.008 280.617 467.008 279.945C467.008 278.586 467.562 277.234 468.672 275.891C469.786 274.547 470.914 273.875 472.055 273.875C472.711 273.875 473.177 274.047 473.453 274.391C473.844 272.682 474.076 271.615 474.148 271.188C474.305 270.396 474.435 269.87 474.539 269.609C474.643 269.349 474.802 269.148 475.016 269.008C475.229 268.862 475.414 268.789 475.57 268.789C475.836 268.789 476.039 268.898 476.18 269.117C476.32 269.336 476.391 269.612 476.391 269.945C476.391 270.091 476.276 270.51 476.047 271.203C475.672 272.328 475.323 273.688 475 275.281C474.682 276.875 474.523 278.143 474.523 279.086C474.523 279.987 474.721 280.438 475.117 280.438C475.32 280.438 475.536 280.383 475.766 280.273C475.995 280.169 476.156 280.117 476.25 280.117C476.505 280.117 476.633 280.266 476.633 280.562C476.633 280.922 476.372 281.281 475.852 281.641C475.336 281.995 474.846 282.172 474.383 282.172C473.883 282.172 473.497 281.904 473.227 281.367C472.956 280.831 472.854 280.172 472.922 279.391ZM472.055 275.383C471.372 275.383 470.659 275.904 469.914 276.945C469.174 277.987 468.805 278.94 468.805 279.805C468.805 280.31 468.992 280.562 469.367 280.562C470.003 280.562 470.76 279.997 471.641 278.867C472.521 277.737 472.961 276.844 472.961 276.188C472.961 275.99 472.878 275.807 472.711 275.641C472.544 275.469 472.326 275.383 472.055 275.383ZM485.328 278.039C484.979 279.258 484.315 280.286 483.336 281.125C482.362 281.958 481.388 282.375 480.414 282.375C479.643 282.375 479.008 282.094 478.508 281.531C478.008 280.964 477.758 280.268 477.758 279.445C477.758 278.102 478.216 276.779 479.133 275.477C480.049 274.174 481.161 273.523 482.469 273.523C483.359 273.523 484.081 273.854 484.633 274.516C485.185 275.172 485.461 275.956 485.461 276.867C485.461 277.263 485.417 277.651 485.328 278.031V278.039ZM481.266 275.57C480.901 275.893 480.544 276.409 480.195 277.117C479.846 277.826 479.672 278.536 479.672 279.25C479.672 279.682 479.75 280.039 479.906 280.32C480.068 280.602 480.279 280.742 480.539 280.742C481.185 280.742 481.857 280.359 482.555 279.594C483.253 278.828 483.602 277.969 483.602 277.016C483.602 276.479 483.487 276.039 483.258 275.695C483.034 275.346 482.719 275.172 482.312 275.172C481.927 275.172 481.581 275.305 481.273 275.57H481.266ZM493.273 277.086C493.221 277.169 492.826 277.992 492.086 279.555C492.023 279.69 491.987 279.766 491.977 279.781C491.091 281.568 490.409 282.461 489.93 282.461C489.18 282.461 488.523 281.531 487.961 279.672C487.398 277.807 487.117 276.255 487.117 275.016C487.117 274.568 487.221 274.206 487.43 273.93C487.643 273.654 487.945 273.516 488.336 273.516C488.581 273.516 488.797 273.622 488.984 273.836C489.177 274.044 489.273 274.245 489.273 274.438L489.203 275.469C489.182 275.781 489.172 276.094 489.172 276.406C489.172 276.958 489.286 277.693 489.516 278.609C489.745 279.521 489.906 279.977 490 279.977C490.068 279.977 490.331 279.513 490.789 278.586C491.388 277.372 491.872 276.456 492.242 275.836H492.234C492.755 274.846 493.216 274.198 493.617 273.891C493.956 273.927 494.227 274.029 494.43 274.195C494.638 274.362 494.742 274.557 494.742 274.781C494.742 274.958 494.734 275.089 494.719 275.172C494.698 275.26 494.688 275.341 494.688 275.414C494.688 276.987 495.122 278.401 495.992 279.656C496.049 279.714 496.099 279.68 496.141 279.555C496.188 279.43 496.297 279.044 496.469 278.398C496.786 277.201 497.146 276.159 497.547 275.273C497.948 274.383 498.276 273.831 498.531 273.617C498.786 273.404 499.076 273.297 499.398 273.297C499.602 273.297 499.776 273.375 499.922 273.531C500.073 273.682 500.148 273.849 500.148 274.031C500.148 274.25 500.102 274.422 500.008 274.547C499.336 275.443 498.74 276.682 498.219 278.266C497.682 279.906 497.31 280.909 497.102 281.273C496.893 281.638 496.716 281.82 496.57 281.82C496.086 281.82 495.688 281.732 495.375 281.555C495.068 281.372 494.768 281.036 494.477 280.547C494.19 280.057 493.93 279.44 493.695 278.695C493.461 277.951 493.32 277.414 493.273 277.086ZM507.602 280.859C507.352 280.391 507.169 279.516 507.055 278.234C506.94 276.901 506.685 276.234 506.289 276.234C505.914 276.234 505.266 276.93 504.344 278.32C503.422 279.706 502.854 280.729 502.641 281.391C502.594 281.589 502.505 281.753 502.375 281.883C502.25 282.013 502.125 282.078 502 282.078C501.208 282.078 500.812 281.716 500.812 280.992C500.812 280.747 500.891 280.19 501.047 279.32C501.25 278.195 501.352 276.82 501.352 275.195C501.352 274.951 501.458 274.69 501.672 274.414C501.885 274.133 502.112 273.992 502.352 273.992C502.654 273.992 502.885 274.068 503.047 274.219C503.208 274.37 503.289 274.771 503.289 275.422C503.289 275.917 503.141 276.875 502.844 278.297C503.974 275.651 505.234 274.328 506.625 274.328C507.833 274.328 508.542 275.279 508.75 277.18C508.958 279.117 509.198 280.086 509.469 280.086C509.589 280.086 509.727 280.06 509.883 280.008C510.07 279.945 510.219 279.914 510.328 279.914C510.578 279.914 510.703 280.06 510.703 280.352C510.703 280.617 510.531 280.901 510.188 281.203C509.844 281.5 509.411 281.648 508.891 281.648C508.286 281.648 507.854 281.385 507.594 280.859H507.602ZM513.562 278.258C513.042 278.258 512.638 278.151 512.352 277.938C512.268 276.922 512.341 275.878 512.57 274.805C512.826 273.643 512.953 272.773 512.953 272.195C512.953 272.138 512.979 271.922 513.031 271.547C513.089 271.167 513.255 270.878 513.531 270.68C513.807 270.482 514.042 270.383 514.234 270.383C514.443 270.383 514.641 270.461 514.828 270.617C515.021 270.768 515.117 270.935 515.117 271.117C515.117 271.263 515.01 271.805 514.797 272.742C514.589 273.674 514.38 274.534 514.172 275.32C513.953 276.138 513.839 276.792 513.828 277.281C513.818 277.651 513.729 277.977 513.562 278.258ZM512.453 281.852C511.88 281.852 511.594 281.534 511.594 280.898C511.594 280.659 511.711 280.383 511.945 280.07C512.18 279.758 512.432 279.602 512.703 279.602C512.88 279.602 513.102 279.688 513.367 279.859C513.633 280.031 513.766 280.177 513.766 280.297L513.688 280.781C513.641 281.125 513.471 281.391 513.18 281.578C512.888 281.76 512.646 281.852 512.453 281.852Z" fill="#E4181A"/>
<path d="M306.293 275.707C306.683 276.098 307.317 276.098 307.707 275.707C308.098 275.317 308.098 274.683 307.707 274.293L306.293 275.707ZM278 246L280.989 257.154L289.154 248.989L278 246ZM307.707 274.293L285.071 251.657L283.657 253.071L306.293 275.707L307.707 274.293Z" fill="#E4181A"/>
<rect width="64" height="15" transform="matrix(1 0 0 -1 280 193)" fill="#FF6005"/>
<path d="M203.055 118.625C202.93 118.625 202.714 118.609 202.406 118.578C202.099 118.552 201.872 118.539 201.727 118.539C200.305 118.539 198.924 118.75 197.586 119.172C197.034 119.349 196.641 119.438 196.406 119.438C196.089 119.438 195.841 119.312 195.664 119.062C195.487 118.812 195.398 118.573 195.398 118.344C195.398 118.25 195.445 118.01 195.539 117.625C195.659 117.146 195.755 116.599 195.828 115.984L196.531 109.508C196.589 108.893 196.638 108.495 196.68 108.312C196.727 108.13 196.841 107.966 197.023 107.82C197.206 107.674 197.453 107.602 197.766 107.602C198.016 107.602 198.234 107.695 198.422 107.883C198.609 108.07 198.703 108.273 198.703 108.492C198.703 108.69 198.656 109.044 198.562 109.555C198.427 110.284 198.237 111.685 197.992 113.758C197.747 115.831 197.625 116.927 197.625 117.047C197.625 117.198 197.651 117.273 197.703 117.273C197.901 117.273 198.445 117.203 199.336 117.062C199.753 116.995 200.174 116.951 200.602 116.93C201.82 116.872 202.674 116.784 203.164 116.664C203.32 116.628 203.435 116.609 203.508 116.609C203.794 116.609 204.018 116.695 204.18 116.867C204.341 117.034 204.422 117.234 204.422 117.469C204.422 117.818 204.281 118.099 204 118.312C203.724 118.521 203.409 118.625 203.055 118.625ZM212.641 116.312C212.641 116.854 212.185 117.503 211.273 118.258C210.362 119.008 209.333 119.383 208.188 119.383C207.307 119.383 206.615 119.107 206.109 118.555C205.604 117.997 205.352 117.224 205.352 116.234C205.352 114.776 205.867 113.409 206.898 112.133C207.93 110.857 209.031 110.219 210.203 110.219C210.786 110.219 211.255 110.404 211.609 110.773C211.964 111.143 212.141 111.583 212.141 112.094C212.141 113 211.706 113.865 210.836 114.688C209.966 115.505 208.852 116.07 207.492 116.383C207.336 116.419 207.258 116.513 207.258 116.664C207.258 116.914 207.367 117.154 207.586 117.383C207.81 117.607 208.107 117.719 208.477 117.719C209.523 117.719 210.562 117.18 211.594 116.102C211.792 115.893 211.984 115.789 212.172 115.789C212.484 115.789 212.641 115.964 212.641 116.312ZM207.398 114.93C208.221 114.763 208.945 114.411 209.57 113.875C210.201 113.339 210.516 112.852 210.516 112.414C210.516 112.242 210.466 112.099 210.367 111.984C210.273 111.865 210.151 111.805 210 111.805C209.547 111.805 209.044 112.138 208.492 112.805C207.94 113.471 207.576 114.18 207.398 114.93ZM219.297 116.383C217.927 118.19 216.604 119.094 215.328 119.094C214.859 119.094 214.456 118.909 214.117 118.539C213.779 118.169 213.609 117.698 213.609 117.125C213.609 115.745 214.224 114.276 215.453 112.719C216.682 111.156 217.922 110.375 219.172 110.375C219.807 110.375 220.224 110.695 220.422 111.336C221.021 111.336 221.32 111.565 221.32 112.023C221.32 112.242 221.263 112.638 221.148 113.211C220.94 114.284 220.836 115.141 220.836 115.781C220.836 116.448 220.88 116.917 220.969 117.188C221.062 117.458 221.13 117.635 221.172 117.719C221.214 117.802 221.339 117.891 221.547 117.984C221.755 118.083 221.859 118.221 221.859 118.398C221.859 118.664 221.724 118.885 221.453 119.062C221.188 119.24 220.909 119.328 220.617 119.328C219.638 119.328 219.198 118.346 219.297 116.383ZM218.828 112.047C218.302 112.047 217.617 112.63 216.773 113.797C215.935 114.958 215.516 115.945 215.516 116.758C215.516 117.185 215.604 117.398 215.781 117.398C216.396 117.398 217.151 116.854 218.047 115.766C218.948 114.672 219.398 113.716 219.398 112.898C219.398 112.638 219.339 112.432 219.219 112.281C219.104 112.125 218.974 112.047 218.828 112.047ZM229.867 117.859C229.617 117.391 229.435 116.516 229.32 115.234C229.206 113.901 228.951 113.234 228.555 113.234C228.18 113.234 227.531 113.93 226.609 115.32C225.688 116.706 225.12 117.729 224.906 118.391C224.859 118.589 224.771 118.753 224.641 118.883C224.516 119.013 224.391 119.078 224.266 119.078C223.474 119.078 223.078 118.716 223.078 117.992C223.078 117.747 223.156 117.19 223.312 116.32C223.516 115.195 223.617 113.82 223.617 112.195C223.617 111.951 223.724 111.69 223.938 111.414C224.151 111.133 224.378 110.992 224.617 110.992C224.919 110.992 225.151 111.068 225.312 111.219C225.474 111.37 225.555 111.771 225.555 112.422C225.555 112.917 225.406 113.875 225.109 115.297C226.24 112.651 227.5 111.328 228.891 111.328C230.099 111.328 230.807 112.279 231.016 114.18C231.224 116.117 231.464 117.086 231.734 117.086C231.854 117.086 231.992 117.06 232.148 117.008C232.336 116.945 232.484 116.914 232.594 116.914C232.844 116.914 232.969 117.06 232.969 117.352C232.969 117.617 232.797 117.901 232.453 118.203C232.109 118.5 231.677 118.648 231.156 118.648C230.552 118.648 230.12 118.385 229.859 117.859H229.867ZM234.07 120.008C234.31 119.966 234.651 119.836 235.094 119.617C235.542 119.404 235.826 119.13 235.945 118.797C236.07 118.458 236.133 118.281 236.133 118.266C236.133 117.818 236.081 117.518 235.977 117.367C235.878 117.216 235.828 117.081 235.828 116.961C235.828 116.815 235.885 116.654 236 116.477C236.115 116.294 236.258 116.203 236.43 116.203C236.607 116.203 236.839 116.263 237.125 116.383C237.417 116.503 237.583 116.609 237.625 116.703C237.672 116.792 237.74 116.992 237.828 117.305C237.917 117.612 237.961 117.883 237.961 118.117C237.961 118.216 237.852 118.513 237.633 119.008C237.419 119.503 237.138 119.878 236.789 120.133C236.44 120.388 236.094 120.547 235.75 120.609C235.682 120.62 235.63 120.63 235.594 120.641C235.005 120.854 234.609 120.961 234.406 120.961C234.062 120.961 233.891 120.771 233.891 120.391C233.891 120.255 233.951 120.128 234.07 120.008ZM249.406 117.016C249.385 116.734 248.938 116.391 248.062 115.984C246.99 115.469 246.305 115.026 246.008 114.656C245.711 114.281 245.562 113.875 245.562 113.438C245.562 112.516 246.078 111.711 247.109 111.023C248.146 110.331 249.112 109.984 250.008 109.984C250.888 109.984 251.328 110.367 251.328 111.133C251.328 111.336 251.227 111.518 251.023 111.68C250.826 111.841 250.656 111.922 250.516 111.922C250.458 111.922 250.357 111.885 250.211 111.812C250.065 111.74 249.953 111.703 249.875 111.703C249.411 111.703 248.901 111.859 248.344 112.172C247.786 112.484 247.508 112.849 247.508 113.266C247.508 113.469 247.607 113.667 247.805 113.859C248.003 114.047 248.406 114.284 249.016 114.57C249.917 114.997 250.51 115.383 250.797 115.727C251.083 116.07 251.227 116.451 251.227 116.867C251.227 117.628 250.711 118.263 249.68 118.773C248.654 119.279 247.5 119.531 246.219 119.531C245.276 119.531 244.805 119.19 244.805 118.508C244.805 118.258 244.904 118.044 245.102 117.867C245.299 117.69 245.521 117.602 245.766 117.602C245.865 117.602 246.018 117.638 246.227 117.711C246.435 117.789 246.628 117.828 246.805 117.828C247.294 117.828 247.807 117.75 248.344 117.594C248.88 117.438 249.234 117.245 249.406 117.016ZM259.484 116.312C259.484 116.854 259.029 117.503 258.117 118.258C257.206 119.008 256.177 119.383 255.031 119.383C254.151 119.383 253.458 119.107 252.953 118.555C252.448 117.997 252.195 117.224 252.195 116.234C252.195 114.776 252.711 113.409 253.742 112.133C254.773 110.857 255.875 110.219 257.047 110.219C257.63 110.219 258.099 110.404 258.453 110.773C258.807 111.143 258.984 111.583 258.984 112.094C258.984 113 258.549 113.865 257.68 114.688C256.81 115.505 255.695 116.07 254.336 116.383C254.18 116.419 254.102 116.513 254.102 116.664C254.102 116.914 254.211 117.154 254.43 117.383C254.654 117.607 254.951 117.719 255.32 117.719C256.367 117.719 257.406 117.18 258.438 116.102C258.635 115.893 258.828 115.789 259.016 115.789C259.328 115.789 259.484 115.964 259.484 116.312ZM254.242 114.93C255.065 114.763 255.789 114.411 256.414 113.875C257.044 113.339 257.359 112.852 257.359 112.414C257.359 112.242 257.31 112.099 257.211 111.984C257.117 111.865 256.995 111.805 256.844 111.805C256.391 111.805 255.888 112.138 255.336 112.805C254.784 113.471 254.419 114.18 254.242 114.93ZM263.594 116.32C262.667 117.19 262.008 118.094 261.617 119.031C261.451 119.422 261.273 119.719 261.086 119.922C260.633 119.896 260.299 119.802 260.086 119.641C259.872 119.484 259.766 119.224 259.766 118.859C259.766 118.536 259.904 118.138 260.18 117.664C260.461 117.185 261.154 116.438 262.258 115.422C262.424 115.266 262.565 115.13 262.68 115.016C261.685 113.557 261.188 112.419 261.188 111.602C261.188 110.742 261.565 110.312 262.32 110.312C262.846 110.312 263.128 110.698 263.164 111.469C263.195 112.26 263.487 113.081 264.039 113.93C264.31 113.685 264.599 113.396 264.906 113.062C264.995 112.969 265.078 112.883 265.156 112.805C265.812 112.112 266.284 111.497 266.57 110.961C266.758 110.622 266.911 110.404 267.031 110.305C267.156 110.206 267.339 110.156 267.578 110.156C267.844 110.156 268.073 110.25 268.266 110.438C268.458 110.625 268.555 110.854 268.555 111.125C268.555 111.693 267.344 113.07 264.922 115.258C265.745 116.268 266.622 117.031 267.555 117.547C267.669 117.615 267.779 117.695 267.883 117.789C267.924 117.888 267.945 117.995 267.945 118.109C267.945 118.375 267.839 118.609 267.625 118.812C267.411 119.01 267.151 119.109 266.844 119.109C266.073 119.109 264.99 118.18 263.594 116.32ZM276.922 114.398C276.839 115.664 276.69 116.893 276.477 118.086C276.268 119.273 275.958 120.352 275.547 121.32C275.141 122.289 274.701 122.948 274.227 123.297C273.758 123.651 273.198 123.828 272.547 123.828C271.849 123.828 271.18 123.695 270.539 123.43H270.547C269.995 123.201 269.513 122.893 269.102 122.508C268.695 122.122 268.492 121.797 268.492 121.531C268.492 121.286 268.552 121.091 268.672 120.945C268.797 120.799 268.958 120.727 269.156 120.727C269.328 120.727 269.471 120.799 269.586 120.945C270.253 121.805 271.221 122.234 272.492 122.234C273.008 122.234 273.505 121.695 273.984 120.617C274.464 119.539 274.766 118.245 274.891 116.734C273.281 118.005 272.042 118.641 271.172 118.641C270.609 118.641 270.164 118.417 269.836 117.969C269.508 117.521 269.344 116.982 269.344 116.352C269.344 115.721 269.49 114.807 269.781 113.609C270.078 112.406 270.328 111.661 270.531 111.375C270.74 111.083 271.076 110.938 271.539 110.938C271.789 110.938 271.982 111.047 272.117 111.266C272.253 111.479 272.32 111.716 272.32 111.977C272.32 112.055 272.133 112.495 271.758 113.297C271.299 114.276 271.07 115.12 271.07 115.828C271.07 116.193 271.12 116.471 271.219 116.664C271.323 116.852 271.43 116.945 271.539 116.945C271.789 116.945 272.091 116.87 272.445 116.719C272.805 116.568 273.224 116.307 273.703 115.938C274.188 115.562 274.5 115.279 274.641 115.086C274.781 114.893 274.893 114.646 274.977 114.344C275.06 114.036 275.125 113.365 275.172 112.328C275.198 111.724 275.227 111.344 275.258 111.188C275.294 111.031 275.388 110.888 275.539 110.758C275.69 110.628 275.893 110.562 276.148 110.562C276.492 110.562 276.734 110.635 276.875 110.781C277.021 110.927 277.094 111.271 277.094 111.812L276.922 114.398ZM287.273 118.539C287.211 119.076 286.911 119.344 286.375 119.344C285.693 119.344 285.352 118.852 285.352 117.867C285.352 116.273 285.438 114.911 285.609 113.781C285.745 112.901 285.812 112.036 285.812 111.188C285.812 110.984 285.878 110.815 286.008 110.68C286.138 110.539 286.32 110.469 286.555 110.469C287.336 110.469 287.727 110.943 287.727 111.891C287.727 112.198 287.589 112.982 287.312 114.242C287.146 114.992 287.062 115.536 287.062 115.875C288.552 112.604 289.896 110.969 291.094 110.969C291.578 110.969 291.966 111.161 292.258 111.547C292.555 111.932 292.708 112.786 292.719 114.109C292.724 115.318 292.786 115.922 292.906 115.922C293 115.922 293.326 115.336 293.883 114.164C294.503 112.867 295.031 112.01 295.469 111.594C295.911 111.177 296.375 110.969 296.859 110.969C297.438 110.969 297.857 111.219 298.117 111.719C298.378 112.214 298.56 113.052 298.664 114.234C298.742 115.172 298.846 115.88 298.977 116.359C299.112 116.839 299.341 117.156 299.664 117.312C299.924 117.438 300.055 117.625 300.055 117.875C300.055 118.099 299.906 118.326 299.609 118.555C299.312 118.779 299.01 118.891 298.703 118.891C298.172 118.891 297.755 118.63 297.453 118.109C297.156 117.583 296.956 116.531 296.852 114.953C296.794 114.193 296.732 113.69 296.664 113.445C296.602 113.195 296.505 113.07 296.375 113.07C296.26 113.07 296.094 113.258 295.875 113.633C295.656 114.003 295.279 114.742 294.742 115.852C294.268 116.852 293.859 117.549 293.516 117.945C293.177 118.341 292.812 118.539 292.422 118.539C292.12 118.539 291.815 118.409 291.508 118.148C291.206 117.888 291.042 116.943 291.016 115.312C290.99 113.859 290.896 113.133 290.734 113.133C290.516 113.133 289.99 113.779 289.156 115.07C288.323 116.362 287.695 117.518 287.273 118.539ZM306.711 116.141C306.211 117.052 305.63 117.776 304.969 118.312C304.312 118.849 303.646 119.117 302.969 119.117C302.568 119.117 302.161 118.906 301.75 118.484C301.344 118.062 301.141 117.414 301.141 116.539C301.141 115.919 301.297 114.984 301.609 113.734C301.88 112.703 302.016 111.919 302.016 111.383C302.224 110.945 302.549 110.727 302.992 110.727C303.294 110.727 303.534 110.828 303.711 111.031C303.893 111.229 303.984 111.43 303.984 111.633C303.984 112.003 303.854 112.529 303.594 113.211C303.443 113.617 303.279 114.193 303.102 114.938C302.93 115.677 302.844 116.151 302.844 116.359C302.844 117.052 302.987 117.398 303.273 117.398C303.727 117.398 304.339 116.964 305.109 116.094C305.88 115.224 306.383 114.333 306.617 113.422C306.852 112.531 307.06 111.948 307.242 111.672C307.424 111.396 307.682 111.258 308.016 111.258C308.557 111.258 308.828 111.56 308.828 112.164C308.828 112.253 308.784 112.43 308.695 112.695C308.388 113.617 308.234 114.656 308.234 115.812C308.234 117.167 308.464 117.977 308.922 118.242C309.073 118.331 309.148 118.44 309.148 118.57C309.148 118.758 309.016 118.935 308.75 119.102C308.484 119.268 308.232 119.352 307.992 119.352C307.581 119.352 307.263 119.062 307.039 118.484C306.82 117.901 306.711 117.12 306.711 116.141ZM314.625 117.016C314.604 116.734 314.156 116.391 313.281 115.984C312.208 115.469 311.523 115.026 311.227 114.656C310.93 114.281 310.781 113.875 310.781 113.438C310.781 112.516 311.297 111.711 312.328 111.023C313.365 110.331 314.331 109.984 315.227 109.984C316.107 109.984 316.547 110.367 316.547 111.133C316.547 111.336 316.445 111.518 316.242 111.68C316.044 111.841 315.875 111.922 315.734 111.922C315.677 111.922 315.576 111.885 315.43 111.812C315.284 111.74 315.172 111.703 315.094 111.703C314.63 111.703 314.12 111.859 313.562 112.172C313.005 112.484 312.727 112.849 312.727 113.266C312.727 113.469 312.826 113.667 313.023 113.859C313.221 114.047 313.625 114.284 314.234 114.57C315.135 114.997 315.729 115.383 316.016 115.727C316.302 116.07 316.445 116.451 316.445 116.867C316.445 117.628 315.93 118.263 314.898 118.773C313.872 119.279 312.719 119.531 311.438 119.531C310.495 119.531 310.023 119.19 310.023 118.508C310.023 118.258 310.122 118.044 310.32 117.867C310.518 117.69 310.74 117.602 310.984 117.602C311.083 117.602 311.237 117.638 311.445 117.711C311.654 117.789 311.846 117.828 312.023 117.828C312.513 117.828 313.026 117.75 313.562 117.594C314.099 117.438 314.453 117.245 314.625 117.016ZM320.016 119.43C319.156 119.43 318.503 119.195 318.055 118.727C317.607 118.258 317.383 117.607 317.383 116.773C317.383 115.461 317.917 114.042 318.984 112.516C320.052 110.99 321.099 110.227 322.125 110.227C322.62 110.227 323.042 110.474 323.391 110.969C323.74 111.458 323.914 111.969 323.914 112.5C323.914 113 323.82 113.339 323.633 113.516C323.451 113.688 323.273 113.773 323.102 113.773C322.596 113.773 322.302 113.424 322.219 112.727C322.156 112.216 322.029 111.961 321.836 111.961C321.43 111.961 320.893 112.539 320.227 113.695C319.56 114.852 319.227 115.865 319.227 116.734C319.227 117.438 319.607 117.789 320.367 117.789C321.206 117.789 322.052 117.492 322.906 116.898C323.307 116.612 323.625 116.469 323.859 116.469C324.146 116.469 324.289 116.612 324.289 116.898C324.289 117.299 323.828 117.823 322.906 118.469C321.99 119.109 321.026 119.43 320.016 119.43ZM328.648 105.773C329.211 105.773 329.492 106.081 329.492 106.695C329.492 106.977 329.453 107.281 329.375 107.609C329.297 107.932 329.083 108.737 328.734 110.023C328.479 110.956 328.284 111.974 328.148 113.078C328.018 114.177 327.953 115.036 327.953 115.656C327.953 116.318 328.003 117.104 328.102 118.016C328.128 118.26 328.141 118.414 328.141 118.477C328.141 118.789 328.026 119.057 327.797 119.281C327.568 119.505 327.318 119.617 327.047 119.617C326.677 119.617 326.417 119.443 326.266 119.094C326.115 118.745 326.039 118.146 326.039 117.297C326.039 115.469 326.253 113.315 326.68 110.836C327.112 108.357 327.464 106.893 327.734 106.445C328.01 105.997 328.315 105.773 328.648 105.773ZM337.328 116.312C337.328 116.854 336.872 117.503 335.961 118.258C335.049 119.008 334.021 119.383 332.875 119.383C331.995 119.383 331.302 119.107 330.797 118.555C330.292 117.997 330.039 117.224 330.039 116.234C330.039 114.776 330.555 113.409 331.586 112.133C332.617 110.857 333.719 110.219 334.891 110.219C335.474 110.219 335.943 110.404 336.297 110.773C336.651 111.143 336.828 111.583 336.828 112.094C336.828 113 336.393 113.865 335.523 114.688C334.654 115.505 333.539 116.07 332.18 116.383C332.023 116.419 331.945 116.513 331.945 116.664C331.945 116.914 332.055 117.154 332.273 117.383C332.497 117.607 332.794 117.719 333.164 117.719C334.211 117.719 335.25 117.18 336.281 116.102C336.479 115.893 336.672 115.789 336.859 115.789C337.172 115.789 337.328 115.964 337.328 116.312ZM332.086 114.93C332.909 114.763 333.633 114.411 334.258 113.875C334.888 113.339 335.203 112.852 335.203 112.414C335.203 112.242 335.154 112.099 335.055 111.984C334.961 111.865 334.839 111.805 334.688 111.805C334.234 111.805 333.732 112.138 333.18 112.805C332.628 113.471 332.263 114.18 332.086 114.93ZM350.391 116.609C349.812 117.26 349.138 117.797 348.367 118.219C347.602 118.635 346.94 118.844 346.383 118.844C345.831 118.844 345.401 118.682 345.094 118.359C344.792 118.036 344.641 117.591 344.641 117.023C344.641 116.216 344.945 115.318 345.555 114.328C346.169 113.339 347.018 112.479 348.102 111.75C349.19 111.016 350.169 110.648 351.039 110.648C351.518 110.648 351.932 110.779 352.281 111.039C352.365 111.102 352.438 111.154 352.5 111.195C352.625 111.284 352.74 111.448 352.844 111.688C352.953 111.922 353.008 112.112 353.008 112.258C353.008 112.352 352.909 112.667 352.711 113.203C352.508 113.76 352.365 114.302 352.281 114.828C352.203 115.349 352.044 116.654 351.805 118.742C351.591 120.56 351.083 121.888 350.281 122.727C349.479 123.565 348.589 123.984 347.609 123.984C346.583 123.984 345.586 123.638 344.617 122.945C343.654 122.258 343.172 121.69 343.172 121.242C343.172 120.846 343.365 120.648 343.75 120.648C343.901 120.648 344.208 120.799 344.672 121.102C345.859 121.883 346.878 122.273 347.727 122.273C348.372 122.273 348.914 121.867 349.352 121.055C349.789 120.247 350.135 118.766 350.391 116.609ZM350.578 112.266C350.193 112.266 349.688 112.497 349.062 112.961C348.438 113.419 347.859 114.039 347.328 114.82C346.797 115.602 346.531 116.25 346.531 116.766C346.531 117.036 346.63 117.172 346.828 117.172C347.5 117.172 348.167 116.901 348.828 116.359C349.49 115.812 350.023 115.185 350.43 114.477C350.841 113.768 351.047 113.232 351.047 112.867C351.047 112.685 351 112.539 350.906 112.43C350.812 112.32 350.703 112.266 350.578 112.266ZM361.578 115.039C361.229 116.258 360.565 117.286 359.586 118.125C358.612 118.958 357.638 119.375 356.664 119.375C355.893 119.375 355.258 119.094 354.758 118.531C354.258 117.964 354.008 117.268 354.008 116.445C354.008 115.102 354.466 113.779 355.383 112.477C356.299 111.174 357.411 110.523 358.719 110.523C359.609 110.523 360.331 110.854 360.883 111.516C361.435 112.172 361.711 112.956 361.711 113.867C361.711 114.263 361.667 114.651 361.578 115.031V115.039ZM357.516 112.57C357.151 112.893 356.794 113.409 356.445 114.117C356.096 114.826 355.922 115.536 355.922 116.25C355.922 116.682 356 117.039 356.156 117.32C356.318 117.602 356.529 117.742 356.789 117.742C357.435 117.742 358.107 117.359 358.805 116.594C359.503 115.828 359.852 114.969 359.852 114.016C359.852 113.479 359.737 113.039 359.508 112.695C359.284 112.346 358.969 112.172 358.562 112.172C358.177 112.172 357.831 112.305 357.523 112.57H357.516ZM370.203 116.312C370.203 116.854 369.747 117.503 368.836 118.258C367.924 119.008 366.896 119.383 365.75 119.383C364.87 119.383 364.177 119.107 363.672 118.555C363.167 117.997 362.914 117.224 362.914 116.234C362.914 114.776 363.43 113.409 364.461 112.133C365.492 110.857 366.594 110.219 367.766 110.219C368.349 110.219 368.818 110.404 369.172 110.773C369.526 111.143 369.703 111.583 369.703 112.094C369.703 113 369.268 113.865 368.398 114.688C367.529 115.505 366.414 116.07 365.055 116.383C364.898 116.419 364.82 116.513 364.82 116.664C364.82 116.914 364.93 117.154 365.148 117.383C365.372 117.607 365.669 117.719 366.039 117.719C367.086 117.719 368.125 117.18 369.156 116.102C369.354 115.893 369.547 115.789 369.734 115.789C370.047 115.789 370.203 115.964 370.203 116.312ZM364.961 114.93C365.784 114.763 366.508 114.411 367.133 113.875C367.763 113.339 368.078 112.852 368.078 112.414C368.078 112.242 368.029 112.099 367.93 111.984C367.836 111.865 367.714 111.805 367.562 111.805C367.109 111.805 366.607 112.138 366.055 112.805C365.503 113.471 365.138 114.18 364.961 114.93ZM375.188 117.016C375.167 116.734 374.719 116.391 373.844 115.984C372.771 115.469 372.086 115.026 371.789 114.656C371.492 114.281 371.344 113.875 371.344 113.438C371.344 112.516 371.859 111.711 372.891 111.023C373.927 110.331 374.893 109.984 375.789 109.984C376.669 109.984 377.109 110.367 377.109 111.133C377.109 111.336 377.008 111.518 376.805 111.68C376.607 111.841 376.438 111.922 376.297 111.922C376.24 111.922 376.138 111.885 375.992 111.812C375.846 111.74 375.734 111.703 375.656 111.703C375.193 111.703 374.682 111.859 374.125 112.172C373.568 112.484 373.289 112.849 373.289 113.266C373.289 113.469 373.388 113.667 373.586 113.859C373.784 114.047 374.188 114.284 374.797 114.57C375.698 114.997 376.292 115.383 376.578 115.727C376.865 116.07 377.008 116.451 377.008 116.867C377.008 117.628 376.492 118.263 375.461 118.773C374.435 119.279 373.281 119.531 372 119.531C371.057 119.531 370.586 119.19 370.586 118.508C370.586 118.258 370.685 118.044 370.883 117.867C371.081 117.69 371.302 117.602 371.547 117.602C371.646 117.602 371.799 117.638 372.008 117.711C372.216 117.789 372.409 117.828 372.586 117.828C373.076 117.828 373.589 117.75 374.125 117.594C374.661 117.438 375.016 117.245 375.188 117.016ZM390.18 116.141C389.68 117.052 389.099 117.776 388.438 118.312C387.781 118.849 387.115 119.117 386.438 119.117C386.036 119.117 385.63 118.906 385.219 118.484C384.812 118.062 384.609 117.414 384.609 116.539C384.609 115.919 384.766 114.984 385.078 113.734C385.349 112.703 385.484 111.919 385.484 111.383C385.693 110.945 386.018 110.727 386.461 110.727C386.763 110.727 387.003 110.828 387.18 111.031C387.362 111.229 387.453 111.43 387.453 111.633C387.453 112.003 387.323 112.529 387.062 113.211C386.911 113.617 386.747 114.193 386.57 114.938C386.398 115.677 386.312 116.151 386.312 116.359C386.312 117.052 386.456 117.398 386.742 117.398C387.195 117.398 387.807 116.964 388.578 116.094C389.349 115.224 389.852 114.333 390.086 113.422C390.32 112.531 390.529 111.948 390.711 111.672C390.893 111.396 391.151 111.258 391.484 111.258C392.026 111.258 392.297 111.56 392.297 112.164C392.297 112.253 392.253 112.43 392.164 112.695C391.857 113.617 391.703 114.656 391.703 115.812C391.703 117.167 391.932 117.977 392.391 118.242C392.542 118.331 392.617 118.44 392.617 118.57C392.617 118.758 392.484 118.935 392.219 119.102C391.953 119.268 391.701 119.352 391.461 119.352C391.049 119.352 390.732 119.062 390.508 118.484C390.289 117.901 390.18 117.12 390.18 116.141ZM396.227 118.445C396.138 118.81 396.049 119.362 395.961 120.102L395.586 123.172C395.523 123.672 395.401 124.018 395.219 124.211C395.042 124.404 394.823 124.5 394.562 124.5C394.328 124.5 394.104 124.411 393.891 124.234C393.682 124.062 393.578 123.87 393.578 123.656C393.578 123.234 393.643 122.747 393.773 122.195C394.549 119.096 394.974 115.88 395.047 112.547V112.391C395.047 111.693 395.065 111.229 395.102 111C395.143 110.766 395.255 110.56 395.438 110.383C395.625 110.206 395.888 110.117 396.227 110.117C396.794 110.117 397.078 110.552 397.078 111.422C397.078 111.776 397.013 112.378 396.883 113.227L396.805 113.766C397.398 112.776 398.104 111.956 398.922 111.305C399.74 110.648 400.471 110.32 401.117 110.32C401.701 110.32 402.195 110.529 402.602 110.945C403.013 111.362 403.219 111.885 403.219 112.516C403.219 114.198 402.565 115.729 401.258 117.109C399.956 118.484 398.667 119.172 397.391 119.172C396.786 119.172 396.398 118.93 396.227 118.445ZM400.812 112.094C400.177 112.094 399.352 112.714 398.336 113.953C397.326 115.193 396.82 116.167 396.82 116.875C396.82 117.057 396.909 117.221 397.086 117.367C397.268 117.508 397.479 117.578 397.719 117.578C398.38 117.578 399.138 117.06 399.992 116.023C400.852 114.982 401.281 113.977 401.281 113.008C401.281 112.685 401.232 112.453 401.133 112.312C401.034 112.167 400.927 112.094 400.812 112.094ZM406.672 115.258C406.151 115.258 405.747 115.151 405.461 114.938C405.378 113.922 405.451 112.878 405.68 111.805C405.935 110.643 406.062 109.773 406.062 109.195C406.062 109.138 406.089 108.922 406.141 108.547C406.198 108.167 406.365 107.878 406.641 107.68C406.917 107.482 407.151 107.383 407.344 107.383C407.552 107.383 407.75 107.461 407.938 107.617C408.13 107.768 408.227 107.935 408.227 108.117C408.227 108.263 408.12 108.805 407.906 109.742C407.698 110.674 407.49 111.534 407.281 112.32C407.062 113.138 406.948 113.792 406.938 114.281C406.927 114.651 406.839 114.977 406.672 115.258ZM405.562 118.852C404.99 118.852 404.703 118.534 404.703 117.898C404.703 117.659 404.82 117.383 405.055 117.07C405.289 116.758 405.542 116.602 405.812 116.602C405.99 116.602 406.211 116.688 406.477 116.859C406.742 117.031 406.875 117.177 406.875 117.297L406.797 117.781C406.75 118.125 406.581 118.391 406.289 118.578C405.997 118.76 405.755 118.852 405.562 118.852Z" fill="#E4181A"/>
<path d="M421.707 114.293C421.317 113.902 420.683 113.902 420.293 114.293C419.902 114.683 419.902 115.317 420.293 115.707L421.707 114.293ZM450 144L447.011 132.846L438.846 141.011L450 144ZM420.293 115.707L442.929 138.343L444.343 136.929L421.707 114.293L420.293 115.707Z" fill="#E4181A"/>
<path d="M470.258 334.211H474.18V336H468.359V324.961H470.258V334.211ZM483.688 331.938C483.688 332.193 483.672 332.417 483.641 332.609H476.883C477.013 333.208 477.299 333.688 477.742 334.047C478.185 334.401 478.716 334.578 479.336 334.578C479.846 334.578 480.302 334.471 480.703 334.258C481.104 334.044 481.396 333.76 481.578 333.406H483.523C483.227 334.24 482.698 334.914 481.938 335.43C481.182 335.94 480.31 336.195 479.32 336.195C478.081 336.195 477.044 335.786 476.211 334.969C475.383 334.151 474.969 333.135 474.969 331.922C474.969 330.703 475.383 329.688 476.211 328.875C477.044 328.057 478.081 327.648 479.32 327.648C480.57 327.648 481.609 328.057 482.438 328.875C483.271 329.688 483.688 330.708 483.688 331.938ZM480.859 329.773C480.417 329.435 479.901 329.266 479.312 329.266C478.729 329.266 478.219 329.438 477.781 329.781C477.344 330.12 477.049 330.57 476.898 331.133H481.75C481.599 330.565 481.302 330.112 480.859 329.773ZM491.672 327.844H493.469V336H491.672V334.734C490.958 335.703 490.005 336.19 488.812 336.195C487.661 336.195 486.703 335.786 485.938 334.969C485.177 334.151 484.797 333.135 484.797 331.922C484.797 330.703 485.177 329.688 485.938 328.875C486.703 328.057 487.661 327.648 488.812 327.648C490.005 327.648 490.958 328.133 491.672 329.102V327.844ZM489.164 334.461C489.878 334.461 490.474 334.219 490.953 333.734C491.432 333.25 491.672 332.646 491.672 331.922C491.672 331.193 491.432 330.586 490.953 330.102C490.474 329.617 489.878 329.375 489.164 329.375C488.44 329.375 487.836 329.617 487.352 330.102C486.872 330.586 486.633 331.193 486.633 331.922C486.633 332.646 486.872 333.25 487.352 333.734C487.836 334.219 488.44 334.461 489.164 334.461ZM500.148 327.648C501.117 327.648 501.896 327.943 502.484 328.531C503.078 329.115 503.375 329.893 503.375 330.867V336H501.586V331.453C501.586 330.823 501.401 330.32 501.031 329.945C500.667 329.565 500.174 329.375 499.555 329.375C498.904 329.375 498.38 329.57 497.984 329.961C497.594 330.352 497.398 330.859 497.398 331.484V336H495.602V327.844H497.398V328.977C498.049 328.091 498.966 327.648 500.148 327.648ZM514.844 330.125C515.422 330.297 515.891 330.654 516.25 331.195C516.615 331.732 516.797 332.336 516.797 333.008C516.797 333.872 516.503 334.589 515.914 335.156C515.331 335.719 514.596 336 513.711 336H509.297V324.961H513.281C514.104 324.961 514.789 325.227 515.336 325.758C515.883 326.284 516.156 326.945 516.156 327.742C516.156 328.263 516.036 328.737 515.797 329.164C515.557 329.591 515.24 329.911 514.844 330.125ZM512.812 326.672H511.133V329.484H512.812C513.198 329.484 513.526 329.349 513.797 329.078C514.068 328.807 514.203 328.474 514.203 328.078C514.203 327.672 514.07 327.336 513.805 327.07C513.539 326.805 513.208 326.672 512.812 326.672ZM513.266 334.289C513.714 334.289 514.086 334.135 514.383 333.828C514.68 333.516 514.828 333.135 514.828 332.688C514.828 332.24 514.68 331.865 514.383 331.562C514.086 331.255 513.714 331.102 513.266 331.102H511.133V334.289H513.266ZM522.195 336.195C520.945 336.195 519.904 335.786 519.07 334.969C518.242 334.151 517.828 333.135 517.828 331.922C517.828 330.703 518.242 329.688 519.07 328.875C519.904 328.057 520.945 327.648 522.195 327.648C523.435 327.648 524.471 328.057 525.305 328.875C526.143 329.688 526.562 330.703 526.562 331.922C526.562 333.135 526.143 334.151 525.305 334.969C524.471 335.786 523.435 336.195 522.195 336.195ZM520.391 333.734C520.88 334.219 521.482 334.461 522.195 334.461C522.909 334.461 523.505 334.219 523.984 333.734C524.464 333.25 524.703 332.646 524.703 331.922C524.703 331.193 524.464 330.586 523.984 330.102C523.505 329.617 522.909 329.375 522.195 329.375C521.482 329.375 520.88 329.617 520.391 330.102C519.906 330.586 519.664 331.193 519.664 331.922C519.664 332.646 519.906 333.25 520.391 333.734ZM534.594 324.477H536.391V336H534.594V334.734C533.88 335.703 532.927 336.19 531.734 336.195C530.583 336.195 529.625 335.786 528.859 334.969C528.099 334.151 527.719 333.135 527.719 331.922C527.719 330.703 528.099 329.688 528.859 328.875C529.625 328.057 530.583 327.648 531.734 327.648C532.927 327.648 533.88 328.133 534.594 329.102V324.477ZM532.086 334.461C532.799 334.461 533.396 334.219 533.875 333.734C534.354 333.25 534.594 332.646 534.594 331.922C534.594 331.193 534.354 330.586 533.875 330.102C533.396 329.617 532.799 329.375 532.086 329.375C531.362 329.375 530.758 329.617 530.273 330.102C529.794 330.586 529.555 331.193 529.555 331.922C529.555 332.646 529.794 333.25 530.273 333.734C530.758 334.219 531.362 334.461 532.086 334.461ZM544.414 327.844H546.414L541.664 339.039H539.727L541.055 335.938L537.609 327.844H539.664L542.047 333.789L544.414 327.844ZM561.094 324.961H563.547V336H561.641V328.156L558.219 336H556.875L553.461 328.195V336H551.562V324.961H554.039L557.578 333.07L561.094 324.961ZM572.219 327.844H574.016V336H572.219V334.734C571.505 335.703 570.552 336.19 569.359 336.195C568.208 336.195 567.25 335.786 566.484 334.969C565.724 334.151 565.344 333.135 565.344 331.922C565.344 330.703 565.724 329.688 566.484 328.875C567.25 328.057 568.208 327.648 569.359 327.648C570.552 327.648 571.505 328.133 572.219 329.102V327.844ZM569.711 334.461C570.424 334.461 571.021 334.219 571.5 333.734C571.979 333.25 572.219 332.646 572.219 331.922C572.219 331.193 571.979 330.586 571.5 330.102C571.021 329.617 570.424 329.375 569.711 329.375C568.987 329.375 568.383 329.617 567.898 330.102C567.419 330.586 567.18 331.193 567.18 331.922C567.18 332.646 567.419 333.25 567.898 333.734C568.383 334.219 568.987 334.461 569.711 334.461ZM578.547 336.195C577.703 336.195 577.008 335.945 576.461 335.445C575.914 334.94 575.641 334.326 575.641 333.602H577.461C577.461 333.888 577.568 334.133 577.781 334.336C577.995 334.539 578.255 334.641 578.562 334.641C578.849 334.641 579.094 334.557 579.297 334.391C579.505 334.224 579.609 334.018 579.609 333.773C579.609 333.263 579.128 332.88 578.164 332.625C576.555 332.219 575.75 331.38 575.75 330.109C575.75 329.354 576.016 328.755 576.547 328.312C577.083 327.87 577.74 327.648 578.516 327.648C579.318 327.648 579.984 327.888 580.516 328.367C581.052 328.846 581.32 329.432 581.32 330.125H579.492C579.492 329.87 579.398 329.654 579.211 329.477C579.029 329.294 578.792 329.203 578.5 329.203C578.245 329.203 578.026 329.281 577.844 329.438C577.661 329.589 577.57 329.776 577.57 330C577.57 330.51 578.062 330.888 579.047 331.133C580.635 331.539 581.43 332.367 581.43 333.617C581.43 334.409 581.154 335.036 580.602 335.5C580.055 335.964 579.37 336.195 578.547 336.195ZM585.422 336.195C584.578 336.195 583.883 335.945 583.336 335.445C582.789 334.94 582.516 334.326 582.516 333.602H584.336C584.336 333.888 584.443 334.133 584.656 334.336C584.87 334.539 585.13 334.641 585.438 334.641C585.724 334.641 585.969 334.557 586.172 334.391C586.38 334.224 586.484 334.018 586.484 333.773C586.484 333.263 586.003 332.88 585.039 332.625C583.43 332.219 582.625 331.38 582.625 330.109C582.625 329.354 582.891 328.755 583.422 328.312C583.958 327.87 584.615 327.648 585.391 327.648C586.193 327.648 586.859 327.888 587.391 328.367C587.927 328.846 588.195 329.432 588.195 330.125H586.367C586.367 329.87 586.273 329.654 586.086 329.477C585.904 329.294 585.667 329.203 585.375 329.203C585.12 329.203 584.901 329.281 584.719 329.438C584.536 329.589 584.445 329.776 584.445 330C584.445 330.51 584.938 330.888 585.922 331.133C587.51 331.539 588.305 332.367 588.305 333.617C588.305 334.409 588.029 335.036 587.477 335.5C586.93 335.964 586.245 336.195 585.422 336.195Z" fill="#3F352F"/>
<rect width="64" height="89" transform="matrix(1 0 0 -1 459 177)" fill="#02643E"/>
<rect x="533" y="143" width="64" height="34" fill="#FF6005"/>
<path d="M304.84 37.4844H301.52V39.8521H304.307V41.3057H301.52V45H299.978V36.0308H304.84V37.4844ZM308.883 45.1587C307.868 45.1587 307.021 44.8265 306.344 44.1621C305.671 43.4977 305.335 42.6725 305.335 41.6865C305.335 40.6963 305.671 39.8711 306.344 39.2109C307.021 38.5465 307.868 38.2144 308.883 38.2144C309.89 38.2144 310.733 38.5465 311.41 39.2109C312.091 39.8711 312.432 40.6963 312.432 41.6865C312.432 42.6725 312.091 43.4977 311.41 44.1621C310.733 44.8265 309.89 45.1587 308.883 45.1587ZM307.417 43.1592C307.815 43.5527 308.304 43.7495 308.883 43.7495C309.463 43.7495 309.948 43.5527 310.337 43.1592C310.726 42.7656 310.921 42.2747 310.921 41.6865C310.921 41.0941 310.726 40.6011 310.337 40.2075C309.948 39.814 309.463 39.6172 308.883 39.6172C308.304 39.6172 307.815 39.814 307.417 40.2075C307.023 40.6011 306.827 41.0941 306.827 41.6865C306.827 42.2747 307.023 42.7656 307.417 43.1592ZM315.206 39.4521C315.735 38.665 316.414 38.2694 317.243 38.2651V39.7632C316.6 39.7632 316.098 39.9451 315.739 40.3091C315.383 40.673 315.206 41.1618 315.206 41.7754V45H313.746V38.373H315.206V39.4521ZM320.29 45.1587C319.604 45.1587 319.04 44.9556 318.595 44.5493C318.151 44.1388 317.929 43.6395 317.929 43.0513H319.408C319.408 43.284 319.494 43.4829 319.668 43.6479C319.841 43.813 320.053 43.8955 320.303 43.8955C320.535 43.8955 320.734 43.8278 320.899 43.6924C321.069 43.557 321.153 43.3898 321.153 43.1909C321.153 42.7762 320.762 42.4652 319.979 42.2578C318.671 41.9277 318.018 41.2464 318.018 40.2139C318.018 39.6003 318.233 39.1136 318.665 38.7539C319.101 38.3942 319.634 38.2144 320.265 38.2144C320.916 38.2144 321.458 38.409 321.89 38.7983C322.326 39.1877 322.543 39.6637 322.543 40.2266H321.058C321.058 40.0192 320.982 39.8436 320.83 39.6997C320.681 39.5516 320.489 39.4775 320.252 39.4775C320.045 39.4775 319.867 39.541 319.719 39.668C319.571 39.7907 319.497 39.943 319.497 40.125C319.497 40.5397 319.896 40.8465 320.696 41.0454C321.987 41.3755 322.632 42.0483 322.632 43.064C322.632 43.7072 322.408 44.2171 321.959 44.5938C321.515 44.9704 320.959 45.1587 320.29 45.1587ZM329.881 45H328.021L325.387 42.2451V45H323.927V35.6372H325.387V41.0327L327.945 38.373H329.792L326.752 41.6738L329.881 45ZM333.385 45.1587C332.37 45.1587 331.523 44.8265 330.846 44.1621C330.173 43.4977 329.837 42.6725 329.837 41.6865C329.837 40.6963 330.173 39.8711 330.846 39.2109C331.523 38.5465 332.37 38.2144 333.385 38.2144C334.392 38.2144 335.235 38.5465 335.912 39.2109C336.593 39.8711 336.934 40.6963 336.934 41.6865C336.934 42.6725 336.593 43.4977 335.912 44.1621C335.235 44.8265 334.392 45.1587 333.385 45.1587ZM331.919 43.1592C332.317 43.5527 332.806 43.7495 333.385 43.7495C333.965 43.7495 334.45 43.5527 334.839 43.1592C335.228 42.7656 335.423 42.2747 335.423 41.6865C335.423 41.0941 335.228 40.6011 334.839 40.2075C334.45 39.814 333.965 39.6172 333.385 39.6172C332.806 39.6172 332.317 39.814 331.919 40.2075C331.525 40.6011 331.329 41.0941 331.329 41.6865C331.329 42.2747 331.525 42.7656 331.919 43.1592ZM338.248 45V35.6372H339.708V45H338.248ZM342.164 37.2495C341.906 37.2495 341.686 37.1606 341.504 36.9829C341.326 36.8052 341.237 36.5872 341.237 36.3291C341.237 36.0625 341.326 35.8424 341.504 35.6689C341.682 35.4954 341.902 35.4087 342.164 35.4087C342.431 35.4087 342.653 35.4954 342.831 35.6689C343.008 35.8382 343.097 36.0583 343.097 36.3291C343.097 36.5872 343.008 36.8052 342.831 36.9829C342.653 37.1606 342.431 37.2495 342.164 37.2495ZM341.434 45V38.373H342.894V45H341.434ZM348.315 38.2144C349.102 38.2144 349.735 38.4535 350.213 38.9316C350.695 39.4056 350.937 40.0382 350.937 40.8296V45H349.483V41.3057C349.483 40.7936 349.333 40.3853 349.032 40.0806C348.736 39.7716 348.336 39.6172 347.833 39.6172C347.304 39.6172 346.878 39.7759 346.557 40.0933C346.239 40.4106 346.081 40.8232 346.081 41.3311V45H344.621V38.373H346.081V39.2935C346.61 38.5741 347.354 38.2144 348.315 38.2144Z" fill="#3F352F"/>
<rect x="271" y="33" width="16" height="16" fill="#02643E"/>
<path d="M442.082 36.0308C442.941 36.0308 443.656 36.3079 444.227 36.8623C444.798 37.4167 445.084 38.1149 445.084 38.957C445.084 39.7907 444.796 40.4847 444.221 41.0391C443.645 41.5892 442.932 41.8643 442.082 41.8643H440.52V45H438.978V36.0308H442.082ZM442.056 40.4106C442.462 40.4106 442.801 40.2731 443.072 39.998C443.347 39.7188 443.484 39.3717 443.484 38.957C443.484 38.5339 443.347 38.1826 443.072 37.9033C442.801 37.624 442.462 37.4844 442.056 37.4844H440.52V40.4106H442.056ZM446.271 45V35.6372H447.731V45H446.271ZM454.669 38.373H456.129V45H454.669V43.9717C454.089 44.7588 453.315 45.1545 452.346 45.1587C451.41 45.1587 450.632 44.8265 450.01 44.1621C449.392 43.4977 449.083 42.6725 449.083 41.6865C449.083 40.6963 449.392 39.8711 450.01 39.2109C450.632 38.5465 451.41 38.2144 452.346 38.2144C453.315 38.2144 454.089 38.6079 454.669 39.395V38.373ZM452.631 43.7495C453.211 43.7495 453.696 43.5527 454.085 43.1592C454.474 42.7656 454.669 42.2747 454.669 41.6865C454.669 41.0941 454.474 40.6011 454.085 40.2075C453.696 39.814 453.211 39.6172 452.631 39.6172C452.043 39.6172 451.552 39.814 451.159 40.2075C450.769 40.6011 450.575 41.0941 450.575 41.6865C450.575 42.2747 450.769 42.7656 451.159 43.1592C451.552 43.5527 452.043 43.7495 452.631 43.7495ZM461.01 45.1587C459.995 45.1587 459.148 44.8265 458.471 44.1621C457.798 43.4977 457.462 42.6725 457.462 41.6865C457.462 40.6963 457.798 39.8711 458.471 39.2109C459.148 38.5465 459.995 38.2144 461.01 38.2144C461.92 38.2144 462.699 38.4873 463.346 39.0332C463.998 39.5791 464.385 40.2816 464.508 41.1406H462.997C462.874 40.6921 462.633 40.326 462.273 40.0425C461.914 39.759 461.493 39.6172 461.01 39.6172C460.431 39.6172 459.942 39.814 459.544 40.2075C459.15 40.6011 458.954 41.0941 458.954 41.6865C458.954 42.2747 459.15 42.7656 459.544 43.1592C459.942 43.5527 460.431 43.7495 461.01 43.7495C461.497 43.7495 461.918 43.6099 462.273 43.3306C462.633 43.047 462.874 42.681 462.997 42.2324H464.508C464.385 43.0915 463.998 43.7939 463.346 44.3398C462.699 44.8857 461.92 45.1587 461.01 45.1587ZM472.455 41.6992C472.455 41.9066 472.442 42.0885 472.417 42.2451H466.926C467.032 42.7318 467.265 43.1211 467.625 43.4131C467.984 43.7008 468.416 43.8447 468.919 43.8447C469.334 43.8447 469.704 43.758 470.03 43.5845C470.356 43.411 470.593 43.1803 470.741 42.8926H472.322C472.081 43.5697 471.651 44.1177 471.033 44.5366C470.42 44.9513 469.711 45.1587 468.907 45.1587C467.9 45.1587 467.057 44.8265 466.38 44.1621C465.708 43.4977 465.371 42.6725 465.371 41.6865C465.371 40.6963 465.708 39.8711 466.38 39.2109C467.057 38.5465 467.9 38.2144 468.907 38.2144C469.922 38.2144 470.767 38.5465 471.439 39.2109C472.117 39.8711 472.455 40.7005 472.455 41.6992ZM470.157 39.9409C469.798 39.6659 469.379 39.5283 468.9 39.5283C468.426 39.5283 468.012 39.668 467.656 39.9473C467.301 40.2223 467.062 40.5884 466.939 41.0454H470.881C470.758 40.5841 470.517 40.216 470.157 39.9409ZM477.527 38.2144C478.454 38.2144 479.228 38.5465 479.85 39.2109C480.476 39.8711 480.79 40.6963 480.79 41.6865C480.79 42.6725 480.476 43.4977 479.85 44.1621C479.228 44.8265 478.454 45.1587 477.527 45.1587C476.549 45.1587 475.771 44.763 475.191 43.9717V45H473.731V35.6372H475.191V39.395C475.771 38.6079 476.549 38.2144 477.527 38.2144ZM475.781 43.1592C476.175 43.5527 476.661 43.7495 477.241 43.7495C477.821 43.7495 478.306 43.5527 478.695 43.1592C479.088 42.7656 479.285 42.2747 479.285 41.6865C479.285 41.0941 479.088 40.6011 478.695 40.2075C478.306 39.814 477.821 39.6172 477.241 39.6172C476.661 39.6172 476.175 39.814 475.781 40.2075C475.388 40.6011 475.191 41.0941 475.191 41.6865C475.191 42.2747 475.388 42.7656 475.781 43.1592ZM485.284 45.1587C484.268 45.1587 483.422 44.8265 482.745 44.1621C482.072 43.4977 481.735 42.6725 481.735 41.6865C481.735 40.6963 482.072 39.8711 482.745 39.2109C483.422 38.5465 484.268 38.2144 485.284 38.2144C486.291 38.2144 487.133 38.5465 487.81 39.2109C488.491 39.8711 488.832 40.6963 488.832 41.6865C488.832 42.6725 488.491 43.4977 487.81 44.1621C487.133 44.8265 486.291 45.1587 485.284 45.1587ZM483.817 43.1592C484.215 43.5527 484.704 43.7495 485.284 43.7495C485.863 43.7495 486.348 43.5527 486.737 43.1592C487.127 42.7656 487.321 42.2747 487.321 41.6865C487.321 41.0941 487.127 40.6011 486.737 40.2075C486.348 39.814 485.863 39.6172 485.284 39.6172C484.704 39.6172 484.215 39.814 483.817 40.2075C483.424 40.6011 483.227 41.0941 483.227 41.6865C483.227 42.2747 483.424 42.7656 483.817 43.1592Z" fill="#3F352F"/>
<rect x="410" y="33" width="16" height="16" fill="#FF6005"/>
</svg>
