<svg width="91" height="90" viewBox="0 0 91 90" fill="none" xmlns="http://www.w3.org/2000/svg">
<path d="M83.6021 68.4237L79.9624 69.9698C78.8528 70.4115 78.0538 71.4275 77.8319 72.6202L77.1217 76.5074C76.8554 78.0976 75.4794 79.2903 73.8815 79.4228L69.9312 79.6879C68.7328 79.7762 67.6675 80.4388 67.0905 81.499L65.1819 84.9445C64.3829 86.358 62.7406 87.0648 61.1427 86.6231L57.3255 85.6071C56.1715 85.2979 54.9287 85.6071 54.041 86.4022L51.1115 89.0526C49.9131 90.1127 48.0933 90.2452 46.7617 89.3618L43.4771 87.1531C42.5006 86.4905 41.2134 86.358 40.1038 86.8439L36.4641 88.39C34.955 89.0084 33.2239 88.5667 32.2475 87.2857L29.8506 84.1494C29.1404 83.1776 27.9864 82.6916 26.788 82.7358L22.8376 83.0009C21.1953 83.1334 19.7306 82.1174 19.198 80.5713L17.9552 76.8166C17.6001 75.6681 16.668 74.8288 15.5139 74.5196L11.6967 73.5036C10.1432 73.1061 9.03357 71.6484 9.07796 70.0581L9.12235 66.1267C9.12235 64.9341 8.54533 63.8297 7.56884 63.123L4.28427 60.9143C2.95269 60.0309 2.37567 58.3081 2.90831 56.8062L4.23989 53.0957C4.63936 51.9913 4.46182 50.7103 3.70725 49.7827L1.31041 46.6464C0.333917 45.3654 0.333917 43.5543 1.3548 42.3174L3.84041 39.2253C4.59497 38.2977 4.8169 37.0608 4.46182 35.9123L3.21901 32.1576C2.68638 30.4349 3.26339 28.7563 4.63936 27.8728L7.96831 25.7525C8.98919 25.1341 9.61059 24.0298 9.61059 22.7929L9.65498 18.8615C9.65498 17.2271 10.809 15.8578 12.3625 15.4602L16.2241 14.5326C17.3781 14.2675 18.3546 13.4282 18.7541 12.2797L20.0857 8.56919C20.6183 7.02314 22.1718 6.0955 23.7697 6.22802L27.7201 6.62558C28.9185 6.7581 30.0725 6.22802 30.8271 5.30038L33.3127 2.20827C34.3336 0.927249 36.0647 0.529691 37.5738 1.19229L41.169 2.82669C42.2787 3.44512 43.5659 3.35677 44.5868 2.69417L47.9157 0.573864C49.2917 -0.309598 51.0671 -0.132906 52.2655 0.971422L55.1506 3.66598C56.0384 4.50527 57.2368 4.81448 58.4352 4.54944L62.2968 3.62181C63.8947 3.22425 65.537 3.97519 66.2471 5.4329L68.067 8.92258C68.644 9.98273 69.6649 10.6895 70.8633 10.822L74.8136 11.1754C76.4115 11.3079 77.7431 12.5448 77.965 14.1792L78.5421 18.0664C78.7196 19.2591 79.4742 20.2751 80.5838 20.761L84.1791 22.3954C85.6438 23.058 86.4872 24.6482 86.2208 26.2384L85.5107 30.1257C85.2887 31.3183 85.6882 32.511 86.5759 33.3061L89.461 36.0007C90.6594 37.105 90.9258 38.8719 90.1268 40.2855L88.1738 43.731C87.5968 44.7911 87.5524 46.028 88.1294 47.0881L89.9937 50.5778C90.7482 51.9913 90.4375 53.7583 89.1947 54.8626L86.2208 57.4688C85.3331 58.2639 84.8893 59.4566 85.0668 60.6493L85.6882 64.5365C85.9545 66.2151 85.1112 67.7611 83.6021 68.4237Z" fill="#FCAF0D"/>
<g filter="url(#filter0_d)">
<path d="M45.5649 69.8832C59.1945 69.8832 70.2435 58.8872 70.2435 45.3229C70.2435 31.7587 59.1945 20.7627 45.5649 20.7627C31.9352 20.7627 20.8862 31.7587 20.8862 45.3229C20.8862 58.8872 31.9352 69.8832 45.5649 69.8832Z" fill="#F9F8F4"/>
</g>
<path d="M19.3754 20.0107L24.5686 24.0747L23.7696 25.0906L20.5294 22.5728L21.7723 25.5766L21.2396 26.2391L17.9994 25.7532L21.2396 28.2711L20.4407 29.2871L15.2031 25.2673L16.0021 24.2514L20.2187 24.9581L18.4877 21.0709L19.3754 20.0107Z" fill="#23201F"/>
<path d="M26.653 22.1284C26.2091 22.2609 25.8097 22.2609 25.3658 22.2168C24.9219 22.1726 24.5668 21.9959 24.1674 21.775C23.7679 21.5542 23.4572 21.245 23.1465 20.8474C22.8358 20.4498 22.6583 20.0523 22.5251 19.6106C22.3919 19.1688 22.3475 18.7713 22.4363 18.3295C22.4807 17.932 22.6139 17.5344 22.8802 17.1369C23.1021 16.7393 23.4128 16.3859 23.8123 16.1209C24.2118 15.8117 24.6112 15.635 25.0107 15.5025C25.4546 15.3699 25.854 15.3699 26.2979 15.4141C26.6974 15.4583 27.0969 15.5908 27.4963 15.8558C27.8958 16.0767 28.2509 16.3859 28.5172 16.7835C28.8279 17.181 29.0498 17.5786 29.1386 18.0203C29.2718 18.4621 29.2718 18.9038 29.2274 19.3013C29.183 19.6989 29.0054 20.0965 28.7835 20.494C28.5616 20.8916 28.2509 21.2008 27.8514 21.51C27.5407 21.775 27.0969 21.9959 26.653 22.1284ZM27.7183 19.9198C27.8514 19.6989 27.9402 19.4339 27.9402 19.1688C27.9402 18.9038 27.9402 18.6388 27.8514 18.3737C27.7626 18.1087 27.6295 17.8436 27.4519 17.5786C27.1856 17.2694 26.9193 17.0043 26.5642 16.8718C26.2091 16.6951 25.8984 16.651 25.5433 16.6951C25.1883 16.7393 24.8776 16.8718 24.5668 17.0927C24.2561 17.3136 24.0342 17.6228 23.9011 17.9762C23.7679 18.3295 23.7235 18.6829 23.8123 19.0363C23.8567 19.3897 24.0342 19.7431 24.2561 20.0523C24.4781 20.3615 24.7888 20.6265 25.1439 20.7591C25.499 20.9358 25.8097 20.9799 26.2091 20.9358C26.6086 20.8916 26.9193 20.7591 27.23 20.5382C27.4076 20.3615 27.5851 20.1406 27.7183 19.9198Z" fill="#23201F"/>
<path d="M33.7548 10.7329L36.4623 16.7405L35.2195 17.2705L30.7809 14.4434L32.5564 18.419L31.3579 18.9491L28.6504 12.9416L29.8488 12.4115L34.3762 15.2827L32.5564 11.2188L33.7548 10.7329Z" fill="#23201F"/>
<path d="M36.1533 9.98379L40.2812 9.05615L40.5475 10.2047L37.6624 10.8231L38.0175 12.3691L40.3256 11.8832L40.5919 12.9876L38.2839 13.5176L38.5946 15.0195L41.6572 14.3569L41.9235 15.5054L37.5737 16.4772L36.1533 9.98379Z" fill="#23201F"/>
<path d="M47.7395 8.61328L45.6533 12.368L45.7421 15.2834L44.4105 15.3276L44.3217 12.4122L42.0137 8.78997L43.5228 8.7458L44.9431 11.1311L46.186 8.70163L47.7395 8.61328Z" fill="#23201F"/>
<path d="M55.9032 13.8706C56.0808 14.224 56.0808 14.5774 55.992 15.0191C55.9476 15.2841 55.8144 15.505 55.6813 15.6817C55.5481 15.8584 55.3706 16.0351 55.1487 16.1676C54.9267 16.3001 54.7048 16.3443 54.3941 16.3885C54.0834 16.4326 53.7727 16.3885 53.462 16.3001L50.7988 15.6375L52.3523 9.23242L54.7048 9.7625C55.3706 9.93919 55.8588 10.2042 56.1695 10.5576C56.4802 10.911 56.569 11.3527 56.4359 11.8386C56.3915 12.0595 56.3027 12.2362 56.2139 12.3687C56.1252 12.5454 55.9476 12.6779 55.7701 12.8104C55.5925 12.943 55.3706 12.9871 55.1043 13.0313C55.5037 13.2522 55.7701 13.5172 55.9032 13.8706ZM53.9946 15.1074C54.1722 15.1074 54.3497 15.0191 54.4829 14.9308C54.616 14.8424 54.7048 14.7099 54.7492 14.5332C54.7936 14.2682 54.7492 14.0473 54.616 13.8706C54.4385 13.6939 54.2166 13.5172 53.8171 13.4289L52.7962 13.1638L52.3967 14.7982L53.3732 15.0633C53.5951 15.1074 53.8171 15.1074 53.9946 15.1074ZM52.9737 12.1037L53.9058 12.3245C54.0834 12.3687 54.2609 12.3687 54.3941 12.3687C54.5273 12.3687 54.7048 12.2804 54.7936 12.192C54.9267 12.1037 55.0155 11.9712 55.0155 11.7945C55.0599 11.6619 55.0599 11.4853 55.0155 11.3969C54.9711 11.2644 54.8823 11.176 54.7492 11.0435C54.616 10.9552 54.3941 10.8668 54.1722 10.8227L53.3288 10.6018L52.9737 12.1037Z" fill="#23201F"/>
<path d="M60.2998 17.4047L57.9918 16.3445L57.0153 17.3605L55.7725 16.7863L60.7881 11.8389L61.9421 12.3689L61.4095 19.3925L60.1667 18.8182L60.2998 17.4047ZM60.433 16.212L60.6993 13.4733L58.7907 15.4611L60.433 16.212Z" fill="#23201F"/>
<path d="M63.3176 20.6735C63.0957 20.4085 62.9182 20.0993 62.8294 19.7901C62.6962 19.4809 62.6519 19.1275 62.6519 18.8183C62.6519 18.4649 62.6962 18.1557 62.8294 17.7581C62.9626 17.4047 63.1401 17.0513 63.4064 16.6979C63.6284 16.3887 63.8947 16.1237 64.161 15.9028C64.4273 15.682 64.738 15.5053 65.0487 15.4169C65.3594 15.2844 65.7145 15.2402 66.0252 15.2402C66.3359 15.2402 66.691 15.2844 67.0905 15.4169C67.4899 15.5494 67.8006 15.7261 68.1557 15.9912C68.422 16.1679 68.644 16.3887 68.8215 16.6538C68.9991 16.9188 69.1766 17.1838 69.3098 17.5372C69.4429 17.8906 69.5317 18.244 69.5317 18.5974L68.2889 18.6857C68.2889 18.3765 68.2001 18.0673 68.067 17.7581C67.9338 17.4489 67.7119 17.228 67.4455 17.0072C67.3124 16.9188 67.1792 16.8305 67.0461 16.7863C66.9129 16.7421 66.7798 16.6979 66.6022 16.6538C66.4691 16.6096 66.2915 16.6096 66.1584 16.6096C66.0252 16.6096 65.8477 16.6538 65.7145 16.6979C65.5813 16.7421 65.4482 16.7863 65.315 16.8746C65.1819 16.963 65.0487 17.0513 64.9155 17.1838C64.7824 17.3164 64.6492 17.4489 64.5605 17.5814C64.3385 17.8906 64.161 18.244 64.1166 18.5974C64.0722 18.9508 64.1166 19.3042 64.2498 19.6134C64.3829 19.9226 64.6048 20.2318 64.9155 20.4527C65.1819 20.6294 65.4926 20.7619 65.8033 20.806C66.114 20.8502 66.4691 20.8502 66.7798 20.7619L67.0461 21.9987C66.5578 22.1312 66.114 22.1312 65.5813 22.0429C65.0487 21.9545 64.6048 21.7779 64.161 21.4245C63.8059 21.2036 63.5396 20.9386 63.3176 20.6735Z" fill="#23201F"/>
<path d="M70.0199 23.1879L68.999 23.2321L67.5786 24.469L66.6909 23.4972L71.6622 19.124L72.5499 20.0958L70.375 22.0394L74.1034 21.8186L75.213 23.0554L71.3958 23.1879L70.3306 27.5169L69.2653 26.3242L70.0199 23.1879Z" fill="#23201F"/>
<path d="M21.0161 71.6909C20.7942 71.2933 20.7054 70.8958 20.661 70.4982C20.6166 70.1007 20.661 69.6589 20.8386 69.2614C20.9717 68.8196 21.238 68.4221 21.5931 68.0245C21.9038 67.6711 22.2589 67.4061 22.6584 67.1852C23.0579 66.9644 23.4573 66.876 23.8568 66.8318C24.2563 66.7877 24.7002 66.8319 25.0996 67.0085C25.5435 67.1411 25.943 67.4061 26.2981 67.7153C26.6531 68.0245 26.9638 68.4221 27.1858 68.8638C27.4077 69.3055 27.4965 69.7915 27.5409 70.2774L26.3424 70.2332C26.2981 69.5706 26.0317 69.0405 25.5435 68.5988C25.3216 68.4221 25.0996 68.2896 24.8777 68.2012C24.6558 68.1129 24.3895 68.0687 24.1231 68.1129C23.8568 68.1129 23.6349 68.2012 23.3686 68.3337C23.1023 68.4663 22.8803 68.6429 22.6584 68.908C22.3921 69.2172 22.2145 69.5264 22.1258 69.8798C22.037 70.2332 22.037 70.5866 22.1258 70.94C22.2145 71.2933 22.4365 71.6026 22.7472 71.8676C23.1023 72.1768 23.5461 72.3977 23.99 72.486L24.6114 71.7792L23.5017 70.8074L24.2563 69.9681L26.2981 71.7792L24.4338 73.8996C24.0344 73.8996 23.6349 73.767 23.191 73.5903C22.7472 73.4136 22.3477 73.1486 21.9482 72.7952C21.46 72.3977 21.1937 72.0443 21.0161 71.6909Z" fill="#23201F"/>
<path d="M26.9632 76.2396C26.7413 75.9745 26.6081 75.6653 26.5193 75.3561C26.4306 75.0469 26.4306 74.6935 26.475 74.3401C26.5193 73.9867 26.6969 73.5892 26.9188 73.1916L28.8274 69.8345L29.9815 70.4971L28.0729 73.8101C27.8953 74.0751 27.8065 74.3401 27.8065 74.6052C27.7621 74.8702 27.8065 75.1352 27.8953 75.3561C27.9841 75.577 28.1616 75.7537 28.4279 75.8862C28.783 76.1071 29.1381 76.107 29.4932 75.9745C29.8483 75.842 30.159 75.5328 30.4253 75.0911L32.2895 71.8223L33.4436 72.4849L31.535 75.842C31.2686 76.3279 30.9136 76.7255 30.5141 76.9905C30.1146 77.2556 29.7151 77.3881 29.2269 77.3881C28.783 77.3881 28.2948 77.2556 27.8065 76.9905C27.4958 76.7696 27.1851 76.5046 26.9632 76.2396Z" fill="#23201F"/>
<path d="M35.9751 78.9325L33.5783 78.1374L32.7349 79.2417L31.4478 78.8L35.842 73.3667L37.0404 73.7643L37.2623 80.7436L35.9751 80.3019V78.9325ZM35.9307 77.7398V75.0011L34.2885 77.1656L35.9307 77.7398Z" fill="#23201F"/>
<path d="M42.4528 81.4959L41.2987 79.0664L40.5442 78.9781L40.2335 81.1867L38.9463 81.01L39.7896 74.5166L42.2752 74.8258C42.6747 74.87 42.9854 74.9583 43.2517 75.135C43.518 75.2675 43.74 75.4442 43.9175 75.6651C44.0507 75.886 44.1838 76.151 44.2282 76.416C44.2726 76.6811 44.2726 76.9903 44.2726 77.2995C44.2282 77.6529 44.1395 77.9179 44.0063 78.183C43.8731 78.448 43.6956 78.6247 43.4737 78.7572C43.2517 78.8897 42.9854 79.0223 42.7191 79.0664L44.0063 81.6285L42.4528 81.4959ZM40.6773 77.8738L41.5651 78.0063C41.9645 78.0504 42.2752 78.0063 42.4972 77.8738C42.7191 77.7412 42.8523 77.4762 42.8966 77.167C42.941 76.8578 42.8523 76.5927 42.6747 76.416C42.4972 76.1952 42.2309 76.0627 41.8314 76.0185L40.8549 75.886L40.6773 77.8738Z" fill="#23201F"/>
<path d="M49.5115 80.2161L46.9815 80.3928L46.6265 81.718L45.2505 81.8063L47.2479 75.1362L48.4907 75.0479L51.3314 81.4529L49.9554 81.5413L49.5115 80.2161ZM49.0677 79.1118L48.0024 76.5939L47.2922 79.2001L49.0677 79.1118Z" fill="#23201F"/>
<path d="M56.7931 73.2793L58.5242 79.5961L57.237 79.9494L53.2866 76.5481L54.4407 80.7445L53.1979 81.0979L51.4668 74.7812L52.7096 74.4278L56.7043 77.9175L55.5059 73.6327L56.7931 73.2793Z" fill="#23201F"/>
<path d="M59.4542 73.2779L57.8119 74.073L57.2793 73.0129L61.7179 70.8042L62.2505 71.8644L60.6082 72.6595L63.0051 77.4743L61.8511 78.0486L59.4542 73.2779Z" fill="#23201F"/>
<path d="M62.2051 70.4957L65.5784 68.022L66.2886 68.9496L63.9361 70.6724L64.8682 71.9534L66.7768 70.584L67.4426 71.5117L65.534 72.881L66.4217 74.1179L68.9518 72.2626L69.6619 73.1902L66.111 75.7964L62.2051 70.4957Z" fill="#23201F"/>
<path d="M66.3359 67.4047L69.2654 64.4009L70.1087 65.196L68.067 67.3163L69.221 68.4206L70.8633 66.7421L71.7066 67.5372L70.0644 69.2158L71.174 70.2759L73.3489 68.0231L74.1923 68.8182L71.1296 71.9987L66.3359 67.4047Z" fill="#23201F"/>
<path d="M25.431 41.5194V44.2497L27.6581 43.0042V51.5332H30.2729V39.878H28.417L25.431 41.5194ZM36.7893 51.7394C38.1503 51.7394 39.2639 51.1785 40.1217 50.0567C40.9713 48.9349 41.4003 47.4832 41.4003 45.7015C41.4003 43.928 40.9713 42.4763 40.1217 41.3545C39.2639 40.2327 38.1503 39.6718 36.7893 39.6718C35.4365 39.6718 34.3312 40.2327 33.4816 41.3545C32.6238 42.4763 32.1949 43.928 32.1949 45.7015C32.1949 47.4832 32.6238 48.9349 33.4816 50.0567C34.3312 51.1785 35.4365 51.7394 36.7893 51.7394ZM36.7893 49.2154C36.2284 49.2154 35.7747 48.8854 35.4201 48.2255C35.0654 47.5739 34.8839 46.7325 34.8839 45.7015C34.8839 44.6786 35.0654 43.8373 35.4201 43.1774C35.7747 42.5175 36.2284 42.1876 36.7893 42.1876C37.3667 42.1876 37.8369 42.5175 38.1916 43.1692C38.5463 43.8208 38.7195 44.6704 38.7195 45.7015C38.7195 46.7408 38.538 47.5821 38.1833 48.2338C37.8286 48.8854 37.3585 49.2154 36.7893 49.2154ZM47.4465 51.7394C48.8075 51.7394 49.921 51.1785 50.7789 50.0567C51.6285 48.9349 52.0574 47.4832 52.0574 45.7015C52.0574 43.928 51.6285 42.4763 50.7789 41.3545C49.921 40.2327 48.8075 39.6718 47.4465 39.6718C46.0937 39.6718 44.9884 40.2327 44.1388 41.3545C43.2809 42.4763 42.852 43.928 42.852 45.7015C42.852 47.4832 43.2809 48.9349 44.1388 50.0567C44.9884 51.1785 46.0937 51.7394 47.4465 51.7394ZM47.4465 49.2154C46.8856 49.2154 46.4319 48.8854 46.0772 48.2255C45.7225 47.5739 45.541 46.7325 45.541 45.7015C45.541 44.6786 45.7225 43.8373 46.0772 43.1774C46.4319 42.5175 46.8856 42.1876 47.4465 42.1876C48.0239 42.1876 48.494 42.5175 48.8487 43.1692C49.2034 43.8208 49.3766 44.6704 49.3766 45.7015C49.3766 46.7408 49.1952 47.5821 48.8405 48.2338C48.4858 48.8854 48.0156 49.2154 47.4465 49.2154ZM58.1201 44.6127C58.681 44.06 58.9615 43.3671 58.9615 42.5423C58.9615 41.7257 58.681 41.041 58.1201 40.4884C57.551 39.944 56.8581 39.6718 56.025 39.6718C55.1919 39.6718 54.4907 39.944 53.9298 40.4884C53.3607 41.041 53.0802 41.7257 53.0802 42.5423C53.0802 43.3671 53.3607 44.06 53.9298 44.6127C54.4907 45.1736 55.1919 45.454 56.025 45.454C56.8581 45.454 57.551 45.1736 58.1201 44.6127ZM56.8828 51.5332L65.3294 39.878H62.7063L54.2598 51.5332H56.8828ZM55.3733 43.1939C55.2001 43.0207 55.1094 42.8062 55.1094 42.5423C55.1094 42.0226 55.4971 41.6514 56.0167 41.6514C56.5116 41.6514 56.9158 42.0473 56.9158 42.5423C56.9158 42.8062 56.8333 43.0207 56.6601 43.1939C56.4869 43.3671 56.2724 43.4579 56.0167 43.4579C55.761 43.4579 55.5466 43.3671 55.3733 43.1939ZM63.5724 51.7394C64.4055 51.7394 65.1067 51.459 65.6676 50.8981C66.2285 50.3454 66.5089 49.6525 66.5089 48.8277C66.5089 48.0193 66.2285 47.3347 65.6676 46.782C65.1067 46.2294 64.4055 45.9572 63.5724 45.9572C62.7228 45.9572 62.0217 46.2294 61.469 46.782C60.9081 47.3347 60.6277 48.0193 60.6277 48.8277C60.6277 49.6608 60.9081 50.3537 61.469 50.9063C62.0217 51.459 62.7228 51.7394 63.5724 51.7394ZM63.5724 49.7598C63.0528 49.7598 62.6568 49.3473 62.6568 48.8277C62.6568 48.3328 63.0528 47.9533 63.5724 47.9533C64.0921 47.9533 64.4633 48.3328 64.4633 48.8277C64.4633 49.3473 64.0673 49.7598 63.5724 49.7598Z" fill="#3F352F"/>
<path d="M45.3443 23.3747C45.4145 23.162 45.7154 23.162 45.7855 23.3747L46.4888 25.5061C46.5202 25.6013 46.6091 25.6657 46.7094 25.6657H48.9112C49.1422 25.6657 49.2316 25.9664 49.038 26.0926L47.2696 27.2457C47.1806 27.3037 47.1423 27.4146 47.1765 27.5151L47.8574 29.5171C47.9306 29.7322 47.6833 29.9136 47.5001 29.7793L45.6995 28.4589C45.6191 28.3999 45.51 28.3988 45.4284 28.4562L43.5785 29.7577C43.3941 29.8874 43.1516 29.7049 43.2252 29.4918L43.9083 27.5142C43.9429 27.4141 43.9054 27.3033 43.8171 27.2448L42.079 26.0916C41.8872 25.9643 41.9773 25.6657 42.2074 25.6657H44.4204C44.5207 25.6657 44.6096 25.6013 44.6411 25.5061L45.3443 23.3747Z" fill="#FCAF0D"/>
<path d="M53.3236 27.3181C53.3951 27.1047 53.6981 27.1075 53.7655 27.3223L54.1657 28.5967C54.1961 28.6936 54.2859 28.7595 54.3874 28.7595H55.6498C55.8848 28.7595 55.9713 29.0685 55.7704 29.1904L54.8215 29.7662C54.7277 29.8231 54.6865 29.9379 54.7227 30.0414L55.1184 31.1734C55.1941 31.3902 54.9429 31.5737 54.7594 31.4356L53.6845 30.6269C53.6048 30.5668 53.4956 30.5645 53.4133 30.621L52.2862 31.3956C52.0997 31.5237 51.8587 31.3368 51.9364 31.1243L52.3315 30.0431C52.3695 29.9389 52.3286 29.8223 52.2338 29.7648L51.2873 29.1904C51.0864 29.0685 51.1728 28.7595 51.4078 28.7595H52.6736C52.7735 28.7595 52.8622 28.6956 52.8939 28.6009L53.3236 27.3181Z" fill="#FCAF0D"/>
<path d="M37.348 27.3172C37.4195 27.1037 37.7225 27.1065 37.7899 27.3214L38.1901 28.5958C38.2205 28.6926 38.3103 28.7585 38.4118 28.7585H39.6742C39.9093 28.7585 39.9957 29.0675 39.7948 29.1894L38.8459 29.7652C38.7522 29.8221 38.711 29.9369 38.7472 30.0405L39.1428 31.1724C39.2185 31.3892 38.9673 31.5728 38.7838 31.4347L37.709 30.6259C37.6292 30.5659 37.52 30.5635 37.4377 30.6201L36.3106 31.3946C36.1241 31.5227 35.8832 31.3359 35.9608 31.1234L36.3559 30.0421C36.3939 29.9379 36.353 29.8213 36.2582 29.7638L35.3117 29.1894C35.1108 29.0675 35.1972 28.7585 35.4322 28.7585H36.6981C36.7979 28.7585 36.8866 28.6947 36.9184 28.6L37.348 27.3172Z" fill="#FCAF0D"/>
<path d="M45.3443 65.8728C45.4145 66.0855 45.7154 66.0855 45.7855 65.8728L46.4888 63.7414C46.5202 63.6462 46.6091 63.5819 46.7094 63.5819H48.9112C49.1422 63.5819 49.2316 63.2812 49.038 63.155L47.2696 62.0019C47.1806 61.9439 47.1423 61.833 47.1765 61.7325L47.8574 59.7304C47.9306 59.5153 47.6833 59.3339 47.5001 59.4683L45.6995 60.7887C45.6191 60.8476 45.51 60.8487 45.4284 60.7913L43.5785 59.4899C43.3941 59.3602 43.1516 59.5427 43.2252 59.7557L43.9083 61.7333C43.9429 61.8334 43.9054 61.9442 43.8171 62.0028L42.079 63.156C41.8872 63.2832 41.9773 63.5819 42.2074 63.5819H44.4204C44.5207 63.5819 44.6096 63.6462 44.6411 63.7414L45.3443 65.8728Z" fill="#FCAF0D"/>
<path d="M53.3236 61.9294C53.3951 62.1429 53.6981 62.14 53.7655 61.9252L54.1657 60.6508C54.1961 60.554 54.2859 60.4881 54.3874 60.4881H55.6498C55.8848 60.4881 55.9713 60.1791 55.7704 60.0572L54.8215 59.4814C54.7277 59.4245 54.6865 59.3097 54.7227 59.2061L55.1184 58.0742C55.1941 57.8574 54.9429 57.6738 54.7594 57.8119L53.6845 58.6207C53.6048 58.6807 53.4956 58.6831 53.4133 58.6265L52.2862 57.852C52.0997 57.7239 51.8587 57.9107 51.9364 58.1232L52.3315 59.2045C52.3695 59.3087 52.3286 59.4252 52.2338 59.4828L51.2873 60.0572C51.0864 60.1791 51.1728 60.4881 51.4078 60.4881H52.6736C52.7735 60.4881 52.8622 60.5519 52.8939 60.6466L53.3236 61.9294Z" fill="#FCAF0D"/>
<path d="M37.348 61.9304C37.4195 62.1439 37.7225 62.141 37.7899 61.9262L38.1901 60.6518C38.2205 60.555 38.3103 60.4891 38.4118 60.4891H39.6742C39.9093 60.4891 39.9957 60.1801 39.7948 60.0581L38.8459 59.4824C38.7522 59.4254 38.711 59.3107 38.7472 59.2071L39.1428 58.0752C39.2185 57.8584 38.9673 57.6748 38.7838 57.8129L37.709 58.6217C37.6292 58.6817 37.52 58.684 37.4377 58.6275L36.3106 57.853C36.1241 57.7249 35.8832 57.9117 35.9608 58.1242L36.3559 59.2054C36.3939 59.3096 36.353 59.4262 36.2582 59.4838L35.3117 60.0581C35.1108 60.1801 35.1972 60.4891 35.4322 60.4891H36.6981C36.7979 60.4891 36.8866 60.5529 36.9184 60.6476L37.348 61.9304Z" fill="#FCAF0D"/>
<g filter="url(#filter1_d)">
<path d="M12.9411 47.1308C14.0933 47.1308 15.0273 46.2013 15.0273 45.0547C15.0273 43.908 14.0933 42.9785 12.9411 42.9785C11.789 42.9785 10.855 43.908 10.855 45.0547C10.855 46.2013 11.789 47.1308 12.9411 47.1308Z" fill="white"/>
</g>
<g filter="url(#filter2_d)">
<path d="M79.0744 47.1308C80.2266 47.1308 81.1606 46.2013 81.1606 45.0547C81.1606 43.908 80.2266 42.9785 79.0744 42.9785C77.9223 42.9785 76.9883 43.908 76.9883 45.0547C76.9883 46.2013 77.9223 47.1308 79.0744 47.1308Z" fill="white"/>
</g>
<defs>
<filter id="filter0_d" x="18.6952" y="20.7627" width="53.7392" height="53.5025" filterUnits="userSpaceOnUse" color-interpolation-filters="sRGB">
<feFlood flood-opacity="0" result="BackgroundImageFix"/>
<feColorMatrix in="SourceAlpha" type="matrix" values="0 0 0 0 0 0 0 0 0 0 0 0 0 0 0 0 0 0 127 0"/>
<feOffset dy="2.19099"/>
<feGaussianBlur stdDeviation="1.09549"/>
<feColorMatrix type="matrix" values="0 0 0 0 0 0 0 0 0 0 0 0 0 0 0 0 0 0 0.27 0"/>
<feBlend mode="normal" in2="BackgroundImageFix" result="effect1_dropShadow"/>
<feBlend mode="normal" in="SourceGraphic" in2="effect1_dropShadow" result="shape"/>
</filter>
<filter id="filter1_d" x="8.66399" y="42.9785" width="8.55426" height="8.53424" filterUnits="userSpaceOnUse" color-interpolation-filters="sRGB">
<feFlood flood-opacity="0" result="BackgroundImageFix"/>
<feColorMatrix in="SourceAlpha" type="matrix" values="0 0 0 0 0 0 0 0 0 0 0 0 0 0 0 0 0 0 127 0"/>
<feOffset dy="2.19099"/>
<feGaussianBlur stdDeviation="1.09549"/>
<feColorMatrix type="matrix" values="0 0 0 0 0 0 0 0 0 0 0 0 0 0 0 0 0 0 0.25 0"/>
<feBlend mode="normal" in2="BackgroundImageFix" result="effect1_dropShadow"/>
<feBlend mode="normal" in="SourceGraphic" in2="effect1_dropShadow" result="shape"/>
</filter>
<filter id="filter2_d" x="74.7973" y="42.9785" width="8.55426" height="8.53424" filterUnits="userSpaceOnUse" color-interpolation-filters="sRGB">
<feFlood flood-opacity="0" result="BackgroundImageFix"/>
<feColorMatrix in="SourceAlpha" type="matrix" values="0 0 0 0 0 0 0 0 0 0 0 0 0 0 0 0 0 0 127 0"/>
<feOffset dy="2.19099"/>
<feGaussianBlur stdDeviation="1.09549"/>
<feColorMatrix type="matrix" values="0 0 0 0 0 0 0 0 0 0 0 0 0 0 0 0 0 0 0.25 0"/>
<feBlend mode="normal" in2="BackgroundImageFix" result="effect1_dropShadow"/>
<feBlend mode="normal" in="SourceGraphic" in2="effect1_dropShadow" result="shape"/>
</filter>
</defs>
</svg>
