<svg width="125" height="124" viewBox="0 0 125 124" fill="none" xmlns="http://www.w3.org/2000/svg">
<path d="M91.1749 80.3416C95.2138 76.3129 97.7991 71.0561 98.5244 65.3978C99.2497 59.7394 98.0739 54.0005 95.1817 49.0833" stroke="#F5F4F4" stroke-width="8" stroke-miterlimit="10" stroke-linecap="round" stroke-linejoin="round"/>
<path d="M105.642 94.8084C113.206 87.1938 117.917 77.2068 118.983 66.5271C120.049 55.8474 117.405 45.1262 111.496 36.1667" stroke="#F5F4F4" stroke-width="8" stroke-miterlimit="10" stroke-linecap="round" stroke-linejoin="round"/>
<path d="M39.25 85.25H16C13.2595 85.25 10.6311 84.1613 8.69325 82.2234C6.75537 80.2855 5.66669 77.6572 5.66669 74.9166V49.0833C5.66669 46.3427 6.75537 43.7144 8.69325 41.7765C10.6311 39.8387 13.2595 38.75 16 38.75H39.25L78 10.3333V46.5" stroke="#F5F4F4" stroke-width="8" stroke-miterlimit="10" stroke-linecap="round" stroke-linejoin="round"/>
<path d="M78 67.1667V113.667L52.1667 94.7231" stroke="#F5F4F4" stroke-width="8" stroke-miterlimit="10" stroke-linecap="round" stroke-linejoin="round"/>
<path d="M8.25 116.25L116.75 7.75" stroke="#F5F4F4" stroke-width="8" stroke-miterlimit="10" stroke-linecap="round" stroke-linejoin="round"/>
</svg>
