<svg width="37" height="10" viewBox="0 0 37 10" fill="none" xmlns="http://www.w3.org/2000/svg">
<path d="M4.92469 0.886353L0.90918 9.77255H5.71631L6.31226 8.35572H7.67445L8.2704 9.77255H13.5617V8.69118L14.0332 9.77255H16.7703L17.2417 8.66833V9.77255H28.2462L29.5843 8.39251L30.8372 9.77255L36.4894 9.78398L32.4612 5.35426L36.4894 0.886353H30.9249L29.6224 2.24088L28.4089 0.886353H16.4374L15.4095 3.17996L14.3574 0.886353H9.56026V1.93093L9.02661 0.886353C9.02661 0.886353 4.92469 0.886353 4.92469 0.886353ZM5.85484 2.1482H8.19806L10.8616 8.17398V2.1482H13.4285L15.4857 6.46866L17.3817 2.1482H19.9358V8.52464H18.3817L18.369 3.5281L16.1032 8.52464H14.713L12.4346 3.5281V8.52464H9.23748L8.63136 7.09512H5.35674L4.75187 8.52338H3.03888C3.03888 8.52338 5.85484 2.1482 5.85484 2.1482ZM21.3576 2.1482H27.6769L29.6097 4.23596L31.6047 2.1482H33.5375L30.6009 5.353L33.5375 8.52087H31.5171L29.5843 6.40887L27.5791 8.52087H21.3576V2.1482ZM6.99475 3.22706L5.91589 5.77362H8.07235L6.99475 3.22706ZM22.9181 3.46845V4.63246H26.3656V5.92986H22.9181V7.20063H26.7849L28.5817 5.32889L26.8612 3.46734H22.9181V3.46845Z" fill="#26A6D1"/>
</svg>
