<svg width="11" height="7" viewBox="0 0 11 7" fill="none" xmlns="http://www.w3.org/2000/svg">
<path d="M8.57703 0.744153L4.99953 4.32165L1.42203 0.744153C1.26486 0.592355 1.05436 0.508359 0.835858 0.510258C0.617361 0.512157 0.40835 0.599797 0.253843 0.754304C0.0993366 0.908811 0.0116958 1.11782 0.00979713 1.33632C0.00789844 1.55482 0.0918938 1.76532 0.243692 1.92249L4.41036 6.08915C4.56663 6.24538 4.77856 6.33314 4.99953 6.33314C5.2205 6.33314 5.43242 6.24538 5.58869 6.08915L9.75536 1.92249C9.83495 1.84561 9.89844 1.75366 9.94211 1.65199C9.98579 1.55032 10.0088 1.44097 10.0097 1.33032C10.0107 1.21967 9.98961 1.10994 9.94771 1.00752C9.90581 0.905111 9.84393 0.812068 9.76569 0.733824C9.68744 0.65558 9.5944 0.593702 9.49199 0.551802C9.38957 0.509901 9.27984 0.488816 9.16919 0.489778C9.05854 0.490739 8.94919 0.513728 8.84752 0.557402C8.74585 0.601076 8.6539 0.664561 8.57703 0.744153Z" fill="#5D514D"/>
</svg>
