<svg width="42" height="8" viewBox="0 0 42 8" fill="none" xmlns="http://www.w3.org/2000/svg">
<path d="M2.19966 0.397339H0.294922V7.0163H2.19966C3.20663 7.0163 3.93455 6.77561 4.57756 6.25812C5.34188 5.63233 5.79077 4.69364 5.79077 3.71885C5.79077 1.75723 4.31065 0.397339 2.19966 0.397339ZM3.72831 5.36757C3.31582 5.72861 2.79414 5.89709 1.94489 5.89709H1.59306V1.51654H1.94489C2.782 1.51654 3.29155 1.66096 3.72831 2.04606C4.1772 2.4432 4.4441 3.05696 4.4441 3.69478C4.4441 4.33261 4.1772 4.97044 3.72831 5.36757Z" fill="#231F20"/>
<path d="M7.68388 0.397339H6.38574V7.0163H7.68388V0.397339Z" fill="#231F20"/>
<path d="M10.874 2.93658C10.0975 2.64775 9.86703 2.4552 9.86703 2.1062C9.86703 1.68499 10.2795 1.37209 10.8376 1.37209C11.2258 1.37209 11.5534 1.52854 11.881 1.91364L12.5604 1.03513C12.0023 0.553749 11.335 0.301025 10.595 0.301025C9.41814 0.301025 8.50823 1.11937 8.50823 2.20247C8.50823 3.11709 8.93285 3.58644 10.1461 4.01968C10.6556 4.20019 10.9104 4.32054 11.0438 4.39275C11.2986 4.56123 11.4321 4.80192 11.4321 5.07871C11.4321 5.62026 11.0074 6.0174 10.4251 6.0174C9.80637 6.0174 9.30895 5.7045 9.00565 5.13888L8.18066 5.90909C8.77514 6.78761 9.50306 7.17271 10.4858 7.17271C11.8324 7.17271 12.7909 6.28216 12.7909 4.99447C12.7909 3.94747 12.3541 3.46609 10.874 2.93658Z" fill="#231F20"/>
<path d="M13.2041 3.70604C13.2041 5.65563 14.7449 7.15994 16.7224 7.15994C17.2805 7.15994 17.7658 7.05163 18.3481 6.77483V5.25849C17.8264 5.77597 17.3654 5.98056 16.7831 5.98056C15.4728 5.98056 14.5386 5.04187 14.5386 3.69401C14.5386 2.41835 15.4971 1.41949 16.7224 1.41949C17.3411 1.41949 17.8143 1.63611 18.3481 2.16563V0.649285C17.7779 0.360457 17.3048 0.240112 16.7467 0.240112C14.7813 0.240112 13.2041 1.78053 13.2041 3.70604Z" fill="#231F20"/>
<path d="M28.6716 4.83806L26.8882 0.397339H25.4688L28.2955 7.18478H28.9992L31.8745 0.397339H30.4672L28.6716 4.83806Z" fill="#231F20"/>
<path d="M32.4688 7.0163H36.1569V5.88506H33.7669V4.10396H36.072V2.98475H33.7669V1.51654H36.1569V0.397339H32.4688V7.0163Z" fill="#231F20"/>
<path d="M41.3133 2.34692C41.3133 1.10737 40.4519 0.397339 38.9476 0.397339H37.0186V7.0163H38.3167V4.35668H38.4865L40.2821 7.0163H41.8835L39.7847 4.2243C40.7674 4.01971 41.3133 3.35782 41.3133 2.34692ZM38.7049 3.44206H38.3288V1.4323H38.7292C39.542 1.4323 39.9788 1.76927 39.9788 2.41913C39.9667 3.08103 39.5299 3.44206 38.7049 3.44206Z" fill="#231F20"/>
<path d="M22.3272 7.25679C24.2904 7.25679 25.8819 5.6781 25.8819 3.73069C25.8819 1.78328 24.2904 0.20459 22.3272 0.20459C20.364 0.20459 18.7725 1.78328 18.7725 3.73069C18.7725 5.6781 20.364 7.25679 22.3272 7.25679Z" fill="url(#paint0_linear)"/>
<defs>
<linearGradient id="paint0_linear" x1="24.1409" y1="6.54616" x2="21.7118" y2="2.71201" gradientUnits="userSpaceOnUse">
<stop stop-color="#F89F20"/>
<stop offset="0.2502" stop-color="#F79A20"/>
<stop offset="0.5331" stop-color="#F68D20"/>
<stop offset="0.6196" stop-color="#F58720"/>
<stop offset="0.7232" stop-color="#F48120"/>
<stop offset="1" stop-color="#F37521"/>
</linearGradient>
</defs>
</svg>
