<svg width="20" height="13" viewBox="0 0 20 13" fill="none" xmlns="http://www.w3.org/2000/svg">
<path d="M12.292 11.1638H7.11621V1.83679H12.292V11.1638Z" fill="#FF5F00"/>
<path d="M7.44725 6.50001C7.44725 4.60799 8.33073 2.92263 9.70653 1.83652C8.70044 1.0423 7.43071 0.568261 6.05077 0.568261C2.78391 0.568261 0.135742 3.22395 0.135742 6.50001C0.135742 9.77607 2.78391 12.4318 6.05077 12.4318C7.43071 12.4318 8.70044 11.9577 9.70653 11.1635C8.33073 10.0774 7.44725 8.39203 7.44725 6.50001Z" fill="#EB001B"/>
<path d="M19.2723 6.50001C19.2723 9.77607 16.6242 12.4318 13.3573 12.4318C11.9774 12.4318 10.7076 11.9577 9.70117 11.1635C11.0773 10.0774 11.9608 8.39203 11.9608 6.50001C11.9608 4.60799 11.0773 2.92263 9.70117 1.83652C10.7076 1.0423 11.9774 0.568261 13.3573 0.568261C16.6242 0.568261 19.2723 3.22395 19.2723 6.50001Z" fill="#F79E1B"/>
</svg>
