<svg width="94" height="42" viewBox="0 0 94 42" fill="none" xmlns="http://www.w3.org/2000/svg">
<path d="M93.6922 38.1034C93.6922 40.1709 92.02 41.8474 89.957 41.8474H4.04377C1.98079 41.8474 0.308594 40.1709 0.308594 38.1034V4.20934C0.308594 2.14145 1.98079 0.465271 4.04377 0.465271H89.957C92.02 0.465271 93.6922 2.14145 93.6922 4.20934V38.1034Z" fill="white"/>
<path d="M56.6973 17.9002C56.2905 18.097 55.7703 18.2091 55.2396 18.2091C54.1875 18.2091 53.2811 17.4912 53.2811 16.3865C53.2811 15.1901 54.0528 14.4709 55.1049 14.4709C55.6551 14.4709 56.1571 14.5524 56.6471 14.8388V12.9146C56.1028 12.6708 55.4757 12.5599 54.7715 12.5599C52.3902 12.5599 50.6172 13.9451 50.6172 16.3454C50.6172 18.7305 52.3905 20.1176 54.7715 20.1176C55.3986 20.1176 56.0995 20.0163 56.6976 19.8321V17.9002H56.6973Z" fill="#23201F"/>
<path d="M74.2617 17.0658C74.4121 17.8894 74.9659 18.3852 76.1675 18.3852C76.7839 18.3852 77.6314 18.2598 78.343 17.932V19.6588C77.5497 19.9798 76.6505 20.1173 75.7299 20.1173C73.3782 20.1173 71.6699 18.7157 71.6699 16.3306C71.6699 13.9448 73.1036 12.5596 75.3176 12.5596C77.9575 12.5596 78.8629 14.4582 78.8629 16.6071V17.0655H74.2617V17.0658ZM76.5105 15.6503C76.5105 14.8218 76.1601 14.1975 75.3176 14.1975C74.5554 14.1975 74.2534 14.8218 74.2087 15.6503H76.5105Z" fill="#23201F"/>
<path d="M82.1426 17.0658C82.2943 17.8894 82.8481 18.3852 84.0506 18.3852C84.6645 18.3852 85.5108 18.2598 86.2224 17.932V19.6588C85.4316 19.9798 84.5274 20.1173 83.6111 20.1173C81.26 20.1173 79.5518 18.7157 79.5518 16.3306C79.5518 13.9448 80.9842 12.5596 83.2006 12.5596C85.8359 12.5596 86.7447 14.4582 86.7447 16.6071V17.0655H82.1426V17.0658ZM84.3899 15.6503C84.3899 14.8218 84.0444 14.1975 83.2006 14.1975C82.4385 14.1975 82.1365 14.8218 82.0896 15.6503H84.3899Z" fill="#23201F"/>
<path d="M50.2654 19.9517L48.8589 9.43372H45.6097L44.0562 16.515L42.6164 9.43372H39.3527L37.8281 19.9517H40.3672L41.2073 13.3631L42.6376 19.9517H45.3804L46.9448 13.3631L47.7417 19.9517H50.2654Z" fill="#23201F"/>
<path d="M70.0621 12.2473C70.0621 11.4766 70.2692 10.9891 70.9842 10.9011C71.2911 10.8625 71.5981 10.9023 71.7907 10.9378V9.097C71.4874 9.04139 71.1068 8.97498 70.635 8.97498C68.5776 8.97498 67.5279 9.9079 67.5279 12.2473V12.7323H66.2881V14.6328H67.5279V19.9514H70.0621V14.6331H71.5968V12.7326H70.0621V12.2473Z" fill="#23201F"/>
<path d="M66.881 19.9517H64.0737L63.5427 17.7186H60.4585L59.8877 19.9517H57.2031L60.2982 9.43372H63.8266L66.881 19.9517ZM60.9737 15.7004H63.0601L62.0524 11.4791L60.9737 15.7004Z" fill="#23201F"/>
<path d="M43.483 25.4717C42.8583 25.2014 42.1624 25.0451 41.4681 25.0451C40.7858 25.0451 39.9062 25.3432 39.9062 26.4244C39.9062 28.1469 44.2491 27.42 44.2491 30.7505C44.2491 32.9268 42.5322 33.7522 40.5306 33.7522C39.4523 33.7522 38.9703 33.6092 37.9905 33.3685L38.1739 31.5759C38.8565 31.9457 39.6369 32.1872 40.4169 32.1872C41.1694 32.1872 42.1775 31.8029 42.1775 30.9068C42.1775 29.0153 37.834 29.7971 37.834 26.5103C37.834 24.291 39.5506 23.4801 41.2977 23.4801C42.1482 23.4801 42.9443 23.5935 43.6682 23.836L43.483 25.4717Z" fill="#23201F"/>
<path d="M45.9561 23.6503H51.8047V25.2147H47.9441V27.6625H51.4787V29.2275H47.9441V32.0155H51.8337V33.5811H45.9564V23.6503H45.9561Z" fill="#23201F"/>
<path d="M60.8149 33.4396C60.0913 33.6092 59.31 33.7522 58.559 33.7522C55.3496 33.7522 53.1211 32.1443 53.1211 28.7867C53.1211 25.3861 55.193 23.4801 58.559 23.4801C59.2102 23.4801 60.0758 23.6074 60.8004 23.8916L60.6583 25.5715C59.906 25.1449 59.2246 25.0454 58.5143 25.0454C56.4713 25.0454 55.193 26.6097 55.193 28.6443C55.193 30.6649 56.4439 32.1872 58.559 32.1872C59.3378 32.1872 60.2601 32.0158 60.7295 31.7733L60.8149 33.4396Z" fill="#23201F"/>
<path d="M62.1553 23.6503H64.1427V29.3841C64.1427 31.0782 64.6821 32.1872 66.2002 32.1872C67.7195 32.1872 68.2588 31.0782 68.2588 29.3841V23.6503H70.2451V29.9958C70.2451 32.6577 68.7402 33.7522 66.2002 33.7522C63.6601 33.7522 62.1553 32.6577 62.1553 29.9958V23.6503Z" fill="#23201F"/>
<path d="M72.1634 23.6503H74.3056C76.4345 23.6503 78.9782 23.5795 78.9782 26.3388C78.9782 27.5055 78.197 28.4734 76.9353 28.6442V28.6732C77.4746 28.7156 77.7865 29.2562 77.9837 29.697L79.574 33.5813H77.3624L76.1621 30.4795C75.8792 29.7396 75.6264 29.4545 74.7879 29.4545H74.1493V33.5813H72.1631V23.6503H72.1634ZM74.3724 27.8898H75.0255C76.0037 27.8898 77.1304 27.7474 77.1304 26.5099C77.1304 25.3141 76.0181 25.2146 75.0255 25.2146H74.3724V27.8898Z" fill="#23201F"/>
<path d="M80.9746 23.6503H86.8218V25.2147H82.9624V27.6625H86.4969V29.2275H82.9624V32.0155H86.8507V33.5811H80.9749V23.6503H80.9746Z" fill="#23201F"/>
<path d="M88.3293 23.8329H87.9219V23.6089H88.9783V23.8329H88.5715V24.9364H88.3296V23.8329H88.3293ZM89.2905 23.6093H89.6662L90.0129 24.506L90.3531 23.6093H90.7288V24.9367H90.4869V23.9222H90.4804L90.1084 24.9367H89.9109L89.5383 23.9222H89.5327V24.9367H89.2908V23.6093H89.2905Z" fill="#23201F"/>
<path d="M20.0707 36.9316C6.80009 30.8738 5.30664 17.9095 5.30664 11.9366C5.30664 9.72194 5.51775 8.45847 5.54579 8.24377C6.13473 8.07016 13.079 6.29358 20.0707 6.29358C27.0634 6.29358 34.008 8.07016 34.5975 8.24377C34.6247 8.45847 34.8358 9.72194 34.8358 11.9366C34.8361 17.9095 33.3432 30.8738 20.0707 36.9316Z" fill="white"/>
<path d="M20.0703 36.9316C33.3425 30.874 34.8353 17.9094 34.8353 11.9365C34.8353 9.72188 34.6242 8.45841 34.5971 8.24371L33.3826 9.3138C33.4328 9.81672 33.4994 10.7249 33.4966 11.9365C33.4907 17.7046 31.9973 29.8138 20.0706 35.4478V36.9316H20.0703Z" fill="#6D7A81"/>
<path d="M20.0709 7.63026C13.9322 7.63026 7.90319 9.0383 6.75921 9.31386L5.5459 8.24377C6.13484 8.07016 13.0791 6.29358 20.0709 6.29358C27.0635 6.29358 34.0081 8.07016 34.5977 8.24377L33.3831 9.31386C32.2407 9.0383 26.2098 7.63026 20.0709 7.63026Z" fill="url(#paint0_linear)"/>
<path d="M20.0704 35.4481C8.145 29.8138 6.65155 17.7046 6.64446 11.9365C6.64261 10.7252 6.70949 9.81672 6.75911 9.3138L5.54579 8.24371C5.51775 8.45841 5.30664 9.72188 5.30664 11.9365C5.30664 17.9094 6.80009 30.8737 20.0707 36.9316V35.4481H20.0704Z" fill="url(#paint1_linear)"/>
<path d="M20.0917 32.5932C20.0917 32.5932 28.6736 28.985 30.3052 18.3438C30.3052 18.3438 31.0543 15.4786 30.7249 11.2044C30.7249 11.2044 23.9498 11.7592 20.6766 11.7314C17.4034 11.7036 9.93768 11.4633 9.45753 11.2047C9.45722 11.2047 7.39949 26.0513 20.0917 32.5932Z" fill="url(#paint2_linear)"/>
<path d="M20.0707 31.7813C18.6953 31.1653 10.1672 27.0768 10.1672 14.0137C10.1672 13.3671 10.1876 12.6983 10.231 12.0079L9.11388 10.8899C9.06488 11.6684 9.04207 12.4212 9.043 13.1487C9.043 27.5195 18.2928 32.1319 20.0704 32.9021V31.7813H20.0707Z" fill="#A41D33"/>
<path d="M20.0711 12.5145C14.5466 12.5145 10.7325 12.0641 10.2314 12.0079L9.11426 10.8899C9.39871 10.9199 13.782 11.4524 20.0708 11.4524C26.3608 11.4524 30.7437 10.9199 31.0282 10.8899L29.9117 12.0079C29.4112 12.0644 25.5974 12.5145 20.0711 12.5145Z" fill="#7D1320"/>
<path d="M20.0703 31.7813C21.4473 31.1653 29.9744 27.0768 29.9744 14.0137C29.9744 13.3671 29.955 12.6983 29.9112 12.0079L31.0277 10.8899C31.0767 11.6684 31.0996 12.4212 31.0996 13.1487C31.0996 27.5195 21.8482 32.1319 20.0703 32.9021V31.7813Z" fill="url(#paint3_linear)"/>
<path d="M18.1404 13.2819L21.7985 24.8489H18.5386L17.1256 18.391L16.1378 24.8489H13.3281L15.1686 13.2819H18.1404Z" fill="white"/>
<path d="M25.1354 13.2819H22.2089L20.5059 18.3496L22.0825 23.3013L23.082 18.391L24.0185 24.8489H26.8147L25.1354 13.2819Z" fill="white"/>
<defs>
<linearGradient id="paint0_linear" x1="37.6923" y1="10.3682" x2="8.95248" y2="7.17243" gradientUnits="userSpaceOnUse">
<stop offset="0.25" stop-color="#A1ACB3"/>
<stop offset="0.65" stop-color="#B8C0C5"/>
<stop offset="1" stop-color="#D0D5D9"/>
</linearGradient>
<linearGradient id="paint1_linear" x1="5.30639" y1="22.5877" x2="20.0706" y2="22.5877" gradientUnits="userSpaceOnUse">
<stop offset="0.1648" stop-color="#A1ACB3"/>
<stop offset="0.3887" stop-color="#A8B2B9"/>
<stop offset="0.7545" stop-color="#BEC5CA"/>
<stop offset="1" stop-color="#D0D5D9"/>
</linearGradient>
<linearGradient id="paint2_linear" x1="15.4614" y1="7.7303" x2="27.4302" y2="28.4118" gradientUnits="userSpaceOnUse">
<stop stop-color="#B71F36"/>
<stop offset="0.16" stop-color="#B11F35"/>
<stop offset="0.3937" stop-color="#A11D31"/>
<stop offset="0.6726" stop-color="#87182A"/>
<stop offset="0.9842" stop-color="#660E1F"/>
<stop offset="1" stop-color="#640E1F"/>
</linearGradient>
<linearGradient id="paint3_linear" x1="34.3994" y1="17.086" x2="16.7037" y2="26.7151" gradientUnits="userSpaceOnUse">
<stop offset="0.1" stop-color="#991A30"/>
<stop offset="0.9" stop-color="#C31F3F"/>
</linearGradient>
</defs>
</svg>
