<svg width="115" height="51" viewBox="0 0 115 51" fill="none" xmlns="http://www.w3.org/2000/svg">
<g clip-path="url(#clip0)">
<path d="M114.341 46.2683C114.341 48.779 112.31 50.8147 109.805 50.8147H5.48186C2.97682 50.8147 0.946289 48.779 0.946289 46.2683V5.11131C0.946289 2.60031 2.97682 0.564941 5.48186 0.564941H109.805C112.31 0.564941 114.341 2.60031 114.341 5.11131V46.2683Z" fill="white"/>
<path d="M69.4172 21.7359C68.9232 21.9749 68.2915 22.111 67.6471 22.111C66.3695 22.111 65.269 21.2393 65.269 19.8979C65.269 18.4451 66.206 17.5718 67.4836 17.5718C68.1516 17.5718 68.7612 17.6708 69.3562 18.0186V15.682C68.6953 15.386 67.9338 15.2513 67.0787 15.2513C64.1871 15.2513 62.0342 16.9333 62.0342 19.848C62.0342 22.7442 64.1875 24.4285 67.0787 24.4285C67.8402 24.4285 68.6912 24.3054 69.4176 24.0819V21.7359H69.4172Z" fill="#23201F"/>
<path d="M90.7458 20.7229C90.9285 21.7229 91.6009 22.325 93.06 22.325C93.8085 22.325 94.8376 22.1727 95.7017 21.7747V23.8716C94.7384 24.2613 93.6464 24.4282 92.5286 24.4282C89.6729 24.4282 87.5986 22.7264 87.5986 19.8301C87.5986 16.9331 89.3395 15.2511 92.0279 15.2511C95.2335 15.2511 96.333 17.5565 96.333 20.1658V20.7225H90.7458V20.7229ZM93.4765 19.0041C93.4765 17.9981 93.051 17.2399 92.0279 17.2399C91.1025 17.2399 90.7357 17.9981 90.6815 19.0041H93.4765Z" fill="#23201F"/>
<path d="M100.315 20.7229C100.499 21.7229 101.172 22.325 102.632 22.325C103.377 22.325 104.405 22.1727 105.269 21.7747V23.8716C104.309 24.2613 103.211 24.4282 102.098 24.4282C99.2433 24.4282 97.1689 22.7264 97.1689 19.8301C97.1689 16.9331 98.9083 15.2511 101.6 15.2511C104.8 15.2511 105.903 17.5565 105.903 20.1658V20.7225H100.315V20.7229ZM103.044 19.0041C103.044 17.9981 102.624 17.2399 101.6 17.2399C100.674 17.2399 100.308 17.9981 100.251 19.0041H103.044Z" fill="#23201F"/>
<path d="M61.6073 24.227L59.8994 11.4552H55.954L54.0675 20.0539L52.3192 11.4552H48.3562L46.5049 24.227H49.5881L50.6082 16.2266L52.345 24.227H55.6756L57.5751 16.2266L58.5428 24.227H61.6073Z" fill="#23201F"/>
<path d="M85.6462 14.8718C85.6462 13.9359 85.8977 13.3439 86.7659 13.237C87.1386 13.1901 87.5113 13.2385 87.7452 13.2817V11.0464C87.377 10.9788 86.9148 10.8982 86.3419 10.8982C83.8436 10.8982 82.569 12.031 82.569 14.8718V15.4607H81.0635V17.7684H82.569V24.2267H85.6462V17.7688H87.5098V15.4611H85.6462V14.8718Z" fill="#23201F"/>
<path d="M81.7829 24.227H78.3742L77.7294 21.5154H73.9842L73.2911 24.227H70.0312L73.7896 11.4552H78.074L81.7829 24.227ZM74.6099 19.0647H77.1433L75.9196 13.9388L74.6099 19.0647Z" fill="#23201F"/>
<path d="M53.3712 30.93C52.6127 30.6017 51.7677 30.4119 50.9245 30.4119C50.096 30.4119 49.028 30.7739 49.028 32.0868C49.028 34.1784 54.3015 33.2958 54.3015 37.3399C54.3015 39.9826 52.2167 40.9849 49.7862 40.9849C48.4768 40.9849 47.8915 40.8112 46.7018 40.519L46.9245 38.3422C47.7534 38.7912 48.7009 39.0845 49.6481 39.0845C50.5619 39.0845 51.786 38.6179 51.786 37.5297C51.786 35.2329 46.5117 36.1823 46.5117 32.1911C46.5117 29.4963 48.5961 28.5116 50.7176 28.5116C51.7505 28.5116 52.7171 28.6493 53.5961 28.9437L53.3712 30.93Z" fill="#23201F"/>
<path d="M56.374 28.7181H63.476V30.6177H58.7881V33.5901H63.0801V35.4904H58.7881V38.8758H63.5112V40.7769H56.3744V28.7181H56.374Z" fill="#23201F"/>
<path d="M74.4167 40.6052C73.538 40.8112 72.5893 40.9849 71.6774 40.9849C67.7802 40.9849 65.0742 39.0324 65.0742 34.9553C65.0742 30.826 67.5901 28.5116 71.6774 28.5116C72.4681 28.5116 73.5193 28.6661 74.3991 29.0112L74.2266 31.0511C73.3131 30.5331 72.4857 30.4123 71.6231 30.4123C69.1424 30.4123 67.5901 32.3119 67.5901 34.7824C67.5901 37.236 69.1091 39.0845 71.6774 39.0845C72.623 39.0845 73.7431 38.8763 74.313 38.5819L74.4167 40.6052Z" fill="#23201F"/>
<path d="M76.0449 28.7181H78.4583V35.6806C78.4583 37.7377 79.1132 39.0844 80.9566 39.0844C82.8015 39.0844 83.4564 37.7377 83.4564 35.6806V28.7181H85.8682V36.4233C85.8682 39.6557 84.0409 40.9847 80.9566 40.9847C77.8722 40.9847 76.0449 39.6557 76.0449 36.4233V28.7181Z" fill="#23201F"/>
<path d="M88.1976 28.7182H90.7989C93.384 28.7182 96.4728 28.6323 96.4728 31.9828C96.4728 33.3996 95.5242 34.5749 93.9921 34.7823V34.8176C94.647 34.869 95.0257 35.5254 95.2652 36.0607L97.1962 40.7774H94.5108L93.0532 37.0108C92.7096 36.1125 92.4028 35.7662 91.3845 35.7662H90.6091V40.7774H88.1973V28.7182H88.1976ZM90.8801 33.8663H91.673C92.8608 33.8663 94.229 33.6933 94.229 32.1906C94.229 30.7386 92.8784 30.6178 91.673 30.6178H90.8801V33.8663Z" fill="#23201F"/>
<path d="M98.8965 28.7181H105.997V30.6177H101.31V33.5901H105.602V35.4904H101.31V38.8758H106.032V40.7769H98.8969V28.7181H98.8965Z" fill="#23201F"/>
<path d="M107.828 28.9399H107.333V28.668H108.616V28.9399H108.122V30.2798H107.828V28.9399H107.828ZM108.995 28.6683H109.451L109.872 29.7573L110.285 28.6683H110.741V30.2802H110.448V29.0483H110.44L109.988 30.2802H109.748L109.296 29.0483H109.289V30.2802H108.995V28.6683H108.995Z" fill="#23201F"/>
<path d="M24.9425 44.8456C8.82813 37.4896 7.01465 21.7472 7.01465 14.4944C7.01465 11.8052 7.27099 10.271 7.30504 10.0103C8.02018 9.79949 16.4525 7.64221 24.9425 7.64221C33.4336 7.64221 41.8663 9.79949 42.5822 10.0103C42.6151 10.271 42.8714 11.8052 42.8714 14.4944C42.8718 21.7472 41.0591 37.4896 24.9425 44.8456Z" fill="white"/>
<path d="M24.9424 44.8455C41.0586 37.4899 42.8713 21.7472 42.8713 14.4944C42.8713 11.8052 42.615 10.271 42.5821 10.0103L41.1073 11.3096C41.1683 11.9203 41.2491 13.0232 41.2457 14.4944C41.2386 21.4985 39.4251 36.2025 24.9428 43.0438V44.8455H24.9424Z" fill="#6D7A81"/>
<path d="M24.9421 9.26533C17.488 9.26533 10.1671 10.9751 8.778 11.3097L7.30469 10.0103C8.01983 9.79949 16.4522 7.64221 24.9421 7.64221C33.4332 7.64221 41.8659 9.79949 42.5818 10.0103L41.107 11.3097C39.7198 10.9751 32.3966 9.26533 24.9421 9.26533Z" fill="url(#paint0_linear)"/>
<path d="M24.9421 43.0442C10.4612 36.2025 8.64775 21.4985 8.63915 14.4944C8.6369 13.0235 8.71811 11.9203 8.77836 11.3096L7.30504 10.0103C7.27099 10.271 7.01465 11.8052 7.01465 14.4944C7.01465 21.7472 8.82813 37.4895 24.9425 44.8455V43.0442H24.9421Z" fill="url(#paint1_linear)"/>
<path d="M24.9682 39.5773C24.9682 39.5773 35.3891 35.196 37.3703 22.2745C37.3703 22.2745 38.28 18.7953 37.88 13.6052C37.88 13.6052 29.6531 14.2789 25.6785 14.2452C21.7039 14.2114 12.6383 13.9196 12.0553 13.6056C12.0549 13.6056 9.55624 31.6335 24.9682 39.5773Z" fill="url(#paint2_linear)"/>
<path d="M24.9426 38.5915C23.2724 37.8436 12.917 32.8789 12.917 17.0165C12.917 16.2314 12.9417 15.4193 12.9944 14.5809L11.6379 13.2234C11.5784 14.1687 11.5507 15.0828 11.5518 15.9662C11.5518 33.4165 22.7837 39.0173 24.9422 39.9525V38.5915H24.9426Z" fill="#A41D33"/>
<path d="M24.9434 15.1961C18.2351 15.1961 13.6037 14.6492 12.9952 14.5809L11.6387 13.2234C11.9841 13.2598 17.3066 13.9065 24.943 13.9065C32.5809 13.9065 37.903 13.2598 38.2485 13.2234L36.8927 14.5809C36.2849 14.6496 31.6539 15.1961 24.9434 15.1961Z" fill="#7D1320"/>
<path d="M24.9424 38.5915C26.6144 37.8436 36.9687 32.8789 36.9687 17.0165C36.9687 16.2314 36.9452 15.4193 36.892 14.5809L38.2478 13.2234C38.3073 14.1687 38.335 15.0828 38.335 15.9662C38.335 33.4165 27.1013 39.0173 24.9424 39.9525V38.5915Z" fill="url(#paint3_linear)"/>
<path d="M22.5993 16.1279L27.0413 30.1737H23.0828L21.367 22.3319L20.1676 30.1737H16.7559L18.9907 16.1279H22.5993Z" fill="white"/>
<path d="M31.0932 16.1279H27.5396L25.4717 22.2817L27.3862 28.2943L28.5998 22.3319L29.7371 30.1737H33.1324L31.0932 16.1279Z" fill="white"/>
</g>
<defs>
<linearGradient id="paint0_linear" x1="46.3396" y1="12.59" x2="11.4412" y2="8.70938" gradientUnits="userSpaceOnUse">
<stop offset="0.25" stop-color="#A1ACB3"/>
<stop offset="0.65" stop-color="#B8C0C5"/>
<stop offset="1" stop-color="#D0D5D9"/>
</linearGradient>
<linearGradient id="paint1_linear" x1="7.01435" y1="27.4279" x2="24.9423" y2="27.4279" gradientUnits="userSpaceOnUse">
<stop offset="0.1648" stop-color="#A1ACB3"/>
<stop offset="0.3887" stop-color="#A8B2B9"/>
<stop offset="0.7545" stop-color="#BEC5CA"/>
<stop offset="1" stop-color="#D0D5D9"/>
</linearGradient>
<linearGradient id="paint2_linear" x1="19.3457" y1="9.38667" x2="33.8793" y2="34.4999" gradientUnits="userSpaceOnUse">
<stop stop-color="#B71F36"/>
<stop offset="0.16" stop-color="#B11F35"/>
<stop offset="0.3937" stop-color="#A11D31"/>
<stop offset="0.6726" stop-color="#87182A"/>
<stop offset="0.9842" stop-color="#660E1F"/>
<stop offset="1" stop-color="#640E1F"/>
</linearGradient>
<linearGradient id="paint3_linear" x1="42.342" y1="20.7473" x2="20.8544" y2="32.4397" gradientUnits="userSpaceOnUse">
<stop offset="0.1" stop-color="#991A30"/>
<stop offset="0.9" stop-color="#C31F3F"/>
</linearGradient>
<clipPath id="clip0">
<rect width="114.143" height="51" fill="white" transform="translate(0.571289)"/>
</clipPath>
</defs>
</svg>
