<svg width="96" height="43" viewBox="0 0 96 43" fill="none" xmlns="http://www.w3.org/2000/svg">
<g clip-path="url(#clip0)">
<path d="M95.298 38.81C95.298 40.8957 93.6071 42.5869 91.5211 42.5869H4.64893C2.56293 42.5869 0.87207 40.8957 0.87207 38.81V4.61915C0.87207 2.53315 2.56293 0.842285 4.64893 0.842285H91.5211C93.6071 0.842285 95.298 2.53315 95.298 4.61915V38.81Z" fill="white"/>
<path d="M57.8912 18.5876C57.4798 18.7861 56.9538 18.8993 56.4172 18.8993C55.3533 18.8993 54.4368 18.175 54.4368 17.0607C54.4368 15.8538 55.2171 15.1283 56.281 15.1283C56.8373 15.1283 57.3449 15.2106 57.8404 15.4995V13.5584C57.29 13.3125 56.6559 13.2006 55.9438 13.2006C53.5359 13.2006 51.7432 14.5979 51.7432 17.0192C51.7432 19.4253 53.5362 20.8245 55.9438 20.8245C56.578 20.8245 57.2866 20.7222 57.8915 20.5365V18.5876H57.8912Z" fill="#23201F"/>
<path d="M75.652 17.746C75.8041 18.5768 76.3641 19.077 77.5791 19.077C78.2023 19.077 79.0593 18.9504 79.7788 18.6198V20.3618C78.9767 20.6855 78.0674 20.8242 77.1366 20.8242C74.7586 20.8242 73.0312 19.4104 73.0312 17.0044C73.0312 14.5977 74.4809 13.2004 76.7196 13.2004C79.389 13.2004 80.3045 15.1156 80.3045 17.2833V17.7457H75.652V17.746ZM77.9259 16.3182C77.9259 15.4824 77.5716 14.8526 76.7196 14.8526C75.949 14.8526 75.6436 15.4824 75.5984 16.3182H77.9259Z" fill="#23201F"/>
<path d="M83.6208 17.746C83.7741 18.5768 84.3341 19.077 85.55 19.077C86.1708 19.077 87.0265 18.9504 87.746 18.6198V20.3618C86.9464 20.6855 86.0321 20.8242 85.1057 20.8242C82.7283 20.8242 81.001 19.4104 81.001 17.0044C81.001 14.5977 82.4494 13.2004 84.6906 13.2004C87.3553 13.2004 88.2742 15.1156 88.2742 17.2833V17.7457H83.6208V17.746ZM85.8931 16.3182C85.8931 15.4824 85.5438 14.8526 84.6906 14.8526C83.9199 14.8526 83.6145 15.4824 83.5672 16.3182H85.8931Z" fill="#23201F"/>
<path d="M51.3877 20.6572L49.9654 10.0471H46.68L45.1091 17.1904L43.6532 10.0471H40.3531L38.8115 20.6572H41.379L42.2285 14.0109L43.6747 20.6572H46.4481L48.0299 14.0109L48.8358 20.6572H51.3877Z" fill="#23201F"/>
<path d="M71.405 12.8853C71.405 12.1078 71.6144 11.6161 72.3374 11.5273C72.6477 11.4883 72.9581 11.5285 73.1529 11.5643V9.70738C72.8462 9.65129 72.4614 9.58429 71.9843 9.58429C69.9039 9.58429 68.8425 10.5254 68.8425 12.8853V13.3746H67.5889V15.2917H68.8425V20.6569H71.405V15.292H72.9569V13.3749H71.405V12.8853Z" fill="#23201F"/>
<path d="M68.1892 20.6572H65.3506L64.8137 18.4045H61.695L61.1179 20.6572H58.4033L61.5329 10.0471H65.1007L68.1892 20.6572ZM62.216 16.3686H64.3257L63.3067 12.1103L62.216 16.3686Z" fill="#23201F"/>
<path d="M44.5294 26.2255C43.8978 25.9529 43.1941 25.7952 42.492 25.7952C41.8021 25.7952 40.9127 26.0959 40.9127 27.1866C40.9127 28.9242 45.3041 28.1909 45.3041 31.5505C45.3041 33.7459 43.5681 34.5786 41.5441 34.5786C40.4537 34.5786 39.9663 34.4343 38.9757 34.1915L39.1611 32.3832C39.8513 32.7562 40.6404 32.9999 41.4291 32.9999C42.1901 32.9999 43.2094 32.6122 43.2094 31.7082C43.2094 29.8001 38.8174 30.5889 38.8174 27.2732C38.8174 25.0345 40.5531 24.2165 42.3197 24.2165C43.1798 24.2165 43.9847 24.3309 44.7167 24.5755L44.5294 26.2255Z" fill="#23201F"/>
<path d="M47.0303 24.3882H52.9442V25.9662H49.0406V28.4355H52.6145V30.0142H49.0406V32.8266H52.9735V34.4059H47.0306V24.3882H47.0303Z" fill="#23201F"/>
<path d="M62.0541 34.2632C61.3224 34.4343 60.5324 34.5786 59.773 34.5786C56.5278 34.5786 54.2744 32.9566 54.2744 29.5695C54.2744 26.1392 56.3695 24.2165 59.773 24.2165C60.4314 24.2165 61.3068 24.3449 62.0394 24.6316L61.8958 26.3262C61.1351 25.8958 60.4461 25.7955 59.7278 25.7955C57.6621 25.7955 56.3695 27.3735 56.3695 29.4259C56.3695 31.4642 57.6343 32.9999 59.773 32.9999C60.5605 32.9999 61.4931 32.8269 61.9677 32.5823L62.0541 34.2632Z" fill="#23201F"/>
<path d="M63.4102 24.3882H65.4198V30.1722C65.4198 31.8811 65.9651 32.9999 67.5002 32.9999C69.0365 32.9999 69.5818 31.8811 69.5818 30.1722V24.3882H71.5902V30.7892C71.5902 33.4745 70.0686 34.5785 67.5002 34.5785C64.9318 34.5785 63.4102 33.4745 63.4102 30.7892V24.3882Z" fill="#23201F"/>
<path d="M73.5296 24.3881H75.6957C77.8484 24.3881 80.4205 24.3167 80.4205 27.1002C80.4205 28.2772 79.6306 29.2535 78.3548 29.4258V29.4551C78.9001 29.4978 79.2155 30.0431 79.4149 30.4878L81.0229 34.4061H78.7867L77.5729 31.2771C77.2868 30.5308 77.0313 30.2432 76.1834 30.2432H75.5377V34.4061H73.5293V24.3881H73.5296ZM75.7633 28.6648H76.4236C77.4127 28.6648 78.552 28.5212 78.552 27.2728C78.552 26.0665 77.4274 25.9662 76.4236 25.9662H75.7633V28.6648Z" fill="#23201F"/>
<path d="M82.4395 24.3882H88.3519V25.9662H84.4494V28.4355H88.0234V30.0142H84.4494V32.8266H88.3812V34.4059H82.4398V24.3882H82.4395Z" fill="#23201F"/>
<path d="M89.8758 24.5724H89.4639V24.3464H90.5321V24.5724H90.1208V25.6855H89.8762V24.5724H89.8758ZM90.8478 24.3467H91.2277L91.5782 25.2514L91.9223 24.3467H92.3021V25.6858H92.0575V24.6624H92.051L91.6748 25.6858H91.4751L91.0983 24.6624H91.0927V25.6858H90.8481V24.3467H90.8478Z" fill="#23201F"/>
<path d="M20.8556 37.7858C7.43688 31.6749 5.92676 18.597 5.92676 12.5718C5.92676 10.3378 6.14022 9.06324 6.16858 8.84667C6.76409 8.67154 13.7859 6.87939 20.8556 6.87939C27.9264 6.87939 34.9485 8.67154 35.5446 8.84667C35.572 9.06324 35.7855 10.3378 35.7855 12.5718C35.7858 18.597 34.2763 31.6749 20.8556 37.7858Z" fill="white"/>
<path d="M20.8555 37.7857C34.2758 31.6751 35.7853 18.597 35.7853 12.5718C35.7853 10.3377 35.5718 9.0632 35.5444 8.84662L34.3163 9.92608C34.3671 10.4334 34.4344 11.3496 34.4316 12.5718C34.4257 18.3904 32.9156 30.6056 20.8558 36.289V37.7857H20.8555Z" fill="#6D7A81"/>
<path d="M20.855 8.22778C14.6478 8.22778 8.55157 9.64816 7.39483 9.92613L6.16797 8.84667C6.76348 8.67154 13.7853 6.87939 20.855 6.87939C27.9258 6.87939 34.9479 8.67154 35.544 8.84667L34.3159 9.92613C33.1607 9.64816 27.0626 8.22778 20.855 8.22778Z" fill="url(#paint0_linear)"/>
<path d="M20.8553 36.2893C8.7968 30.6056 7.28668 18.3904 7.27951 12.5718C7.27764 11.3499 7.34526 10.4334 7.39543 9.92608L6.16858 8.84662C6.14022 9.0632 5.92676 10.3377 5.92676 12.5718C5.92676 18.597 7.43688 31.6748 20.8556 37.7857V36.2893H20.8553Z" fill="url(#paint1_linear)"/>
<path d="M20.8768 33.4094C20.8768 33.4094 29.5545 29.7696 31.2043 19.0352C31.2043 19.0352 31.9618 16.1449 31.6287 11.8333C31.6287 11.8333 24.778 12.3929 21.4682 12.3649C18.1585 12.3368 10.6095 12.0944 10.1239 11.8336C10.1236 11.8336 8.04294 26.8101 20.8768 33.4094Z" fill="url(#paint2_linear)"/>
<path d="M20.8559 32.5904C19.4651 31.969 10.8419 27.8447 10.8419 14.6671C10.8419 14.0149 10.8625 13.3402 10.9064 12.6438L9.77678 11.516C9.72723 12.3013 9.70417 13.0607 9.70511 13.7946C9.70511 28.2912 19.0581 32.9441 20.8556 33.721V32.5904H20.8559Z" fill="#A41D33"/>
<path d="M20.8565 13.1548C15.2703 13.1548 11.4137 12.7005 10.907 12.6438L9.77734 11.516C10.065 11.5462 14.4972 12.0835 20.8561 12.0835C27.2164 12.0835 31.6482 11.5462 31.9359 11.516L30.8069 12.6438C30.3008 12.7008 26.4445 13.1548 20.8565 13.1548Z" fill="#7D1320"/>
<path d="M20.8555 32.5904C22.2478 31.969 30.8701 27.8447 30.8701 14.6671C30.8701 14.0149 30.8504 13.3402 30.8062 12.6438L31.9352 11.516C31.9847 12.3013 32.0078 13.0607 32.0078 13.7946C32.0078 28.2912 22.6532 32.9441 20.8555 33.721V32.5904Z" fill="url(#paint3_linear)"/>
<path d="M18.9031 13.9289L22.6021 25.5973H19.3057L17.8769 19.0828L16.8782 25.5973H14.0371L15.8981 13.9289H18.9031Z" fill="white"/>
<path d="M25.9761 13.9289H23.0169L21.2949 19.0411L22.8892 24.0361L23.8998 19.0828L24.8468 25.5973H27.6741L25.9761 13.9289Z" fill="white"/>
</g>
<defs>
<linearGradient id="paint0_linear" x1="38.6732" y1="10.9897" x2="9.61426" y2="7.75075" gradientUnits="userSpaceOnUse">
<stop offset="0.25" stop-color="#A1ACB3"/>
<stop offset="0.65" stop-color="#B8C0C5"/>
<stop offset="1" stop-color="#D0D5D9"/>
</linearGradient>
<linearGradient id="paint1_linear" x1="5.92651" y1="23.3162" x2="20.8555" y2="23.3162" gradientUnits="userSpaceOnUse">
<stop offset="0.1648" stop-color="#A1ACB3"/>
<stop offset="0.3887" stop-color="#A8B2B9"/>
<stop offset="0.7545" stop-color="#BEC5CA"/>
<stop offset="1" stop-color="#D0D5D9"/>
</linearGradient>
<linearGradient id="paint2_linear" x1="16.1948" y1="8.32872" x2="28.2542" y2="29.2162" gradientUnits="userSpaceOnUse">
<stop stop-color="#B71F36"/>
<stop offset="0.16" stop-color="#B11F35"/>
<stop offset="0.3937" stop-color="#A11D31"/>
<stop offset="0.6726" stop-color="#87182A"/>
<stop offset="0.9842" stop-color="#660E1F"/>
<stop offset="1" stop-color="#640E1F"/>
</linearGradient>
<linearGradient id="paint3_linear" x1="35.3445" y1="17.7664" x2="17.4708" y2="27.5155" gradientUnits="userSpaceOnUse">
<stop offset="0.1" stop-color="#991A30"/>
<stop offset="0.9" stop-color="#C31F3F"/>
</linearGradient>
<clipPath id="clip0">
<rect width="95.0492" height="42.3679" fill="white" transform="translate(0.560547 0.53064)"/>
</clipPath>
</defs>
</svg>
