<svg width="134" height="48" viewBox="0 0 134 48" fill="none" xmlns="http://www.w3.org/2000/svg">
<path d="M80.7166 17.9854C80.0848 18.2903 79.2767 18.4641 78.4524 18.4641C76.8181 18.4641 75.4103 17.3516 75.4103 15.6398C75.4103 13.7858 76.609 12.6714 78.2432 12.6714C79.0977 12.6714 79.8775 12.7978 80.6386 13.2415V10.2597C79.7932 9.88206 78.8191 9.71021 77.7253 9.71021C74.0264 9.71021 71.2725 11.8567 71.2725 15.5761C71.2725 19.2721 74.0269 21.4215 77.7253 21.4215C78.6994 21.4215 79.788 21.2645 80.7171 20.9792V17.9854H80.7166Z" fill="#23201F"/>
<path d="M108 16.6926C108.234 17.9688 109.094 18.7371 110.961 18.7371C111.918 18.7371 113.234 18.5427 114.34 18.0348V20.7107C113.108 21.2081 111.711 21.4211 110.281 21.4211C106.628 21.4211 103.975 19.2493 103.975 15.5533C103.975 11.8563 106.201 9.70984 109.64 9.70984C113.741 9.70984 115.147 12.6519 115.147 15.9817V16.6921H108V16.6926ZM111.493 14.4992C111.493 13.2153 110.949 12.2479 109.64 12.2479C108.457 12.2479 107.988 13.2153 107.918 14.4992H111.493Z" fill="#23201F"/>
<path d="M120.241 16.6926C120.477 17.9688 121.337 18.7371 123.205 18.7371C124.158 18.7371 125.473 18.5427 126.578 18.0348V20.7107C125.35 21.2081 123.945 21.4211 122.522 21.4211C118.87 21.4211 116.217 19.2493 116.217 15.5533C116.217 11.8563 118.442 9.70984 121.885 9.70984C125.978 9.70984 127.39 12.6519 127.39 15.9817V16.6921H120.241V16.6926ZM123.732 14.4992C123.732 13.2153 123.195 12.2479 121.885 12.2479C120.701 12.2479 120.232 13.2153 120.159 14.4992H123.732Z" fill="#23201F"/>
<path d="M70.7269 21.1644L68.5421 4.86584H63.4952L61.0821 15.839L58.8457 4.86584H53.7763L51.4082 21.1644H55.3522L56.6571 10.9548L58.8787 21.1644H63.1391L65.5689 10.9548L66.8069 21.1644H70.7269Z" fill="#23201F"/>
<path d="M101.477 9.22584C101.477 8.0315 101.799 7.27612 102.91 7.13969C103.386 7.07985 103.863 7.14161 104.162 7.19666V4.34411C103.691 4.25795 103.1 4.15503 102.367 4.15503C99.1715 4.15503 97.541 5.60069 97.541 9.22584V9.97739H95.6152V12.9223H97.541V21.164H101.477V12.9228H103.861V9.97787H101.477V9.22584Z" fill="#23201F"/>
<path d="M96.5364 21.1644H92.1759L91.3511 17.704H86.5604L85.6738 21.1644H81.5039L86.3114 4.86584H91.792L96.5364 21.1644ZM87.3607 14.5766H90.6015L89.0362 8.03528L87.3607 14.5766Z" fill="#23201F"/>
<path d="M60.1924 29.7183C59.2221 29.2995 58.1412 29.0573 57.0627 29.0573C56.0029 29.0573 54.6367 29.5192 54.6367 31.1946C54.6367 33.8638 61.3825 32.7375 61.3825 37.8983C61.3825 41.2707 58.7157 42.5498 55.6065 42.5498C53.9316 42.5498 53.1829 42.3281 51.6611 41.9552L51.946 39.1773C53.0063 39.7503 54.2183 40.1247 55.4299 40.1247C56.5989 40.1247 58.1647 39.5292 58.1647 38.1405C58.1647 35.2095 51.418 36.421 51.418 31.3277C51.418 27.8888 54.0843 26.6322 56.798 26.6322C58.1192 26.6322 59.3557 26.8079 60.4801 27.1837L60.1924 29.7183Z" fill="#23201F"/>
<path d="M64.0352 26.8959H73.1198V29.32H67.1232V33.1132H72.6134V35.5382H67.1232V39.8584H73.1648V42.2845H64.0356V26.8959H64.0352Z" fill="#23201F"/>
<path d="M87.1127 42.0653C85.9887 42.3281 84.7753 42.5498 83.6087 42.5498C78.6236 42.5498 75.1621 40.0581 75.1621 34.8552C75.1621 29.5857 78.3804 26.6322 83.6087 26.6322C84.6202 26.6322 85.9648 26.8294 87.0902 27.2698L86.8695 29.873C85.7011 29.2119 84.6427 29.0577 83.5393 29.0577C80.366 29.0577 78.3804 31.4819 78.3804 34.6345C78.3804 37.7657 80.3234 40.1247 83.6087 40.1247C84.8183 40.1247 86.2511 39.859 86.9801 39.4832L87.1127 42.0653Z" fill="#23201F"/>
<path d="M89.1963 26.8959H92.2834V35.7809C92.2834 38.4061 93.1211 40.1246 95.4792 40.1246C97.8391 40.1246 98.6768 38.4061 98.6768 35.7809V26.8959H101.762V36.7287C101.762 40.8537 99.4246 42.5497 95.4792 42.5497C91.5338 42.5497 89.1963 40.8537 89.1963 36.7287V26.8959Z" fill="#23201F"/>
<path d="M104.741 26.8959H108.068C111.375 26.8959 115.326 26.7863 115.326 31.062C115.326 32.87 114.113 34.3698 112.153 34.6345V34.6795C112.991 34.745 113.475 35.5828 113.781 36.2659L116.251 42.285H112.816L110.952 37.4784C110.512 36.3319 110.12 35.8901 108.817 35.8901H107.825V42.285H104.74V26.8959H104.741ZM108.172 33.4655H109.186C110.706 33.4655 112.456 33.2448 112.456 31.3272C112.456 29.4741 110.728 29.32 109.186 29.32H108.172V33.4655Z" fill="#23201F"/>
<path d="M118.427 26.8959H127.509V29.32H121.514V33.1132H127.004V35.5382H121.514V39.8584H127.554V42.2845H118.427V26.8959H118.427Z" fill="#23201F"/>
<path d="M129.851 27.179H129.218V26.8319H130.859V27.179H130.227V28.8889H129.851V27.179H129.851ZM131.344 26.8324H131.927L132.466 28.222L132.994 26.8324H133.578V28.8893H133.202V27.3173H133.192L132.614 28.8893H132.307L131.729 27.3173H131.72V28.8893H131.344V26.8324H131.344Z" fill="#23201F"/>
<path d="M23.8264 47.4767C3.21331 38.0895 0.893555 18.0001 0.893555 8.74456C0.893555 5.3128 1.22146 3.35494 1.26502 3.02224C2.17981 2.75322 12.9662 0.000244141 23.8264 0.000244141C34.688 0.000244141 45.4749 2.75322 46.3906 3.02224C46.4327 3.35494 46.7606 5.3128 46.7606 8.74456C46.7611 18.0001 44.4423 38.0895 23.8264 47.4767Z" fill="white"/>
<path d="M23.8252 47.4767C44.4407 38.0899 46.7595 18.0001 46.7595 8.74453C46.7595 5.31277 46.4316 3.35491 46.3894 3.02222L44.5029 4.68041C44.5809 5.45973 44.6843 6.86709 44.68 8.74453C44.6709 17.6827 42.3512 36.4471 23.8257 45.1775V47.4767H23.8252Z" fill="#6D7A81"/>
<path d="M23.826 2.07143C14.2909 2.07143 4.92618 4.25332 3.14927 4.68032L1.26465 3.02212C2.17943 2.7531 12.9659 0.00012207 23.826 0.00012207C34.6876 0.00012207 45.4745 2.7531 46.3902 3.02212L44.5037 4.68032C42.7292 4.25332 33.3616 2.07143 23.826 2.07143Z" fill="url(#paint0_linear)"/>
<path d="M23.8259 45.178C5.30233 36.4471 2.98258 17.6827 2.97157 8.74453C2.9687 6.86757 3.07257 5.45973 3.14964 4.68041L1.26502 3.02222C1.22146 3.35491 0.893555 5.31277 0.893555 8.74453C0.893555 18.0001 3.21331 38.0895 23.8264 47.4767V45.178H23.8259Z" fill="url(#paint1_linear)"/>
<path d="M23.8582 40.7538C23.8582 40.7538 37.1884 35.1627 39.7226 18.6731C39.7226 18.6731 40.8863 14.2332 40.3746 7.60999C40.3746 7.60999 29.851 8.46972 24.7667 8.42664C19.6825 8.38356 8.08615 8.01113 7.34034 7.61046C7.33986 7.61046 4.14362 30.6165 23.8582 40.7538Z" fill="url(#paint2_linear)"/>
<path d="M23.8264 39.4957C21.69 38.5412 8.44359 32.2057 8.44359 11.9631C8.44359 10.9612 8.47518 9.92484 8.54268 8.85495L6.80741 7.12256C6.73129 8.32887 6.69587 9.49545 6.69731 10.6228C6.69731 32.8916 21.0648 40.039 23.826 41.2324V39.4957H23.8264Z" fill="#A41D33"/>
<path d="M23.8266 9.64002C15.2456 9.64002 9.32124 8.94208 8.54289 8.85495L6.80762 7.12256C7.24945 7.16899 14.0579 7.99426 23.8262 7.99426C33.5963 7.99426 40.4043 7.16899 40.8462 7.12256L39.1118 8.85495C38.3344 8.94256 32.4106 9.64002 23.8266 9.64002Z" fill="#7D1320"/>
<path d="M23.8262 39.4957C25.965 38.5412 39.21 32.2057 39.21 11.9631C39.21 10.9612 39.1798 9.92484 39.1118 8.85495L40.8462 7.12256C40.9223 8.32887 40.9577 9.49545 40.9577 10.6228C40.9577 32.8916 26.5878 40.039 23.8262 41.2324V39.4957Z" fill="url(#paint3_linear)"/>
<path d="M20.8274 10.8293L26.5095 28.7536H21.4458L19.251 18.7465L17.7168 28.7536H13.3525L16.2113 10.8293H20.8274Z" fill="white"/>
<path d="M31.6929 10.8293H27.1472L24.502 18.6823L26.951 26.3553L28.5034 18.7465L29.9581 28.7536H34.3013L31.6929 10.8293Z" fill="white"/>
<defs>
<linearGradient id="paint0_linear" x1="51.1971" y1="6.3141" x2="6.55863" y2="1.33865" gradientUnits="userSpaceOnUse">
<stop offset="0.25" stop-color="#A1ACB3"/>
<stop offset="0.65" stop-color="#B8C0C5"/>
<stop offset="1" stop-color="#D0D5D9"/>
</linearGradient>
<linearGradient id="paint1_linear" x1="0.893172" y1="25.2495" x2="23.8261" y2="25.2495" gradientUnits="userSpaceOnUse">
<stop offset="0.1648" stop-color="#A1ACB3"/>
<stop offset="0.3887" stop-color="#A8B2B9"/>
<stop offset="0.7545" stop-color="#BEC5CA"/>
<stop offset="1" stop-color="#D0D5D9"/>
</linearGradient>
<linearGradient id="paint2_linear" x1="16.666" y1="2.22654" x2="35.1908" y2="34.3126" gradientUnits="userSpaceOnUse">
<stop stop-color="#B71F36"/>
<stop offset="0.16" stop-color="#B11F35"/>
<stop offset="0.3937" stop-color="#A11D31"/>
<stop offset="0.6726" stop-color="#87182A"/>
<stop offset="0.9842" stop-color="#660E1F"/>
<stop offset="1" stop-color="#640E1F"/>
</linearGradient>
<linearGradient id="paint3_linear" x1="46.0834" y1="16.724" x2="18.6268" y2="31.7" gradientUnits="userSpaceOnUse">
<stop offset="0.1" stop-color="#991A30"/>
<stop offset="0.9" stop-color="#C31F3F"/>
</linearGradient>
</defs>
</svg>
