<svg width="104" height="42" viewBox="0 0 104 42" fill="none" xmlns="http://www.w3.org/2000/svg">
<path d="M104 38.2C104 40.2985 102.138 42 99.8402 42H4.15981C1.8623 42 0 40.2985 0 38.2V3.79997C0 1.70121 1.8623 0 4.15981 0H99.8402C102.138 0 104 1.70121 104 3.79997V38.2Z" fill="white"/>
<g clip-path="url(#clip0)">
<path d="M80.3351 22.6211C78.927 22.6211 77.7776 21.4717 77.7776 20.0636C77.7776 18.6412 78.927 17.5061 80.3351 17.5061C81.7432 17.5061 82.8926 18.6555 82.8926 20.0636C82.907 21.4717 81.7575 22.6211 80.3351 22.6211ZM80.3351 15.0635C77.5764 15.0635 75.335 17.3049 75.335 20.0636C75.335 22.8223 77.5764 25.0637 80.3351 25.0637C83.0938 25.0637 85.3352 22.8223 85.3352 20.0636C85.3352 17.2905 83.0938 15.0635 80.3351 15.0635Z" fill="black"/>
<path d="M57.3751 22.6211C55.967 22.6211 54.8176 21.4717 54.8176 20.0636C54.8176 18.6412 55.967 17.5061 57.3751 17.5061C58.7832 17.5061 59.9327 18.6555 59.9327 20.0636C59.9327 21.4717 58.7832 22.6211 57.3751 22.6211ZM57.3751 15.0635C54.6164 15.0635 52.375 17.3049 52.375 20.0636C52.375 22.8223 54.6164 25.0637 57.3751 25.0637C60.1338 25.0637 62.3753 22.8223 62.3753 20.0636C62.3609 17.2905 60.1338 15.0635 57.3751 15.0635Z" fill="black"/>
<path d="M75.0189 22.7648C74.7028 22.851 74.2143 22.9515 74.0419 22.9515C73.1798 22.9515 73.0074 22.6498 73.0074 21.8452V17.2186H75.0477V15.2933H73.0074V12.5634H70.7085L70.22 15.2933H68.6251H68.4958C67.1883 15.2933 66.1969 16.0979 65.5647 17.348L64.7744 15.2933H63.1221V24.8769H65.9382V20.7101C65.9382 18.6124 67.1883 17.2617 68.6538 17.2186H70.1912V21.9889C70.1912 24.2303 71.3407 25.0637 73.2085 25.0637C74.1712 25.0637 74.9183 24.8625 75.3638 24.7188L75.0189 22.7648Z" fill="black"/>
<path d="M88.7551 18.3107V24.8769H86.0107V15.279H87.6774L88.2378 16.7445" fill="black"/>
<path d="M88.2236 16.7589C89.057 15.7963 90.1921 15.0635 91.5283 15.0635C93.8129 15.0635 94.7468 16.8882 94.7468 18.5693V24.8769H91.9306V18.6555C91.9306 17.8365 91.241 17.3911 90.5082 17.3911C89.7179 17.3911 89.215 17.8509 88.7696 18.3251" fill="black"/>
<path d="M41.4404 11.8162H44.5871L48.8975 20.0205V11.8162H51.4982V24.8769H48.6533L44.0411 15.8393V24.8769H41.4404V11.8162Z" fill="black"/>
<path d="M94.7461 15.2933V15.4801H95.0047V16.3853H95.2202V15.4801H95.4932V15.2933H94.7461Z" fill="black"/>
<path d="M96.313 15.2933L96.1262 16.0117L95.9251 15.2933H95.6377V16.3853H95.8245V15.5232L96.0544 16.3853H96.198L96.4279 15.5232V16.3853H96.6004V15.2933H96.313Z" fill="black"/>
<path d="M44.8454 32.5783C44.8454 31.7449 44.5868 30.7679 43.6385 30.7679C43.1931 30.7679 42.7908 30.969 42.4316 31.3426V34.0869C42.762 34.4461 43.0638 34.6329 43.5235 34.6329C44.3713 34.6185 44.8454 33.8858 44.8454 32.5783ZM42.2448 34.6185L42.0436 35.2364H41.5264V28.0667H42.4316V30.6817C42.7333 30.3512 43.2218 30.0064 43.8396 30.0064C45.2046 30.0064 45.8081 31.357 45.8081 32.5783C45.8081 34.2162 44.9604 35.3226 43.696 35.3226C43.035 35.3226 42.5896 35.0496 42.2448 34.6185Z" fill="#A0A0A0"/>
<path d="M46.3828 30.1069H47.3024C47.3024 30.1069 48.5955 34.4318 48.5955 34.4461L49.8024 30.1069H50.6933L48.9691 35.6243C48.6674 36.5726 48.1645 37.1042 47.1731 37.1042C46.9719 37.1042 46.7564 37.0755 46.5552 37.018L46.6702 36.3715C46.7995 36.3858 46.9288 36.4289 47.1012 36.4289C47.6328 36.4289 48.0352 36.1847 48.2363 35.5525L46.3828 30.1069Z" fill="#A0A0A0"/>
<path d="M53.3809 34.4892L53.8263 33.857C54.2717 34.1875 54.9039 34.5467 55.8522 34.5467C56.7861 34.5467 57.3321 34.1013 57.3321 33.3254C57.3321 32.4633 56.6712 32.1903 55.7229 31.8598C54.7027 31.5006 53.7688 31.0408 53.7688 29.7333C53.7688 28.5695 54.6884 27.9373 55.8953 27.9373C56.7574 27.9373 57.2603 28.081 57.8206 28.3971L57.4471 29.0868C57.0016 28.8425 56.5275 28.6988 55.8809 28.6988C55.1194 28.6988 54.6022 29.0006 54.6022 29.719C54.6022 30.4805 55.105 30.7247 56.1539 31.0983C57.1597 31.4432 58.2229 31.8886 58.2229 33.2966C58.2229 34.5467 57.3321 35.2938 55.8666 35.2938C54.674 35.3226 53.855 34.8915 53.3809 34.4892Z" fill="#A0A0A0"/>
<path d="M58.7393 30.1069H59.6588C59.6588 30.1069 60.952 34.4318 60.952 34.4461L62.1589 30.1069H63.0497L61.3255 35.6243C61.0238 36.5726 60.5209 37.1042 59.5295 37.1042C59.3284 37.1042 59.1128 37.0755 58.9117 37.018L59.0266 36.3715C59.1559 36.3858 59.2852 36.4289 59.4577 36.4289C59.9893 36.4289 60.3916 36.1847 60.5928 35.5525L58.7393 30.1069Z" fill="#A0A0A0"/>
<path d="M69.4155 30.0063C70.4501 30.0063 70.7231 30.8828 70.7231 31.7305V35.2364H69.8179V31.7305C69.8179 31.2276 69.7316 30.7679 69.1138 30.7679C68.6971 30.7679 68.2517 31.0265 67.8063 31.4719V35.2364H66.9011V31.7305C66.9011 31.2276 66.8149 30.7679 66.1971 30.7679C65.766 30.7679 65.3062 31.0696 64.8896 31.4863V35.2364H63.9844V30.1069H64.516L64.7459 30.9403C65.22 30.423 65.7948 30.0063 66.4844 30.0063C67.1741 30.0063 67.4615 30.3799 67.6626 30.8972C68.1368 30.3656 68.7546 30.0063 69.4155 30.0063Z" fill="#A0A0A0"/>
<path d="M74.904 32.5926C73.8839 32.7794 73.223 32.9949 72.9643 33.311C72.835 33.4691 72.8063 33.6128 72.8063 33.8283C72.8063 34.3312 73.0505 34.6185 73.5965 34.6185C74.1138 34.6185 74.5736 34.3599 74.904 34.1156V32.5926ZM74.904 31.7736C74.904 31.084 74.6885 30.7391 73.9414 30.7391C73.4241 30.7391 72.9643 30.9403 72.4758 31.1845L72.1453 30.5811C72.677 30.2506 73.2517 30.0063 73.9988 30.0063C75.2776 30.0063 75.7805 30.696 75.7805 31.8455V35.2507H75.2632L75.0333 34.6329C74.6741 34.9921 74.1138 35.3226 73.4528 35.3226C72.5477 35.3226 71.8867 34.7622 71.8867 33.9001C71.8867 33.3398 72.1022 32.9375 72.5764 32.6501C73.0362 32.3627 73.8552 32.1616 74.904 32.0035V31.7736Z" fill="#A0A0A0"/>
<path d="M77.2891 30.1069H77.8207L78.0506 30.9546C78.5247 30.423 79.1282 30.0063 79.8897 30.0063C80.9961 30.0063 81.2834 30.8828 81.2834 31.7305V35.2364H80.3782V31.7305C80.3782 31.2276 80.2489 30.7679 79.588 30.7679C79.1138 30.7679 78.6109 31.0696 78.1943 31.5006V35.2364H77.2891V30.1069Z" fill="#A0A0A0"/>
<path d="M82.2461 30.7392V30.107H83.0363L83.2662 28.6414H83.9128V30.107H85.0623V30.7392H83.9128V33.9002C83.9128 34.3743 83.999 34.6329 84.4875 34.6329C84.6887 34.6329 84.8467 34.5898 85.0766 34.5324L85.2059 35.1502C85.0048 35.2364 84.6887 35.3083 84.3726 35.3083C83.4387 35.3083 83.022 34.8628 83.022 33.9433V30.7248H82.2461V30.7392Z" fill="#A0A0A0"/>
<path d="M89.0854 32.3196C89.0566 31.242 88.6974 30.6817 87.979 30.6817C87.3325 30.6817 86.9014 31.1845 86.8296 32.3196H89.0854ZM88.1083 34.6042C88.6974 34.6042 89.071 34.3743 89.5021 34.1013L89.8756 34.6473C89.3727 35.0496 88.913 35.3226 88.0221 35.3226C86.7003 35.3226 85.8525 34.3024 85.8525 32.6788C85.8525 31.0983 86.6715 30.0063 87.9503 30.0063C89.2722 30.0063 89.9762 30.9978 89.9762 32.7076V32.9231H86.7865C86.8583 34.0151 87.2463 34.6042 88.1083 34.6042Z" fill="#A0A0A0"/>
<path d="M90.8096 32.7076C90.8096 31.3857 91.3987 30.0063 92.9792 30.0063C93.6401 30.0063 94.1286 30.1644 94.5884 30.5523L94.2005 31.1558C93.87 30.9115 93.4821 30.7391 92.9935 30.7391C91.9159 30.7391 91.7579 31.8455 91.7579 32.7219C91.7579 33.5697 91.9447 34.6042 93.0223 34.6042C93.5395 34.6042 93.8987 34.403 94.2436 34.1156L94.6746 34.6473C94.301 35.0208 93.7838 35.3369 92.9792 35.3369C91.413 35.3226 90.8096 33.9863 90.8096 32.7076Z" fill="#A0A0A0"/>
<path d="M21.9716 13.368C19.2417 13.368 16.6698 14.4312 14.7301 16.371C12.7904 18.3107 11.7271 20.8826 11.7271 23.6125C11.7271 26.3425 12.7904 28.9144 14.7301 30.8541C16.6698 32.7938 19.2417 33.857 21.9716 33.857C24.7016 33.857 27.2735 32.7938 29.2132 30.8541C31.1385 28.9144 32.2018 26.3425 32.2162 23.6125C32.2162 20.8826 31.1529 18.3107 29.2132 16.371C27.2735 14.4456 24.7016 13.368 21.9716 13.368ZM21.9716 38.5842C13.7243 38.5842 7 31.8599 7 23.6125C7 15.3508 13.7243 8.64087 21.9716 8.64087C30.219 8.64087 36.9433 15.3508 36.9433 23.6125C36.9433 31.8599 30.219 38.5842 21.9716 38.5842Z" fill="#FFC20E"/>
<path d="M39.4441 6.32758H38.2803V7.4914H39.4441V6.32758Z" fill="#FFC20E"/>
<path d="M39.4441 3.99994H38.2803V5.16376H39.4441V3.99994Z" fill="#FFC20E"/>
<path d="M36.0959 7.49139H35.0039V8.62648H36.0959V7.49139Z" fill="white"/>
<path d="M33.9403 9.73285H32.834V10.8248H33.9403V9.73285Z" fill="black"/>
<path d="M37.3024 8.62646H36.0811V9.71845H37.3024V8.62646Z" fill="black"/>
<path d="M32.8342 8.68396H31.7422V9.73284H32.8342V8.68396Z" fill="black"/>
<path d="M36.0959 9.73285H35.0039V10.8248H36.0959V9.73285Z" fill="black"/>
<path d="M38.2793 5.1781H37.1299V6.34192H38.2793V5.1781Z" fill="black"/>
<path d="M37.1304 6.32758H35.0039V7.4914H37.1304V6.32758Z" fill="black"/>
<path d="M35.0037 7.49139H33.9404V9.73283H35.0037V7.49139Z" fill="black"/>
<path d="M33.9396 10.8248V11.9168H32.8332V10.8248H31.0085V11.6151H30.0314V12.5921H31.1234V13.6841H30.0314V12.5921H28.8676V14.3019H27.7756V15.3939H27.0429V16.4859H26.2382C25.333 17.8221 23.0916 21.9889 22.4019 23.6844C19.945 20.2647 18.034 18.9141 16.5397 18.4256C15.7351 18.1813 14.7581 19.0578 16.0943 20.4515C19.1835 23.8568 20.1605 26.6586 21.0944 28.9144C21.5973 30.0926 23.8244 30.2793 24.2698 29.0724C25.2181 26.5293 26.5974 23.6556 28.2354 21.3136V20.0923H29.1119V19.0003H30.0314V17.7216H31.1234V16.5003H30.0171V15.3795H31.1234V16.5003H32.201V15.3939H33.0631V14.0577H34.0402V13.1381H34.9741V10.8248H33.9396Z" fill="black"/>
</g>
<defs>
<clipPath id="clip0">
<rect width="89.6" height="34.5842" fill="white" transform="translate(7 4)"/>
</clipPath>
</defs>
</svg>
