<svg width="110" height="43" viewBox="0 0 110 43" fill="none" xmlns="http://www.w3.org/2000/svg">
<g clip-path="url(#clip0)">
<path d="M89.4075 23.4685C87.6977 23.4685 86.3019 22.0728 86.3019 20.363C86.3019 18.6357 87.6977 17.2574 89.4075 17.2574C91.1173 17.2574 92.5131 18.6532 92.5131 20.363C92.5305 22.0728 91.1348 23.4685 89.4075 23.4685ZM89.4075 14.2914C86.0577 14.2914 83.3359 17.0131 83.3359 20.363C83.3359 23.7128 86.0577 26.4345 89.4075 26.4345C92.7574 26.4345 95.4791 23.7128 95.4791 20.363C95.4791 16.9957 92.7574 14.2914 89.4075 14.2914Z" fill="black"/>
<path d="M61.5276 23.4685C59.8178 23.4685 58.4221 22.0728 58.4221 20.363C58.4221 18.6357 59.8178 17.2574 61.5276 17.2574C63.2375 17.2574 64.6332 18.6532 64.6332 20.363C64.6332 22.0728 63.2375 23.4685 61.5276 23.4685ZM61.5276 14.2914C58.1778 14.2914 55.4561 17.0131 55.4561 20.363C55.4561 23.7128 58.1778 26.4345 61.5276 26.4345C64.8775 26.4345 67.5992 23.7128 67.5992 20.363C67.5818 16.9957 64.8775 14.2914 61.5276 14.2914Z" fill="black"/>
<path d="M82.952 23.6432C82.5682 23.7478 81.975 23.87 81.7656 23.87C80.7188 23.87 80.5094 23.5036 80.5094 22.5265V16.9086H82.9869V14.5707H80.5094V11.2557H77.7179L77.1247 14.5707H75.1881H75.0311C73.4434 14.5707 72.2395 15.5477 71.4719 17.0656L70.5123 14.5707H68.5059V26.2079H71.9255V21.1482C71.9255 18.601 73.4434 16.9609 75.223 16.9086H77.0898V22.701C77.0898 25.4228 78.4856 26.4347 80.7537 26.4347C81.9227 26.4347 82.8299 26.1904 83.3708 26.016L82.952 23.6432Z" fill="black"/>
<path d="M99.6312 18.2346V26.2079H96.2988V14.5532H98.3227L99.0031 16.3328" fill="black"/>
<path d="M98.9863 16.3501C99.9983 15.1812 101.377 14.2914 102.999 14.2914C105.773 14.2914 106.907 16.5072 106.907 18.5485V26.2077H103.488V18.6532C103.488 17.6587 102.65 17.1178 101.76 17.1178C100.801 17.1178 100.19 17.6761 99.6493 18.2519" fill="black"/>
<path d="M42.1777 10.3484H45.9986L51.2328 20.3107V10.3484H54.3907V26.2078H50.9362L45.3357 15.2336V26.2078H42.1777V10.3484Z" fill="black"/>
<path d="M106.906 14.5707V14.7975H107.22V15.8967H107.482V14.7975H107.814V14.5707H106.906Z" fill="black"/>
<path d="M108.809 14.5707L108.582 15.443L108.338 14.5707H107.989V15.8967H108.216V14.8498L108.495 15.8967H108.67L108.949 14.8498V15.8967H109.158V14.5707H108.809Z" fill="black"/>
<path d="M46.3125 35.5593C46.3125 34.5474 45.9985 33.361 44.8469 33.361C44.3061 33.361 43.8176 33.6052 43.3814 34.0589V37.3913C43.7827 37.8274 44.1491 38.0542 44.7074 38.0542C45.7367 38.0368 46.3125 37.147 46.3125 35.5593ZM43.1546 38.0368L42.9103 38.787H42.2822V30.0809H43.3814V33.2563C43.7478 32.855 44.341 32.4363 45.0912 32.4363C46.7487 32.4363 47.4815 34.0763 47.4815 35.5593C47.4815 37.5483 46.4521 38.8917 44.9167 38.8917C44.1142 38.8917 43.5733 38.5602 43.1546 38.0368Z" fill="#A0A0A0"/>
<path d="M48.1797 32.5586H49.2963C49.2963 32.5586 50.8665 37.8102 50.8665 37.8276L52.3321 32.5586H53.4138L51.3202 39.2583C50.9538 40.4098 50.3431 41.0553 49.1393 41.0553C48.895 41.0553 48.6333 41.0204 48.389 40.9506L48.5286 40.1655C48.6857 40.183 48.8427 40.2353 49.052 40.2353C49.6976 40.2353 50.1861 39.9387 50.4304 39.171L48.1797 32.5586Z" fill="#A0A0A0"/>
<path d="M56.6768 37.8798L57.2176 37.1121C57.7585 37.5134 58.5262 37.9496 59.6777 37.9496C60.8117 37.9496 61.4747 37.4087 61.4747 36.4666C61.4747 35.4198 60.6721 35.0883 59.5206 34.687C58.2819 34.2508 57.1478 33.6925 57.1478 32.1048C57.1478 30.6916 58.2644 29.924 59.73 29.924C60.7768 29.924 61.3875 30.0984 62.0679 30.4823L61.6143 31.3197C61.0734 31.0231 60.4977 30.8486 59.7126 30.8486C58.7879 30.8486 58.1598 31.215 58.1598 32.0874C58.1598 33.0121 58.7704 33.3087 60.044 33.7623C61.2653 34.181 62.5564 34.7219 62.5564 36.4317C62.5564 37.9496 61.4747 38.8569 59.6951 38.8569C58.247 38.8917 57.2525 38.3683 56.6768 37.8798Z" fill="#A0A0A0"/>
<path d="M63.1836 32.5586H64.3002C64.3002 32.5586 65.8704 37.8102 65.8704 37.8276L67.336 32.5586H68.4177L66.3241 39.2583C65.9577 40.4098 65.347 41.0553 64.1432 41.0553C63.8989 41.0553 63.6372 41.0204 63.393 40.9506L63.5325 40.1655C63.6896 40.183 63.8466 40.2353 64.0559 40.2353C64.7015 40.2353 65.19 39.9387 65.4343 39.171L63.1836 32.5586Z" fill="#A0A0A0"/>
<path d="M76.1477 32.4365C77.4039 32.4365 77.7354 33.5008 77.7354 34.5302V38.7873H76.6362V34.5302C76.6362 33.9195 76.5316 33.3612 75.7813 33.3612C75.2754 33.3612 74.7345 33.6753 74.1937 34.2161V38.7873H73.0945V34.5302C73.0945 33.9195 72.9898 33.3612 72.2396 33.3612C71.7162 33.3612 71.1579 33.7276 70.6519 34.2336V38.7873H69.5527V32.5587H70.1983L70.4774 33.5706C71.0532 32.9425 71.7511 32.4365 72.5885 32.4365C73.426 32.4365 73.7749 32.8901 74.0192 33.5182C74.5949 32.8727 75.3452 32.4365 76.1477 32.4365Z" fill="#A0A0A0"/>
<path d="M82.8123 35.577C81.5736 35.8038 80.771 36.0655 80.457 36.4494C80.2999 36.6413 80.265 36.8157 80.265 37.0774C80.265 37.6881 80.5616 38.037 81.2246 38.037C81.8527 38.037 82.411 37.723 82.8123 37.4264V35.577ZM82.8123 34.5825C82.8123 33.7451 82.5506 33.3263 81.6434 33.3263C81.0153 33.3263 80.457 33.5706 79.8638 33.8672L79.4625 33.1344C80.108 32.7331 80.8059 32.4365 81.7132 32.4365C83.2659 32.4365 83.8766 33.274 83.8766 34.6697V38.8047H83.2485L82.9693 38.0545C82.5332 38.4907 81.8527 38.8919 81.0502 38.8919C79.951 38.8919 79.1484 38.2115 79.1484 37.1647C79.1484 36.4842 79.4101 35.9957 79.9859 35.6468C80.5442 35.2978 81.5387 35.0536 82.8123 34.8617V34.5825Z" fill="#A0A0A0"/>
<path d="M85.708 32.5587H86.3535L86.6327 33.588C87.2085 32.9425 87.9412 32.4365 88.8659 32.4365C90.2093 32.4365 90.5583 33.5008 90.5583 34.5302V38.7873H89.4591V34.5302C89.4591 33.9195 89.3021 33.3612 88.4995 33.3612C87.9238 33.3612 87.3131 33.7276 86.8072 34.251V38.7873H85.708V32.5587Z" fill="#A0A0A0"/>
<path d="M91.7275 33.3262V32.5585H92.6871L92.9663 30.7789H93.7514V32.5585H95.1472V33.3262H93.7514V37.1646C93.7514 37.7403 93.8561 38.0544 94.4493 38.0544C94.6935 38.0544 94.8855 38.002 95.1646 37.9322L95.3216 38.6825C95.0774 38.7871 94.6935 38.8744 94.3097 38.8744C93.1756 38.8744 92.6697 38.3335 92.6697 37.2169V33.3088H91.7275V33.3262Z" fill="#A0A0A0"/>
<path d="M100.033 35.2455C99.9981 33.937 99.5619 33.2565 98.6896 33.2565C97.9045 33.2565 97.3811 33.8672 97.2938 35.2455H100.033ZM98.8466 38.0196C99.5619 38.0196 100.016 37.7404 100.539 37.4089L100.993 38.0719C100.382 38.5604 99.8237 38.8919 98.7419 38.8919C97.1368 38.8919 96.1074 37.6532 96.1074 35.6817C96.1074 33.7625 97.1019 32.4365 98.6547 32.4365C100.26 32.4365 101.115 33.6404 101.115 35.7166V35.9783H97.2415C97.3287 37.3043 97.7998 38.0196 98.8466 38.0196Z" fill="#A0A0A0"/>
<path d="M102.126 35.7166C102.126 34.1114 102.841 32.4365 104.76 32.4365C105.563 32.4365 106.156 32.6284 106.715 33.0995L106.243 33.8323C105.842 33.5357 105.371 33.3263 104.778 33.3263C103.469 33.3263 103.277 34.6697 103.277 35.734C103.277 36.7634 103.504 38.0196 104.813 38.0196C105.441 38.0196 105.877 37.7753 106.296 37.4264L106.819 38.0719C106.366 38.5256 105.738 38.9094 104.76 38.9094C102.859 38.8919 102.126 37.2694 102.126 35.7166Z" fill="#A0A0A0"/>
<path d="M18.5373 12.2326C15.2223 12.2326 12.0993 13.5237 9.74395 15.8791C7.38859 18.2344 6.09751 21.3575 6.09751 24.6724C6.09751 27.9874 7.38859 31.1104 9.74395 33.4657C12.0993 35.8211 15.2223 37.1122 18.5373 37.1122C21.8522 37.1122 24.9753 35.8211 27.3306 33.4657C29.6685 31.1104 30.9596 27.9874 30.977 24.6724C30.977 21.3575 29.686 18.2344 27.3306 15.8791C24.9753 13.5412 21.8522 12.2326 18.5373 12.2326ZM18.5373 42.8523C8.52265 42.8523 0.357422 34.687 0.357422 24.6724C0.357422 14.6403 8.52265 6.49255 18.5373 6.49255C28.5519 6.49255 36.7171 14.6403 36.7171 24.6724C36.7171 34.687 28.5519 42.8523 18.5373 42.8523Z" fill="#FFC20E"/>
<path d="M39.754 3.68359H38.3408V5.09681H39.754V3.68359Z" fill="#FFC20E"/>
<path d="M39.754 0.857178H38.3408V2.27039H39.754V0.857178Z" fill="#FFC20E"/>
<path d="M35.6883 5.0968H34.3623V6.47512H35.6883V5.0968Z" fill="white"/>
<path d="M33.071 7.8186H31.7275V9.14458H33.071V7.8186Z" fill="black"/>
<path d="M37.1529 6.47522H35.6699V7.8012H37.1529V6.47522Z" fill="black"/>
<path d="M31.7273 6.5448H30.4014V7.81844H31.7273V6.5448Z" fill="black"/>
<path d="M35.6883 7.8186H34.3623V9.14458H35.6883V7.8186Z" fill="black"/>
<path d="M38.3391 2.28784H36.9434V3.70106H38.3391V2.28784Z" fill="black"/>
<path d="M36.9445 3.68359H34.3623V5.09681H36.9445V3.68359Z" fill="black"/>
<path d="M34.3614 5.0968H33.0703V7.81855H34.3614V5.0968Z" fill="black"/>
<path d="M33.07 9.14453V10.4705H31.7266V9.14453H29.5108V10.1041H28.3244V11.2905H29.6504V12.6165H28.3244V11.2905H26.9112V13.3667H25.5852V14.6927H24.6954V16.0187H23.7184C22.6192 17.6413 19.8974 22.7009 19.06 24.7597C16.0765 20.6073 13.7561 18.9672 11.9416 18.374C10.9645 18.0774 9.77814 19.1417 11.4007 20.8341C15.1518 24.969 16.3382 28.3712 17.4723 31.1104C18.083 32.5411 20.7872 32.7679 21.3281 31.3023C22.4796 28.2142 24.1545 24.7248 26.1435 21.8809V20.3979H27.2078V19.0719H28.3244V17.5191H29.6504V16.0361H28.3069V14.6753H29.6504V16.0361H30.9589V14.6927H32.0057V13.0701H33.1921V11.9535H34.3262V9.14453H33.07Z" fill="black"/>
</g>
<defs>
<clipPath id="clip0">
<rect width="108.8" height="41.9951" fill="white" transform="translate(0.357422 0.857178)"/>
</clipPath>
</defs>
</svg>
