<svg width="47" height="12" viewBox="0 0 47 12" fill="none" xmlns="http://www.w3.org/2000/svg">
<path d="M17.2524 2.66345H14.7141C14.5275 2.66345 14.3782 2.77257 14.3782 2.95444L13.333 9.31989C13.333 9.42901 13.4077 9.53813 13.5196 9.5745H13.557H14.7888C14.9754 9.5745 15.1247 9.46538 15.1247 9.28351L15.386 7.57394C15.4233 7.39207 15.5727 7.28295 15.722 7.28295H16.5432C18.2229 7.28295 19.1934 6.48272 19.4547 4.91864C19.5667 4.22753 19.4547 3.68192 19.1188 3.31818C18.7455 2.91807 18.1109 2.66345 17.2524 2.66345ZM17.551 5.02776C17.4017 5.93711 16.7298 5.93711 16.0206 5.93711H15.6473L15.9086 4.26391C15.9086 4.15478 16.0206 4.08204 16.1326 4.08204H16.3192C16.7671 4.08204 17.2151 4.08204 17.439 4.33665C17.551 4.48215 17.5883 4.70039 17.551 5.02776ZM24.9045 4.99139H23.6727C23.5607 4.99139 23.4861 5.06413 23.4487 5.17326L23.4114 5.50062L23.3368 5.3915C23.0755 5.02776 22.4782 4.88226 21.881 4.88226C20.5372 4.88226 19.3801 5.86436 19.1561 7.28295C19.0441 7.97405 19.1934 8.66516 19.604 9.10164C19.9773 9.53813 20.4999 9.72 21.1344 9.72C22.2169 9.72 22.8142 9.0289 22.8142 9.0289L22.7769 9.35626C22.7769 9.46538 22.8515 9.5745 22.9635 9.61088H23.0008H24.1206C24.3073 9.61088 24.4566 9.50176 24.4566 9.31989L25.1285 5.246C25.1285 5.10051 25.0538 4.99139 24.9045 4.99139ZM23.1875 7.28295C23.0755 7.97405 22.5156 8.41054 21.8063 8.41054C21.4331 8.41054 21.1718 8.30142 20.9851 8.08317C20.7985 7.86493 20.7238 7.57394 20.7985 7.24657C20.9105 6.55547 21.4704 6.0826 22.1796 6.0826C22.5156 6.0826 22.8142 6.19173 23.0008 6.40997C23.1501 6.66459 23.2248 6.95558 23.1875 7.28295ZM31.3995 4.99139H30.1677C30.0557 4.99139 29.9437 5.06413 29.8691 5.13688L28.1893 7.57394L27.4801 5.246C27.4428 5.10051 27.2935 4.99139 27.1442 4.99139H25.9497C25.8377 4.99139 25.7257 5.10051 25.7257 5.20963C25.7257 5.246 25.7257 5.246 25.7257 5.28238L27.0695 9.13802L25.8004 10.884C25.7257 10.9931 25.763 11.1022 25.8377 11.175C25.875 11.2113 25.9124 11.2113 25.9497 11.2113H27.1815C27.2935 11.2113 27.4055 11.1386 27.4801 11.0658L31.5861 5.31875C31.6608 5.20963 31.6235 5.10051 31.5488 5.02776C31.4741 4.99139 31.4368 4.99139 31.3995 4.99139Z" fill="#253B80"/>
<path d="M35.4672 2.66345H32.929C32.7423 2.66345 32.593 2.77257 32.593 2.95444L31.5479 9.31989C31.5479 9.42901 31.6225 9.53813 31.7345 9.57451H31.7718H33.0783C33.1903 9.57451 33.3022 9.50176 33.3396 9.35626L33.6382 7.53756C33.6755 7.35569 33.8248 7.24657 33.9741 7.24657H34.7953C36.4751 7.24657 37.4456 6.44634 37.7069 4.88226C37.8189 4.19116 37.7069 3.64555 37.3709 3.28181C36.9603 2.91807 36.3258 2.66345 35.4672 2.66345ZM35.7659 5.02776C35.6165 5.93711 34.9446 5.93711 34.2354 5.93711H33.8622L34.1234 4.26391C34.1234 4.15478 34.2354 4.08204 34.3474 4.08204H34.534C34.982 4.08204 35.4299 4.08204 35.6539 4.33665C35.7659 4.48215 35.8032 4.70039 35.7659 5.02776ZM43.082 4.99139H41.8502C41.7382 4.99139 41.6636 5.06413 41.6263 5.17326L41.5889 5.50062L41.5143 5.3915C41.253 5.02776 40.6557 4.88226 40.0585 4.88226C38.7147 4.88226 37.5576 5.86436 37.3336 7.28295C37.2216 7.97405 37.3709 8.66516 37.7815 9.10164C38.1548 9.53813 38.6774 9.72 39.312 9.72C40.3945 9.72 40.9917 9.0289 40.9917 9.0289L40.9544 9.35626C40.9544 9.46538 41.029 9.57451 41.141 9.61088H41.1783H42.2608C42.4475 9.61088 42.5968 9.50176 42.5968 9.31989L43.2687 5.246C43.306 5.10051 43.2313 4.99139 43.082 4.99139C43.1194 4.99139 43.1194 4.99139 43.082 4.99139ZM41.4023 7.28295C41.2903 7.97405 40.7304 8.41054 40.0212 8.41054C39.6852 8.41054 39.3866 8.30142 39.2 8.08317C39.0133 7.86493 38.9387 7.57394 39.0133 7.24657C39.1253 6.55547 39.6852 6.08261 40.3945 6.08261C40.7304 6.08261 41.029 6.19173 41.2157 6.40997C41.365 6.66459 41.4396 6.95558 41.4023 7.28295ZM44.5378 2.84532L43.4926 9.35626C43.4926 9.46538 43.5673 9.57451 43.6793 9.61088H43.7166H44.7618C44.9484 9.61088 45.0977 9.50176 45.0977 9.31989L46.1429 2.95444C46.1429 2.84532 46.0682 2.7362 45.9562 2.69983H45.9189H44.7244C44.6498 2.66345 44.5378 2.77257 44.5378 2.84532Z" fill="#179BD7"/>
<path d="M8.59172 3.0282C8.59172 3.06457 8.59172 3.13732 8.59172 3.21007C8.14379 5.538 6.53871 6.30185 4.52303 6.30185H3.47786C3.21657 6.30185 3.02993 6.48372 2.99261 6.70197L2.47002 9.93925L2.32071 10.8486C2.28338 10.9941 2.39537 11.1032 2.54468 11.1396H2.582H4.41105C4.63501 11.1396 4.82165 10.9941 4.85898 10.7759V10.7031L5.19492 8.59341L5.23225 8.48429C5.26958 8.26605 5.45622 8.12055 5.68018 8.12055H5.94147C7.69586 8.12055 9.07698 7.42945 9.48758 5.39251C9.67422 4.5559 9.56224 3.82843 9.11431 3.35556C8.965 3.24644 8.81569 3.10095 8.59172 3.0282Z" fill="#179BD7"/>
<path d="M8.14435 2.84532C7.99504 2.77257 7.84573 2.7362 7.69642 2.7362C7.39781 2.69983 7.09919 2.66345 6.80057 2.66345H4.03833C3.81437 2.66345 3.62773 2.80895 3.5904 3.02719L2.99316 6.62821V6.73734C3.03049 6.48272 3.25446 6.33722 3.47842 6.33722H4.52359C6.53927 6.33722 8.10703 5.537 8.59228 3.24544C8.59228 3.13631 8.59228 3.06357 8.59228 3.02719C8.4803 2.95444 8.33099 2.91807 8.21901 2.8817C8.18168 2.84532 8.14435 2.84532 8.14435 2.84532Z" fill="#222D65"/>
<path d="M3.58961 3.02797C3.62694 2.80972 3.81358 2.66423 4.03754 2.66423H6.79977C7.13572 2.66423 7.43434 2.7006 7.69563 2.73698C7.88227 2.77335 8.06891 2.80972 8.25554 2.88247C8.40485 2.91885 8.51683 2.99159 8.62882 3.02797C8.77813 2.19137 8.62882 1.60938 8.14356 1.06377C7.62098 0.481791 6.68779 0.227173 5.45598 0.227173H1.9472C1.72324 0.227173 1.49927 0.409043 1.46195 0.627286L0.00617544 9.64803C-0.031152 9.79352 0.0808303 9.97539 0.267468 9.97539H0.304795H2.46979L3.0297 6.62899C3.0297 6.62899 3.58961 3.02797 3.58961 3.02797Z" fill="#253B80"/>
</svg>
