<svg width="50" height="60" viewBox="0 0 50 60" fill="none" xmlns="http://www.w3.org/2000/svg">
<path d="M34.5184 29H15.7002V42.125H34.5184V29Z" stroke="#179BD7" stroke-width="3.76365" stroke-miterlimit="10" stroke-linecap="square"/>
<path d="M19.4648 29V23.375C19.4648 21.8832 20.0596 20.4524 21.1184 19.3975C22.1771 18.3426 23.613 17.75 25.1103 17.75V17.75C26.6076 17.75 28.0435 18.3426 29.1023 19.3975C30.161 20.4524 30.7558 21.8832 30.7558 23.375V29" stroke="#179BD7" stroke-width="3.76365" stroke-miterlimit="10" stroke-linecap="square"/>
<path d="M47.6911 34.625C47.6911 40.5924 45.312 46.3153 41.0771 50.5349C36.8421 54.7545 31.0983 57.125 25.1092 57.125C19.1202 57.125 13.3764 54.7545 9.14143 50.5349C4.9065 46.3153 2.52734 40.5924 2.52734 34.625V8.375L25.1092 2.75L47.6911 8.375V34.625Z" stroke="#179BD7" stroke-width="3.76365" stroke-miterlimit="10" stroke-linecap="square"/>
</svg>
