<svg width="34" height="39" viewBox="0 0 34 39" fill="none" xmlns="http://www.w3.org/2000/svg">
<path d="M23.25 19H10.75V27.75H23.25V19Z" stroke="#179BD7" stroke-width="2.44637" stroke-miterlimit="10" stroke-linecap="square"/>
<path d="M13.251 19V15.25C13.251 14.2554 13.6461 13.3016 14.3493 12.5983C15.0526 11.8951 16.0064 11.5 17.001 11.5V11.5C17.9955 11.5 18.9494 11.8951 19.6526 12.5983C20.3559 13.3016 20.751 14.2554 20.751 15.25V19" stroke="#179BD7" stroke-width="2.44637" stroke-miterlimit="10" stroke-linecap="square"/>
<path d="M32 22.75C32 26.7282 30.4197 30.5436 27.6066 33.3566C24.7936 36.1696 20.9783 37.75 17 37.75C13.0218 37.75 9.20645 36.1696 6.3934 33.3566C3.58035 30.5436 2 26.7282 2 22.75V5.25L17 1.5L32 5.25V22.75Z" stroke="#179BD7" stroke-width="2.44637" stroke-miterlimit="10" stroke-linecap="square"/>
</svg>
