<svg width="156" height="48" viewBox="0 0 156 48" fill="none" xmlns="http://www.w3.org/2000/svg">
<g clip-path="url(#clip0)">
<path d="M11.4537 33.832H9.63397C4.9767 33.832 1.21387 30.0764 1.21387 25.4659V0.428589H151.604C153.732 0.428589 155.428 2.13845 155.428 4.24525V43.9691C155.428 46.0759 153.701 47.7857 151.604 47.7857H28.7257C20.2131 47.7552 13.1192 41.7707 11.4537 33.832Z" fill="white"/>
<mask id="mask0" mask-type="alpha" maskUnits="userSpaceOnUse" x="3" y="2" width="50" height="29">
<path d="M45.9504 30.8439C45.9504 30.5588 45.9811 30.242 45.9811 29.9569C45.9811 19.9153 38.0868 11.7426 28.3495 11.7426C18.6122 11.7426 10.7179 19.8836 10.7179 29.9569C10.7179 30.242 10.7179 30.5588 10.7486 30.8439H3.74512V2.61963H52.8925V30.8439H45.9504Z" fill="white"/>
</mask>
<g mask="url(#mask0)">
<path d="M47.4559 29.8302H9.18241C6.69432 29.8302 4.66699 28.0246 4.66699 25.8072V-6.535C4.66699 -8.75239 6.69432 -10.558 9.18241 -10.558H47.4866C49.9747 -10.558 52.0021 -8.75239 52.0021 -6.535V25.8072C51.9713 28.0563 49.9747 29.8302 47.4559 29.8302Z" fill="#8CC540"/>
</g>
<path d="M21.9541 29.7941C21.9541 26.1513 24.8108 23.2053 28.3125 23.2053C31.845 23.2053 34.671 26.1513 34.671 29.7941H21.9541Z" fill="black"/>
<path d="M14.2148 29.8258C14.2148 37.8401 20.5426 44.3339 28.3447 44.3339C32.1229 44.3339 35.6861 42.8134 38.3585 40.0575L35.4711 37.1115C33.5666 39.0755 31.0478 40.1525 28.3447 40.1525C22.7849 40.1525 18.3002 35.5277 18.3002 29.8258C18.3002 24.124 22.8156 19.4991 28.3447 19.4991C33.9045 19.4991 38.4199 24.124 38.4199 29.8258H42.4746C42.4746 21.8432 36.1469 15.3177 28.3447 15.3177C20.5426 15.3177 14.2148 21.8115 14.2148 29.8258Z" fill="black"/>
<path d="M134.203 11.9695L140.961 16.1509C141.176 16.2776 141.237 16.5627 141.114 16.7844C141.084 16.8478 141.022 16.9112 140.961 16.9428L134.203 21.0925C133.988 21.2192 133.712 21.1559 133.589 20.9341C133.558 20.8708 133.527 20.7758 133.527 20.6807V12.3497C133.527 12.0963 133.742 11.8745 133.988 11.8745C134.05 11.9062 134.142 11.9379 134.203 11.9695Z" fill="black"/>
<path d="M56.5186 32.9169C56.5186 32.4734 56.6107 32.0299 56.7643 31.5865C56.9179 31.143 57.1329 30.7629 57.4401 30.3827C57.7472 30.0026 58.1158 29.7492 58.5459 29.5275C58.9759 29.3057 59.4674 29.2107 60.0203 29.2107C60.6654 29.2107 61.2183 29.3691 61.7097 29.6542C62.2012 29.9393 62.5391 30.3511 62.7541 30.8262L61.8633 31.4281C61.7712 31.2063 61.6483 31.0163 61.4947 30.8579C61.3411 30.6995 61.1876 30.5728 61.034 30.4778C60.8804 30.3827 60.6961 30.3194 60.5118 30.2877C60.3275 30.256 60.1432 30.2244 59.9896 30.2244C59.621 30.2244 59.2831 30.2877 59.0066 30.4461C58.7302 30.6045 58.4844 30.7945 58.3001 31.0796C58.1158 31.3331 57.9623 31.6181 57.8701 31.9349C57.778 32.2517 57.7165 32.5685 57.7165 32.8852C57.7165 33.2337 57.778 33.5821 57.9008 33.9306C58.0237 34.279 58.1773 34.5324 58.3923 34.7858C58.6073 35.0393 58.8531 35.2293 59.1295 35.3877C59.406 35.5461 59.7131 35.6094 60.051 35.6094C60.2353 35.6094 60.4196 35.5778 60.6039 35.5461C60.7882 35.5144 60.9725 35.4194 61.1261 35.3244C61.3104 35.2293 61.464 35.1026 61.5869 34.9442C61.7405 34.7858 61.8633 34.5958 61.9555 34.4057L62.9077 34.9442C62.7848 35.2293 62.6313 35.4827 62.4162 35.6728C62.2012 35.8945 61.9862 36.0529 61.7097 36.2113C61.4333 36.3697 61.1568 36.4647 60.8804 36.5598C60.6039 36.6548 60.2968 36.6865 60.0203 36.6865C59.5288 36.6865 59.0681 36.5598 58.638 36.338C58.208 36.1163 57.8701 35.8312 57.5629 35.4827C57.2558 35.1343 57.01 34.7225 56.8564 34.2473C56.7029 33.7722 56.5186 33.3921 56.5186 32.9169ZM67.116 36.7815C66.7166 36.7815 66.3173 36.7181 66.0101 36.5598C65.6723 36.4014 65.3958 36.2113 65.1501 35.9579C64.9043 35.7045 64.72 35.3877 64.5972 35.0709C64.4743 34.7225 64.4129 34.374 64.4129 33.9939C64.4129 33.6138 64.4743 33.2337 64.5972 32.9169C64.72 32.5685 64.9043 32.2834 65.1501 31.9983C65.3958 31.7449 65.6723 31.5231 66.0101 31.3964C66.348 31.238 66.7166 31.1747 67.1467 31.1747C67.546 31.1747 67.9146 31.238 68.2525 31.3964C68.5904 31.5548 68.8668 31.7449 69.1126 31.9983C69.3583 32.2517 69.5426 32.5368 69.6655 32.8852C69.7883 33.2337 69.8498 33.5821 69.8498 33.9306C69.8498 34.0256 69.8498 34.089 69.8498 34.1523C69.8498 34.2157 69.8498 34.279 69.8191 34.3424H65.5494C65.5801 34.5958 65.6108 34.8175 65.703 35.0076C65.7951 35.1976 65.918 35.356 66.0716 35.5144C66.2252 35.6728 66.3787 35.7678 66.5631 35.8312C66.7474 35.8945 66.9317 35.9579 67.1467 35.9579C67.3003 35.9579 67.4538 35.9262 67.5767 35.8945C67.7303 35.8629 67.8532 35.7995 67.976 35.7362C68.0989 35.6728 68.1911 35.5778 68.3139 35.4827C68.4368 35.3877 68.4675 35.261 68.5289 35.1343L69.4812 35.4194C69.2969 35.8312 68.9897 36.1796 68.5904 36.4331C68.1603 36.6548 67.6689 36.7815 67.116 36.7815ZM68.7132 33.5188C68.6825 33.297 68.6518 33.0753 68.5597 32.8852C68.4675 32.6952 68.3446 32.5368 68.2218 32.3784C68.0682 32.2517 67.9146 32.125 67.7303 32.0616C67.546 31.9983 67.331 31.9349 67.1467 31.9349C66.9624 31.9349 66.7474 31.9666 66.5631 32.0616C66.3787 32.125 66.2252 32.2517 66.0716 32.3784C65.918 32.5051 65.8258 32.6635 65.7337 32.8852C65.6415 33.107 65.5801 33.297 65.5801 33.5188H68.7132ZM74.6724 32.1883C74.2423 32.1883 73.8737 32.315 73.5358 32.5051C73.1979 32.6952 72.9522 32.9803 72.8293 33.3287V36.6548H71.7235V31.2063H72.7372V32.4417C72.9215 32.0616 73.1672 31.7765 73.4437 31.5548C73.7509 31.3331 74.058 31.2063 74.3959 31.1747H74.5802C74.6109 31.1747 74.6724 31.1747 74.7031 31.1747V32.1883H74.6724ZM79.4028 36.3697C79.2492 36.4331 79.0649 36.5281 78.8192 36.5914C78.5734 36.6865 78.297 36.7181 78.0205 36.7181C77.8362 36.7181 77.6826 36.6865 77.5291 36.6548C77.3755 36.5914 77.2526 36.5281 77.1297 36.4331C77.0069 36.338 76.9147 36.2113 76.8533 36.0529C76.7918 35.9262 76.7304 35.7362 76.7304 35.5144V32.0933H76.0239V31.2063H76.7304V29.4008H77.8362V31.2063H78.9728V32.0933H77.8362V35.1343C77.8362 35.3244 77.8977 35.4827 78.0205 35.5461C78.1127 35.6411 78.2663 35.6728 78.4199 35.6728C78.5734 35.6728 78.727 35.6411 78.8499 35.5778C79.0035 35.5144 79.0956 35.4827 79.1571 35.4511L79.4028 36.3697ZM81.1537 36.6548V31.2063H82.2595V36.6548H81.1537ZM81.1537 30.3194V29.0523H82.2595V30.3194H81.1537ZM84.9012 36.6548V32.22H84.1947V31.3331H84.9012V31.1113C84.9012 30.4461 85.0548 29.9076 85.3619 29.5275C85.6691 29.1473 86.0684 28.9573 86.5906 28.9573C86.8056 28.9573 87.0206 28.989 87.2357 29.0523C87.4507 29.1157 87.635 29.179 87.8193 29.3057L87.5736 30.161C87.4814 30.0976 87.3585 30.0343 87.2049 30.0026C87.0821 29.9709 86.9285 29.9393 86.8056 29.9393C86.5292 29.9393 86.3449 30.0343 86.1913 30.256C86.0684 30.4461 85.9763 30.7629 85.9763 31.143V31.3964H87.3278V32.2834H85.9763V36.7181H84.9012V36.6548Z" fill="black"/>
<path d="M88.7422 36.6549V31.2064H89.848V36.6549H88.7422ZM88.7422 30.3194V29.0524H89.848V30.3194H88.7422ZM94.5784 36.7816C94.1791 36.7816 93.7798 36.7182 93.4726 36.5598C93.1347 36.4014 92.8583 36.2114 92.6125 35.958C92.3668 35.7045 92.1825 35.3878 92.0596 35.071C91.9368 34.7542 91.8753 34.3741 91.8753 33.994C91.8753 33.6139 91.9368 33.2337 92.0596 32.917C92.1825 32.6002 92.3668 32.2834 92.6125 31.9983C92.8583 31.7449 93.1347 31.5232 93.4726 31.3965C93.8105 31.2381 94.1791 31.1747 94.6092 31.1747C95.0085 31.1747 95.3771 31.2381 95.715 31.3965C96.0529 31.5549 96.3293 31.7449 96.5751 31.9983C96.8208 32.2517 97.0051 32.5368 97.128 32.8853C97.2508 33.2337 97.3123 33.5822 97.3123 33.9306C97.3123 34.0257 97.3123 34.089 97.3123 34.1524C97.3123 34.2157 97.3123 34.2791 97.2815 34.3424H93.0119C93.0426 34.5958 93.0733 34.8176 93.1655 35.0076C93.2576 35.1977 93.3805 35.3561 93.5341 35.5145C93.6876 35.6412 93.8412 35.7679 94.0255 35.8313C94.2098 35.8946 94.3941 35.958 94.6092 35.958C94.7627 35.958 94.9163 35.9263 95.0392 35.8946C95.1621 35.8629 95.3156 35.7996 95.4385 35.7362C95.5614 35.6729 95.6535 35.5778 95.7764 35.4828C95.8686 35.3878 95.93 35.2611 95.9914 35.1344L96.9437 35.4194C96.7594 35.8313 96.4522 36.1797 96.0529 36.4331C95.6228 36.6549 95.1313 36.7816 94.5784 36.7816ZM96.1757 33.5188C96.145 33.2971 96.1143 33.0753 96.0221 32.8853C95.93 32.6952 95.8071 32.5368 95.6843 32.3785C95.5614 32.2201 95.3771 32.125 95.1928 32.0617C95.0085 31.9983 94.7935 31.935 94.6092 31.935C94.4249 31.935 94.2098 31.9667 94.0255 32.0617C93.8412 32.125 93.6876 32.2517 93.5341 32.3785C93.3805 32.5052 93.2883 32.6635 93.1962 32.8853C93.104 33.0753 93.0426 33.2971 93.0426 33.5188H96.1757ZM101.305 36.7816C100.937 36.7816 100.63 36.7182 100.323 36.5598C100.015 36.4014 99.7696 36.2114 99.5239 35.958C99.3089 35.7045 99.1246 35.3878 99.0017 35.071C98.8788 34.7226 98.8174 34.3424 98.8174 33.9623C98.8174 33.5822 98.8788 33.2337 99.0017 32.8853C99.1246 32.5368 99.2782 32.2517 99.4932 31.9983C99.7082 31.7449 99.9539 31.5232 100.23 31.3965C100.507 31.2381 100.845 31.1747 101.183 31.1747C101.613 31.1747 101.981 31.2698 102.288 31.4915C102.626 31.7132 102.872 31.9667 103.056 32.3151V29.0524H104.162V35.3244C104.162 35.4511 104.193 35.5462 104.224 35.6095C104.254 35.6729 104.346 35.7045 104.469 35.7045V36.6865C104.346 36.7182 104.254 36.7182 104.193 36.7182C104.131 36.7182 104.07 36.7182 104.009 36.7182C103.794 36.7182 103.609 36.6549 103.456 36.5281C103.302 36.4014 103.241 36.2431 103.21 36.0847L103.179 35.6729C102.995 36.0213 102.718 36.2747 102.381 36.4648C102.104 36.6865 101.736 36.7816 101.305 36.7816ZM101.582 35.7996C101.736 35.7996 101.92 35.7679 102.073 35.7045C102.227 35.6412 102.381 35.5778 102.503 35.4828C102.626 35.3878 102.749 35.2611 102.841 35.1344C102.933 35.0076 102.995 34.8493 103.056 34.7226V33.2971C102.995 33.1387 102.903 32.9486 102.811 32.8219C102.718 32.6952 102.565 32.5368 102.442 32.4418C102.319 32.3468 102.166 32.2517 101.981 32.1884C101.828 32.125 101.674 32.0934 101.49 32.0934C101.275 32.0934 101.06 32.1567 100.875 32.2517C100.691 32.3468 100.538 32.5052 100.384 32.6635C100.261 32.8219 100.138 33.0437 100.077 33.2654C100.015 33.4872 99.9539 33.7089 99.9539 33.9623C99.9539 34.2157 99.9846 34.4375 100.077 34.6592C100.169 34.8809 100.292 35.071 100.415 35.2294C100.568 35.3878 100.722 35.5145 100.937 35.6412C101.152 35.7362 101.367 35.7996 101.582 35.7996ZM110.183 36.6549V29.2741H113.193C113.531 29.2741 113.807 29.3375 114.084 29.4958C114.36 29.6226 114.575 29.8126 114.79 30.0344C114.975 30.2561 115.128 30.5095 115.251 30.7946C115.374 31.0797 115.405 31.3648 115.405 31.6816C115.405 31.9983 115.343 32.2834 115.251 32.5685C115.159 32.8536 115.005 33.107 114.821 33.3288C114.637 33.5505 114.391 33.7406 114.145 33.8673C113.899 33.994 113.592 34.0573 113.254 34.0573H111.319V36.6232H110.183V36.6549ZM111.319 33.0437H113.193C113.347 33.0437 113.5 33.012 113.623 32.9486C113.746 32.8853 113.869 32.7903 113.961 32.6635C114.053 32.5368 114.115 32.3785 114.176 32.2201C114.237 32.0617 114.268 31.8716 114.268 31.6816C114.268 31.4598 114.237 31.2698 114.176 31.1114C114.115 30.953 114.022 30.7946 113.93 30.6679C113.838 30.5412 113.684 30.4462 113.562 30.3828C113.439 30.3194 113.285 30.2878 113.132 30.2878H111.319V33.0437ZM120.289 32.1884C119.859 32.1884 119.49 32.3151 119.152 32.5052C118.814 32.6952 118.569 32.9803 118.446 33.3288V36.6549H117.34V31.2064H118.384V32.4418C118.569 32.0617 118.814 31.7766 119.091 31.5549C119.367 31.3331 119.705 31.2064 120.043 31.1747H120.197C120.227 31.1747 120.289 31.1747 120.319 31.1747V32.1884H120.289ZM122.07 36.6549V31.2064H123.176V36.6549H122.07ZM122.07 30.3194V29.0524H123.176V30.3194H122.07ZM126.985 36.6549L124.958 31.2064H126.094L127.599 35.7045L129.135 31.2064H130.18L128.152 36.6549H126.985ZM133.251 36.7816C133.006 36.7816 132.76 36.7499 132.545 36.6549C132.33 36.5598 132.145 36.4331 131.992 36.3064C131.838 36.148 131.715 35.958 131.623 35.7679C131.531 35.5462 131.5 35.3244 131.5 35.1027C131.5 34.8493 131.562 34.6275 131.654 34.4058C131.746 34.184 131.9 34.0257 132.115 33.8673C132.33 33.7089 132.545 33.5822 132.821 33.5188C133.098 33.4238 133.405 33.3921 133.712 33.3921C133.958 33.3921 134.204 33.4238 134.449 33.4555C134.695 33.4872 134.91 33.5505 135.094 33.6455V33.2021C135.094 32.7903 134.971 32.4735 134.756 32.2517C134.541 32.03 134.204 31.9033 133.804 31.9033C133.528 31.9033 133.251 31.9667 132.975 32.0617C132.698 32.1567 132.422 32.3151 132.145 32.5368L131.808 31.8083C132.483 31.3331 133.19 31.1114 133.927 31.1114C134.664 31.1114 135.217 31.3014 135.616 31.6816C136.016 32.0617 136.231 32.6002 136.231 33.3288V35.2927C136.231 35.5462 136.323 35.6729 136.538 35.6729V36.6549C136.415 36.6865 136.323 36.6865 136.262 36.6865C136.169 36.6865 136.108 36.6865 136.047 36.6865C135.832 36.6865 135.678 36.6232 135.555 36.5281C135.432 36.4014 135.371 36.2747 135.34 36.1163L135.309 35.7679C135.064 36.0847 134.787 36.3381 134.449 36.4965C134.019 36.6865 133.651 36.7816 133.251 36.7816ZM133.528 35.9263C133.804 35.9263 134.05 35.8629 134.296 35.7679C134.541 35.6729 134.726 35.5145 134.849 35.3561C135.002 35.2294 135.064 35.1027 135.064 34.9443V34.2157C134.879 34.1524 134.664 34.089 134.449 34.0257C134.234 33.9623 134.019 33.9623 133.835 33.9623C133.436 33.9623 133.128 34.0573 132.852 34.2157C132.606 34.4058 132.483 34.6275 132.483 34.9126C132.483 35.1977 132.575 35.4194 132.791 35.6095C133.006 35.8313 133.251 35.9263 133.528 35.9263ZM138.166 33.9306C138.166 33.5505 138.227 33.2021 138.35 32.8536C138.473 32.5052 138.657 32.2201 138.903 31.9667C139.149 31.7132 139.425 31.4915 139.763 31.3648C140.101 31.2064 140.47 31.1431 140.9 31.1431C141.453 31.1431 141.913 31.2698 142.313 31.5232C142.712 31.7766 142.989 32.0934 143.204 32.5052L142.129 32.8536C142.006 32.6319 141.821 32.4418 141.606 32.3151C141.391 32.1884 141.146 32.125 140.9 32.125C140.685 32.125 140.47 32.1567 140.285 32.2517C140.101 32.3468 139.917 32.4735 139.794 32.6319C139.671 32.7903 139.548 32.9803 139.456 33.2021C139.364 33.4238 139.333 33.6772 139.333 33.9306C139.333 34.184 139.364 34.4375 139.456 34.6592C139.548 34.8809 139.64 35.071 139.794 35.2611C139.948 35.4194 140.101 35.5462 140.285 35.6412C140.47 35.7362 140.685 35.7679 140.9 35.7679C141.023 35.7679 141.176 35.7362 141.299 35.7045C141.422 35.6729 141.545 35.6095 141.668 35.5462C141.791 35.4828 141.883 35.3878 141.975 35.2927C142.067 35.1977 142.129 35.1027 142.159 35.0076L143.234 35.3561C143.05 35.7679 142.774 36.1163 142.344 36.3698C141.944 36.6232 141.453 36.7499 140.9 36.7499C140.501 36.7499 140.101 36.6865 139.794 36.5281C139.456 36.3698 139.18 36.1797 138.934 35.8946C138.688 35.6412 138.504 35.3244 138.381 35.0076C138.258 34.6909 138.166 34.3108 138.166 33.9306ZM145.323 37.9536C145.415 37.9853 145.538 37.9853 145.63 38.017C145.722 38.017 145.815 38.0486 145.876 38.0486C145.968 38.0486 146.03 38.017 146.091 37.9853C146.152 37.9536 146.214 37.8903 146.275 37.7952C146.337 37.7002 146.398 37.5735 146.49 37.3834C146.583 37.1934 146.644 36.9716 146.736 36.6865L144.555 31.2381H145.692L147.32 35.6729L148.763 31.2381H149.808L147.412 37.9536C147.289 38.2704 147.105 38.5238 146.859 38.7455C146.582 38.9673 146.245 39.0623 145.845 39.0623C145.753 39.0623 145.692 39.0623 145.6 39.0623C145.507 39.0623 145.415 39.0306 145.292 38.999V37.9536H145.323Z" fill="black"/>
<path d="M64.1905 12.3387V23.3623H61.2416V12.3387H57.1562V9.55115H68.2758V12.3387H64.1905Z" fill="#231F20"/>
<path d="M77.9501 23.3623L75.0626 18.9275H72.7281V23.3623H69.7793V9.55115H75.9227C79.0866 9.55115 80.991 11.2617 80.991 14.1126V14.1443C80.991 16.3617 79.8238 17.7872 78.1036 18.4207L81.3904 23.3623H77.9501ZM78.0115 14.271C78.0115 12.9723 77.1207 12.307 75.677 12.307H72.7281V16.2667H75.7384C77.1821 16.2667 78.0115 15.4748 78.0115 14.3027V14.271Z" fill="#231F20"/>
<path d="M88.8876 23.5841C85.2937 23.5841 83.082 21.5251 83.082 17.4388V9.51953H86.0309V17.3438C86.0309 19.5928 87.1367 20.7649 88.9183 20.7649C90.7306 20.7649 91.8057 19.6245 91.8057 17.4388V9.51953H94.7545V17.3121C94.7852 21.5251 92.4815 23.5841 88.8876 23.5841Z" fill="#231F20"/>
<path d="M102.187 23.5841C100.16 23.5841 98.1016 22.8556 96.4736 21.3667L98.2245 19.2127C99.4225 20.2264 100.713 20.8916 102.248 20.8916C103.446 20.8916 104.184 20.3847 104.184 19.5928V19.5611C104.184 18.8009 103.723 18.3891 101.481 17.8189C98.7774 17.122 97.0265 16.3301 97.0265 13.6059V13.5742C97.0265 11.0717 98.9924 9.39282 101.726 9.39282C103.692 9.39282 105.351 10.0264 106.702 11.1667L105.167 13.4475C103.969 12.5922 102.801 12.0854 101.665 12.0854C100.528 12.0854 99.9447 12.6239 99.9447 13.2891V13.3208C99.9447 14.2394 100.528 14.5245 102.832 15.1264C105.566 15.8549 107.102 16.8686 107.102 19.2761V19.3077C107.102 22.032 105.074 23.5841 102.187 23.5841Z" fill="#231F20"/>
<path d="M114.628 12.3387V23.3623H111.68V12.3387H107.563V9.55115H118.714V12.3387H114.628Z" fill="#231F20"/>
<path d="M127.928 19.1176H120.771C121.047 20.4797 121.969 21.1766 123.289 21.1766C124.272 21.1766 124.979 20.8598 125.778 20.0996L127.436 21.6201C126.484 22.8555 125.102 23.584 123.228 23.584C120.126 23.584 117.853 21.3666 117.853 18.1039V18.0722C117.853 15.0629 119.941 12.5604 122.952 12.5604C126.392 12.5604 127.958 15.3163 127.958 18.3256V18.389C127.958 18.6741 127.928 18.8642 127.928 19.1176ZM122.952 14.9996C121.754 14.9996 120.955 15.8865 120.74 17.2486H125.132C124.948 15.9182 124.18 14.9996 122.952 14.9996Z" fill="#231F20"/>
</g>
<defs>
<clipPath id="clip0">
<rect width="155.429" height="47.3571" fill="white" transform="translate(0 0.428589)"/>
</clipPath>
</defs>
</svg>
