<svg width="21" height="19" viewBox="0 0 21 19" fill="none" xmlns="http://www.w3.org/2000/svg">
<g clip-path="url(#clip0)">
<rect y="4.5" width="23" height="2" fill="#BD3D44"/>
<rect y="8.5" width="23" height="2" fill="#BD3D44"/>
<rect y="12.5" width="23" height="2" fill="#BD3D44"/>
<rect y="16.5" width="23" height="2" fill="#BD3D44"/>
<rect y="2.5" width="23" height="2" fill="white"/>
<rect y="6.5" width="23" height="2" fill="white"/>
<rect y="10.5" width="23" height="2" fill="white"/>
<rect y="14.5" width="23" height="2" fill="white"/>
<rect y="0.5" width="23" height="2" fill="#BD3D44"/>
<path fill-rule="evenodd" clip-rule="evenodd" d="M0 0.5H13V10.5H0V0.5Z" fill="#192F5D"/>
<path fill-rule="evenodd" clip-rule="evenodd" d="M1.02054 0.891785L1.13704 1.27249H1.50593L1.20823 1.50651L1.32148 1.89071L1.02054 1.6532L0.722839 1.88721L0.836096 1.50651L0.535156 1.27249H0.910522L1.02054 0.891785ZM3.12065 0.891785L3.23391 1.27249H3.60604L3.3051 1.50651L3.41836 1.89071L3.12065 1.6532L2.81971 1.88721L2.93297 1.50651L2.63526 1.27249H3.00416L3.12065 0.891785ZM5.21752 0.891785L5.33402 1.27249H5.69968L5.40197 1.50651L5.51523 1.89071L5.21429 1.6532L4.91658 1.88721L5.02984 1.50651L4.7289 1.27249H5.10103L5.21752 0.891785ZM7.31763 0.891785L7.43089 1.27249H7.80302L7.50208 1.50651L7.61857 1.89071L7.31763 1.6532L7.01669 1.88721L7.13318 1.50651L6.83224 1.27249H7.20114L7.31763 0.891785ZM9.4145 0.891785L9.531 1.27249H9.89989L9.60219 1.50651L9.71544 1.89071L9.4145 1.6532L9.1168 1.88721L9.23006 1.50651L8.93235 1.27249H9.30125L9.4145 0.891785ZM11.5146 0.891785L11.6279 1.27249H12L11.6991 1.50651L11.8156 1.89071L11.5146 1.6532L11.2137 1.88721L11.3302 1.50651L11.0292 1.27249H11.4014L11.5146 0.891785ZM2.07222 1.85578L2.18547 2.23649H2.5576L2.25666 2.4705L2.36668 2.85121L2.07545 2.61719L1.77451 2.85121L1.8813 2.4705L1.59006 2.23649H1.95896L2.07222 1.85578ZM4.16909 1.85578L4.28558 2.23649H4.65447L4.35353 2.4705L4.47003 2.85121L4.16909 2.61719L3.86815 2.85121L3.98464 2.4705L3.6837 2.23649H4.05583L4.16909 1.85578ZM6.2692 1.85578L6.38245 2.23649H6.75458L6.45364 2.4705L6.5669 2.85121L6.2692 2.61719L5.96826 2.85121L6.08151 2.4705L5.78381 2.23649H6.1527L6.2692 1.85578ZM8.36607 1.85578L8.48256 2.23649H8.85145L8.55052 2.4705L8.66701 2.85121L8.36607 2.61719L8.06836 2.85121L8.18162 2.4705L7.88068 2.23649H8.25605L8.36607 1.85578ZM10.4662 1.85578L10.5794 2.23649H10.9516L10.6506 2.4705L10.7639 2.85121L10.4662 2.61719L10.1652 2.85121L10.2785 2.4705L9.98079 2.23649H10.3497L10.4662 1.85578ZM1.02054 2.81628L1.13704 3.20397H1.50593L1.20823 3.43798L1.32148 3.81869L1.02054 3.58119L0.722839 3.81869L0.836096 3.43449L0.535156 3.20048H0.910522L1.02054 2.81628ZM3.12065 2.81628L3.23391 3.20048H3.60604L3.3051 3.43449L3.41836 3.8152L3.12065 3.57769L2.81971 3.8152L2.93297 3.431L2.63526 3.19699H3.00416L3.12065 2.81628ZM5.21752 2.81628L5.33402 3.20048H5.69968L5.40197 3.43449L5.51523 3.8152L5.21429 3.57769L4.91658 3.8152L5.02984 3.431L4.7289 3.19699H5.10103L5.21752 2.81628ZM7.31763 2.81628L7.43089 3.20048H7.80302L7.50208 3.43449L7.61857 3.8152L7.31763 3.57769L7.01669 3.8152L7.13318 3.431L6.83224 3.19699H7.20114L7.31763 2.81628ZM9.4145 2.81628L9.531 3.20048H9.89989L9.60219 3.43449L9.71544 3.8152L9.4145 3.57769L9.1168 3.8152L9.23006 3.431L8.93235 3.19699H9.30125L9.4145 2.81628ZM11.5146 2.81628L11.6279 3.20048H12L11.6991 3.43449L11.8156 3.8152L11.5146 3.57769L11.2137 3.8152L11.3302 3.431L11.0292 3.19699H11.4014L11.5146 2.81628ZM2.07222 3.78027L2.18547 4.16098H2.5576L2.25666 4.39499L2.36992 4.77919L2.07222 4.54169L1.77128 4.7757L1.88453 4.39499L1.58683 4.16098H1.95572L2.07222 3.78027ZM4.16909 3.78027L4.28558 4.16098H4.65447L4.35353 4.39499L4.47003 4.77919L4.16909 4.54169L3.86815 4.7757L3.98464 4.39499L3.6837 4.16098H4.05583L4.16909 3.78027ZM6.2692 3.78027L6.38245 4.16098H6.75458L6.45364 4.39499L6.5669 4.77919L6.2692 4.54169L5.96826 4.7757L6.08151 4.39499L5.78381 4.16098H6.1527L6.2692 3.78027ZM8.36607 3.78027L8.48256 4.16098H8.85145L8.55375 4.39499L8.66701 4.77919L8.36607 4.54169L8.06836 4.7757L8.18162 4.39499L7.88068 4.16098H8.25605L8.36607 3.78027ZM10.4662 3.78027L10.5794 4.16098H10.9516L10.6506 4.39499L10.7639 4.77919L10.4662 4.54169L10.1652 4.7757L10.2785 4.39499L9.98079 4.16098H10.3497L10.4662 3.78027ZM1.02054 4.74427L1.13704 5.12497H1.50593L1.20823 5.35899L1.32148 5.74319L1.02054 5.50568L0.722839 5.73969L0.836096 5.35899L0.535156 5.12497H0.910522L1.02054 4.74427ZM3.12065 4.74427L3.23391 5.12497H3.60604L3.3051 5.35899L3.41836 5.73969L3.12065 5.50568L2.81971 5.73969L2.93297 5.35899L2.63526 5.12497H3.00416L3.12065 4.74427ZM5.21752 4.74427L5.33402 5.12497H5.69968L5.40197 5.35899L5.51523 5.74319L5.21429 5.50568L4.91658 5.73969L5.02984 5.35899L4.7289 5.12497H5.10103L5.21752 4.74427ZM7.31763 4.74427L7.43089 5.12497H7.80302L7.50208 5.35899L7.61857 5.74319L7.31763 5.50568L7.01669 5.73969L7.13318 5.35899L6.83224 5.12497H7.20114L7.31763 4.74427ZM9.4145 4.74427L9.531 5.12497H9.89989L9.60219 5.35899L9.71544 5.74319L9.4145 5.50568L9.1168 5.73969L9.23006 5.35899L8.93235 5.12497H9.30125L9.4145 4.74427ZM11.5146 4.74427L11.6279 5.12497H12L11.6991 5.35899L11.8156 5.74319L11.5146 5.50568L11.2137 5.73969L11.3302 5.35899L11.0292 5.12497H11.4014L11.5146 4.74427ZM2.07222 5.70826L2.18547 6.08897H2.5576L2.25666 6.32298L2.36992 6.70369L2.07222 6.46618L1.77128 6.70369L1.88453 6.31949L1.58683 6.08547H1.95572L2.07222 5.70826ZM4.16909 5.70826L4.28558 6.08897H4.65447L4.35353 6.32298L4.47003 6.70369L4.16909 6.46618L3.86815 6.70369L3.98464 6.31949L3.6837 6.08547H4.05583L4.16909 5.70826ZM6.2692 5.70826L6.38245 6.08897H6.75458L6.45364 6.32298L6.5669 6.70369L6.2692 6.46618L5.96826 6.70369L6.08151 6.31949L5.78381 6.08547H6.1527L6.2692 5.70826ZM8.36607 5.70826L8.48256 6.08897H8.85145L8.55375 6.32298L8.66701 6.70369L8.36607 6.46618L8.06836 6.70369L8.18162 6.31949L7.88068 6.08547H8.25605L8.36607 5.70826ZM10.4662 5.70826L10.5794 6.08897H10.9516L10.6506 6.32298L10.7639 6.70369L10.4662 6.46618L10.1652 6.70369L10.2785 6.31949L9.98079 6.08547H10.3497L10.4662 5.70826ZM1.02054 6.66876L1.13704 7.05296H1.50593L1.20823 7.28697L1.32148 7.66419L1.02054 7.43017L0.722839 7.66419L0.836096 7.28348L0.535156 7.04947H0.910522L1.02054 6.66876ZM3.12065 6.66876L3.23391 7.05296H3.60604L3.3051 7.28697L3.42159 7.66419L3.12065 7.43017L2.81971 7.66419L2.9362 7.28348L2.63526 7.04947H3.00416L3.12065 6.66876ZM5.21752 6.66876L5.33402 7.05296H5.69968L5.40197 7.28697L5.51523 7.66419L5.21429 7.43017L4.91658 7.66419L5.02984 7.28348L4.7289 7.04947H5.10103L5.21752 6.66876ZM7.31763 6.66876L7.43089 7.05296H7.80302L7.50208 7.28697L7.61857 7.66419L7.31763 7.43017L7.01669 7.66419L7.13318 7.28348L6.83224 7.04947H7.20114L7.31763 6.66876ZM9.4145 6.66876L9.531 7.05296H9.89989L9.60219 7.28697L9.71544 7.66419L9.4145 7.43017L9.1168 7.66419L9.23006 7.28348L8.93235 7.04947H9.30125L9.4145 6.66876ZM11.5146 6.66876L11.6279 7.05296H12L11.6991 7.28697L11.8156 7.66419L11.5146 7.43017L11.2137 7.66419L11.3302 7.28348L11.0292 7.04947H11.4014L11.5146 6.66876ZM2.07222 7.63275L2.18547 8.01346H2.5576L2.25666 8.24747L2.36992 8.63167L2.07222 8.39417L1.77128 8.62818L1.88453 8.24747L1.58683 8.01346H1.95572L2.07222 7.63275ZM4.16909 7.63275L4.28558 8.01346H4.65447L4.35353 8.24747L4.47003 8.63167L4.16909 8.39417L3.86815 8.62818L3.98464 8.24747L3.6837 8.01346H4.05583L4.16909 7.63275ZM6.2692 7.63275L6.38245 8.01346H6.75458L6.45364 8.24747L6.5669 8.63167L6.2692 8.39417L5.96826 8.62818L6.08151 8.24747L5.78381 8.01346H6.1527L6.2692 7.63275ZM8.36607 7.63275L8.48256 8.01346H8.85145L8.55375 8.24747L8.66701 8.63167L8.36607 8.39417L8.06836 8.62818L8.18162 8.24747L7.88068 8.01346H8.25605L8.36607 7.63275ZM10.4662 7.63275L10.5794 8.01346H10.9516L10.6506 8.24747L10.7639 8.63167L10.4662 8.39417L10.1652 8.62818L10.2785 8.24747L9.98079 8.01346H10.3497L10.4662 7.63275ZM1.02054 8.59675L1.13704 8.97745H1.50593L1.20823 9.21147L1.32148 9.59217L1.02054 9.35816L0.722839 9.59217L0.836096 9.20797L0.535156 8.97396H0.910522L1.02054 8.59675ZM3.12065 8.59675L3.23391 8.97745H3.60604L3.3051 9.21147L3.42159 9.59217L3.12065 9.35816L2.81971 9.59217L2.9362 9.20797L2.63526 8.97396H3.00416L3.12065 8.59675ZM5.21752 8.59675L5.33402 8.97745H5.69968L5.40844 9.21147L5.5217 9.59217L5.22076 9.35816L4.92306 9.59217L5.03631 9.20797L4.73537 8.97396H5.1075L5.21752 8.59675ZM7.31763 8.59675L7.43089 8.97745H7.80302L7.50208 9.21147L7.61857 9.59217L7.31763 9.35816L7.01669 9.59217L7.13318 9.20797L6.83224 8.97396H7.20114L7.31763 8.59675ZM9.4145 8.59675L9.531 8.97745H9.89989L9.60219 9.21147L9.71544 9.59217L9.4145 9.35816L9.1168 9.59217L9.23006 9.20797L8.93235 8.97396H9.30125L9.4145 8.59675ZM11.5146 8.59675L11.6279 8.97745H12L11.6991 9.21147L11.8156 9.59217L11.5146 9.35816L11.2137 9.59217L11.3302 9.20797L11.0292 8.97396H11.4014L11.5146 8.59675Z" fill="white"/>
</g>
<defs>
<clipPath id="clip0">
<rect y="0.5" width="21" height="18" rx="2" fill="white"/>
</clipPath>
</defs>
</svg>
