<svg width="34" height="34" viewBox="0 0 34 34" fill="none" xmlns="http://www.w3.org/2000/svg">
<path d="M14.7005 3.47421C15.9423 2.13801 18.0577 2.13801 19.2995 3.47421C20.0826 4.31678 21.2638 4.6636 22.3781 4.37816C24.1452 3.92548 25.9248 5.06912 26.2471 6.8646C26.4503 7.99678 27.2565 8.92715 28.3482 9.28945C30.0796 9.86402 30.9583 11.7882 30.2588 13.4729C29.8176 14.5352 29.9928 15.7538 30.7154 16.6488C31.8612 18.0682 31.5602 20.162 30.0609 21.201C29.1154 21.8563 28.604 22.9761 28.728 24.1196C28.9246 25.9332 27.5393 27.5319 25.7162 27.5954C24.5667 27.6354 23.531 28.301 23.017 29.33C22.2019 30.962 20.1723 31.558 18.6043 30.6258C17.6155 30.0379 16.3845 30.0379 15.3957 30.6258C13.8277 31.558 11.7981 30.962 10.983 29.33C10.469 28.301 9.43335 27.6354 8.28376 27.5954C6.46069 27.5319 5.07543 25.9332 5.27202 24.1196C5.39597 22.9761 4.88458 21.8563 3.93914 21.201C2.43981 20.162 2.13876 18.0682 3.28462 16.6488C4.00717 15.7538 4.18237 14.5352 3.74125 13.4729C3.04169 11.7882 3.92043 9.86402 5.65177 9.28945C6.7435 8.92715 7.54967 7.99678 7.75291 6.8646C8.07523 5.06912 9.85477 3.92548 11.6219 4.37816C12.7362 4.66361 13.9174 4.31678 14.7005 3.47421Z" fill="#1097DC" stroke="white" stroke-width="4"/>
<path d="M21.2934 12.2929L15.0004 18.5859L12.7074 16.2929C12.5188 16.1108 12.2662 16.01 12.004 16.0122C11.7418 16.0145 11.491 16.1197 11.3056 16.3051C11.1202 16.4905 11.015 16.7413 11.0127 17.0035C11.0105 17.2657 11.1112 17.5183 11.2934 17.7069L14.2934 20.7069C14.4809 20.8944 14.7352 20.9997 15.0004 20.9997C15.2656 20.9997 15.5199 20.8944 15.7074 20.7069L22.7074 13.7069C22.8896 13.5183 22.9904 13.2657 22.9881 13.0035C22.9858 12.7413 22.8806 12.4905 22.6952 12.3051C22.5098 12.1197 22.259 12.0145 21.9968 12.0122C21.7346 12.01 21.482 12.1108 21.2934 12.2929Z" fill="white"/>
</svg>
