<svg width="29" height="10" viewBox="0 0 29 10" fill="none" xmlns="http://www.w3.org/2000/svg">
<mask id="mask0" mask-type="alpha" maskUnits="userSpaceOnUse" x="0" y="0" width="29" height="10">
<path d="M0.5 9.75333V0.886353H28.6758V9.75333H0.5Z" fill="#293789"/>
</mask>
<g mask="url(#mask0)">
<path fill-rule="evenodd" clip-rule="evenodd" d="M14.4511 1.04305L12.5683 9.61937H10.2916L12.1748 1.04305H14.4511ZM24.0298 6.58083L25.2283 3.36039L25.9181 6.58083H24.0298ZM26.5702 9.61937H28.6758L26.8383 1.04305H24.8942C24.4575 1.04305 24.0892 1.2907 23.9252 1.67231L20.5094 9.61937H22.9003L23.3747 8.33861H26.296L26.5702 9.61888V9.61937ZM20.6281 6.81909C20.6382 4.55563 17.4155 4.43107 17.4382 3.4197C17.4447 3.11175 17.7456 2.78501 18.4037 2.70147C18.7303 2.65995 19.6289 2.62782 20.6487 3.08505L21.0482 1.26697C20.4998 1.07271 19.7954 0.886353 18.9184 0.886353C16.6684 0.886353 15.0845 2.05244 15.0709 3.72173C15.0568 4.95603 16.2015 5.6446 17.0644 6.05488C17.9509 6.47554 18.2493 6.74494 18.2452 7.12062C18.2397 7.69649 17.5378 7.95008 16.8832 7.96046C15.7381 7.97776 15.0739 7.65893 14.5446 7.41869L14.1321 9.29757C14.6639 9.53583 15.6455 9.74245 16.6644 9.75333C19.0558 9.75333 20.6205 8.60158 20.6281 6.81909V6.81909ZM11.1978 1.04305L7.50924 9.61937H5.10222L3.28739 2.77463C3.1767 2.35298 3.08111 2.19875 2.74601 2.02129C2.1991 1.73163 1.29496 1.46074 0.5 1.29169L0.554339 1.04305H4.42851C4.92159 1.04305 5.36586 1.36336 5.47806 1.91749L6.43705 6.88038L8.80633 1.04305H11.1978Z" fill="#293789"/>
</g>
</svg>
